<?xml version="1.0" encoding="utf-8"?>
<!-- Generator: Adobe Illustrator 24.0.1, SVG Export Plug-In . SVG Version: 6.00 Build 0)  -->
<svg version="1.1" id="Layer_2_1_" xmlns="http://www.w3.org/2000/svg" xmlns:xlink="http://www.w3.org/1999/xlink" x="0px" y="0px"
	 viewBox="0 0 400 400" style="enable-background:new 0 0 400 400;" xml:space="preserve">
<style type="text/css">
	.st0{fill:#FFFFFF;}
	.st1{fill:#BDBEC0;}
	.st2{fill:#006CB4;}
	.st3{fill:#F38223;}
</style>
<g id="Layer_2_2_">
	<path class="st0" d="M199.4,355l-24.6-31.9c-31.3-10.3-52.9-38.5-54.9-71.3L104.7,232c-14.5,6.3-29,16.1-29,16.1l-45.7-45.8
		l19.2-42.1L15,115.6h54.6l10.7-23.1l27.1-11l3-8.1l21.9,10l5.2-18.2l3.6-1.2c17.4-5.8,37.3-8.9,57.8-9c0.6,0,7.1,0.1,7.3,0.1
		c0.8,0,3.9,0.2,3.9,0.2c17.4,0.9,33.6,3.7,48.5,8.6l3.6,1.2l4.9,17.4l7.9-6.3L319.4,92l10.7,23.4h55.1l-34.8,44.9l18.9,41.5
		l-46.4,47.8c0,0-17-12.4-28.6-17l-14,18.1c-1.5,33.6-24.5,63.1-56.6,73L199.4,355z"/>
	<polygon class="st1" points="199.4,333 357.5,129 42.4,129 	"/>
	<path class="st2" d="M29.4,122.6l170.1,220.7l171.2-220.7H29.4z M357.5,129L199.4,332.9L42.4,129H357.5z"/>
	<path class="st2" d="M334.7,143.1L334.7,143.1l-0.2-0.2l-10.1-6.8l3.8-7.2l0.1-0.2l-0.1-0.2l-13.9-30.5l-0.1-0.3l-0.2-0.1
		l-37.4-13.1l-0.3-0.1l-0.2,0.2L266,92l-0.1,0.1l-0.1,0.1l-1.7,4.2c0,0-15.5-3.8-38.5-6.3c-2.3-0.2-8.6-0.8-18.4-1.5l-0.9-0.1
		l-0.9-0.1H205l-0.2,0.2l-7.4,7.4v-7.5c0,0-21.1,1.2-34.9,3.1c-13.8,1.9-27.4,5.2-27.4,5.2l-2.6-5.3l-0.1-0.2l-0.2-0.1l-17.6-8.1
		l-0.5-0.2l-0.2,0.5l-2.1,5.7l-0.5-1.2l-0.2-0.5l-0.5,0.2L85.4,98l-0.2,0.1L85,98.4L38.3,201.1l38.4,38.5l1.7-0.9
		c1.2-0.7,2.8-1.6,4.6-2.7c4.6-2.7,11-6.5,14-8l0.6-0.3c3.9-2,5.9-2.8,24.6-10.9l1.5-0.6c0,0,2.1-0.8,5.9-2.1
		c10.3-3.4,36.9-11.4,62.7-11.4h0.3c1,0,2.1,0,3.1,0c17.5,0.5,38,4.2,52.2,7.3c13.6,2.9,23.8,5.7,26.7,6.5l2,0.6
		c12.9,5,28.5,13.1,43.1,22.4l1.9,1.2l38.8-40L334.7,143.1z"/>
	<path class="st3" d="M330.5,146.7l-37.3-24.9l-6.5-18.2l11.6,4.1l4.6,11.4l17.6,5.7l-10.3-22.7L277,90.1l-6.1,4.8l11.1,35.8
		l35.5,25.2l9.2,22.7l-14.7-6.7l-5.1-14.1l-18.2-5.3l9.7,32c3,1,5.9,2.2,8.9,3.4c8.1,3.2,15.9,6.8,23.6,10.9
		c5.3,2.7,10.5,5.7,15.8,8.7l7.8-8L330.5,146.7z"/>
	<path class="st3" d="M78.6,163.6L91,152.5l3,3.5l-12.3,35.4c6.7-3,13.6-5.7,20.5-8.1l8.9-29.1l-7.7-12.8l15.9-15.2l9.3-31
		l-11.5-5.1l-10.3,29.2l-16.5,14.1l15.1-37.9l-16.1,6.4l-44.5,97.6l7,7c4.2-2.4,8.3-4.8,12.5-6.8L78.6,163.6z"/>
	<path class="st3" d="M191.4,94.2l-13.6,0.7l-6.4,73.1c5.8-0.6,11.6-0.9,17.5-1.2L191.4,94.2z"/>
	<path class="st3" d="M231.9,152.7l-15.8-0.9l-2.6-44.9l13.4,0.7l-1.5-12.3l-18.1-1.3l-8.1,8.1v56l8.5,8.7c8.7,0.3,17.4,0.9,26,2
		L231.9,152.7z"/>
	<path class="st3" d="M142,122.9l5.7,27.7l-3.7,21.1c5.6-1,11-2,16.7-2.7l0,0l8.8-73.4l-12.6,1.9l-4.2,24l-4.6-22.6l-14.8,3.7
		l-20.6,77c5.9-1.9,12.1-3.5,18.2-5.1L142,122.9z"/>
	<path class="st3" d="M252.2,148.7l4.5-6l6.5,5.3l6,27.2c6.3,1.5,12.5,3.4,18.7,5.3l-11.1-40l-11.6-9.4l6.6-8.7l-5.4-20.3L252.4,99
		l5.4,20.5l-8.7,11.6l-6.4-33.6l-13-1.6c0,0,6.5,49.3,9.5,73.7c5.8,0.8,11.6,1.9,17.4,3L252.2,148.7z"/>
	<path class="st1" d="M173.3,181.9c0,0,5.3-3.1,16.1-4.4l-0.3-8.5c-5.9,0.2-11.7,0.6-17.6,1C172.1,173.6,172.9,178.3,173.3,181.9"/>
	<path class="st1" d="M207.4,177.1c4.4,0.5,9,2,13.1,3.1c3.7,0.9,7.7,2.6,11,3.9l1.9-13c-8.7-1-16.8-1.7-25.6-2
		C207.5,171.6,207.5,175.2,207.4,177.1"/>
	<path class="st1" d="M151,197.6c5-3.7,8-7.5,13.3-10.8c-0.9-4.8-2.3-10.9-3.2-15.5c-5.7,0.8-11.4,1.6-17,2.8
		C146,181.2,148.8,190.5,151,197.6"/>
	<path class="st1" d="M235.8,186.7c4.9,2.8,8.7,6,13,10.3l0.9,0.7l6.8-22.7c-5.9-1.3-11.6-2.3-17.6-3.1L235.8,186.7z"/>
	<path class="st1" d="M257.6,206.4l16.5,3.8l13.8-27.1c-6.3-2.1-12.4-3.8-19-5.4L257.6,206.4z"/>
	<path class="st1" d="M125.9,210.2c4.3-1.5,10.2-3.7,15.8-5.2l-10.5-28.1c-6.4,1.5-12.1,3.2-18.2,5.1
		C116.8,191.4,121.2,201.2,125.9,210.2"/>
	<path class="st1" d="M101.2,220.3c0.9-0.8,10.2-4.9,16.6-7.4c-4.9-8.7-10.7-18.3-15.5-27.2c-6.8,2.4-13.2,5.1-19.9,8.1L101.2,220.3
		z"/>
	<path class="st1" d="M78.1,232.7c2.9-1.7,6.1-3.6,9.5-5.7l-21.7-25.6c-4.2,2.1-8.1,4.4-12.3,6.7L78.1,232.7z"/>
	<path class="st1" d="M282.5,213.6c13,5.1,31.3,15.2,38.5,20.1c3.2-3.2,21.4-22.3,24-24.8c-15.1-8.8-30.8-16.5-47.4-22.4
		L282.5,213.6z"/>
	<polygon class="st1" points="204.9,176.5 198.6,176.4 198.6,161.2 205.1,168 	"/>
	<path class="st2" d="M200.1,173.6c-40.5,0-73.1,32.8-73.1,73.1c0,40.5,32.8,73.1,73.1,73.1c40.5,0,73.1-32.8,73.1-73.1
		S240.6,173.6,200.1,173.6"/>
	<path class="st3" d="M204.5,179c-5.7,2-11,4.9-16.5,7.3c-3.7-2.2-5.7-2.7-8.2-4.4C187.7,179.3,196,178.8,204.5,179"/>
	<path class="st3" d="M257,210.1c-17.3-17.4-43.1-16.1-65.1-22.4c0,0,12.9-6.1,19.6-7.9C229.6,183.1,247,193.9,257,210.1"/>
	<path class="st3" d="M160.1,212.8c-16.6,25.4-18.8,56.8-5.7,84.3c-17-14.4-27.1-42.1-19.6-69C141.2,219.3,149.2,211.5,160.1,212.8"
		/>
	<path class="st3" d="M177.8,230.9c8.9,26.5,10.9,56,34.1,82.7c-18.1,3.7-35.9-1.7-50.2-10.8c-17.6-25.7-16-64.2,1.6-89.1
		C172,216.1,176.6,227.4,177.8,230.9"/>
	<path class="st3" d="M165.5,210.9c2.7-3.8,5.7-7.4,9.2-10.7c37.4,10.5,73.3,49.5,79.4,87.8c-1.7,2.9-6.1,6.8-8.9,9.9
		c-9.3,8.3-19.6,12.8-29.4,15.1c-17.5-18.2-23.3-41.7-29.6-65C181.3,229.9,178.1,216.5,165.5,210.9L165.5,210.9z"/>
	<path class="st3" d="M253.1,210.7c-18.2-16-43.4-14-64.6-21.3c-4.1,2.6-8.1,5.4-11.6,8.6c37.4,11.7,71.5,48.5,79.8,86.4
		c5.9-8.6,9.4-18.3,10.9-28.9C268.4,239.3,268.4,224.7,253.1,210.7"/>
	<path class="st3" d="M171.5,199.1c-3.6,3.5-6.3,6.8-9.2,10.9h-0.1c-9.9-2.2-17.7,2.9-24.1,9.3c3-7.5,9.3-16.6,15.9-22.4
		C160.2,197,164.7,196.9,171.5,199.1"/>
	<path class="st3" d="M174,196.8c3.6-3.2,7-5.9,11.2-8.5l-9.6-4.8c-6.4,2.7-13.3,6-18,10.3C165.1,194.6,168.1,195,174,196.8"/>
	<path class="st2" d="M189.7,83.9l-3,2.9l-5.1,0.3l-1.9-1.6l-2.4,2.1l-5.6,0.5l-2.4-2.3l3.2-21.7l4.2-0.6l-2.2,19.1l3-0.3l2.3-19.1
		l4.2-0.3l-1.7,19l2.9-0.3l1.5-18.9c1.7-0.2,2.7-0.2,4.2-0.3L189.7,83.9z"/>
	<path class="st2" d="M203.4,62v13.6h2.7l-0.2-13.4c0,0,2.8,0.1,4.1,0.2l0.6,15.2l-2.7,2.6h-0.9l0.1,6.5l-4.5-0.1l-0.1-6.5l-0.9-0.1
		l-2.7-2.8l0.2-15.2C200.6,62,203.4,62,203.4,62"/>
	<path class="st2" d="M169.6,64.4l-0.7,4.5l-5.1,0.9l-0.9,5.2c1.9-0.3,3-0.5,5.2-0.8c-0.3,2-0.3,2.7-0.8,4.5l-5.1,0.7l-0.9,5.1
		l5.2-0.8c0,0-0.5,3.4-0.8,4.9c-3.7,0.5-7.3,0.9-10.8,1.5c0,0,3.8-18.2,4.9-23.8L169.6,64.4z"/>
	<path class="st2" d="M150.5,91.1l-5.2,1l2.4-9.9l-1.6-3.6l-4.2,14.3l-5.1,1.2c2.1-7.7,4.4-15.4,6.5-23.1c1.7-0.6,3.1-0.9,4.6-1.5
		c0.6,1.3,2,3.8,2,3.8l1.3-4.9c0,0,3.2-0.9,5-1.3L150.5,91.1z"/>
	<path class="st2" d="M224.7,66.1c0.5,6.3,1.5,12.2,2.1,18l-2.3,3.5l-7.4-0.5l-2.7-2.9c-0.5-6.3-0.8-12.8-1.2-19
		c0.7-0.9,1.7-1.6,2.6-2.6l6.3,0.6L224.7,66.1z M217.7,67.2l1.4,14.7l2.7,0.2l-1.4-14.6L217.7,67.2z"/>
	<path class="st2" d="M248.8,68.3c0.9,3.6,2.7,10.9,2.7,10.9l1.7,0.3l0.9-1.2l-2.2-9.2c0,0,2.2,0.6,4.5,1.4l2.3,8.8l-1,1.5l2.1,2.2
		l3.1,10.8l-5.1-1.2l-2.1-7.5l-3.2-0.7l1.7,7.4l-5.1-1c-1.9-8.1-5.1-24-5.1-24S246.7,67.8,248.8,68.3"/>
	<path class="st2" d="M240.8,69.1l1.7,8.8l-0.9,1.4l1.7,2.1l1.5,8.7l-5-0.9l-1.4-7.3l-3-0.3l1,7.2l-5-0.6l-3.2-24.2l9.5,1.6
		L240.8,69.1z M233.6,69.6l0.9,6.1l2.8,0.3l-1.2-6L233.6,69.6z"/>
</g>
</svg>
