<?xml version="1.0" encoding="UTF-8" standalone="no"?>
<!-- Created with Inkscape (http://www.inkscape.org/) by Marsupilami -->
<svg
   xmlns:svg="http://www.w3.org/2000/svg"
   xmlns="http://www.w3.org/2000/svg"
   version="1.0"
   width="724"
   height="768"
   viewBox="0 0 114.98362 121.96295"
   id="svg4010">
  <defs
     id="defs4012" />
  <g
     transform="translate(-317.50819,-471.38071)"
     id="layer1">
    <path
       d="M 430.51047,497.16676 C 425.13449,494.46524 419.51144,492.16776 413.78276,490.2786 C 413.78276,487.61641 413.78276,480.01556 413.78276,480.01556 C 413.78276,478.88718 413.05088,477.8901 411.97693,477.5545 C 400.06459,473.83109 387.64562,471.94323 375.06488,471.94323 C 362.47742,471.94323 350.05115,473.83406 338.13086,477.56191 C 337.05684,477.89805 336.3254,478.89488 336.3254,480.02324 C 336.3254,480.02324 336.3254,487.62551 336.3254,490.28686 C 330.55628,492.19068 324.89603,494.5084 319.48673,497.2344 C 318.61867,497.67206 318.07071,498.56331 318.07071,499.53814 L 318.07071,544.7137 C 318.07071,545.68884 318.61867,546.58005 319.48673,547.01778 C 325.5049,550.0503 331.68708,552.56401 338.01047,554.55374 C 338.00089,554.89964 337.99537,555.2461 337.99537,555.59373 C 337.99537,576.13126 354.59513,592.78114 375.07218,592.78114 C 395.54913,592.78114 412.14989,576.13126 412.14989,555.59373 C 412.14989,555.24441 412.14372,554.89683 412.13475,554.55034 C 418.406,552.57523 424.53857,550.08524 430.51047,547.08483 C 431.37995,546.64766 431.92929,545.75588 431.92929,544.78018 L 431.92929,499.47129 C 431.92929,498.49563 431.37995,497.60384 430.51047,497.16676"
       id="path3028"
       style="fill:#ffffff;fill-opacity:1;fill-rule:nonzero;stroke:none" />
    <path
       d="M 430.51047,497.16676 C 425.13449,494.46524 419.51144,492.16776 413.78276,490.2786 C 413.78276,487.61641 413.78276,480.01556 413.78276,480.01556 C 413.78276,478.88718 413.05088,477.8901 411.97693,477.5545 C 400.06459,473.83109 387.64562,471.94323 375.06488,471.94323 C 362.47742,471.94323 350.05115,473.83406 338.13086,477.56191 C 337.05684,477.89805 336.3254,478.89488 336.3254,480.02324 C 336.3254,480.02324 336.3254,487.62551 336.3254,490.28686 C 330.55628,492.19068 324.89603,494.5084 319.48673,497.2344 C 318.61867,497.67206 318.07071,498.56331 318.07071,499.53814 L 318.07071,544.7137 C 318.07071,545.68884 318.61867,546.58005 319.48673,547.01778 C 325.5049,550.0503 331.68708,552.56401 338.01047,554.55374 C 338.00089,554.89964 337.99537,555.2461 337.99537,555.59373 C 337.99537,576.13126 354.59513,592.78114 375.07218,592.78114 C 395.54913,592.78114 412.14989,576.13126 412.14989,555.59373 C 412.14989,555.24441 412.14372,554.89683 412.13475,554.55034 C 418.406,552.57523 424.53857,550.08524 430.51047,547.08483 C 431.37995,546.64766 431.92929,545.75588 431.92929,544.78018 L 431.92929,499.47129 C 431.92929,498.49563 431.37995,497.60384 430.51047,497.16676 z"
       id="path3030"
       style="fill:none;stroke:#ffffff;stroke-width:1.12504148;stroke-linecap:butt;stroke-linejoin:miter;stroke-miterlimit:4;stroke-dasharray:none;stroke-opacity:1" />
    <path
       d="M 430.51047,497.16676 C 425.13449,494.46524 419.51144,492.16776 413.78276,490.2786 C 413.78276,487.61641 413.78276,480.01556 413.78276,480.01556 C 413.78276,478.88718 413.05088,477.8901 411.97693,477.5545 C 400.06459,473.83109 387.64562,471.94323 375.06488,471.94323 C 362.47742,471.94323 350.05115,473.83406 338.13086,477.56191 C 337.05684,477.89805 336.3254,478.89488 336.3254,480.02324 C 336.3254,480.02324 336.3254,487.62551 336.3254,490.28686 C 330.55628,492.19068 324.89603,494.5084 319.48673,497.2344 C 318.61867,497.67206 318.07071,498.56331 318.07071,499.53814 L 318.07071,544.7137 C 318.07071,545.68884 318.61867,546.58005 319.48673,547.01778 C 325.5049,550.0503 331.68708,552.56401 338.01047,554.55374 C 338.00089,554.89964 337.99537,555.2461 337.99537,555.59373 C 337.99537,576.13126 354.59513,592.78114 375.07218,592.78114 C 395.54913,592.78114 412.14989,576.13126 412.14989,555.59373 C 412.14989,555.24441 412.14372,554.89683 412.13475,554.55034 C 418.406,552.57523 424.53857,550.08524 430.51047,547.08483 C 431.37995,546.64766 431.92929,545.75588 431.92929,544.78018 L 431.92929,499.47129 C 431.92929,498.49563 431.37995,497.60384 430.51047,497.16676"
       id="path3032"
       style="fill:#004e2c;fill-opacity:1;fill-rule:nonzero;stroke:none" />
    <path
       d="M 428.78776,544.41506 C 422.59962,547.50283 416.23282,550.02439 409.71666,551.9843 C 407.90917,534.41165 393.06257,520.66056 375.0733,520.66056 C 357.08161,520.66056 342.23273,534.41334 340.42699,551.98711 C 333.86033,550.01315 327.44588,547.46903 321.21212,544.34974 C 321.21212,543.6377 321.21212,500.6049 321.21212,499.89903 C 326.94039,497.03338 332.9429,494.60439 339.06585,492.68934 C 339.30445,492.61454 339.46706,492.39285 339.46706,492.14248 C 339.46706,492.14248 339.46706,481.25281 339.46706,480.45316 C 350.96249,476.90168 362.93573,475.09419 375.06488,475.09419 C 387.18781,475.09419 399.1535,476.89923 410.64067,480.44579 C 410.64067,481.24546 410.64067,492.13506 410.64067,492.13506 C 410.64067,492.38591 410.80352,492.60734 411.04227,492.6817 C 417.12536,494.58299 423.09219,496.99235 428.78776,499.83301 C 428.78776,500.53943 428.78776,543.70301 428.78776,544.41506 z M 375.0733,589.38354 C 356.49717,589.38075 341.38445,574.22431 341.38445,555.59481 C 341.38445,536.96364 356.49717,521.80626 375.0733,521.80626 C 393.64782,521.80626 408.75957,536.96364 408.75957,555.59481 C 408.75957,574.22548 393.64782,589.38354 375.0733,589.38354 z M 429.61454,498.95941 C 423.89543,496.08566 417.89714,493.65674 411.78314,491.72244 C 411.78314,490.95278 411.78314,480.01556 411.78314,480.01556 C 411.78314,479.76498 411.62082,479.54329 411.38209,479.46896 C 399.66243,475.80579 387.44394,473.94851 375.06488,473.94851 C 362.6796,473.94851 350.45322,475.80855 338.72603,479.47613 C 338.48741,479.55124 338.32477,479.77268 338.32477,480.02324 C 338.32477,480.02324 338.32477,490.96079 338.32477,491.72985 C 332.17086,493.67853 326.13624,496.12723 320.38465,499.02599 C 320.19131,499.12333 320.06952,499.32138 320.06952,499.53814 L 320.06952,544.7137 C 320.06952,544.93056 320.19131,545.12886 320.38465,545.22633 C 326.84937,548.48419 333.50765,551.12575 340.32825,553.15945 C 340.27258,553.96448 340.24213,554.7757 340.24213,555.59481 C 340.24213,574.85528 355.8672,590.52716 375.0733,590.52886 C 394.27805,590.52886 409.90148,574.85753 409.90148,555.59481 C 409.90148,554.77461 409.87114,553.96169 409.81554,553.15606 C 416.58557,551.13645 423.19557,548.51799 429.61454,545.29226 C 429.80836,545.19534 429.92968,544.99704 429.92968,544.78018 L 429.92968,499.47129 C 429.92968,499.25451 429.80836,499.05654 429.61454,498.95941"
       id="path3034"
       style="fill:#fbbd13;fill-opacity:1;fill-rule:nonzero;stroke:none" />
    <path
       d="M 428.78776,544.41506 C 422.59962,547.50283 416.23282,550.02439 409.71666,551.9843 C 407.90917,534.41165 393.06257,520.66056 375.0733,520.66056 C 357.08161,520.66056 342.23273,534.41334 340.42699,551.98711 C 333.86033,550.01315 327.44588,547.46903 321.21212,544.34974 C 321.21212,543.6377 321.21212,500.6049 321.21212,499.89903 C 326.94039,497.03338 332.9429,494.60439 339.06585,492.68934 C 339.30445,492.61454 339.46706,492.39285 339.46706,492.14248 C 339.46706,492.14248 339.46706,481.25281 339.46706,480.45316 C 350.96249,476.90168 362.93573,475.09419 375.06488,475.09419 C 387.18781,475.09419 399.1535,476.89923 410.64067,480.44579 C 410.64067,481.24546 410.64067,492.13506 410.64067,492.13506 C 410.64067,492.38591 410.80352,492.60734 411.04227,492.6817 C 417.12536,494.58299 423.09219,496.99235 428.78776,499.83301 C 428.78776,500.53943 428.78776,543.70301 428.78776,544.41506 z M 375.0733,589.38354 C 356.49717,589.38075 341.38445,574.22431 341.38445,555.59481 C 341.38445,536.96364 356.49717,521.80626 375.0733,521.80626 C 393.64782,521.80626 408.75957,536.96364 408.75957,555.59481 C 408.75957,574.22548 393.64782,589.38354 375.0733,589.38354 z M 429.61454,498.95941 C 423.89543,496.08566 417.89714,493.65674 411.78314,491.72244 C 411.78314,490.95278 411.78314,480.01556 411.78314,480.01556 C 411.78314,479.76498 411.62082,479.54329 411.38209,479.46896 C 399.66243,475.80579 387.44394,473.94851 375.06488,473.94851 C 362.6796,473.94851 350.45322,475.80855 338.72603,479.47613 C 338.48741,479.55124 338.32477,479.77268 338.32477,480.02324 C 338.32477,480.02324 338.32477,490.96079 338.32477,491.72985 C 332.17086,493.67853 326.13624,496.12723 320.38465,499.02599 C 320.19131,499.12333 320.06952,499.32138 320.06952,499.53814 L 320.06952,544.7137 C 320.06952,544.93056 320.19131,545.12886 320.38465,545.22633 C 326.84937,548.48419 333.50765,551.12575 340.32825,553.15945 C 340.27258,553.96448 340.24213,554.7757 340.24213,555.59481 C 340.24213,574.85528 355.8672,590.52716 375.0733,590.52886 C 394.27805,590.52886 409.90148,574.85753 409.90148,555.59481 C 409.90148,554.77461 409.87114,553.96169 409.81554,553.15606 C 416.58557,551.13645 423.19557,548.51799 429.61454,545.29226 C 429.80836,545.19534 429.92968,544.99704 429.92968,544.78018 L 429.92968,499.47129 C 429.92968,499.25451 429.80836,499.05654 429.61454,498.95941 z"
       id="path3036"
       style="fill:none;stroke:#fbbd13;stroke-width:0.24750912;stroke-linecap:butt;stroke-linejoin:miter;stroke-miterlimit:4;stroke-dasharray:none;stroke-opacity:1" />
    <path
       d="M 390.03221,544.85 C 389.8598,544.62916 389.59637,544.48836 389.29586,544.48836 C 389.16721,544.48836 389.04363,544.5148 388.93298,544.56269 L 388.93186,544.56104 C 386.66098,545.53391 384.75067,547.19189 383.46383,549.27791 L 392.37674,549.27791 C 391.79595,547.68591 391.00003,546.20035 390.03221,544.85"
       id="path3038"
       style="fill:#fbbd13;fill-opacity:1;fill-rule:nonzero;stroke:none" />
    <path
       d="M 390.03221,544.85 C 389.8598,544.62916 389.59637,544.48836 389.29586,544.48836 C 389.16721,544.48836 389.04363,544.5148 388.93298,544.56269 L 388.93186,544.56104 C 386.66098,545.53391 384.75067,547.19189 383.46383,549.27791 L 392.37674,549.27791 C 391.79595,547.68591 391.00003,546.20035 390.03221,544.85 z"
       id="path3040"
       style="fill:none;stroke:#fbbd13;stroke-width:0.24750912;stroke-linecap:butt;stroke-linejoin:miter;stroke-miterlimit:4;stroke-dasharray:none;stroke-opacity:1" />
    <path
       d="M 361.26985,544.51819 C 361.17415,544.48664 361.07351,544.46749 360.96788,544.46749 C 360.647,544.46749 360.36397,544.62916 360.19478,544.87539 L 360.19478,544.87423 C 359.23429,546.21954 358.44552,547.69549 357.86847,549.27791 L 366.83957,549.27791 C 365.53302,547.15805 363.58414,545.48546 361.26985,544.51819"
       id="path3042"
       style="fill:#fbbd13;fill-opacity:1;fill-rule:nonzero;stroke:none" />
    <path
       d="M 361.26985,544.51819 C 361.17415,544.48664 361.07351,544.46749 360.96788,544.46749 C 360.647,544.46749 360.36397,544.62916 360.19478,544.87539 L 360.19478,544.87423 C 359.23429,546.21954 358.44552,547.69549 357.86847,549.27791 L 366.83957,549.27791 C 365.53302,547.15805 363.58414,545.48546 361.26985,544.51819 z"
       id="path3044"
       style="fill:none;stroke:#fbbd13;stroke-width:0.24750912;stroke-linecap:butt;stroke-linejoin:miter;stroke-miterlimit:4;stroke-dasharray:none;stroke-opacity:1" />
    <path
       d="M 357.75464,561.59396 C 358.32731,563.25531 359.13228,564.80789 360.12703,566.2157 L 360.12893,566.21514 C 360.29679,566.46133 360.58122,566.623 360.89936,566.623 C 361.02383,566.623 361.14207,566.59938 361.24985,566.55315 C 363.64256,565.56109 365.6452,563.80909 366.95506,561.59396 L 357.75464,561.59396"
       id="path3046"
       style="fill:#fbbd13;fill-opacity:1;fill-rule:nonzero;stroke:none" />
    <path
       d="M 357.75464,561.59396 C 358.32731,563.25531 359.13228,564.80789 360.12703,566.2157 L 360.12893,566.21514 C 360.29679,566.46133 360.58122,566.623 360.89936,566.623 C 361.02383,566.623 361.14207,566.59938 361.24985,566.55315 C 363.64256,565.56109 365.6452,563.80909 366.95506,561.59396 L 357.75464,561.59396 z"
       id="path3048"
       style="fill:none;stroke:#fbbd13;stroke-width:0.24750912;stroke-linecap:butt;stroke-linejoin:miter;stroke-miterlimit:4;stroke-dasharray:none;stroke-opacity:1" />
    <path
       d="M 388.99592,566.52441 C 389.10938,566.57286 389.23124,566.59938 389.36155,566.59938 C 389.68115,566.59938 389.96425,566.43769 390.13278,566.19204 L 390.13503,566.19204 C 391.12248,564.79041 391.92289,563.2474 392.48904,561.59396 L 383.35037,561.59396 C 384.64788,563.791 386.62784,565.53291 388.99592,566.53005 L 388.99592,566.52441"
       id="path3050"
       style="fill:#fbbd13;fill-opacity:1;fill-rule:nonzero;stroke:none" />
    <path
       d="M 388.99592,566.52441 C 389.10938,566.57286 389.23124,566.59938 389.36155,566.59938 C 389.68115,566.59938 389.96425,566.43769 390.13278,566.19204 L 390.13503,566.19204 C 391.12248,564.79041 391.92289,563.2474 392.48904,561.59396 L 383.35037,561.59396 C 384.64788,563.791 386.62784,565.53291 388.99592,566.53005 L 388.99592,566.52441 z"
       id="path3052"
       style="fill:none;stroke:#fbbd13;stroke-width:0.24750912;stroke-linecap:butt;stroke-linejoin:miter;stroke-miterlimit:4;stroke-dasharray:none;stroke-opacity:1" />
    <path
       d="M 387.60461,568.73895 C 387.60461,568.44545 387.44731,568.18915 387.21087,568.04719 C 384.48386,566.64273 382.27137,564.37241 380.94016,561.59396 L 376.18036,561.59396 L 376.18036,572.62326 C 376.18036,573.30659 376.7331,573.86043 377.41499,573.86043 C 377.4324,573.86043 377.44813,573.86043 377.46386,573.85926 C 381.24684,573.37591 384.67147,571.74388 387.37376,569.3147 L 387.37039,569.3096 C 387.51471,569.16541 387.60461,568.96201 387.60461,568.73895"
       id="path3054"
       style="fill:#fbbd13;fill-opacity:1;fill-rule:nonzero;stroke:none" />
    <path
       d="M 387.60461,568.73895 C 387.60461,568.44545 387.44731,568.18915 387.21087,568.04719 C 384.48386,566.64273 382.27137,564.37241 380.94016,561.59396 L 376.18036,561.59396 L 376.18036,572.62326 C 376.18036,573.30659 376.7331,573.86043 377.41499,573.86043 C 377.4324,573.86043 377.44813,573.86043 377.46386,573.85926 C 381.24684,573.37591 384.67147,571.74388 387.37376,569.3147 L 387.37039,569.3096 C 387.51471,569.16541 387.60461,568.96201 387.60461,568.73895 z"
       id="path3056"
       style="fill:none;stroke:#fbbd13;stroke-width:0.24750912;stroke-linecap:butt;stroke-linejoin:miter;stroke-miterlimit:4;stroke-dasharray:none;stroke-opacity:1" />
    <path
       d="M 369.36175,561.59396 C 368.0288,564.37691 365.81,566.65118 363.07481,568.05505 L 363.07481,568.05786 C 362.82333,568.19475 362.65295,568.46123 362.65295,568.76709 C 362.65295,568.96201 362.72238,569.14006 362.83591,569.27753 C 365.53602,571.72021 368.96295,573.36861 372.75187,573.85926 C 372.77658,573.86043 372.80123,573.86043 372.82648,573.86043 C 373.49211,573.86043 374.03417,573.33088 374.0572,572.66834 L 374.0572,561.59396 L 369.36175,561.59396"
       id="path3058"
       style="fill:#fbbd13;fill-opacity:1;fill-rule:nonzero;stroke:none" />
    <path
       d="M 369.36175,561.59396 C 368.0288,564.37691 365.81,566.65118 363.07481,568.05505 L 363.07481,568.05786 C 362.82333,568.19475 362.65295,568.46123 362.65295,568.76709 C 362.65295,568.96201 362.72238,569.14006 362.83591,569.27753 C 365.53602,571.72021 368.96295,573.36861 372.75187,573.85926 C 372.77658,573.86043 372.80123,573.86043 372.82648,573.86043 C 373.49211,573.86043 374.03417,573.33088 374.0572,572.66834 L 374.0572,561.59396 L 369.36175,561.59396 z"
       id="path3060"
       style="fill:none;stroke:#fbbd13;stroke-width:0.24750912;stroke-linecap:butt;stroke-linejoin:miter;stroke-miterlimit:4;stroke-dasharray:none;stroke-opacity:1" />
    <path
       d="M 374.05215,538.56919 C 374.05215,537.88753 373.50088,537.33375 372.81933,537.33375 C 372.79496,537.33375 372.7689,537.33375 372.74447,537.33601 L 372.74447,537.33375 C 369.0277,537.81826 365.65778,539.4103 362.98214,541.77751 L 362.98728,541.78368 C 362.84221,541.93018 362.75094,542.13295 362.75094,542.35435 C 362.75094,542.64166 362.90175,542.89291 363.12771,543.03658 C 365.77489,544.40776 367.93446,546.59978 369.26655,549.27791 L 374.0572,549.27791 L 374.0572,538.56919 L 374.05215,538.56919"
       id="path3062"
       style="fill:#fbbd13;fill-opacity:1;fill-rule:nonzero;stroke:none" />
    <path
       d="M 374.05215,538.56919 C 374.05215,537.88753 373.50088,537.33375 372.81933,537.33375 C 372.79496,537.33375 372.7689,537.33375 372.74447,537.33601 L 372.74447,537.33375 C 369.0277,537.81826 365.65778,539.4103 362.98214,541.77751 L 362.98728,541.78368 C 362.84221,541.93018 362.75094,542.13295 362.75094,542.35435 C 362.75094,542.64166 362.90175,542.89291 363.12771,543.03658 C 365.77489,544.40776 367.93446,546.59978 369.26655,549.27791 L 374.0572,549.27791 L 374.0572,538.56919 L 374.05215,538.56919 z"
       id="path3064"
       style="fill:none;stroke:#fbbd13;stroke-width:0.24750912;stroke-linecap:butt;stroke-linejoin:miter;stroke-miterlimit:4;stroke-dasharray:none;stroke-opacity:1" />
    <path
       d="M 387.08898,543.06474 C 387.34062,542.92675 387.51022,542.66141 387.51022,542.35435 C 387.51022,542.14648 387.43105,541.9555 387.30074,541.81184 C 384.61642,539.42491 381.23111,537.81429 377.49138,537.33096 L 377.49138,537.33601 C 377.46835,537.33375 377.44192,537.33375 377.41664,537.33375 C 376.73591,537.33375 376.1832,537.88753 376.1832,538.56919 L 376.18036,538.56919 L 376.18036,549.27791 L 381.03562,549.27791 C 382.35449,546.6285 384.48162,544.45284 387.09176,543.0777 L 387.08898,543.06474"
       id="path3066"
       style="fill:#fbbd13;fill-opacity:1;fill-rule:nonzero;stroke:none" />
    <path
       d="M 387.08898,543.06474 C 387.34062,542.92675 387.51022,542.66141 387.51022,542.35435 C 387.51022,542.14648 387.43105,541.9555 387.30074,541.81184 C 384.61642,539.42491 381.23111,537.81429 377.49138,537.33096 L 377.49138,537.33601 C 377.46835,537.33375 377.44192,537.33375 377.41664,537.33375 C 376.73591,537.33375 376.1832,537.88753 376.1832,538.56919 L 376.18036,538.56919 L 376.18036,549.27791 L 381.03562,549.27791 C 382.35449,546.6285 384.48162,544.45284 387.09176,543.0777 L 387.08898,543.06474 z"
       id="path3068"
       style="fill:none;stroke:#fbbd13;stroke-width:0.24750912;stroke-linecap:butt;stroke-linejoin:miter;stroke-miterlimit:4;stroke-dasharray:none;stroke-opacity:1" />
    <path
       d="M 404.86252,555.08443 C 404.76707,553.03608 403.09379,551.39446 401.02341,551.39446 L 395.56152,551.39446 L 355.34062,551.39446 L 355.34062,551.38883 C 355.01144,551.38883 354.73695,551.12068 354.73695,550.78548 C 354.73695,550.73706 354.75009,550.69253 354.75752,550.65028 C 356.97467,541.46031 365.22309,534.63418 375.05926,534.6291 C 380.84127,534.63139 386.0751,537.00194 389.8598,540.81193 L 389.8598,540.80573 C 390.85905,541.81184 392.23968,542.43776 393.76802,542.45238 L 400.18421,542.45238 C 400.73638,542.45238 401.17787,542.00116 401.17787,541.45299 C 401.17787,541.28176 401.13574,541.12008 401.05767,540.97864 C 396.32823,532.53343 387.62315,526.61726 377.4779,525.805 C 377.47172,525.805 377.45765,525.805 377.45203,525.80221 C 377.05551,525.77195 376.66061,525.74475 376.25791,525.73105 C 376.25791,525.73105 376.25791,525.73105 376.25341,525.73105 C 375.86357,525.71834 375.46929,525.70429 375.0733,525.70429 C 375.06488,525.70429 375.05926,525.70429 375.05364,525.70429 C 375.04522,525.70429 375.04522,525.70429 375.03904,525.70429 C 375.0059,525.70429 374.96599,525.70791 374.93172,525.70791 C 358.53629,525.78438 345.27787,539.13818 345.27787,555.59481 C 345.27787,555.62245 345.27787,555.64888 345.27787,555.67594 C 345.31026,557.78683 347.01808,559.48251 349.12302,559.48251 L 349.12302,559.48589 C 349.12302,559.48589 354.52929,559.47296 354.52929,559.4673 L 394.89704,559.4673 C 395.2217,559.48083 395.48903,559.74169 395.48903,560.07125 C 395.48903,560.09998 395.47612,560.12586 395.47612,560.15121 C 393.39902,569.53948 385.0562,576.56335 375.0733,576.56335 C 374.9531,576.56335 374.82447,576.56054 374.70483,576.55546 C 374.20268,576.54758 373.71345,576.52166 373.22309,576.4811 C 373.18989,576.47544 373.16302,576.47544 373.13063,576.47209 C 372.94824,576.45463 372.76806,576.43379 372.59394,576.4141 C 372.45951,576.39548 372.31908,576.38024 372.18581,576.35999 C 372.11806,576.35383 372.05774,576.34421 371.99,576.33408 C 371.81419,576.30646 371.64905,576.27999 371.47408,576.25241 C 371.46809,576.25241 371.46809,576.25241 371.46173,576.24509 C 367.14704,575.49411 363.292,573.40801 360.32531,570.42958 L 360.31875,570.43919 C 359.3259,569.44261 357.96555,568.82176 356.45875,568.79363 L 349.9135,568.79363 C 349.38305,568.81444 348.9552,569.24995 348.9552,569.78735 C 348.9552,569.92991 348.98209,570.06455 349.03445,570.17663 C 353.26224,577.7447 360.6676,583.27288 369.44426,584.94548 C 369.55126,584.96348 369.65876,584.99001 369.7657,585.0097 C 369.95961,585.0435 370.15545,585.0711 370.34852,585.10324 C 370.54383,585.13251 370.73799,585.16575 370.93162,585.1911 C 371.07915,585.21081 371.22644,585.23169 371.37317,585.24915 C 371.62714,585.27898 371.88356,585.31278 372.13862,585.33644 C 372.24394,585.34376 372.34601,585.35278 372.45239,585.36291 C 372.7607,585.39221 373.07031,585.41309 373.38464,585.43049 C 373.44496,585.43334 373.50394,585.43615 373.5651,585.43841 C 374.06841,585.46658 374.57003,585.47956 375.0733,585.47956 C 391.52802,585.47956 404.87547,572.09935 404.87547,555.59481 C 404.87547,555.42071 404.86983,555.25343 404.86252,555.08443"
       id="path3070"
       style="fill:#ffffff;fill-opacity:1;fill-rule:nonzero;stroke:none" />
    <path
       d="M 376.20061,480.21255 L 378.84955,480.25871 L 378.84955,478.11948 C 378.84955,478.11948 376.5893,478.05704 374.87615,478.05704 C 373.1619,478.05704 370.9187,478.11916 370.9187,478.11916 L 370.9187,480.25871 L 373.51898,480.25871 L 373.51898,487.71484 L 376.20061,487.71484 L 376.20061,480.21255"
       id="path3072"
       style="fill:#ffffff;fill-opacity:1;fill-rule:nonzero;stroke:none" />
    <path
       d="M 385.99759,480.607 L 388.62184,480.88811 L 388.62184,478.68919 C 388.62184,478.68919 386.44806,478.45126 384.69,478.36735 C 382.9336,478.28314 380.69245,478.16984 380.69245,478.16984 L 380.69245,480.30823 L 383.238,480.43583 L 383.26665,487.96134 L 384.60684,488.05104 L 386.01616,488.16274 L 385.99759,480.607"
       id="path3074"
       style="fill:#ffffff;fill-opacity:1;fill-rule:nonzero;stroke:none" />
    <path
       d="M 393.49,479.22941 C 393.49,479.22941 392.83448,479.15016 392.13072,479.05474 C 391.42636,478.95954 390.80906,478.90705 390.80906,478.90705 L 390.80906,488.6727 L 393.93595,489.1271 L 397.25558,489.67559 L 397.25558,487.53666 L 393.49,486.91223 L 393.49,479.22941"
       id="path3076"
       style="fill:#ffffff;fill-opacity:1;fill-rule:nonzero;stroke:none" />
    <path
       d="M 405.76348,483.66496 L 405.76348,481.38599 C 405.76348,481.38599 403.59423,480.88811 402.50062,480.68868 C 401.40816,480.48873 399.4119,480.12445 399.4119,480.12445 L 399.4119,490.08276 C 399.4119,490.08276 400.91949,490.382 402.40347,490.71513 C 403.88802,491.04776 405.76348,491.53731 405.76348,491.53731 L 405.76348,489.3076 L 401.94907,488.4062 L 401.94907,486.64015 L 405.57194,487.52725 L 405.57194,485.26868 L 401.94907,484.41845 L 401.94907,482.76389 L 405.76348,483.66496"
       id="path3078"
       style="fill:#ffffff;fill-opacity:1;fill-rule:nonzero;stroke:none" />
    <path
       d="M 358.37094,481.12688 L 358.37094,479.00714 C 358.37094,479.00714 356.45988,479.25195 355.06498,479.45306 C 353.66896,479.65386 351.96002,479.92343 351.96002,479.92343 L 351.96002,489.82741 C 351.96002,489.82741 353.70788,489.50534 355.08305,489.29048 C 356.45657,489.0754 358.37094,488.78909 358.37094,488.78909 L 358.37094,486.65039 L 354.55728,487.24889 L 354.55728,485.48215 L 358.17865,484.89924 L 358.17865,482.77565 L 354.55728,483.3426 L 354.55728,481.74221 L 358.37094,481.12688"
       id="path3080"
       style="fill:#ffffff;fill-opacity:1;fill-rule:nonzero;stroke:none" />
    <path
       d="M 366.74118,484.36061 L 364.50728,484.54001 C 364.57862,484.27924 365.63834,481.34029 365.63834,481.34029 C 365.63834,481.34029 366.66957,484.11528 366.74118,484.36061 z M 367.4726,486.23883 C 367.4726,486.23883 368.10204,487.74129 368.14485,487.8882 L 370.8532,487.7688 C 370.53859,486.95213 367.27679,479.06025 366.96134,478.27603 L 364.34517,478.43881 L 360.3884,488.55665 L 363.04327,488.27003 L 363.74809,486.53318 L 367.4726,486.23883"
       id="path3082"
       style="fill:#ffffff;fill-opacity:1;fill-rule:nonzero;stroke:none" />
    <path
       d="M 349.9135,487.8241 C 349.9253,485.27249 347.47227,484.9336 346.60206,484.78644 C 344.92544,484.50258 345.13333,483.07081 346.76988,482.92365 C 347.81372,482.82791 349.03804,483.09144 349.03804,483.09144 L 349.04157,483.07654 L 349.04157,480.70771 C 347.52984,480.53326 343.46389,480.37014 342.79495,483.54594 C 341.95297,487.54796 347.00544,486.26465 347.19086,487.81174 C 347.33128,488.9888 346.07681,489.69706 342.93484,489.09663 L 342.93484,491.28753 C 344.28231,491.52555 349.89456,491.95648 349.9135,487.8241"
       id="path3084"
       style="fill:#ffffff;fill-opacity:1;fill-rule:nonzero;stroke:none" />
    <path
       d="M 376.19163,493.24224 L 374.90929,493.25238 L 374.89581,515.11861 C 374.89522,515.28446 374.78178,515.42865 374.62114,515.46689 C 374.46047,515.5051 374.29424,515.42724 374.22009,515.27901 C 374.22009,515.27901 365.30728,497.50174 364.12246,495.13833 C 364.11975,497.54525 364.10161,512.92189 364.09865,515.33563 L 365.07608,515.20336 C 365.27162,515.17695 365.4513,515.31473 365.4776,515.51033 C 365.5045,515.70644 365.3671,515.88665 365.1721,515.91329 L 362.21989,516.31355 C 362.02436,516.34021 361.84474,516.20269 361.8184,516.0068 C 361.79151,515.81069 361.92897,515.63058 362.1239,515.60388 L 363.38418,515.43278 L 363.40995,494.0119 L 361.83048,494.1794 C 361.63439,494.19978 361.45858,494.05753 361.43777,493.86083 C 361.41714,493.66425 361.55925,493.48789 361.75534,493.46695 L 363.70643,493.26041 C 363.77883,493.25238 363.84577,493.27331 363.9058,493.30495 C 363.91732,493.30961 363.92721,493.31619 363.93816,493.32176 C 363.95158,493.33109 363.96534,493.33829 363.97767,493.34921 C 364.02129,493.38139 364.06052,493.4205 364.08629,493.47193 C 364.08629,493.47193 372.99626,511.24531 374.18246,513.61096 C 374.18415,511.16639 374.19369,495.33531 374.19535,493.25851 L 372.94577,493.26859 C 372.74862,493.27003 372.58735,493.11125 372.58567,492.91353 C 372.58433,492.71575 372.74257,492.554 372.93978,492.55241 L 376.18601,492.52596 C 376.38316,492.52428 376.54437,492.6833 376.54549,492.88113 C 376.54718,493.07886 376.38875,493.24033 376.19163,493.24224 z M 378.23562,491.34145 L 370.83837,491.34145 C 370.65408,491.34145 370.56302,491.34145 370.56302,491.4939 L 370.56302,494.4955 C 370.56302,494.6979 370.56302,494.74858 370.83837,494.74858 L 371.75767,494.7293 C 371.98725,494.7293 372.07803,494.83139 372.07803,495.03326 L 372.07803,505.17438 C 372.07803,505.78203 371.84929,505.78203 371.7119,505.5287 C 371.15954,504.05926 366.19588,492.49924 365.96636,491.78929 C 365.92112,491.63831 365.82894,491.63831 365.50696,491.63831 L 360.22658,492.25524 C 359.99703,492.30613 359.90513,492.30613 359.90513,492.4572 L 359.90513,495.44695 C 359.90513,495.64913 359.90513,495.70033 360.22658,495.64913 L 361.09847,495.54819 C 361.28249,495.54819 361.42073,495.64913 361.42073,495.85269 L 361.42073,513.93861 C 361.42073,514.14126 361.37517,514.24194 361.05266,514.29315 L 360.22658,514.39433 C 359.99703,514.39433 359.90513,514.49526 359.90513,514.74861 L 359.88263,517.75526 C 359.88263,518.00886 359.96548,518.07784 360.18298,518.03744 L 367.21098,516.93905 C 367.48355,516.89343 367.56147,516.8604 367.55433,516.60568 L 367.57679,513.81865 C 367.57679,513.61563 367.57679,513.56473 367.25541,513.56473 L 366.38158,513.61563 C 366.24446,513.66598 366.16161,513.61503 366.16161,513.3617 L 366.15285,504.51589 C 366.15285,503.70469 366.29052,503.90771 366.5201,504.31314 L 372.06295,516.2706 C 372.20035,516.52368 372.15482,516.57491 372.3838,516.57491 L 376.85667,516.51739 C 376.99484,516.51739 377.08696,516.51739 377.08696,516.26404 L 377.08696,495.03326 C 377.08696,494.78044 377.13246,494.7293 377.40825,494.7293 L 378.23562,494.78044 C 378.46535,494.78044 378.55691,494.83139 378.55691,494.52684 L 378.55691,491.4939 C 378.55691,491.34145 378.55691,491.34145 378.23562,491.34145"
       id="path3086"
       style="fill:#fbbd13;fill-opacity:1;fill-rule:nonzero;stroke:none" />
    <path
       d="M 376.19163,493.24224 L 374.90929,493.25238 L 374.89581,515.11861 C 374.89522,515.28446 374.78178,515.42865 374.62114,515.46689 C 374.46047,515.5051 374.29424,515.42724 374.22009,515.27901 C 374.22009,515.27901 365.30728,497.50174 364.12246,495.13833 C 364.11975,497.54525 364.10161,512.92189 364.09865,515.33563 L 365.07608,515.20336 C 365.27162,515.17695 365.4513,515.31473 365.4776,515.51033 C 365.5045,515.70644 365.3671,515.88665 365.1721,515.91329 L 362.21989,516.31355 C 362.02436,516.34021 361.84474,516.20269 361.8184,516.0068 C 361.79151,515.81069 361.92897,515.63058 362.1239,515.60388 L 363.38418,515.43278 L 363.40995,494.0119 L 361.83048,494.1794 C 361.63439,494.19978 361.45858,494.05753 361.43777,493.86083 C 361.41714,493.66425 361.55925,493.48789 361.75534,493.46695 L 363.70643,493.26041 C 363.77883,493.25238 363.84577,493.27331 363.9058,493.30495 C 363.91732,493.30961 363.92721,493.31619 363.93816,493.32176 C 363.95158,493.33109 363.96534,493.33829 363.97767,493.34921 C 364.02129,493.38139 364.06052,493.4205 364.08629,493.47193 C 364.08629,493.47193 372.99626,511.24531 374.18246,513.61096 C 374.18415,511.16639 374.19369,495.33531 374.19535,493.25851 L 372.94577,493.26859 C 372.74862,493.27003 372.58735,493.11125 372.58567,492.91353 C 372.58433,492.71575 372.74257,492.554 372.93978,492.55241 L 376.18601,492.52596 C 376.38316,492.52428 376.54437,492.6833 376.54549,492.88113 C 376.54718,493.07886 376.38875,493.24033 376.19163,493.24224 z M 378.23562,491.34145 L 370.83837,491.34145 C 370.65408,491.34145 370.56302,491.34145 370.56302,491.4939 L 370.56302,494.4955 C 370.56302,494.6979 370.56302,494.74858 370.83837,494.74858 L 371.75767,494.7293 C 371.98725,494.7293 372.07803,494.83139 372.07803,495.03326 L 372.07803,505.17438 C 372.07803,505.78203 371.84929,505.78203 371.7119,505.5287 C 371.15954,504.05926 366.19588,492.49924 365.96636,491.78929 C 365.92112,491.63831 365.82894,491.63831 365.50696,491.63831 L 360.22658,492.25524 C 359.99703,492.30613 359.90513,492.30613 359.90513,492.4572 L 359.90513,495.44695 C 359.90513,495.64913 359.90513,495.70033 360.22658,495.64913 L 361.09847,495.54819 C 361.28249,495.54819 361.42073,495.64913 361.42073,495.85269 L 361.42073,513.93861 C 361.42073,514.14126 361.37517,514.24194 361.05266,514.29315 L 360.22658,514.39433 C 359.99703,514.39433 359.90513,514.49526 359.90513,514.74861 L 359.88263,517.75526 C 359.88263,518.00886 359.96548,518.07784 360.18298,518.03744 L 367.21098,516.93905 C 367.48355,516.89343 367.56147,516.8604 367.55433,516.60568 L 367.57679,513.81865 C 367.57679,513.61563 367.57679,513.56473 367.25541,513.56473 L 366.38158,513.61563 C 366.24446,513.66598 366.16161,513.61503 366.16161,513.3617 L 366.15285,504.51589 C 366.15285,503.70469 366.29052,503.90771 366.5201,504.31314 L 372.06295,516.2706 C 372.20035,516.52368 372.15482,516.57491 372.3838,516.57491 L 376.85667,516.51739 C 376.99484,516.51739 377.08696,516.51739 377.08696,516.26404 L 377.08696,495.03326 C 377.08696,494.78044 377.13246,494.7293 377.40825,494.7293 L 378.23562,494.78044 C 378.46535,494.78044 378.55691,494.83139 378.55691,494.52684 L 378.55691,491.4939 C 378.55691,491.34145 378.55691,491.34145 378.23562,491.34145 z"
       id="path3088"
       style="fill:none;stroke:#fbbd13;stroke-width:0.24750912;stroke-linecap:butt;stroke-linejoin:miter;stroke-miterlimit:4;stroke-dasharray:none;stroke-opacity:1" />
    <path
       d="M 338.41882,521.99243 C 338.2241,524.28081 336.63008,526.3205 334.62934,526.8415 C 331.32177,527.70219 329.32867,526.3964 328.41676,525.51563 L 328.4373,528.51958 C 328.43842,528.71728 328.27987,528.87843 328.08272,528.88009 C 327.8855,528.88121 327.72451,528.72235 327.72311,528.52461 L 327.69353,524.19363 C 327.6924,523.99611 327.85095,523.83468 328.04811,523.83324 C 328.24532,523.83193 328.40603,523.99141 328.40744,524.18924 L 328.40906,524.4241 C 328.41427,524.4313 328.42198,524.43543 328.42663,524.44256 C 328.49877,524.55784 330.23399,527.2458 334.44998,526.1483 C 336.16741,525.70103 337.53737,523.92731 337.70741,521.93139 C 337.93829,519.21835 336.02068,516.73305 332.44536,515.11233 C 328.25409,513.21235 327.15374,510.72346 326.96888,508.97044 C 326.70894,506.5047 328.10138,504.2851 329.59691,503.1793 C 331.95832,501.43479 334.08875,502.01413 335.148,502.51445 C 335.66357,502.7582 336.12135,503.07949 336.47184,503.41829 L 336.451,501.52809 C 336.44881,501.33056 336.60706,501.16826 336.80424,501.16604 C 337.00146,501.16413 337.163,501.32284 337.16491,501.5206 L 337.20497,505.16176 C 337.20744,505.35954 337.04914,505.52156 336.85198,505.52373 C 336.6548,505.52598 336.49325,505.36751 336.49135,505.16971 L 336.48667,504.75218 C 336.48498,504.74091 336.48145,504.73459 336.47899,504.72551 C 336.46663,504.57751 336.3986,504.45758 336.36899,504.4152 C 336.19565,504.09503 335.67621,503.55563 334.84413,503.16249 C 333.92807,502.73015 332.08335,502.23165 330.02039,503.75589 C 328.68906,504.74035 327.44885,506.71126 327.6787,508.89508 C 327.91568,511.14188 329.66571,513.06629 332.73969,514.45986 C 338.23234,516.94983 338.54089,520.55713 338.41882,521.99243 z M 339.33022,516.64418 C 338.5642,515.51168 337.16435,514.37734 336.24533,513.87285 C 331.59987,511.32175 330.22934,510.62423 329.8912,508.5581 C 329.7074,506.8763 330.85903,505.4641 332.00656,505.14221 C 333.78628,504.73729 334.65512,505.249 334.80902,505.96855 C 334.86547,506.22081 334.86547,508.373 334.86547,508.373 C 334.86547,508.373 334.92198,508.5504 335.07008,508.49124 C 335.69543,508.22363 338.20984,507.32989 338.89223,507.03783 C 339.02276,506.97398 339.04086,506.86338 339.03893,506.76933 C 339.01237,505.69761 339.08995,498.86474 339.06005,497.69316 C 339.05759,497.57961 338.93554,497.48196 338.74769,497.55044 C 337.83135,497.88601 336.86019,498.253 335.21157,498.91425 C 335.11755,498.95306 334.8411,499.136 334.84357,499.31395 C 334.84357,499.31395 334.91406,500.18428 334.76783,500.19916 C 334.76783,500.19916 334.67128,500.26818 334.00349,500.1084 C 333.98677,500.10259 333.94889,500.09266 333.94889,500.09266 C 333.30216,499.9147 331.59902,499.7164 329.4425,500.75206 C 326.33068,502.2451 324.09409,505.54631 324.83131,509.9414 C 325.85265,516.03515 332.3916,516.51216 334.64445,519.41524 C 336.37529,521.64671 335.33476,523.30816 334.13156,523.97056 C 332.99526,524.59574 330.45642,524.77785 329.85001,522.607 C 329.82867,522.462 329.80863,522.11626 329.81575,521.88106 C 329.81575,521.88106 329.80863,521.44068 329.80948,520.87181 C 329.80948,520.74585 329.63916,520.65064 329.54804,520.71364 C 328.83938,521.20358 326.77307,522.70596 326.1642,523.1071 C 326.04109,523.18766 325.93662,523.2798 325.9355,523.45006 C 325.93437,523.62064 325.93384,532.22303 325.93384,532.22303 C 325.93384,532.22303 325.96071,532.64046 326.1955,532.48385 C 326.88934,532.02246 329.07304,530.45635 329.59856,530.02426 C 329.85469,529.81298 329.80863,529.60625 329.80863,529.60625 C 329.80863,529.60625 329.80289,528.65478 329.86349,528.68291 L 330.08346,528.72911 C 330.72715,528.96573 333.44895,529.5685 336.84268,527.70084 C 340.33128,525.78024 341.72674,520.18935 339.33022,516.64418"
       id="path3090"
       style="fill:#fbbd13;fill-opacity:1;fill-rule:nonzero;stroke:none" />
    <path
       d="M 338.41882,521.99243 C 338.2241,524.28081 336.63008,526.3205 334.62934,526.8415 C 331.32177,527.70219 329.32867,526.3964 328.41676,525.51563 L 328.4373,528.51958 C 328.43842,528.71728 328.27987,528.87843 328.08272,528.88009 C 327.8855,528.88121 327.72451,528.72235 327.72311,528.52461 L 327.69353,524.19363 C 327.6924,523.99611 327.85095,523.83468 328.04811,523.83324 C 328.24532,523.83193 328.40603,523.99141 328.40744,524.18924 L 328.40906,524.4241 C 328.41427,524.4313 328.42198,524.43543 328.42663,524.44256 C 328.49877,524.55784 330.23399,527.2458 334.44998,526.1483 C 336.16741,525.70103 337.53737,523.92731 337.70741,521.93139 C 337.93829,519.21835 336.02068,516.73305 332.44536,515.11233 C 328.25409,513.21235 327.15374,510.72346 326.96888,508.97044 C 326.70894,506.5047 328.10138,504.2851 329.59691,503.1793 C 331.95832,501.43479 334.08875,502.01413 335.148,502.51445 C 335.66357,502.7582 336.12135,503.07949 336.47184,503.41829 L 336.451,501.52809 C 336.44881,501.33056 336.60706,501.16826 336.80424,501.16604 C 337.00146,501.16413 337.163,501.32284 337.16491,501.5206 L 337.20497,505.16176 C 337.20744,505.35954 337.04914,505.52156 336.85198,505.52373 C 336.6548,505.52598 336.49325,505.36751 336.49135,505.16971 L 336.48667,504.75218 C 336.48498,504.74091 336.48145,504.73459 336.47899,504.72551 C 336.46663,504.57751 336.3986,504.45758 336.36899,504.4152 C 336.19565,504.09503 335.67621,503.55563 334.84413,503.16249 C 333.92807,502.73015 332.08335,502.23165 330.02039,503.75589 C 328.68906,504.74035 327.44885,506.71126 327.6787,508.89508 C 327.91568,511.14188 329.66571,513.06629 332.73969,514.45986 C 338.23234,516.94983 338.54089,520.55713 338.41882,521.99243 z M 339.33022,516.64418 C 338.5642,515.51168 337.16435,514.37734 336.24533,513.87285 C 331.59987,511.32175 330.22934,510.62423 329.8912,508.5581 C 329.7074,506.8763 330.85903,505.4641 332.00656,505.14221 C 333.78628,504.73729 334.65512,505.249 334.80902,505.96855 C 334.86547,506.22081 334.86547,508.373 334.86547,508.373 C 334.86547,508.373 334.92198,508.5504 335.07008,508.49124 C 335.69543,508.22363 338.20984,507.32989 338.89223,507.03783 C 339.02276,506.97398 339.04086,506.86338 339.03893,506.76933 C 339.01237,505.69761 339.08995,498.86474 339.06005,497.69316 C 339.05759,497.57961 338.93554,497.48196 338.74769,497.55044 C 337.83135,497.88601 336.86019,498.253 335.21157,498.91425 C 335.11755,498.95306 334.8411,499.136 334.84357,499.31395 C 334.84357,499.31395 334.91406,500.18428 334.76783,500.19916 C 334.76783,500.19916 334.67128,500.26818 334.00349,500.1084 C 333.98677,500.10259 333.94889,500.09266 333.94889,500.09266 C 333.30216,499.9147 331.59902,499.7164 329.4425,500.75206 C 326.33068,502.2451 324.09409,505.54631 324.83131,509.9414 C 325.85265,516.03515 332.3916,516.51216 334.64445,519.41524 C 336.37529,521.64671 335.33476,523.30816 334.13156,523.97056 C 332.99526,524.59574 330.45642,524.77785 329.85001,522.607 C 329.82867,522.462 329.80863,522.11626 329.81575,521.88106 C 329.81575,521.88106 329.80863,521.44068 329.80948,520.87181 C 329.80948,520.74585 329.63916,520.65064 329.54804,520.71364 C 328.83938,521.20358 326.77307,522.70596 326.1642,523.1071 C 326.04109,523.18766 325.93662,523.2798 325.9355,523.45006 C 325.93437,523.62064 325.93384,532.22303 325.93384,532.22303 C 325.93384,532.22303 325.96071,532.64046 326.1955,532.48385 C 326.88934,532.02246 329.07304,530.45635 329.59856,530.02426 C 329.85469,529.81298 329.80863,529.60625 329.80863,529.60625 C 329.80863,529.60625 329.80289,528.65478 329.86349,528.68291 L 330.08346,528.72911 C 330.72715,528.96573 333.44895,529.5685 336.84268,527.70084 C 340.33128,525.78024 341.72674,520.18935 339.33022,516.64418 z"
       id="path3092"
       style="fill:none;stroke:#fbbd13;stroke-width:0.24750912;stroke-linecap:butt;stroke-linejoin:miter;stroke-miterlimit:4;stroke-dasharray:none;stroke-opacity:1" />
    <path
       d="M 352.04914,513.90634 C 352.04914,514.77863 351.49819,516.47225 349.70639,516.93464 C 347.86882,517.4477 347.36421,515.75433 347.36421,515.18935 L 347.36421,501.38359 C 347.36421,499.68996 348.69547,498.56056 349.75252,498.35585 C 350.85477,498.09921 352.04914,498.76625 352.04914,500.35703 L 352.04914,513.90634 z M 354.19555,499.14893 C 354.19555,499.13569 354.2178,497.82389 353.27069,497.02888 C 352.5116,496.39159 351.32952,496.23229 349.75688,496.55581 C 344.9123,497.55044 345.27594,502.52134 345.29516,502.76551 C 345.29516,502.76551 345.21562,516.0437 345.21562,516.04505 C 345.21533,516.0591 345.2041,517.46776 346.18431,518.31939 C 346.88643,518.92948 347.93825,519.12618 349.31062,518.90475 C 354.56467,518.05669 354.21446,513.59854 354.19524,513.37551 L 354.19555,499.14893"
       id="path3094"
       style="fill:#fbbd13;fill-opacity:1;fill-rule:nonzero;stroke:none" />
    <path
       d="M 352.04914,513.90634 C 352.04914,514.77863 351.49819,516.47225 349.70639,516.93464 C 347.86882,517.4477 347.36421,515.75433 347.36421,515.18935 L 347.36421,501.38359 C 347.36421,499.68996 348.69547,498.56056 349.75252,498.35585 C 350.85477,498.09921 352.04914,498.76625 352.04914,500.35703 L 352.04914,513.90634 z M 354.19555,499.14893 C 354.19555,499.13569 354.2178,497.82389 353.27069,497.02888 C 352.5116,496.39159 351.32952,496.23229 349.75688,496.55581 C 344.9123,497.55044 345.27594,502.52134 345.29516,502.76551 C 345.29516,502.76551 345.21562,516.0437 345.21562,516.04505 C 345.21533,516.0591 345.2041,517.46776 346.18431,518.31939 C 346.88643,518.92948 347.93825,519.12618 349.31062,518.90475 C 354.56467,518.05669 354.21446,513.59854 354.19524,513.37551 L 354.19555,499.14893 z"
       id="path3096"
       style="fill:none;stroke:#fbbd13;stroke-width:0.24750912;stroke-linecap:butt;stroke-linejoin:miter;stroke-miterlimit:4;stroke-dasharray:none;stroke-opacity:1" />
    <path
       d="M 349.42392,519.61144 C 347.82932,519.86858 346.57981,519.61445 345.71065,518.85524 C 344.4784,517.77939 344.50036,516.10145 344.50199,516.03046 C 344.50143,516.03269 344.50143,516.03434 344.50143,516.03625 C 344.50143,516.03625 344.58097,502.76095 344.58259,502.79471 C 344.57716,502.73613 344.13998,496.97826 349.61372,495.85375 C 351.41449,495.48385 352.80174,495.69673 353.73612,496.48595 C 354.94675,497.50863 354.91136,499.1027 354.90946,499.15909 L 354.90783,513.3408 C 354.91277,513.39394 355.35048,518.65469 349.42392,519.61144 z M 349.88991,493.83968 C 345.11304,494.91711 342.26428,498.66394 342.26428,502.46134 L 342.26428,516.72924 C 342.31889,519.80343 345.56555,522.83006 349.88991,521.50178 C 355.85893,519.66946 357.14823,515.29191 357.14823,512.82809 L 357.14823,499.22816 C 357.14823,495.89174 354.66837,493.06916 349.88991,493.83968"
       id="path3098"
       style="fill:#fbbd13;fill-opacity:1;fill-rule:nonzero;stroke:none" />
    <path
       d="M 349.42392,519.61144 C 347.82932,519.86858 346.57981,519.61445 345.71065,518.85524 C 344.4784,517.77939 344.50036,516.10145 344.50199,516.03046 C 344.50143,516.03269 344.50143,516.03434 344.50143,516.03625 C 344.50143,516.03625 344.58097,502.76095 344.58259,502.79471 C 344.57716,502.73613 344.13998,496.97826 349.61372,495.85375 C 351.41449,495.48385 352.80174,495.69673 353.73612,496.48595 C 354.94675,497.50863 354.91136,499.1027 354.90946,499.15909 L 354.90783,513.3408 C 354.91277,513.39394 355.35048,518.65469 349.42392,519.61144 z M 349.88991,493.83968 C 345.11304,494.91711 342.26428,498.66394 342.26428,502.46134 L 342.26428,516.72924 C 342.31889,519.80343 345.56555,522.83006 349.88991,521.50178 C 355.85893,519.66946 357.14823,515.29191 357.14823,512.82809 L 357.14823,499.22816 C 357.14823,495.89174 354.66837,493.06916 349.88991,493.83968 z"
       id="path3100"
       style="fill:none;stroke:#fbbd13;stroke-width:0.24750912;stroke-linecap:butt;stroke-linejoin:miter;stroke-miterlimit:4;stroke-dasharray:none;stroke-opacity:1" />
    <path
       d="M 387.11707,494.0427 L 385.78642,493.93763 L 385.7707,515.26553 L 386.95081,515.41904 C 387.14681,515.44433 387.28445,515.62419 387.25918,515.82005 C 387.2339,516.01616 387.05472,516.1543 386.85925,516.1292 L 383.74802,515.72463 C 383.55255,515.69934 383.41437,515.51941 383.44024,515.3233 C 383.46552,515.12716 383.6447,514.98876 383.84017,515.01436 L 385.0562,515.17226 L 385.07252,493.88124 L 383.6975,493.77229 C 383.5009,493.75686 383.3543,493.58448 383.36947,493.38749 C 383.3852,493.19056 383.55704,493.04309 383.75367,493.05878 L 387.17267,493.32918 C 387.36983,493.34455 387.51643,493.51678 387.5007,493.71398 C 387.48554,493.91096 387.31363,494.05813 387.11707,494.0427 z M 389.07624,492.0099 L 381.72596,491.44599 C 381.49567,491.44599 381.45126,491.39404 381.45126,491.54861 L 381.45126,494.5208 C 381.45126,494.67431 381.45126,494.82833 381.72596,494.82833 L 382.64433,494.87921 C 382.82968,494.93035 382.9218,494.98209 382.9218,495.23788 L 382.9218,513.32869 C 382.9218,513.58508 382.9218,513.68791 382.59939,513.6365 L 381.72596,513.58508 C 381.49567,513.58508 381.45126,513.6365 381.45126,513.8409 L 381.45126,516.4987 C 381.45126,516.75478 381.49567,516.85736 381.72596,516.85736 L 389.07624,517.89656 C 389.26101,517.89656 389.35204,517.89656 389.35204,517.5379 L 389.35204,514.71178 C 389.34136,514.51924 389.34923,514.52669 389.04872,514.46313 L 388.21402,514.31875 C 387.99836,514.27934 387.92868,514.2513 387.92868,513.99548 L 387.92868,495.59708 C 387.92868,495.3917 387.92868,495.3405 388.20335,495.3405 L 389.07624,495.44335 C 389.30654,495.44335 389.39922,495.54598 389.39922,495.18699 L 389.39922,492.2143 C 389.39922,492.06079 389.39922,492.06079 389.07624,492.0099"
       id="path3102"
       style="fill:#fbbd13;fill-opacity:1;fill-rule:nonzero;stroke:none" />
    <path
       d="M 387.11707,494.0427 L 385.78642,493.93763 L 385.7707,515.26553 L 386.95081,515.41904 C 387.14681,515.44433 387.28445,515.62419 387.25918,515.82005 C 387.2339,516.01616 387.05472,516.1543 386.85925,516.1292 L 383.74802,515.72463 C 383.55255,515.69934 383.41437,515.51941 383.44024,515.3233 C 383.46552,515.12716 383.6447,514.98876 383.84017,515.01436 L 385.0562,515.17226 L 385.07252,493.88124 L 383.6975,493.77229 C 383.5009,493.75686 383.3543,493.58448 383.36947,493.38749 C 383.3852,493.19056 383.55704,493.04309 383.75367,493.05878 L 387.17267,493.32918 C 387.36983,493.34455 387.51643,493.51678 387.5007,493.71398 C 387.48554,493.91096 387.31363,494.05813 387.11707,494.0427 z M 389.07624,492.0099 L 381.72596,491.44599 C 381.49567,491.44599 381.45126,491.39404 381.45126,491.54861 L 381.45126,494.5208 C 381.45126,494.67431 381.45126,494.82833 381.72596,494.82833 L 382.64433,494.87921 C 382.82968,494.93035 382.9218,494.98209 382.9218,495.23788 L 382.9218,513.32869 C 382.9218,513.58508 382.9218,513.68791 382.59939,513.6365 L 381.72596,513.58508 C 381.49567,513.58508 381.45126,513.6365 381.45126,513.8409 L 381.45126,516.4987 C 381.45126,516.75478 381.49567,516.85736 381.72596,516.85736 L 389.07624,517.89656 C 389.26101,517.89656 389.35204,517.89656 389.35204,517.5379 L 389.35204,514.71178 C 389.34136,514.51924 389.34923,514.52669 389.04872,514.46313 L 388.21402,514.31875 C 387.99836,514.27934 387.92868,514.2513 387.92868,513.99548 L 387.92868,495.59708 C 387.92868,495.3917 387.92868,495.3405 388.20335,495.3405 L 389.07624,495.44335 C 389.30654,495.44335 389.39922,495.54598 389.39922,495.18699 L 389.39922,492.2143 C 389.39922,492.06079 389.39922,492.06079 389.07624,492.0099 z"
       id="path3104"
       style="fill:none;stroke:#fbbd13;stroke-width:0.24750912;stroke-linecap:butt;stroke-linejoin:miter;stroke-miterlimit:4;stroke-dasharray:none;stroke-opacity:1" />
    <path
       d="M 402.95674,519.44113 C 401.98445,520.12581 400.61839,520.22015 399.00581,519.714 C 394.08034,518.1692 394.07922,513.28803 394.07922,513.24178 C 394.07922,513.24178 394.12809,499.63334 394.12865,499.62564 C 394.16459,498.19993 394.59707,497.12574 395.41321,496.43278 C 396.61525,495.41255 398.19192,495.62278 398.24584,495.63073 C 401.44804,495.96745 403.09098,497.90673 403.90038,499.44293 L 403.89364,497.8456 C 403.89308,497.64755 404.05203,497.48694 404.24919,497.48588 C 404.44634,497.48525 404.60695,497.64509 404.60754,497.84264 L 404.62272,501.35256 C 404.62272,501.35776 404.62043,501.36211 404.61991,501.3674 C 404.62216,501.37839 404.62328,501.38505 404.62383,501.38665 C 404.6581,501.58079 404.52834,501.76625 404.33457,501.80088 C 404.14076,501.83555 403.95543,501.70573 403.92061,501.51128 C 403.88687,501.32146 403.03257,496.85395 398.15934,496.34149 C 398.14585,496.33958 396.82252,496.1701 395.86929,496.98386 C 395.21833,497.53889 394.87233,498.43425 394.84253,499.6361 C 394.84253,499.6361 394.79369,513.24403 394.79369,513.24675 C 394.79201,513.42555 394.80942,517.64741 399.21982,519.03073 C 400.61224,519.46781 401.76258,519.40704 402.54612,518.85524 C 403.29768,518.32546 403.72567,517.34593 403.78187,516.02308 C 403.79026,515.82559 403.95711,515.67205 404.15371,515.68059 C 404.35086,515.68945 404.50363,515.85614 404.4952,516.05363 C 404.42946,517.60725 403.897,518.77853 402.95674,519.44113 z M 406.62345,514.58278 L 402.16138,512.88946 C 401.88559,512.78711 401.84007,512.83773 401.84007,513.04375 L 401.78053,515.04573 C 401.78053,516.02141 401.18348,517.46088 399.34617,516.94735 C 397.59987,516.5361 397.04828,514.58278 397.04828,514.01751 L 397.04828,500.34908 C 397.04828,498.65401 398.38064,498.14024 399.43719,498.3457 C 400.49369,498.6026 401.78053,499.68204 401.78053,501.32613 L 401.78053,502.46876 C 401.78053,502.82774 401.82662,502.82774 402.1024,502.93089 C 402.42313,503.0338 406.52682,504.32829 406.70995,504.4306 C 406.93966,504.4823 406.98574,504.37918 406.98574,504.12229 L 407.09247,496.24055 C 407.09247,496.03536 407.04638,496.03536 406.81608,495.98366 L 402.42313,494.63494 C 402.14843,494.58245 402.1024,494.58245 402.1024,494.78845 L 402.1024,495.46864 C 402.1024,495.62193 402.1024,495.72509 401.82662,495.31409 C 401.36603,494.6979 400.03483,494.02903 398.70303,493.72118 C 393.92529,492.94983 391.94925,495.82793 391.94925,498.55064 L 391.94925,512.88746 C 391.94925,515.25094 393.28159,520.08071 399.57533,521.62218 C 405.63878,523.57554 406.82511,519.26595 406.90485,516.71844 L 406.99754,514.99844 C 406.99754,514.74066 406.89138,514.6777 406.62345,514.58278"
       id="path3106"
       style="fill:#fbbd13;fill-opacity:1;fill-rule:nonzero;stroke:none" />
    <path
       d="M 402.95674,519.44113 C 401.98445,520.12581 400.61839,520.22015 399.00581,519.714 C 394.08034,518.1692 394.07922,513.28803 394.07922,513.24178 C 394.07922,513.24178 394.12809,499.63334 394.12865,499.62564 C 394.16459,498.19993 394.59707,497.12574 395.41321,496.43278 C 396.61525,495.41255 398.19192,495.62278 398.24584,495.63073 C 401.44804,495.96745 403.09098,497.90673 403.90038,499.44293 L 403.89364,497.8456 C 403.89308,497.64755 404.05203,497.48694 404.24919,497.48588 C 404.44634,497.48525 404.60695,497.64509 404.60754,497.84264 L 404.62272,501.35256 C 404.62272,501.35776 404.62043,501.36211 404.61991,501.3674 C 404.62216,501.37839 404.62328,501.38505 404.62383,501.38665 C 404.6581,501.58079 404.52834,501.76625 404.33457,501.80088 C 404.14076,501.83555 403.95543,501.70573 403.92061,501.51128 C 403.88687,501.32146 403.03257,496.85395 398.15934,496.34149 C 398.14585,496.33958 396.82252,496.1701 395.86929,496.98386 C 395.21833,497.53889 394.87233,498.43425 394.84253,499.6361 C 394.84253,499.6361 394.79369,513.24403 394.79369,513.24675 C 394.79201,513.42555 394.80942,517.64741 399.21982,519.03073 C 400.61224,519.46781 401.76258,519.40704 402.54612,518.85524 C 403.29768,518.32546 403.72567,517.34593 403.78187,516.02308 C 403.79026,515.82559 403.95711,515.67205 404.15371,515.68059 C 404.35086,515.68945 404.50363,515.85614 404.4952,516.05363 C 404.42946,517.60725 403.897,518.77853 402.95674,519.44113 z M 406.62345,514.58278 L 402.16138,512.88946 C 401.88559,512.78711 401.84007,512.83773 401.84007,513.04375 L 401.78053,515.04573 C 401.78053,516.02141 401.18348,517.46088 399.34617,516.94735 C 397.59987,516.5361 397.04828,514.58278 397.04828,514.01751 L 397.04828,500.34908 C 397.04828,498.65401 398.38064,498.14024 399.43719,498.3457 C 400.49369,498.6026 401.78053,499.68204 401.78053,501.32613 L 401.78053,502.46876 C 401.78053,502.82774 401.82662,502.82774 402.1024,502.93089 C 402.42313,503.0338 406.52682,504.32829 406.70995,504.4306 C 406.93966,504.4823 406.98574,504.37918 406.98574,504.12229 L 407.09247,496.24055 C 407.09247,496.03536 407.04638,496.03536 406.81608,495.98366 L 402.42313,494.63494 C 402.14843,494.58245 402.1024,494.58245 402.1024,494.78845 L 402.1024,495.46864 C 402.1024,495.62193 402.1024,495.72509 401.82662,495.31409 C 401.36603,494.6979 400.03483,494.02903 398.70303,493.72118 C 393.92529,492.94983 391.94925,495.82793 391.94925,498.55064 L 391.94925,512.88746 C 391.94925,515.25094 393.28159,520.08071 399.57533,521.62218 C 405.63878,523.57554 406.82511,519.26595 406.90485,516.71844 L 406.99754,514.99844 C 406.99754,514.74066 406.89138,514.6777 406.62345,514.58278 z"
       id="path3108"
       style="fill:none;stroke:#fbbd13;stroke-width:0.24750912;stroke-linecap:butt;stroke-linejoin:miter;stroke-miterlimit:4;stroke-dasharray:none;stroke-opacity:1" />
    <path
       d="M 422.57547,507.87481 C 422.57547,507.97881 422.5294,508.07041 422.4586,508.13618 C 422.39292,508.20384 422.30192,508.24619 422.20022,508.24506 C 422.00311,508.24255 421.84523,508.08028 421.84748,507.88283 L 421.85029,507.6157 C 421.77898,506.4689 421.19427,501.95551 416.4491,501.07825 C 414.83141,500.77873 413.35192,501.48621 412.58802,502.92379 C 411.72192,504.55275 411.72638,507.49905 414.59047,510.44104 L 415.24818,511.10974 C 418.40547,514.30198 424.28132,520.24405 421.42734,525.20973 C 420.50957,526.8068 419.08512,527.55361 417.41743,527.31209 C 415.14542,526.98369 412.84642,524.93713 411.61183,522.33494 L 411.58262,524.23983 C 411.57981,524.43734 411.41689,524.59549 411.21977,524.59248 C 411.02318,524.58916 410.8659,524.42635 410.8687,524.22884 L 410.92769,520.34424 C 410.92769,520.31885 410.92432,520.29356 410.92937,520.26934 L 410.94511,519.20733 C 410.94847,519.00956 411.1108,518.85191 411.30795,518.85493 C 411.50511,518.85774 411.66238,519.02083 411.65954,519.2186 L 411.64272,520.3162 C 412.41673,523.43163 415.03983,526.24485 417.51913,526.60324 C 418.89808,526.80266 420.03605,526.19725 420.80894,524.85188 C 423.39048,520.36048 417.76402,514.67025 414.741,511.61365 L 414.0793,510.94139 C 410.94678,507.72299 410.97881,504.42898 411.95779,502.58681 C 412.87338,500.86401 414.64439,500.01624 416.57885,500.37405 C 419.65973,500.94354 421.15551,502.93499 421.88399,504.72304 L 421.89301,503.93658 C 421.89582,503.73884 422.05758,503.58038 422.25474,503.58229 C 422.45185,503.58504 422.60973,503.747 422.60744,503.94484 L 422.56423,507.64374 C 422.57374,507.7838 422.57547,507.86795 422.57547,507.87481 z M 424.52958,502.39953 C 424.47567,502.37584 420.45621,500.32593 420.45621,500.32593 C 420.30848,500.2544 420.29668,500.57846 420.29501,500.62691 L 420.26074,500.88768 C 420.22759,500.80126 418.22517,497.71356 414.71012,497.98504 C 408.59779,498.45763 406.29879,507.58763 414.33322,514.66064 C 421.15888,520.66964 419.36201,524.65298 417.16751,524.65298 C 415.69644,524.65298 414.79212,523.55156 414.35453,522.82515 C 414.00179,522.22049 413.71873,521.45523 413.55359,520.49913 C 413.53112,520.39234 413.61032,517.58769 413.61032,517.58769 C 413.62097,517.40833 413.54742,517.32996 413.44968,517.298 C 413.44968,517.298 410.33959,516.0437 409.42067,515.64153 C 409.31901,515.59699 409.20274,515.62338 409.20498,515.79558 L 409.06455,525.3561 C 409.05723,525.52718 409.11789,525.6025 409.24149,525.66854 C 409.98967,526.04649 412.51222,527.4893 413.27105,527.8593 C 413.42437,527.93479 413.48057,527.86775 413.48897,527.70848 L 413.46597,526.79581 C 413.46597,526.78235 413.47608,526.77078 413.48843,526.77078 C 413.50135,526.77078 413.51203,526.7903 413.52102,526.80104 L 413.52832,526.8123 C 413.55637,526.84864 413.59067,526.88958 413.62212,526.92814 C 415.46555,529.79779 421.5582,531.87431 423.75667,524.69316 C 425.96414,517.48263 418.06958,511.09619 415.86775,508.46289 C 413.66645,505.83021 414.31356,501.92084 417.22084,502.95403 C 420.1293,503.9869 420.08829,507.32905 420.08829,507.32905 L 420.09613,507.32191 C 420.09613,507.35164 420.09613,507.38163 420.09501,507.4113 L 420.13379,509.01441 C 420.13095,509.06643 420.23827,509.22298 420.28433,509.24194 C 420.28433,509.24194 423.78478,510.99084 424.34703,511.32948 C 424.47959,511.4101 424.54026,511.30503 424.54138,511.2522 L 424.61159,502.58565 C 424.61159,502.50591 424.59808,502.43988 424.52958,502.39953"
       id="path3110"
       style="fill:#fbbd13;fill-opacity:1;fill-rule:nonzero;stroke:none" />
    <path
       d="M 422.57547,507.87481 C 422.57547,507.97881 422.5294,508.07041 422.4586,508.13618 C 422.39292,508.20384 422.30192,508.24619 422.20022,508.24506 C 422.00311,508.24255 421.84523,508.08028 421.84748,507.88283 L 421.85029,507.6157 C 421.77898,506.4689 421.19427,501.95551 416.4491,501.07825 C 414.83141,500.77873 413.35192,501.48621 412.58802,502.92379 C 411.72192,504.55275 411.72638,507.49905 414.59047,510.44104 L 415.24818,511.10974 C 418.40547,514.30198 424.28132,520.24405 421.42734,525.20973 C 420.50957,526.8068 419.08512,527.55361 417.41743,527.31209 C 415.14542,526.98369 412.84642,524.93713 411.61183,522.33494 L 411.58262,524.23983 C 411.57981,524.43734 411.41689,524.59549 411.21977,524.59248 C 411.02318,524.58916 410.8659,524.42635 410.8687,524.22884 L 410.92769,520.34424 C 410.92769,520.31885 410.92432,520.29356 410.92937,520.26934 L 410.94511,519.20733 C 410.94847,519.00956 411.1108,518.85191 411.30795,518.85493 C 411.50511,518.85774 411.66238,519.02083 411.65954,519.2186 L 411.64272,520.3162 C 412.41673,523.43163 415.03983,526.24485 417.51913,526.60324 C 418.89808,526.80266 420.03605,526.19725 420.80894,524.85188 C 423.39048,520.36048 417.76402,514.67025 414.741,511.61365 L 414.0793,510.94139 C 410.94678,507.72299 410.97881,504.42898 411.95779,502.58681 C 412.87338,500.86401 414.64439,500.01624 416.57885,500.37405 C 419.65973,500.94354 421.15551,502.93499 421.88399,504.72304 L 421.89301,503.93658 C 421.89582,503.73884 422.05758,503.58038 422.25474,503.58229 C 422.45185,503.58504 422.60973,503.747 422.60744,503.94484 L 422.56423,507.64374 C 422.57374,507.7838 422.57547,507.86795 422.57547,507.87481 z M 424.52958,502.39953 C 424.47567,502.37584 420.45621,500.32593 420.45621,500.32593 C 420.30848,500.2544 420.29668,500.57846 420.29501,500.62691 L 420.26074,500.88768 C 420.22759,500.80126 418.22517,497.71356 414.71012,497.98504 C 408.59779,498.45763 406.29879,507.58763 414.33322,514.66064 C 421.15888,520.66964 419.36201,524.65298 417.16751,524.65298 C 415.69644,524.65298 414.79212,523.55156 414.35453,522.82515 C 414.00179,522.22049 413.71873,521.45523 413.55359,520.49913 C 413.53112,520.39234 413.61032,517.58769 413.61032,517.58769 C 413.62097,517.40833 413.54742,517.32996 413.44968,517.298 C 413.44968,517.298 410.33959,516.0437 409.42067,515.64153 C 409.31901,515.59699 409.20274,515.62338 409.20498,515.79558 L 409.06455,525.3561 C 409.05723,525.52718 409.11789,525.6025 409.24149,525.66854 C 409.98967,526.04649 412.51222,527.4893 413.27105,527.8593 C 413.42437,527.93479 413.48057,527.86775 413.48897,527.70848 L 413.46597,526.79581 C 413.46597,526.78235 413.47608,526.77078 413.48843,526.77078 C 413.50135,526.77078 413.51203,526.7903 413.52102,526.80104 L 413.52832,526.8123 C 413.55637,526.84864 413.59067,526.88958 413.62212,526.92814 C 415.46555,529.79779 421.5582,531.87431 423.75667,524.69316 C 425.96414,517.48263 418.06958,511.09619 415.86775,508.46289 C 413.66645,505.83021 414.31356,501.92084 417.22084,502.95403 C 420.1293,503.9869 420.08829,507.32905 420.08829,507.32905 L 420.09613,507.32191 C 420.09613,507.35164 420.09613,507.38163 420.09501,507.4113 L 420.13379,509.01441 C 420.13095,509.06643 420.23827,509.22298 420.28433,509.24194 C 420.28433,509.24194 423.78478,510.99084 424.34703,511.32948 C 424.47959,511.4101 424.54026,511.30503 424.54138,511.2522 L 424.61159,502.58565 C 424.61159,502.50591 424.59808,502.43988 424.52958,502.39953 z"
       id="path3112"
       style="fill:none;stroke:#fbbd13;stroke-width:0.24750912;stroke-linecap:butt;stroke-linejoin:miter;stroke-miterlimit:4;stroke-dasharray:none;stroke-opacity:1" />
  </g>
</svg>
