<svg clip-rule="evenodd" fill-rule="evenodd" viewBox="0 0 560 400" xmlns="http://www.w3.org/2000/svg"><path d="m403.846 259.384 37.385-85.538h-173.231l-7.231 16.462-5.077-16.462h-34.615s-22.923 52.154-29.538 67.231c.671-3.085 1.031-6.228 1.077-9.385v-1.231c2.462-5.846 22.769-52.308 26.923-61.692h95.077l20.462-46.769h-112.923l-37.077 84.923c-8.479-13.249-23.165-21.285-38.896-21.285-25.333 0-46.181 20.846-46.181 46.181 0 25.323 20.829 46.165 46.154 46.181 14.947.014 29.01-7.218 37.692-19.385l-7.846 18.154h18.923l11.231-25.538h21.231l7.692 25.538h199.538l7.538-17.385zm-190.308-25.692 5.077-11.538 3.385 11.538zm66.308 20-18.923-62.615h46.461c-13.846 31.231-22.308 50.615-27.538 62.615zm71.692 5.692h-21.846l29.692-68.154h22c-16 36.462-24.923 56.769-29.846 68.154z" fill="#fff"/><path d="m102.769 233.846c.54 10.99 5.213 21.381 13.077 29.077 8.531-7.315 13.659-17.85 14.154-29.077z" fill="#0d2240"/><path d="m133.846 233.846c-.572 12.154-6.008 23.581-15.077 31.692 7.262 5.868 16.212 9.264 25.538 9.692v-41.385h-10.462z" fill="#ffa400"/><path d="m102.769 230h27.231c-.423-11.377-5.553-22.081-14.154-29.538-7.962 7.818-12.641 18.39-13.077 29.538z" fill="#0d2240"/><path d="m118.769 198c9.219 8.128 14.679 19.717 15.077 32h10.308v-41.846c-9.274.581-18.144 4.022-25.385 9.846z" fill="#ffa400"/><path d="m189.538 233.846h-27.231c.495 11.227 5.623 21.762 14.154 29.077 7.806-7.737 12.468-18.104 13.077-29.077z" fill="#0d2240"/><path d="m158.461 233.846h-10.462v41.231c9.355-.285 18.35-3.699 25.538-9.692-9.15-7.985-14.608-19.404-15.077-31.538zm15.077-35.846c-7.285-5.851-16.212-9.294-25.538-9.846v41.846h10.462c.397-12.283 5.858-23.872 15.077-32z" fill="#2b5134"/><path d="m223.846 124.769-38.462 88.308c-2.331-4.664-5.396-8.923-9.077-12.615-8.574 7.478-13.697 18.17-14.154 29.538h27.385l27.846-64h81.538l18-41.231h-93.077z" fill="#0d2240"/><path d="m312.615 166 18-41.231h-7.692l-18 41.231z" fill="#2b5134"/><path d="m237.077 274h32.462l-29.231-97.385h-17.538l-42.769 97.385h12.923s4.769-10.923 11.231-25.538h25.231l7.692 25.538zm-27.692-37.538c3.231-7.231 6.462-14.923 9.692-22.154l6.769 22.154h-16.462z" fill="#0d2240"/><path d="m272.461 264.154 4.462-10.308-23.385-77.231h-7.692l26.615 87.538z" fill="#2b5134"/><path d="m385.846 262 37.538-85.385h-54.615l-5.231 11.846h22.154c-11.385 25.846-37.538 85.385-37.538 85.385h84.615l5.231-11.846z" fill="#0d2240"/><path d="m327.846 256.615 34.923-80h-7.692l-34.923 80zm74.154 0 34.923-80h-7.692l-34.923 80z" fill="#2b5134"/><path d="m349.231 176.615h-79.538l-5.231 11.846h47.077c-11.385 25.846-37.538 85.385-37.538 85.385h68.615l5.077-11.846h-35.846l37.385-85.385zm-4.154-16.923h-10l15.385-34.923h-7.538l-16 36c-1.231 2.769 0 5.077 2.923 5.077h14.769c3.179-.274 5.99-2.206 7.385-5.077l16-36h-7.385l-15.538 34.923zm55.538-34.923h-26l-2.769 6.308h10.154l-15.385 34.923h7.385l15.385-34.923h8.462l2.769-6.308zm10.462 10.308-4.462 18h-7.077l11.538-18zm8.308-10.308h-7.385l-27.846 41.231h6.923l4.154-6.308h9.846l-1.385 6.308h7.385zm33.23 0-7.692 17.385h-10l7.692-17.385h-7.538l-18.154 41.231h7.385l7.692-17.538h10.154l-7.692 17.538h7.385l18.154-41.231h-7.385z" fill="#0d2240"/></svg>