<?xml version="1.0" encoding="UTF-8" standalone="no"?>
<svg xmlns:rdf="http://www.w3.org/1999/02/22-rdf-syntax-ns#" xmlns="http://www.w3.org/2000/svg" height="186.52473" width="244.80647" version="1.1" xmlns:cc="http://creativecommons.org/ns#" xmlns:dc="http://purl.org/dc/elements/1.1/" viewBox="0 0 244.80647 186.52473"><path d="M17.85766,38.83572l-.00647,15.417.34921-.09137c1.13923,6.60826,4.45818,14.22092,9.86414,22.70092l.03366-20.71619a17.13328,17.13328,0,0,1-1.90428.87492l-4.43857,2.35355.00223-5.06968.00535-11.54516Z" fill="#201600"/><path d="M216.49721,55.98715,216.495,76.846a80.61925,80.61925,0,0,0,8.17625-16.33958C222.94324,59.516,219.97706,57.7936,216.49721,55.98715Z" fill="#201600"/><path d="M244.55842,49.911l-4.04791-2.61158a208.97764,208.97764,0,0,0-24.01775-12.9687v3.7869a227.9295,227.9295,0,0,1,24.32241,13.49089Z" fill="#201600"/><path d="M198.21614,7.59507l3.42347,1.09577a231.98525,231.98525,0,0,1,41.61066,18.96858l1.30146.75837v1.506l.00446,15.16871.00223,4.81849-4.04791-2.61158a208.97764,208.97764,0,0,0-24.01775-12.9687v3.7869a220.54379,220.54379,0,0,1,26.92509,15.19928l1.38862.95311-.283,1.65739c-5.17957,30.02409-40.37474,64.68285-41.87185,66.11691l-4.4397,4.26006Zm18.28107,48.39208L216.495,76.846a80.61925,80.61925,0,0,0,8.17625-16.33958C222.94324,59.516,219.97706,57.7936,216.49721,55.98715Z" fill="#201600"/><path d="M241.93365,45.09365,241.925,29.92494a231.69383,231.69383,0,0,0-41.04931-18.73461l-.02608,34.67172A214.98493,214.98493,0,0,1,227.8117,59.30387c-2.65063,8.92393-8.18942,18.17322-13.94348,26.05352l.00869-28.3255c-6.15253-3.29288-13.02732-6.08277-13.02732-6.08277l-.01315,69.19964s36.009-35.147,41.09944-64.6664a214.90383,214.90383,0,0,0-28.085-15.71289l.0087-9.49955A214.3642,214.3642,0,0,1,241.93365,45.09365Z" fill="#57b3a5" stroke="#57b3a5" stroke-width="0.21291"/><polygon points="198.212 126.219 173.161 118.552 173.195 94.663 198.192 82.015 198.212 126.219" fill="#201600"/><path d="M216.495,65.29951V76.846a80.61925,80.61925,0,0,0,8.17625-16.33958Z" fill="#201600"/><path d="M45.51839,78.65888c5.06545-2.4496,10.2918-4.6661,15.614-6.63121l-.01649-8.90989,4.61061,7.2766a176.27474,176.27474,0,0,1,56.55542-9.256c5.974,0,12.33846.29709,18.15806.87718l1.012-3.69312-.0185,3.84444A175.24763,175.24763,0,0,1,199.09975,78.711l-.0762,2.88572L173.19532,94.66329a151.99391,151.99391,0,0,0-85.978-4.63445l-4.25781-3.59952-.00223,4.64737s-5.74539,1.51251-11.48207,3.54426L45.526,81.58583Z" fill="#201600"/><path d="M61.11587,74.88394,80.004,88.97764s-3.25143.92172-8.74988,2.67468L49.85355,79.35418C55.63057,76.78067,61.11587,74.88394,61.11587,74.88394Z" fill="#a47858" stroke="#a47858" stroke-width="0.21291"/><path d="M79.8908,68.97525,93.707,85.59473c-1.98138.44058-4.35588,1.05321-6.68982,1.60053L69.77661,71.82086A104.89624,104.89624,0,0,1,79.8908,68.97525Z" fill="#a47858" stroke="#a47858" stroke-width="0.21291"/><path d="M92.69949,66.29856,102.583,84.32915c-2.42219.28726-5.37321.58655-6.18819.84216L83.78537,68.10475A84.50763,84.50763,0,0,1,92.69949,66.29856Z" fill="#a47858" stroke="#a47858" stroke-width="0.21291"/><path d="M114.80518,63.93071l2.48435,19.30156c-4.02629.10225-8.13837.42008-12.20254.87046L96.43606,65.67725A139.1736,139.1736,0,0,1,114.80518,63.93071Z" fill="#a47858" stroke="#a47858" stroke-width="0.21291"/><path d="M137.85329,64.40944l-5.15013,18.98818c-3.77157-.20235-7.12749-.26987-10.42126-.26987-.74656,0-1.48866.00669-2.494.01649l-1.12516-19.31355A187.93152,187.93152,0,0,1,137.85329,64.40944Z" fill="#a47858" stroke="#a47858" stroke-width="0.21291"/><path d="M157.7447,67.46832l-11.69,17.55725a81.24183,81.24183,0,0,0-10.61159-1.457l6.68114-18.59861A109.241,109.241,0,0,1,157.7447,67.46832Z" fill="#a47858" stroke="#a47858" stroke-width="0.21291"/><path d="M172.32686,71.08411,156.18205,86.99737a76.42,76.42,0,0,0-7.57453-1.59652l13.02953-17.147C167.08649,69.43232,172.32686,71.08411,172.32686,71.08411Z" fill="#a47858" stroke="#a47858" stroke-width="0.21291"/><path d="M194.76905,79.53042,173.02329,91.79383a111.1388,111.1388,0,0,0-13.77812-4.21771l17.16458-15.16871A182.51994,182.51994,0,0,1,194.76905,79.53042Z" fill="#a47858" stroke="#a47858" stroke-width="0.21291"/><path d="M28.06454,76.86224l.03366-20.71619a17.13328,17.13328,0,0,1-1.90428.87492l-5.75852,3.0152.00111-4.3492.00334-11.47024V42.62912l3.31984-1.72688a176.49654,176.49654,0,0,1,19.05037-8.49093l3.5233-1.28831.00335,3.75195.01092,85.27381.00312,6.13514-4.43946-4.23733C40.41706,120.62006,5.21766,86.71966.03812,56.69226L0,56.47253v-.22642L.01092,28.43205l1.283-.76174A220.10949,220.10949,0,0,1,42.93084,8.6875l3.41344-1.07619V26.79l-1.73223.62558A234.97015,234.97015,0,0,0,18.24275,39.1905l-.00423,15.417-.03812-.44615C19.33963,60.76958,22.65858,68.38224,28.06454,76.86224Z" fill="#201600"/><path d="M158.426,67.52381h0a131.16276,131.16276,0,0,0-14.68022-2.45272l-3.5126-.39936V18.28288l4.06305.4047c.20569.02073,5.098.49072,10.37336,1.28519l1.04362.2057.00646,31.147a55.15978,55.15978,0,0,1,6.567,1.20787l2.57551.64315-.67012,2.56682-2.59757,9.89888-.65608,2.50289Z" fill="#201600"/><path d="M72.89722,52.42017l7.82726,12.8087,1.86818,3.05442-3.47428.86289c-.05882.01426-6.05447,1.50827-10.04263,2.91736l-1.99344.70511-1.11114-1.79753-4.8553-7.85334V74.88394l-1.72912.62692c-.04234.01627-4.32424,1.58315-10.11975,4.31332l-3.741,1.76165V31.39288l1.70839-.63558a192.00111,192.00111,0,0,1,24.33109-7.247l1.83786-.39177.96184,1.61479,5.49734,9.22634.58545.98478-.322,1.09911C78.68294,40.9555,76.07153,48.615,72.89722,52.42017Z" fill="#201600"/><path d="M78.30875,22.21869l2.10106-.42877c.21884-.04457,5.45611-1.10558,10.454-1.72689l3.47873-.63223v46.588l-2.70945.47337c-5.84564,1.00106-9.98158,1.99788-10.023,2.0088l-3.27861.84751C78.89731,69.19409,78.30875,22.21869,78.30875,22.21869Z" fill="#201600"/><path d="M95.30241,34.85089l-3.89011.56047L93.81375,19.5625l3.44286-.493a157.871,157.871,0,0,1,19.74767-1.34714l3.39828-.02719-.83235,3.29376-7.00338,27.48446s.79447-.04884,4.55825-.09248l3.41677-.04346-.841,3.31227L117.074,61.96986l-.49072,1.93036-1.98807.04791a160.73325,160.73325,0,0,0-19.08068,1.84545l-3.9621.65407.99259-3.89012,7.20573-28.19941S97.30786,34.56162,95.30241,34.85089Z" fill="#201600"/><path d="M118.702,33.1055l-3.50926.135.866-3.40274L118.67144,19.581l.50053-1.88244,2.02618-.0143c.09025,0,9.1644-.12833,19.05994.64208l3.10457.26541-.76394,2.99244-6.8739,27.18431c.1687.00646,1.00106-.00669,4.92059.38843l3.035.30576-.75525,2.95436-2.56147,10.01969L139.81083,64.6l-2.22407-.19923c-8.70841-.78356-18.702-.57452-18.8001-.57229l-3.4569.07621.85642-3.34948,7.04572-27.48757S120.80414,33.02617,118.702,33.1055Z" fill="#201600"/><path d="M160.72068,65.95893V20.99233l3.085.55267c5.01308.89676,10.20355,2.17635,10.4235,2.23076l1.99342.493v2.05448l.01315,42.39756V72.304l-3.41254-1.08061c-.04346-.01293-4.38085-1.37746-10.07742-2.70945l-2.02506-.47668Z" fill="#201600"/><path d="M178.70781,24.92279c.40047.1034,9.92832,2.58219,18.60733,5.80729l1.70841.63561V81.59675l-3.75843-1.8031a170.30088,170.30088,0,0,0-18.03282-7.18924l-1.80622-.59413.00869-47.93634Z" fill="#201600"/><path d="M161.65111,55.0797s-3.02837-.75525-8.56047-1.554V22.43619c-4.07843-.66257-10.23185-1.26981-10.23185-1.26981V62.33222a142.16449,142.16449,0,0,1,16.19831,2.64415Z" fill="#57b3a5" stroke="#57b3a5" stroke-width="0.21291"/><path d="M58.49023,51.01861V40.48973c2.43844-.83458,7.086-2.19265,7.086-2.19265S61.30864,50.332,58.49023,51.01861Zm19.11654-15.716-5.49511-9.22433a190.76279,190.76279,0,0,0-23.997,7.1382l.02719,10.924,6.07742-2.26664L48.1485,49.61935V77.4499C54.13767,74.62947,58.49023,73.045,58.49023,73.045V56.69c.64627-.31756,1.779.19388,2.54853,1.332L68.1997,69.589c4.16-1.46879,10.28645-2.99021,10.28645-2.99021l-8.3483-13.63659a4.65927,4.65927,0,0,0-.8357-.89453C73.06057,50.79022,77.60677,35.30261,77.60677,35.30261Z" fill="#57b3a5" stroke="#57b3a5" stroke-width="0.21291"/><path d="M81.48062,65.87313l-.01738-41.82641s4.77039-.76391,10.25369-1.69633v41.403C85.151,65.10474,81.48062,65.87313,81.48062,65.87313Z" fill="#57b3a5" stroke="#57b3a5" stroke-width="0.21291"/><path d="M95.088,63.2038a166.53512,166.53512,0,0,1,21.02841-1.87824l2.62566-10.32207c-5.309.0468-9.57243.36994-9.57243.36994L117.025,20.34605A166.04577,166.04577,0,0,0,96.1468,21.9292L93.43713,32.52007c3.57679-.56672,9.775-1.18714,9.775-1.18714Z" fill="#57b3a5" stroke="#57b3a5" stroke-width="0.21291"/><path d="M15.61932,37.6312l-.00446,16.97516c1.78907,10.38205,8.28746,21.44848,15.07534,30.751L30.676,57.16248l4.71288-7.68241c-4.25894,1.97715-15.04369,7.33075-15.04369,7.33075l.00535-11.5244c12.83478-6.43867,23.3931-10.40924,23.3931-10.40924l-.0196,85.27158S7.71718,85.76655,2.62454,56.24722l.00982-26.32228A219.87333,219.87333,0,0,1,43.71974,11.19033V24.94774A219.99356,219.99356,0,0,0,15.61932,37.6312Z" fill="#57b3a5" stroke="#57b3a5" stroke-width="0.21291"/><path d="M118.72805,61.20592s10.12844-.2253,19.84572.58121l2.56149-10.01858c-4.64426-.39178-8.74232-.57563-8.74232-.57563l7.66169-30.25073c-9.9-.77041-20.16129-.7138-20.16129-.7138l-2.61362,10.257c3.53869-.086,9.28183.08379,9.28183.08379Z" fill="#57b3a5" stroke="#57b3a5" stroke-width="0.21291"/><path d="M173.61317,68.72075,173.598,26.32427s-5.26669-1.30254-10.25481-2.19484v41.8295C169.217,67.33438,173.61317,68.72075,173.61317,68.72075Z" fill="#57b3a5" stroke="#57b3a5" stroke-width="0.21291"/><path d="M178.02454,38.09585l5.31016,1.57445-5.28408,1.74985V70.11247a172.09277,172.09277,0,0,1,18.3506,7.31225v-11.185s-3.33856-1.56376-8.13948-3.30246V57.42564c5.09689,1.90431,8.13948,3.21669,8.13948,3.21669V49.579s-4.38753-1.728-8.11987-2.99132c-.00646.01761-.00646-5.397,0-5.38524,4.78131,1.56487,8.11987,2.94564,8.11987,2.94564V33.1884c-8.65093-3.21443-18.3506-5.72487-18.3506-5.72487Z" fill="#57b3a5" stroke="#57b3a5" stroke-width="0.21291"/><polygon points="46.351 126.284 71.505 118.568 71.475 94.621 46.316 81.961 46.351 126.284" fill="#201600"/><path d="M18.24275,39.1905a234.97015,234.97015,0,0,1,26.3693-11.77488l.94445-.36459,2.67358,3.35171c-1.36343.3949-5.42,2.00857-5.42,2.00857a176.49654,176.49654,0,0,0-19.05037,8.49093L21.2341,42.23088Z" fill="#a47858" stroke="#a47858" stroke-width="0.21291"/><path d="M119.33421,48.35488l3.89769-15.28726s-2.42776-.04145-4.52993.03788l-2.27421.01761-3.86093,15.35033s.79447-.04884,4.55825-.09248Z" fill="#201600"/><polygon points="123.232 33.068 118.702 33.106 120.575 43.125 123.232 33.068" fill="#a47858" stroke="#a47858" stroke-width="0.21291"/><path d="M141.4225,49.2135c-3.91842-.39508-5.529-.43854-5.69768-.445l5.69768-22.614Z" fill="#201600"/><path d="M78.4828,41.14492c-1.705,4.28391-3.08917,8.283-5.58558,11.27525l5.66492,9.24817Z" fill="#201600"/><path d="M94.33168,34.98371c2.13068-.36994,5.4191-.62559,5.4191-.62559l-5.4082,21.17Z" fill="#201600"/><polygon points="99.751 34.358 94.76 34.923 97.486 43.367 99.751 34.358" fill="#a47858" stroke="#a47858" stroke-width="0.21291"/><path d="M29.35286,96.00709a132.7422,132.7422,0,0,0,14.97839,11.123l.08491,2.0654C31.71309,99.75481,29.35286,96.00709,29.35286,96.00709Z" fill="#fff" stroke="#fff" stroke-width="0.10641"/><path d="M30.79137,91.13976A148.66985,148.66985,0,0,0,44.241,101.19333v1.83787C33.711,95.0876,30.79137,91.13976,30.79137,91.13976Z" fill="#fff" stroke="#fff" stroke-width="0.10641"/><path d="M44.243,95.71671A115.45447,115.45447,0,0,1,32.98625,87.4716s1.89113,2.91845,11.25476,9.861Z" fill="#fff" stroke="#fff" stroke-width="0.10641"/><path d="M28.90893,16.21971c5.59963,5.52876,7.29377,7.25787,7.29377,7.25787s.35254-.41562-6.37873-7.7301Z" fill="#fff" stroke="#fff" stroke-miterlimit="12" stroke-width="0.21291"/><path d="M25.25481,17.09463c6.0937,6.98577,7.47561,9.27759,7.47561,9.27759s-1.14569-.751-8.45371-8.62909Z" fill="#fff" stroke="#fff" stroke-miterlimit="12" stroke-width="0.21291"/><path d="M20.90874,18.85851a109.38649,109.38649,0,0,1,7.29709,9.08482s-1.30458-.74967-8.37325-8.44389Z" fill="#fff" stroke="#fff" stroke-miterlimit="12" stroke-width="0.21291"/><path d="M17.34732,21.51247c4.18607,4.61261,6.51912,7.65945,6.51912,7.65945s-.98479-.51256-7.49856-7.011Z" fill="#fff" stroke="#fff" stroke-miterlimit="12" stroke-width="0.21291"/><path d="M12.36366,24.09129c5.44608,5.38635,5.96511,5.87065,5.96511,5.87065a43.79618,43.79618,0,0,0-5.061-6.332Z" fill="#fff" stroke="#fff" stroke-miterlimit="12" stroke-width="0.21291"/><path d="M77.08551,33.55722c-5.59849,4.64092-9.48529,8.37772-9.48529,8.37772s1.56153-2.65307,8.87713-9.441Z" fill="#fff" stroke="#fff" stroke-width="0.10641"/><path d="M77.87018,35.31241C68.191,44.21985,66.19982,47.64978,66.19982,47.64978s4.40379-4.51589,10.84224-9.90537Z" fill="#fff" stroke="#fff" stroke-width="0.10641"/><path d="M75.93225,41.32005c-9.13608,8.69977-11.086,12.09694-11.086,12.09694S68.881,49.23315,74.98,43.93058Z" fill="#fff" stroke="#fff" stroke-width="0.10641"/><path d="M73.34248,49.05888c-8.03831,6.99914-8.98722,9.05451-8.98722,9.05451s1.17644-1.40152,6.59-5.47884Z" fill="#fff" stroke="#fff" stroke-width="0.10641"/><path d="M80.42519,30.74861c5.24484-3.54852,8.93687-5.6322,8.93687-5.6322s-2.07278.308-8.93687,4.32762Z" fill="#fff" stroke="#fff" stroke-miterlimit="12" stroke-width="0.15962"/><path d="M81.15748,35.17737c3.83129-2.90422,6.346-4.69975,6.346-4.69975s-1.5787.24068-6.35043,3.35059Z" fill="#fff" stroke="#fff" stroke-miterlimit="8" stroke-width="0.15962"/><path d="M81.22612,39.66718c3.21757-2.641,5.44387-4.297,5.44387-4.297s-1.73448.39044-5.45055,2.99448Z" fill="#fff" stroke="#fff" stroke-miterlimit="8" stroke-width="0.15962"/><path d="M81.151,44.46476c3.57569-3.00654,6.31766-4.96516,6.31766-4.96516s-1.8401.37216-6.31565,3.59306Z" fill="#fff" stroke="#fff" stroke-miterlimit="8" stroke-width="0.15962"/><path d="M215.35665,106.81346a73.72784,73.72784,0,0,0-6.31543-6.25883,37.29105,37.29105,0,0,1,6.92917,5.39817Z" fill="#fff" stroke="#fff" stroke-miterlimit="12" stroke-width="0.21291"/><path d="M218.08593,102.06045c-5.61054-5.1566-8.44858-6.57773-8.44858-6.57773s1.9805,2.14028,7.80654,7.456Z" fill="#fff" stroke="#fff" stroke-miterlimit="12" stroke-width="0.21291"/><path d="M221.14348,98.51642c-6.87056-6.56035-10.1806-8.09157-10.1806-8.09157a102.843,102.843,0,0,1,9.4385,9.24728Z" fill="#fff" stroke="#fff" stroke-miterlimit="12" stroke-width="0.21291"/><path d="M224.14018,94.50016c-5.77368-5.46369-8.72024-6.863-8.72024-6.863a96.6852,96.6852,0,0,1,8.03053,7.85646Z" fill="#fff" stroke="#fff" stroke-miterlimit="12" stroke-width="0.21291"/><path d="M147.62606,21.321c3.76822,4.28836,4.52325,6.027,4.52325,6.027s-2.41662-2.37739-6.28713-6.10327Z" fill="#fff" stroke="#fff" stroke-width="0.10641"/><path d="M142.6999,20.69415c6.19375,6.58664,7.68352,9.96755,7.68352,9.96755s-3.76176-4.29171-8.55063-8.86532Z" fill="#fff" stroke="#fff" stroke-width="0.10641"/><path d="M142.78257,26.55827a36.2024,36.2024,0,0,1,5.07726,6.76162s-2.754-2.66154-5.98806-5.88135Z" fill="#fff" stroke="#fff" stroke-width="0.10641"/><path d="M139.8554,24.285c-1.32843-1.32085-2.85629-2.77029-4.60593-4.34274l-1.652.05126c2.26886,2.02284,4.269,3.866,5.999,5.49823Z" fill="#fff" stroke="#fff" stroke-width="0.04258"/><path d="M138.58137,28.3721a118.7666,118.7666,0,0,0-9.88377-8.57025l-1.98139.03053c4.70621,3.68888,8.60168,7.05107,11.6463,9.82492Z" fill="#fff" stroke="#fff" stroke-width="0.04258"/><path d="M141.99055,32.89669c2.65285,2.57774,4.308,4.16534,4.308,4.16534s-.55714-1.70839-3.47785-4.99681Z" fill="#fff" stroke="#fff" stroke-width="0.10641"/><path d="M173.88527,54.7423a67.99948,67.99948,0,0,0-6.98152,3.52776s1.60163-2.09794,7.37976-5.33622Z" fill="#fff" stroke="#fff" stroke-width="0.08516"/><path d="M174.67529,57.60417c-5.43427,2.77363-6.87947,4.53974-6.87947,4.53974s2.97285-1.5125,6.912-3.0903Z" fill="#fff" stroke="#fff" stroke-width="0.08516"/><path d="M177.99178,53.64541a90.12411,90.12411,0,0,1,10.32657-2.71925s-3.54738-.20681-11.27748,1.59206Z" fill="#fff" stroke="#fff" stroke-width="0.08516"/><path d="M178.05062,57.91439c4.37438-1.80534,8.26116-2.92183,8.26116-2.92183a44.24755,44.24755,0,0,0-9.506,1.97292Z" fill="#fff" stroke="#fff" stroke-width="0.08516"/><path d="M178.05062,62.305a49.292,49.292,0,0,1,7.789-3.37556,29.74027,29.74027,0,0,0-8.7987,2.36781Z" fill="#fff" stroke="#fff" stroke-width="0.08516"/><path d="M177.43911,67.009c2.2916-1.619,9.14256-4.2416,9.14256-4.2416a44.24068,44.24068,0,0,0-9.3819,2.58223Z" fill="#fff" stroke="#fff" stroke-width="0.08516"/><path d="M119.13052,51.25261a86.433,86.433,0,0,0-10.57772,7.8946s1.40576-2.70945,10.04243-9.147Z" fill="#fff" stroke="#fff" stroke-width="0.10641"/><path d="M117.90639,55.68474l-.40158-.074a23.85083,23.85083,0,0,0-5.54392,5.35048s1.12609-.79335,5.55372-3.85Z" fill="#fff" stroke="#fff" stroke-width="0.10641"/><path d="M121.52775,50.08734a88.41222,88.41222,0,0,1,8.0753-4.18941s-2.94456.47445-8.82609,3.20017Z" fill="#fff" stroke="#fff" stroke-width="0.10641"/><path d="M120.14474,55.30611c4.30907-3.08495,8.53213-5.45165,8.53213-5.45165a66.17424,66.17424,0,0,0-9.36228,4.542Z" fill="#fff" stroke="#fff" stroke-width="0.10641"/><path d="M118.64091,61.27568a43.86554,43.86554,0,0,1,8.27542-6.75089s-3.24383,1.051-9.10466,5.68342Z" fill="#fff" stroke="#fff" stroke-width="0.10641"/><path d="M123.34066,61.55956c3.30357-2.52021,6.24389-4.36123,6.24389-4.36123s-2.5822.63538-8.18515,4.31889Z" fill="#fff" stroke="#fff" stroke-width="0.10641"/><polygon points="224.549 94.391 222.158 92.394 222.534 95.34 223.729 96.191 224.549 94.391" fill="#201600"/><polygon points="221.764 98.771 219.191 96.36 219.448 99.491 220.706 100.312 221.764 98.771" fill="#201600"/><polygon points="218.798 102.16 216.423 100.302 216.66 103.17 217.402 103.802 218.798 102.16" fill="#201600"/><polygon points="216.554 105.977 213.929 103.903 214.09 106.362 215.378 107.657 216.554 105.977" fill="#201600"/><path d="M241.83361,48.21337a228.23181,228.23181,0,0,0-25.34085-13.88262v3.73457a223.99466,223.99466,0,0,1,21.61941,11.98057Z" fill="#a47858"/><polygon points="172.416 58.747 174.908 57.215 174.969 59.171 173.896 59.697 172.416 58.747" fill="#201600"/><polygon points="172.416 53.895 174.512 52.537 174.373 54.812 173.896 54.911 172.416 53.895" fill="#201600"/><polygon points="139.638 23.832 140.509 24.266 139.955 26.063 138.292 24.403 139.638 23.832" fill="#201600"/><polygon points="138.452 28.144 139.321 28.578 138.769 30.372 137.108 28.713 138.452 28.144" fill="#201600"/><polygon points="117.654 50.681 116.547 53.051 119.235 51.51 119.512 48.743 117.654 50.681" fill="#201600"/><polygon points="117.337 55.584 115.518 58.588 117.994 57.108 118.217 54.889 117.337 55.584" fill="#201600"/><polygon points="76.136 32.571 75.029 35.626 77.877 33.202 77.105 31.701 76.136 32.571" fill="#201600"/><polygon points="75.424 37.394 76.771 38.185 78.351 36.92 78.272 34.705 75.424 37.394" fill="#201600"/><polygon points="73.341 43.691 74.525 44.641 75.841 43.434 76.74 40.292 73.341 43.691" fill="#201600"/><polygon points="82.483 29.761 80.012 31.405 79.657 29.556 80.981 28.788 82.483 29.761" fill="#201600"/><polygon points="179.415 53.33 177.755 53.842 176.246 52.558 177.779 52.203 179.415 53.33" fill="#201600"/><polygon points="179.335 57.567 177.576 58.233 176.301 56.947 177.833 56.592 179.335 57.567" fill="#201600"/><polygon points="179.295 61.79 177.618 62.643 176.34 61.256 177.805 60.832 179.295 61.79" fill="#201600"/><polygon points="179.335 66.06 177.476 67.129 176.684 67.563 176.301 65.567 177.794 64.954 179.335 66.06" fill="#201600"/><polygon points="143.829 32.966 142.563 33.836 141.278 32.63 142.088 31.058 143.829 32.966" fill="#201600"/><polygon points="143.829 27.509 142.721 28.616 141.278 27.173 142.088 25.703 143.829 27.509" fill="#201600"/><polygon points="143.908 21.816 142.721 23.002 141.248 21.541 142.407 19.758 143.908 21.816" fill="#201600"/><polygon points="148.06 21.471 146.992 22.606 145.361 21.289 146.835 20.165 148.06 21.471" fill="#201600"/><polygon points="143.947 21.867 142.721 23.002 141.248 21.687 142.721 20.562 143.947 21.867" fill="#201600"/><polygon points="123.085 49.41 121.233 50.41 120.082 49.285 121.689 48.502 123.085 49.41" fill="#201600"/><polygon points="121.786 54.38 119.933 55.585 118.816 54.425 120.424 53.642 121.786 54.38" fill="#201600"/><polygon points="120.328 59.922 118.485 61.672 117.392 59.999 119.001 59.117 120.328 59.922" fill="#201600"/><polygon points="123.849 61.384 122.001 63.134 119.571 62.364 120.945 61.463 122.554 60.578 123.849 61.384" fill="#201600"/><polygon points="82.542 34.41 81.041 35.516 79.716 34.182 81.176 33.56 82.542 34.41" fill="#201600"/><polygon points="82.463 38.912 81.041 40.035 79.716 38.77 81.176 38.147 82.463 38.912" fill="#201600"/><polygon points="82.542 43.664 81.041 44.78 79.716 43.516 81.176 42.891 82.542 43.664" fill="#201600"/><polygon points="68.782 52.894 70.523 53.369 72.577 52.024 74.2 48.07 68.782 52.894" fill="#201600"/><polygon points="26.227 17.817 25.606 19.529 23.782 17.541 25.169 16.345 26.227 17.817" fill="#201600"/><polygon points="22.069 19.807 21.448 21.519 19.334 19.529 21.011 18.335 22.069 19.807" fill="#201600"/><polygon points="129.314 19.947 128.114 21.138 125.74 19.467 128.391 18.644 129.314 19.947" fill="#201600"/><polygon points="136 20.313 134.825 21.342 132.578 19.644 135.093 18.822 136 20.313" fill="#201600"/><polygon points="18.057 21.879 17.438 23.591 15.322 21.598 16.999 20.405 18.057 21.879" fill="#201600"/><polygon points="13.938 23.907 13.5 25.662 11.383 23.431 13.061 22.475 13.938 23.907" fill="#201600"/><polygon points="30.384 15.907 29.763 17.62 27.939 15.629 29.327 14.434 30.384 15.907" fill="#201600"/><polygon points="42.588 94.331 45.376 95.873 45.256 98.483 44.013 97.767 42.588 94.331" fill="#201600"/><polygon points="42.588 99.671 45.376 101.45 45.256 104.058 44.013 103.34 42.588 99.671" fill="#201600"/><polygon points="42.765 105.77 45.553 107.55 45.433 110.158 43.893 109.032 42.765 105.77" fill="#201600"/><path d="M66.88956,6.929c-.39825.90879-3.39719,8.94153-4.17294,10.83043,0,0-7.85311-6.82153-8.55287-7.41789l2.92717-2.47767c.48738.53414,3.76934,4.11966,4.48737,4.91836.22753-1.05766,1.54526-6.011,1.6498-6.50708Z" fill="#201600" stroke="#201600" stroke-width="1.17096"/><path d="M68.79718,15.59505c.33739-.80517,3.5039-8.246,4.62017-10.68223,0,0,7.83373,7.22957,8.64759,7.89542l-2.803,2.246c-.58655-.5919-1.62906-1.67675-1.83252-1.88467l-4.68993,1.17195c-.088.22-.44594,1.42117-.6659,2.14366Zm7.18722-4.16869c-.59413-.71045-1.3819-1.58314-1.77592-2.09908-.24915.74432-.6017,1.88693-.85841,2.74981Z" fill="#201600" stroke="#201600" stroke-width="1.17096"/><path d="M86.2597,13.60809c-.037-1.0142-.73653-8.28723-.82589-10.18282,0,0,7.938,3.76065,8.517,4.0501-.10007-.77594-.63-4.54639-.692-5.15567L96.3643,1.94c.05126,1.11092.18386,3.23181.31133,5.31125.1404,2.061.29149,4.07843.36236,5.001,0,0-8.10561-3.975-8.355-4.111.07511.579.61373,4.65183.68661,5.11425Z" fill="#201600" stroke="#201600" stroke-width="1.17096"/><path d="M110.24582,11.766a17.36591,17.36591,0,0,1-1.8771.259c-5.24373.39935-7.43526-2.43111-7.569-4.33427-.16558-2.35578,2.21961-5.46035,7.65945-6.9314l.72584,2.73887c-3.33522.79759-4.603,2.20776-4.50943,3.54091.07733,1.09354,1.67474,2.49394,3.801,2.33193.63758-.05014,1.14791-.13286,1.52765-.18943Z" fill="#201600" stroke="#201600" stroke-width="1.17096"/><path d="M114.02074,6.36871c-.01851-2.74755,2.20667-5.72379,6.93472-5.78236,3.81168-.0468,6.21114,1.80087,6.23075,4.93237.014,2.14811-1.58426,5.57132-6.95123,5.63777C115.95642,11.19682,114.03476,8.64516,114.02074,6.36871Zm9.24058-.702c.00424-1.83676-.96317-2.89107-2.50175-2.87146-1.82583.02273-2.84113,1.57222-2.83023,3.31.01092,1.90762,1.15438,2.85965,2.46787,2.8445C122.12856,8.92684,123.258,7.78762,123.26132,5.66673Z" fill="#201600" stroke="#201600" stroke-width="1.17096"/><path d="M135.16234,4.66144c-.1502,2.272-.08914,3.30357.47557,3.97815a1.80768,1.80768,0,0,0,1.3253.59212A1.72354,1.72354,0,0,0,138.43,8.64627c.47-.56047.54087-1.15237.753-4.38l.03363-.5386c.06641-.97921.06641-1.96511.08268-2.49172l3.66393.21216c-.02184.31222-.07733,1.39172-.14909,2.51579l-.04457.655c-.17851,2.728-.46354,4.39288-1.765,5.6159a5.80054,5.80054,0,0,1-4.4038,1.34291,5.37161,5.37161,0,0,1-4.35811-2.036c-.71491-1.08262-.91838-2.1512-.692-5.60387l.049-.76728c.04457-.655.13594-1.83033.15867-2.15989l3.72477.2175a18.75225,18.75225,0,0,0-.259,2.46587Z" fill="#201600" stroke="#201600" stroke-width="1.17096"/><path d="M160.0929,4.08024c-.70733.69861-8.00777,8.51276-8.00777,8.51276-1.34713-2.46921-4.618-9.23859-5.04138-10.05357l3.63562-1.21967c.24805.67788,1.9435,5.23058,2.30786,6.23832.60616-.89877,3.68131-5.01865,3.96411-5.44185Z" fill="#201600" stroke="#201600" stroke-width="1.17096"/><path d="M170.18992,15.86381c-.56158-.10652-7.07847-1.55061-7.89568-1.70508.19257-.73338.78556-3.72585.84775-4.04564l.371-1.874c.04457-.224.74856-3.60067.81386-4.00868.87915.16647,7.75639,1.29274,8.34829,1.3623l-.56159,2.29605c-.581-.111-4.5179-.82255-4.80092-.876l-.36548,1.84678c.31333.05861,3.456.62666,4.16312.70065l-.55914,2.2243c-.42231-.08068-3.665-.80539-4.0089-.87069l-.33072,1.6649c.40918.07625,3.81725.80855,4.57027.89457Z" fill="#201600" stroke="#201600" stroke-width="1.17096"/><path d="M179.42607,13.42535c-.14152.52661-1.03582,4.03275-1.05989,4.24491l-3.6149-.86181c.15243-.31664,1.30592-4.70083,1.38414-4.99031l.30486-1.13276c.113-.41362.89208-3.42013.91392-3.692,2.22207.52972,4.46575,1.09466,5.8782,1.60811,2.33083.83681,3.41031,1.948,3.06868,3.21777-.30687,1.13384-1.369,1.80511-2.84026,2.2633a45.05828,45.05828,0,0,0,2.80327,4.38953l-2.84673.913a62.257,62.257,0,0,1-3.47338-6.20356c.80739-.18719,2.16323-.67145,2.41572-1.59964.174-.6485-.19143-1.39706-1.939-1.82917Z" fill="#201600" stroke="#201600" stroke-width="1.17096"/><path d="M66.88956,6.929c-.39825.90879-3.39719,8.94153-4.17294,10.83043,0,0-7.85311-6.82153-8.55287-7.41789l2.92717-2.47767c.48738.53414,3.76934,4.11966,4.48737,4.91836.22753-1.05766,1.54526-6.011,1.6498-6.50708Z" fill="#c5524e" stroke="#201600" stroke-width="0.10641"/><path d="M68.79718,15.59505c.33739-.80517,3.5039-8.246,4.62017-10.68223,0,0,7.83373,7.22957,8.64759,7.89542l-2.803,2.246c-.58655-.5919-1.62906-1.67675-1.83252-1.88467l-4.68993,1.17195c-.088.22-.44594,1.42117-.6659,2.14366Zm7.18722-4.16869c-.59413-.71045-1.3819-1.58314-1.77592-2.09908-.24915.74432-.6017,1.88693-.85841,2.74981Z" fill="#c5524e" stroke="#201600" stroke-width="0.10641"/><path d="M86.2597,13.60809c-.037-1.0142-.73653-8.28723-.82589-10.18282,0,0,7.938,3.76065,8.517,4.0501-.10007-.77594-.63-4.54639-.692-5.15567L96.3643,1.94c.05126,1.11092.18386,3.23181.31133,5.31125.1404,2.061.29149,4.07843.36236,5.001,0,0-8.10561-3.975-8.355-4.111.07511.579.61373,4.65183.68661,5.11425Z" fill="#c5524e" stroke="#201600" stroke-width="0.10641"/><path d="M110.24582,11.766a17.36591,17.36591,0,0,1-1.8771.259c-5.24373.39935-7.43526-2.43111-7.569-4.33427-.16558-2.35578,2.21961-5.46035,7.65945-6.9314l.72584,2.73887c-3.33522.79759-4.603,2.20776-4.50943,3.54091.07733,1.09354,1.67474,2.49394,3.801,2.33193.63758-.05014,1.14791-.13286,1.52765-.18943Z" fill="#c5524e" stroke="#201600" stroke-width="0.10641"/><path d="M114.02074,6.36871c-.01851-2.74755,2.20667-5.72379,6.93472-5.78236,3.81168-.0468,6.21114,1.80087,6.23075,4.93237.014,2.14811-1.58426,5.57132-6.95123,5.63777C115.95642,11.19682,114.03476,8.64516,114.02074,6.36871Zm9.24058-.702c.00424-1.83676-.96317-2.89107-2.50175-2.87146-1.82583.02273-2.84113,1.57222-2.83023,3.31.01092,1.90762,1.15438,2.85965,2.46787,2.8445C122.12856,8.92684,123.258,7.78762,123.26132,5.66673Z" fill="#c5524e" stroke="#201600" stroke-width="0.10641"/><path d="M135.16234,4.66144c-.1502,2.272-.08914,3.30357.47557,3.97815a1.80768,1.80768,0,0,0,1.3253.59212A1.72354,1.72354,0,0,0,138.43,8.64627c.47-.56047.54087-1.15237.753-4.38l.03363-.5386c.06641-.97921.06641-1.96511.08268-2.49172l3.66393.21216c-.02184.31222-.07733,1.39172-.14909,2.51579l-.04457.655c-.17851,2.728-.46354,4.39288-1.765,5.6159a5.80054,5.80054,0,0,1-4.4038,1.34291,5.37161,5.37161,0,0,1-4.35811-2.036c-.71491-1.08262-.91838-2.1512-.692-5.60387l.049-.76728c.04457-.655.13594-1.83033.15867-2.15989l3.72477.2175a18.75225,18.75225,0,0,0-.259,2.46587Z" fill="#c5524e" stroke="#201600" stroke-width="0.10641"/><path d="M160.0929,4.08024c-.70733.69861-8.00777,8.51276-8.00777,8.51276-1.34713-2.46921-4.618-9.23859-5.04138-10.05357l3.63562-1.21967c.24805.67788,1.9435,5.23058,2.30786,6.23832.60616-.89877,3.68131-5.01865,3.96411-5.44185Z" fill="#c5524e" stroke="#201600" stroke-width="0.10641"/><path d="M170.18992,15.86381c-.56158-.10652-7.07847-1.55061-7.89568-1.70508.19257-.73338.78556-3.72585.84775-4.04564l.371-1.874c.04457-.224.74856-3.60067.81386-4.00868.87915.16647,7.75639,1.29274,8.34829,1.3623l-.56159,2.29605c-.581-.111-4.5179-.82255-4.80092-.876l-.36548,1.84678c.31333.05861,3.456.62666,4.16312.70065l-.55914,2.2243c-.42231-.08068-3.665-.80539-4.0089-.87069l-.33072,1.6649c.40918.07625,3.81725.80855,4.57027.89457Z" fill="#c5524e" stroke="#201600" stroke-width="0.10641"/><path d="M179.42607,13.42535c-.14152.52661-1.03582,4.03275-1.05989,4.24491l-3.6149-.86181c.15243-.31664,1.30592-4.70083,1.38414-4.99031l.30486-1.13276c.113-.41362.89208-3.42013.91392-3.692,2.22207.52972,4.46575,1.09466,5.8782,1.60811,2.33083.83681,3.41031,1.948,3.06868,3.21777-.30687,1.13384-1.369,1.80511-2.84026,2.2633a45.05828,45.05828,0,0,0,2.80327,4.38953l-2.84673.913a62.257,62.257,0,0,1-3.47338-6.20356c.80739-.18719,2.16323-.67145,2.41572-1.59964.174-.6485-.19143-1.39706-1.939-1.82917Z" fill="#c5524e" stroke="#201600" stroke-width="0.10641"/><path d="M46.08756,26.36242l-.7889.26207,3.39941,4.36458c4.14906-1.54393,7.04793-3.1741,10.493-4.19811L46.34428,7.59507Z" fill="#201600"/><path d="M198.20321,31.05013l-.88807-.32c-4.15219-1.543-8.49627-2.91511-11.94558-3.93912L198.21614,7.59507Z" fill="#201600"/><path d="M160.72068,20.99233l.00336,31.121s-2.7683-.54621-5.00441-.78779V33.89774Z" fill="#201600"/><path d="M216.495,65.29951V76.846a80.61925,80.61925,0,0,0,8.17625-16.33958Z" fill="#201600"/><path d="M198.20321,31.05013l-.88807-.32c-4.15219-1.543-8.49627-2.91511-11.94558-3.93912L198.21614,7.59507Z" fill="#201600"/><path d="M241.83361,48.21337a228.23181,228.23181,0,0,0-25.34085-13.88262v3.73457a223.99466,223.99466,0,0,1,21.61941,11.98057Z" fill="#a47858" stroke="#a47858" stroke-width="0.21291"/><path d="M200.57972,15.16205c10.5376,10.65393,11.18187,13.0587,11.18187,13.0587s-3.39517-3.30131-10.94676-10.2122Z" fill="#fff"/><path d="M203.37407,11.45689c8.94465,9.2308,9.95,12.6868,9.95,12.6868s-5.27094-5.87284-12.86621-12.81627l.03253-.50387Z" fill="#fff"/><path d="M211.45026,14.72682c3.75418,4.31889,4.56806,6.90978,4.56806,6.90978s-3.21-3.76737-7.23628-7.75752Z" fill="#fff"/><polygon points="201.376 18.585 202.634 17.081 200.262 14.7 200.083 17.635 201.376 18.585" fill="#201600"/><polygon points="202.517 13.384 204.018 11.971 201.796 9.639 199.818 10.903 202.517 13.384" fill="#201600"/><path d="M223.85738,61.90992c-1.728-.99125-3.56251-1.83341-6.88571-3.62025l-.00446,8.36456Z" fill="#a47858" stroke="#a47858" stroke-width="0.21291"/><path d="M21.41372,61.27568c1.728-.99036,3.56364-1.83141,6.88571-3.61936L28.30166,66.02Z" fill="#a47858" stroke="#a47858" stroke-width="0.21291"/><polygon points="210.517 15.851 211.947 14.715 209.99 12.701 207.489 13.015 210.517 15.851" fill="#201600"/><path d="M53.735,159.34169a11.591,11.591,0,0,0-3.90639,3.39628,8.28637,8.28637,0,0,1,2.88238.19143,4.04382,4.04382,0,0,0-1.4744,1.41021c-3.13933-.384-8.00755,2.94567-7.23826,7.81412,0,0-1.4374,2.951-.71714,4.778,1.17421,2.97172,5.67473,3.55607,7.9456.54733l1.5486.11967c1.17177,2.974,6.45583,3.59306,8.72581.58343l1.46036.187c1.17176,2.97171,7.09253,3.56587,9.3645.556l1.14146.02076c1.17421,2.97174,7.54624,3.74215,9.81622.7323l.48538.9696c8.91947,4.57676,17.43869-4.00665,17.43869-4.00665a9.12825,9.12825,0,0,0-2.98489-.20881c1.95-1.96311,5.61166-5.31571,8.94465-6.469a5.58417,5.58417,0,0,0-2.0371-1.01313,19.7283,19.7283,0,0,1,7.67372-3.34279,19.17778,19.17778,0,0,1-1.93481-1.01194c7.41678-3.5213,17.10352-1.61279,17.10352-1.61279a5.13385,5.13385,0,0,1-2.74421-3.86182,14.66854,14.66854,0,0,0,14.09589.21438,2.88074,2.88074,0,0,1-2.13292-3.67239c4.81407,3.38959,10.9871,2.58866,10.9871,2.58866-1.33844-.55178-1.18179-2.83358-1.18179-2.83358a13.29463,13.29463,0,0,0,9.72485.71492s3.95767,10.036,14.66284,7.73121l.38086-1.08485c1.78237,3.31561,6.78565,2.37116,7.70625-.94556l.89877-.03925a3.97692,3.97692,0,0,0,7.3537-.74631l1.1448-.22533a3.62439,3.62439,0,0,0,6.85317-.767l1.21433-.1589c1.7846,3.3145,4.89229-.44838,5.81067-3.764.864-4.64738-2.99225-9.30813-2.99225-9.30813.433-.39489,2.67468-.42208,2.67468-.42208a14.5315,14.5315,0,0,0-5.17532-8.91947,4.03855,4.03855,0,0,1,1.88913-.54532c-2.32436-3.48965-7.50613-6.30785-7.50613-6.30785.40693-.58432,2.24814-2.60939,2.24814-2.60939a19.92351,19.92351,0,0,1-4.03052-2.84784,11.62217,11.62217,0,0,0,3.59954-5.22746,4.22646,4.22646,0,0,1,2.46139,2.46141c4.48536-4.36569,4.60281-11.18276,4.60281-11.18276a11.32456,11.32456,0,0,1,2.87058,1.61791c2.13493-4.36569.05882-10.00323.05882-10.00323a5.3986,5.3986,0,0,1,2.58108.335c.51793-3.18591-2.6399-9.8042-2.6399-9.8042a6.398,6.398,0,0,1,3.41677,1.047c.01092-5.59428-.19366-10.77717-3.07939-16.35162-2.6203-5.073-9.7672-7.90326-12.45725-6.94034a4.55561,4.55561,0,0,0-3.13822-2.43642,5.56829,5.56829,0,0,1,2.69006-.44816,11.81855,11.81855,0,0,0-13.42554-1.34491c-4.7684-7.49522-11.16451-5.70753-11.16451-5.70753,1.332.778,1.26871,1.28746,1.26871,1.28746-1.86506-.24068-3.63875,1.7572-3.63875,1.7572s-6.35376-6.37115-12.12186-.47758c0,0-2.89665-3.37221-9.096-.89676,0,0-6.407,4.42675-5.93257,14.15585" fill="#201600"/><path d="M54.72422,135.66579" fill="#201600"/><path d="M198.15753,151.86182c-.91192-5.90758-4.27209-7.90211-4.27209-7.90211a9.41137,9.41137,0,0,1,2.20446-.54956c-2.87926-4.93263-6.22629-6.07185-6.22629-6.07185.99684-.42654,2.18062-.80517,2.18062-.80517a11.80078,11.80078,0,0,0-6.02394-4.17738,22.09918,22.09918,0,0,1,1.99342-1.42225c-.63981-1.06969-2.988-1.7095-2.988-1.7095a28.58313,28.58313,0,0,1-8.54418,5.12517s5.97825,1.18825,6.407,1.75519c0,0-.79424.394-2.13493,1.06858,0,0,4.864,1.42448,7.71272,4.15131l-2.70722.99882C194.39688,145.95424,198.15753,151.86182,198.15753,151.86182Z" fill="#a47858" stroke="#201600" stroke-width="0.20538"/><path d="M83.42079,168.35609c1.83563-.88361,4.45059-1.45813,6.28623-.42231a2.87906,2.87906,0,0,1,1.43316,3.222c-.38731,1.9903-1.99676,2.52334-3.0611,2.877a7.56546,7.56546,0,0,0-1.285.52014c-1.53768.84239-3.59305,4.0479-4.8836,7.62469,0,0-.94667,3.93581-1.84344,3.93581-.65385,0-1.84009-3.93249-1.84009-3.93249C76.28792,175.1014,79.92132,170.04153,83.42079,168.35609Z" fill="#201600"/><path d="M48.93183,167.71182c1.4637-.50053,5.061-1.49846,6.824.09471a2.23668,2.23668,0,0,1,.19365,3.11972,5.29906,5.29906,0,0,1-3.65635,2.19154,12.83789,12.83789,0,0,0-1.65177.48961c-2.04023.78355-5.32977,3.54091-7.99776,6.71052,0,0-2.344,3.356-2.986,3.356-.63981,0-.51345-4.21772-.51345-4.21772C39.3857,173.43558,44.88728,169.10042,48.93183,167.71182Z" fill="#201600"/><path d="M41.06467,179.41383c2.48972-2.95659,6.04578-6.20021,8.76726-7.24272,2.17839-.8357,1.31975.396,2.3667-.91191,1.026-1.283.27968-3.22625-2.60738-2.235C46.25291,170.16677,40.88728,174.04486,41.06467,179.41383Z" fill="#fff" stroke="#201600" stroke-width="0.08619"/><path d="M86.40991,162.03283a3.12473,3.12473,0,0,1,1.92054,1.1524,7.94391,7.94391,0,0,0-4.03475,3.26658c5.76611-3.45823,10.18616,1.21878,10.07073,3.69089a3.36734,3.36734,0,0,0-1.4842-.39489c.83257,2.1512-1.21879,4.45594-1.21879,4.45594,3.45824-.51145,6.85429-2.75315,6.53338-5.89335,0,0,3.73235-3.18078,7.81613-3.58882a7.163,7.163,0,0,0-2.56259-1.27962,27.07466,27.07466,0,0,1,9.08618-2.74332s-5.62594-.97387-8.18853-3.407a5.918,5.918,0,0,0,.51256,2.30475,21.44149,21.44149,0,0,1-6.91958-4.482s1.02624,3.84221,3.71719,5.50826a6.44391,6.44391,0,0,0-3.20574,2.05,2.951,2.951,0,0,1,1.53545.95648,10.90556,10.90556,0,0,0-3.96745,2.50264,6.478,6.478,0,0,0-2.82043-2.05,7.53662,7.53662,0,0,1,2.1775-1.4091C92.9444,160.49406,88.30015,160.61485,86.40991,162.03283Z" fill="#a47858" stroke="#201600" stroke-width="0.21291"/><path d="M83.5819,163.442c-.60282-2.85742-5.53121-3.19259-7.16-1.66716a4.623,4.623,0,0,1,1.92277,1.02623A6.22379,6.22379,0,0,0,73.53391,165.8c6.34819-2.87057,8.39063.20457,8.39063.20457A6.54922,6.54922,0,0,1,83.5819,163.442Z" fill="#a47858" stroke="#201600" stroke-width="0.21291"/><path d="M73.57625,162.5998c-1.4091-2.1775-5.87039-1.49089-7.11213-.30487a4.50059,4.50059,0,0,1,1.80645.47331c-3.21332.83373-4.15577,2.80219-4.15577,2.80219,5.55617-2.92071,7.68776-.975,7.68776-.975A4.04913,4.04913,0,0,1,73.57625,162.5998Z" fill="#a47858" stroke="#201600" stroke-width="0.21291"/><path d="M56.58261,166.838c1.06433-.4428,4.69973-1.77034,6.82174-.21441a2.5665,2.5665,0,0,1,.70733,3.3767,4.82538,4.82538,0,0,1-3.55606,2.63769,10.91555,10.91555,0,0,0-1.59853.57117c-1.98049.926-4.99346,4.21883-7.32985,8.00443,0,0-2.06964,4.05548-2.70945,4.05548-.64091,0-.91526-4.59411-.91526-4.59411C47.33018,173.30811,52.59354,168.49849,56.58261,166.838Z" fill="#201600"/><path d="M49.9155,180.49534c2.17861-3.53423,5.42447-7.41454,8.0938-8.66274,2.13716-1.00106,2.66712.09044,3.41567-1.59942,1.05342-2.381-1.12831-3.16763-3.97615-1.97938C54.15617,169.62368,49.02654,174.07962,49.9155,180.49534Z" fill="#fff" stroke="#201600" stroke-width="0.08619"/><path d="M64.8569,166.42462c2.81954-1.28522,5.41466-1.42982,6.94566-.39066a2.76577,2.76577,0,0,1,.88473,3.63117,4.90881,4.90881,0,0,1-3.59952,2.89973,10.36286,10.36286,0,0,0-1.6529.6443c-2.06206,1.05432-5.1742,4.80538-7.56386,9.11758,0,0-1.89557,3.998-2.5354,3.998-.64092,0-1.12184-4.47467-1.12184-4.47467C55.10064,173.92741,60.77089,168.28411,64.8569,166.42462Z" fill="#201600"/><path d="M58.12252,181.6684c2.21983-4.00218,5.53855-8.39395,8.29926-9.80527,2.21-1.13054,3.68443-.77579,4.43856-2.68786,1.061-2.69293-2.12736-2.70608-5.07613-1.36339C62.377,169.36469,57.10273,174.4061,58.12252,181.6684Z" fill="#fff" stroke="#201600" stroke-width="0.08619"/><path d="M73.95177,167.26456c1.99118-.94446,4.76169-1.55173,6.57459-.42209a2.78937,2.78937,0,0,1,1.14257,3.46893,4.38016,4.38016,0,0,1-3.31783,2.88372,8.75359,8.75359,0,0,0-1.45924.58967c-1.80957.96849-4.38418,4.45817-6.25794,8.48223,0,0-1.43406,4.05771-2.20134,4.05771-.76929,0-1.48309-4.33542-1.48309-4.33542C65.782,174.20375,70.19224,169.05028,73.95177,167.26456Z" fill="#201600"/><path d="M68.83952,181.69785c1.75629-3.77268,4.52145-7.91195,7.0056-9.24171,1.98918-1.06635,3.40809-.73118,3.95877-2.53209.778-2.53982-2.22853-2.55052-4.89342-1.28627A11.68711,11.68711,0,0,0,68.83952,181.69785Z" fill="#fff" stroke="#201600" stroke-width="0.08619"/><path d="M171.28881,156.83258a5.05313,5.05313,0,0,0-4.92483.00758,3.81832,3.81832,0,0,0-1.85859,2.9401,2.08529,2.08529,0,0,0,1.80622,2.36024,3.95489,3.95489,0,0,1,.91415.38308c1.04027.653,1.9718,3.36776,2.21315,6.45494,0,0-.11521,3.42659.59858,3.3731.5246-.039,2.46788-3.4667,2.46788-3.4667C176.12673,162.47032,173.711,158.11,171.28881,156.83258Z" fill="#201600"/><path d="M200.30761,154.60514c-1.12942-.32333-3.963-.92058-5.84342.495a2.18463,2.18463,0,0,0-.901,2.56815c.47245,1.19472,1.60187,1.39707,2.59869,1.57335a8.68857,8.68857,0,0,1,1.29255.3004c1.55395.5168,3.70851,2.57771,5.23615,5.01308,0,0,1.49958,2.58643,2.04579,2.54944.54621-.04123,1.21433-2.85854,1.21433-2.85854C207.56126,159.24608,203.42622,155.49747,200.30761,154.60514Z" fill="#201600"/><path d="M204.249,163.7183c-1.42336-2.272-3.68888-4.716-5.763-5.40266-1.66047-.55175-2.86388-.25469-3.29911-1.35692-.61372-1.55485,1.91943-1.74427,4.1435-1.10981C201.90727,156.58433,205.67213,159.30469,204.249,163.7183Z" fill="#fff" stroke="#201600" stroke-width="0.19174"/><path d="M193.99,154.3558c-.80093-.298-3.591-1.162-5.76721.23956a2.8091,2.8091,0,0,0-1.40152,2.814c.25673,1.44721,1.44921,1.72243,2.40681,1.9455a6.80662,6.80662,0,0,1,1.22748.36994c1.47127.6387,3.26457,3.15248,4.36123,6.11662,0,0,.81832,3.18816,1.36676,3.15005.5442-.03922,1.92389-3.32207,1.92389-3.32207C199.95731,159.83263,196.99758,155.47229,193.99,154.3558Z" fill="#201600"/><path d="M196.44691,165.14812c-1.0229-2.76605-2.8728-5.74983-4.8553-6.61049-1.58649-.69084-2.86411-.345-3.10345-1.68454-.33517-1.88668,2.28068-2.08479,4.42653-1.285C195.40017,156.491,198.72112,159.82929,196.44691,165.14812Z" fill="#fff" stroke="#201600" stroke-width="0.19174"/><path d="M187.03,154.52338a6.49369,6.49369,0,0,0-5.83249.10452,3.07026,3.07026,0,0,0-1.61258,3.02946c.19812,1.58226,1.41244,1.90317,2.3852,2.15677a6.48369,6.48369,0,0,1,1.25778.42855c1.50827.73787,3.61066,3.57568,4.29616,7.01318,0,0,.65073,3.15783,1.197,3.11749.54619-.039,2.20467-3.73234,2.20467-3.73234C193.74615,160.07955,190.07465,155.79766,187.03,154.52338Z" fill="#201600"/><path d="M189.08229,167.023c-.94668-3.06311-2.74-6.40368-4.75948-7.43972-1.61924-.8279-2.95993-.51457-3.15136-1.98584-.26542-2.07276,2.45495-2.15658,4.64849-1.18157C188.362,157.54415,191.66983,161.344,189.08229,167.023Z" fill="#fff" stroke="#201600" stroke-width="0.19174"/><path d="M179.07775,155.76824a6.29331,6.29331,0,0,0-5.506.05437,3.26657,3.26657,0,0,0-1.79753,2.91537c.05214,1.5876,1.26224,1.91832,2.14585,2.15989a5.31628,5.31628,0,0,1,1.10557.39489c1.31439.68658,2.6856,3.38756,3.3341,6.57149,0,0,.39379,3.23182,1.049,3.185.6572-.04792,2.08479-3.24385,2.08479-3.24385C184.45764,160.97186,181.85918,157.00218,179.07775,155.76824Z" fill="#201600"/><path d="M179.93751,167.30155c-.6095-2.89664-1.98694-6.05336-3.79117-7.03057-1.445-.78444-2.73329-.48738-2.7792-1.87909-.06082-1.95665,2.50286-2.0371,4.4789-1.11538C180.12672,158.34286,182.8863,161.93369,179.93751,167.30155Z" fill="#fff" stroke="#201600" stroke-width="0.19174"/><path d="M193.78961,77.26694a3.5055,3.5055,0,0,1,2.58554,1.13945c1.73224,1.93146.83993,5.58313.644,6.29492a24.50823,24.50823,0,0,1-5.81713,10.12956l-4.72693,4.69975,2.12178-5.985a31.90574,31.90574,0,0,0,1.13165-9.865c-.26094-2.57574.20036-4.42007,1.36676-5.48107A3.74738,3.74738,0,0,1,193.78961,77.26694Z" fill="#201600" stroke="#201600" stroke-width="0.69003"/><path d="M80.06706,181.725c1.25244-3.46581,3.431-7.26991,5.66381-8.492,1.788-.97921,3.18948-.67123,3.51038-2.32636.45373-2.33505-2.43623-2.344-4.85084-1.18379A9.42458,9.42458,0,0,0,80.06706,181.725Z" fill="#fff" stroke="#201600" stroke-width="0.08619"/><path d="M170.99509,168.26561c-.22642-2.90422-1.09688-6.04466-2.5637-6.963-1.17733-.73653-2.32859-.39069-2.22407-1.79419.15-1.97827,2.39389-2.15789,4.01514-1.30146C172.09623,159.19705,174.12239,162.72367,170.99509,168.26561Z" fill="#fff" stroke="#201600" stroke-width="0.19174"/><path d="M31.74674,131.07167a23.43378,23.43378,0,1,1,18.3865,27.57271A23.43346,23.43346,0,0,1,31.74674,131.07167Z" fill="#201600"/><path d="M54.72422,135.66579" fill="#201600"/><path d="M31.72513,150.05763c-9.27982.79336-9.295-8.27322-9.295-8.27322a4.87843,4.87843,0,0,0-1.48977.85222c-2.0839-9.04917,5.00886-12.7,5.00886-12.7-1.209-3.26212.65718-7.26991.65718-7.26991a2.93331,2.93331,0,0,0-1.6061.20681c.86065-7.89234,8.63221-9.90537,8.63221-9.90537.22641-7.936,8.16867-9.94036,8.16867-9.94036a3.20826,3.20826,0,0,0-.09449,2.70744c4.34809-3.12194,13.024-1.53434,13.024-1.53434l-.5908,1.33177a7.74446,7.74446,0,0,1,5.02289-1.54281c1.64957-4.01759,6.087-4.04033,6.087-4.04033" fill="#201600" stroke="#201600" stroke-width="0.28491"/><path d="M32.70546,137.73765c-.07732-3.50392-.08914-7.27863,1.75073-10.06652C40.13961,135.0467,48.67733,138.95,56.89392,143.223c2.54075,1.32219,4.88026,3.085,5.61924,6.10684a24.18193,24.18193,0,0,1-11.97724,1.99565C42.76437,150.6366,32.90671,147.09458,32.70546,137.73765Z" fill="#c5524e" stroke="#201600" stroke-width="0.57489"/><path d="M72.81565,129.28818c-.22619-2.88461-.50365-6.19264-2.35578-8.99145,5.18936,4.46909,9.32974,15.28214,2.27,21.31589C72.03544,137.56357,73.13455,133.37642,72.81565,129.28818Z" fill="#c5524e" stroke="#201600" stroke-width="0.57489"/><path d="M72.993,143.18169a13.37148,13.37148,0,0,0,3.71273-5.18286,25.87388,25.87388,0,0,1-2.72348,8.56268A7.35254,7.35254,0,0,1,72.993,143.18169Z" fill="#c5524e" stroke="#201600" stroke-width="0.57489"/><path d="M68.944,147.11a23.14327,23.14327,0,0,0,2.93809-2.70186,9.78667,9.78667,0,0,0,1.20118,3.42881c-.56137,1.32308-3.36776,4.002-4.83123,5.31326C69.14326,151.5942,69.129,149.13168,68.944,147.11Z" fill="#c5524e" stroke="#201600" stroke-width="0.57489"/><path d="M67.77984,147.92493a9.33412,9.33412,0,0,1-.56582,5.44185c-.80963,1.79976-5.51272,3.42435-8.20478,3.94672,3.54515-2.048,4.64314-4.64849,4.88048-7.27637A21.52739,21.52739,0,0,0,67.77984,147.92493Z" fill="#c5524e" stroke="#201600" stroke-width="0.57489"/><path d="M60.67529,151.26549c.61909-.20769,1.80847-.6485,1.80847-.6485a8.45726,8.45726,0,0,1-2.40817,4.68122,8.54523,8.54523,0,0,1-4.1816,2.30366,10.09662,10.09662,0,0,1-4.56159-.09894,23.004,23.004,0,0,1-15.59546-10.56279,26.85939,26.85939,0,0,0,9.84675,4.62465C50.56311,152.63114,55.697,152.93912,60.67529,151.26549Z" fill="#c5524e" stroke="#201600" stroke-width="0.57489"/><path d="M39.25176,120.01167a25.528,25.528,0,0,1,6.05982-4.33624c4.03609,2.14473,8.46374,4.72582,11.59326,8.34495,5.78771,6.69428,10.08922,14.09587,10.58217,22.47918a16.78067,16.78067,0,0,1-3.72476,2.35689,10.09214,10.09214,0,0,0-4.67254-5.74559c-8.54287-5.04339-18.444-8.43967-24.35495-16.83142A18.37218,18.37218,0,0,1,39.25176,120.01167Z" fill="#c5524e" stroke="#201600" stroke-width="0.57489"/><path d="M48.364,114.571c6.42106-1.89225,13.52784-1.26224,18.53,3.36463,7.19479,6.65283,3.79227,15.10007,4.66385,25.00567a13.82463,13.82463,0,0,1-2.84672,2.85519c-1.93571-13.05339-10.02393-25.06428-21.9098-30.69332A7.14234,7.14234,0,0,1,48.364,114.571Z" fill="#c5524e" stroke="#201600" stroke-width="0.57489"/><path d="M66.65689,148.00226c7.51036-4.21014,13.03266-10.32121,10.32433-18.43886,3.36441-1.27093,6.23186,1.48643,5.93034,4.78577C82.56235,138.16107,79.46,146.8922,66.65689,148.00226Z" fill="#fff" stroke="#201600" stroke-width="1.53318"/><path d="M66.65689,148.00226c7.51036-4.21014,13.03266-10.32121,10.32433-18.43886,3.36441-1.27093,6.23186,1.48643,5.93034,4.78577C82.56235,138.16107,79.46,146.8922,66.65689,148.00226Z" fill="#fff" stroke="#201600" stroke-width="0.42717"/><path d="M47.99608,137.90635c-6.0088-3.618-16.01421-8.78464-13.00883-14.03283-3.81836-.236-5.098,2.65841-4.38084,5.78682C31.43453,133.27636,36.66847,138.90317,47.99608,137.90635Z" fill="#fff" stroke="#201600" stroke-width="1.53318"/><path d="M47.99608,137.90635c-6.0088-3.618-15.84352-8.78464-12.83567-14.03283-3.8206-.236-5.27113,2.65841-4.554,5.78682C31.43453,133.27636,36.66847,138.90317,47.99608,137.90635Z" fill="#fff" stroke="#201600" stroke-width="0.51748"/><path d="M49.47826,151.95656c-7.77155-.68772-18.14935-4.32112-17.77273-13.71838-2.83692.44188-4.45395,3.55383-3.38959,6.57906C29.54986,148.3167,36.1189,156.2155,49.47826,151.95656Z" fill="#fff" stroke="#201600" stroke-width="1.53318"/><path d="M49.47826,151.95656c-7.77155-.68772-18.14935-4.32112-17.77273-13.71838-2.83692.44188-4.45395,3.55383-3.38959,6.57906C29.54986,148.3167,36.1189,156.2155,49.47826,151.95656Z" fill="#fff" stroke="#201600" stroke-width="0.51748"/><path d="M61.2683,106.59484s-5.02511.21327-5.69322,4.14373c0,0-2.55278.14151-3.35684.2458a9.58343,9.58343,0,0,0-4.61484-1.5778,4.0758,4.0758,0,0,1,1.22838-1.31126,9.456,9.456,0,0,0-9.07414,3.70314,3.59778,3.59778,0,0,1-.87269-1.17309,9.04761,9.04761,0,0,0-.93242,6.61583s-4.27432-.29375-6.41259,3.05888c0,0,1.73023.27968,2.29939,1.272,0,0-5.68453,1.67786-5.25041,6.95546,0,0-1.42537-4.70958,1.43853-7.05775a4.54671,4.54671,0,0,0-2.2154-.15243s1.99454-5.90628,7.61266-6.63322c0,0-.20881-6.21983,4.85-8.09692,0,0-.59413,1.70839-.16335,2.37428,0,0,6.2254-5.88355,12.98274-2.39723a5.004,5.004,0,0,0-.08267,2.16769S56.96679,104.39238,61.2683,106.59484Z" fill="#a47858" stroke="#201600" stroke-width="0.07121"/><path d="M29.31252,136.532a8.73329,8.73329,0,0,0-1.6072,11.81611s-5.05989-2.73218-3.0326-9.11425c0,0-.58766-.6768-2.10016.49073,0,0,.03165-5.086,4.47889-7.32429a7.89617,7.89617,0,0,0-1.53857,3.86828A4.60228,4.60228,0,0,1,29.31252,136.532Z" fill="#a47858" stroke="#201600" stroke-width="0.07121"/><path d="M59.16279,103.98991l-.50053,4.93129,6.92917-.88565a1.84444,1.84444,0,0,1,1.36787-.11964s-2.12736,1.45924-1.89448,6.58107c0,0,.90323,1.43317,1.67787,1.51893a20.39328,20.39328,0,0,1,3.64966,5.20362s.961,3.62786,1.79107,3.47874c0,0-1.22191,4.48539,3.838,8.80985,0,0,1.21544-1.54637,1.82272-1.59741a12.50612,12.50612,0,0,0,6.25236,7.29264,4.02945,4.02945,0,0,1,.74656-1.50047s2.95547,2.25907,4.80515,2.4037c0,0,.95114,3.89992,4.43857,5.28406a3.696,3.696,0,0,1,.20036-1.24151s2.78453,3.89324,6.07072,4.68125a3.98613,3.98613,0,0,1,.36124-1.10249,16.40761,16.40761,0,0,0,6.41371,1.3766,17.6062,17.6062,0,0,0,6.3863-1.49066,3.98168,3.98168,0,0,1,.38308,1.09665c3.26972-.84639,5.98806-4.79,5.98806-4.79a3.70543,3.70543,0,0,1,.22085,1.23951c3.46247-1.44409,4.34274-5.35917,4.34274-5.35917,1.84879-.17962,4.7617-2.48971,4.7617-2.48971a4.02311,4.02311,0,0,1,.77374,1.48754,12.50248,12.50248,0,0,0,6.122-7.40273c.60929.04142,1.85079,1.56488,1.85079,1.56488a16.38728,16.38728,0,0,0,5.578-9.34624,3.11392,3.11392,0,0,1,1.54194.94777c2.01613-3.86068,1.84877-9.25572,1.84877-9.25572a4.41575,4.41575,0,0,1,1.99342.57,15.47605,15.47605,0,0,0-2.35155-8.66385,1.8475,1.8475,0,0,1,1.3701.09583c.14575-2.13271-1.7358-5.93257-1.7358-5.93257a10.01247,10.01247,0,0,0-.10764-7.34724c4.03052-5.2317-2.12958-10.30473-2.12958-10.30473.20257-.59836-1.16641.5451-1.16641.5451-1.15993-1.41445-1.25353-2.08813-2.70633-2.41888.19166-.58116-.71045-2.56255-.71045-2.56255-1.79107-.64093-1.69434-1.16329-1.69434-1.16329-2.063-2.23611-7.17521-3.25143-7.17521-3.25143.36124-.61039.99036-1.545.99036-1.545-6.38318-2.97932-14.05688-1.07526-14.05688-1.07526a10.678,10.678,0,0,0-.13149-1.36457A17.33867,17.33867,0,0,0,106.2142,73.55c-2.20114-1.37433-6.63547-3-10.5452-1.74a3.79164,3.79164,0,0,1,.7791,1.58448s-7.88789-.86957-12.79867,3.83018a2.20556,2.20556,0,0,1,1.7387,1.16752s-4.25672,1.84768-5.6725,4.65518c0,0-2.56571-.4798-4.01091.48961a3.21734,3.21734,0,0,1,.99348,1.13944s-6.19041.40136-8.04142,4.67345a3.82494,3.82494,0,0,1,1.70838.7118,3.95486,3.95486,0,0,0-1.35807,4.1805,8.42974,8.42974,0,0,0-6.58753,4.59631s2.28625.1558,2.83023,1.11117c0,0-4.43743.02274-6.087,4.04033" fill="#201600" stroke="#201600" stroke-width="1.06455"/><path d="M177.68714,81.33356c-1.73-.67368-2.26552-3.65635-2.26552-3.65635s-2.6027,1.66156-3.59529,1.4452c-1.12293-.24157-1.68007-1.20563-2.80727-1.4452-1.78038-.371-3.42123.26676-5.07526-.284a3.34112,3.34112,0,0,1-1.83341-2.33524,5.78481,5.78481,0,0,1-3.08718,1.049c-2.828-.25141-4.80739-1.03585-6.79011-.67458a6.95852,6.95852,0,0,0-4.55155,2.46364c-1.098,1.22525.57764,4.99681,4.1337,4.06194,1.58761-.41785,3.21332,1.41133,4.70955,1.64533a3.46623,3.46623,0,0,0,1.73135,2.9,4.957,4.957,0,0,0,4.51478.37417c1.00974.44192,4.80515.09583,4.80515.09583a4.77125,4.77125,0,0,0,3.47985,2.1122,21.40665,21.40665,0,0,0,5.432-.28948c1.97626,1.88578,2.65084,3.13487,5.47127.85842,2.68983,2.49529,6.68135,1.05989,6.56591-2.40257C188.44472,84.83079,183.9832,83.78071,177.68714,81.33356Z" fill="#a47858" stroke="#201600" stroke-width="0.10641"/><path d="M176.17241,78.83181c-3.9543.47446-9.23837,9.40373-9.87172,12.568l-1.408,7.011-1.57021-7.06644a33.07946,33.07946,0,0,1,.50811-14.29491c.24824-.91949,1.62146-5.55929,4.5181-6.59756a3.70506,3.70506,0,0,1,2.93364.19923,3.61543,3.61543,0,0,1,1.88467,2.11109C173.72861,74.46612,179.00376,78.49241,176.17241,78.83181Z" fill="#201600" stroke="#201600" stroke-width="0.69003"/><path d="M182.708,72.99507a3.61219,3.61219,0,0,1,2.62008,1.26224c1.86729,2.22942,4.06328,10.38406,3.1819,10.26773-3.63874-.47334-6.95992,6.14358-9.86748,9.001l-5.001,4.91859,2.41127-6.23743a41.74025,41.74025,0,0,0,1.9152-11.94336c-.12614-3.09476.51368-5.24485,1.89782-6.3941A3.9802,3.9802,0,0,1,182.708,72.99507Z" fill="#201600" stroke="#201600" stroke-width="0.69003"/><path d="M170.55117,71.76982c-2.53116-1.27-4.542,2.98356-5.24485,5.61033a31.72585,31.72585,0,0,0-.49852,13.75869,48.66211,48.66211,0,0,1,5.15127-12.32552C172.20073,75.40745,172.51406,72.7555,170.55117,71.76982Z" fill="#fff" stroke="#201600" stroke-width="0.19158"/><path d="M182.647,74.29207c2.84672.17628,2.35914,4.56582,1.59518,7.01854a29.58906,29.58906,0,0,1-6.75287,11.34277,42.72767,42.72767,0,0,0,1.99117-12.3962C179.326,76.44327,180.438,74.155,182.647,74.29207Z" fill="#fff" stroke="#201600" stroke-width="0.19158"/><path d="M72.81253,100.19316s-2.61607-.86823-2.90645-3.33388c0,0-2.641.58321-2.99692,1.32419,0,0,2.41461.4722,2.58332,2.47011,0,0-6.05114,1.26758-7.062,4.86844a6.29034,6.29034,0,0,1,5.30568.67012s-.1687-2.001-1.36341-2.3872c0,0-.11633-1.11538,3.39516-1.02624C69.76791,102.7787,71.60467,101.10508,72.81253,100.19316Z" fill="#a47858" stroke="#a47858" stroke-width="0.05321"/><path d="M132.19483,80.49675c-2.3482-1.49312-6.4048-1.172-6.4048-1.172a2.84759,2.84759,0,0,1,.8542-1.17621,13.49863,13.49863,0,0,0-6.50708-.1667c.197-.71045.63981-1.779.63981-1.779-4.89763-.31334-9.97178,2.42107-9.97178,2.42107a2.60107,2.60107,0,0,1-.08489-2.1327c-1.728.19054-3.94028,1.10334-4.42544,2.57016-.6583-1.57334-2.16011-1.9825-3.69222-1.9357a5.773,5.773,0,0,1-.29818,2.12067,17.616,17.616,0,0,0-9.2328-1.39707,3.78476,3.78476,0,0,1,1.55061,1.94128s-4.71066-.47669-7.79,2.06406c0,0,.73007.51033,1.30681,1.00774,0,0-2.06317,1.08058-2.41884,1.8216,0,0-1.73246-1.494-2.80862-1.41467,0,0,3.82594-4.48094,6.75846-4.89006a2.52487,2.52487,0,0,0-2.05537-1.21232,16.07193,16.07193,0,0,1,11.5605-1.346,1.85158,1.85158,0,0,0-.32-2.00969s4.77151-.43635,7.49633,2.19577c2.53317-3.08808,7.46245-2.62454,7.46245-2.62454C112.98044,74.229,113.715,75.6,113.715,75.6c4.9772-3.27416,13.26889-.98813,13.26889-.98813a2.784,2.784,0,0,0-1.99565,1.40932c3.59306-.54086,8.2752,1.91409,8.2752,1.91409h0A5.39445,5.39445,0,0,1,136.26568,79.13Z" fill="#a47858" stroke="#201600" stroke-width="0.06835"/><path d="M93.223,140.71917a4.68657,4.68657,0,0,1,2.05114-1.098c-.08825,2.53429-.31668,4.0557,4.05436,6.15788a3.527,3.527,0,0,1,.40693-1.48866,15.566,15.566,0,0,0,7.37443,2.22961,15.56386,15.56386,0,0,0,7.33409-2.36224,3.56768,3.56768,0,0,1,.43412,1.48535c4.33092-2.18173,4.07732-3.69647,3.94561-6.22964a4.69937,4.69937,0,0,1,2.06652,1.05989c2.1142-1.84344,1.52565-6.62478,1.52565-6.62478.493.03368,1.39595,2.00994,1.39595,2.00994,1.061.07065,3.616-1.47461,3.616-1.47461a33.27363,33.27363,0,0,0,2.13382-2.84651c1.283.28392,1.568,1.99231,1.568,1.99231,2.41907-2.13382,3.98484-6.2644,3.98484-6.2644,1.99453.14352,2.5637.8542,2.5637.8542a13.65227,13.65227,0,0,0,3.273-8.25693,4.30545,4.30545,0,0,1,2.42241.71269c1.11426-3.483,0-7.83128,0-7.83128a4.3973,4.3973,0,0,1,2.13382.285c.42654-2.70521-2.99024-7.11859-2.99024-7.11859a2.91608,2.91608,0,0,1,1.84544.08153c-.1785-1.84987-2.0391-5.95215-2.0391-5.95215a7.36121,7.36121,0,0,1,1.88667.3579,6.774,6.774,0,0,0,.21126-4.1903,3.5304,3.5304,0,0,1-2.85318.26319c1.33957-1.17622,1.78683-2.53317,2.814-3.087a6.801,6.801,0,0,0-1.13278-2.47768,9.53357,9.53357,0,0,1,3.18836,1.05431s.47445-6.16771-7.27548-7.11747c0,0,.431-1.84991,1.42447-1.89782,0,0-2.53005-1.26558-5.9261.8455,0,0-.94245-1.17844-.39289-2.087a8.7678,8.7678,0,0,0-7.53756,4.87914c-3.431-5.742-11.81834-3.87163-11.81834-3.87163.09471-1.36987,1.98586-2.15677,1.98586-2.15677-5.72266-1.30907-10.56169,2.79235-10.56169,2.79235-2.3883-3.0698-7.22088-2.1775-7.22088-2.1775a2.76055,2.76055,0,0,1,1.68989,2.10351A15.26124,15.26124,0,0,0,86.44467,87.487c-4.0196-3.79341-7.48407-2.34932-7.48407-2.34932.87046.67146.47335,2.02061.47335,2.02061a6.60432,6.60432,0,0,0-7.05888,1.85213c.93353-.24157,1.78461.73452,1.78461.73452-5.27872,3.38514-1.344,8.04789-1.344,8.04789a2.46715,2.46715,0,0,1,1.566-1.65178,6.53,6.53,0,0,0,.04011,2.75513l2.17974,1.32c-2.41908.71157-4.93264,2.5289-6.97732,6.407a2.8673,2.8673,0,0,1,1.85214-.14374s-3.18079,4.42229-2.70633,7.11881a2.10228,2.10228,0,0,1,1.4842-.20792s-1.03916,4.36681.13817,7.82924c0,0,4.35477-1.47993,5.49845-1.35692a12.4943,12.4943,0,0,0,.71069,8.6857s.17626-.60728,2.16746-.78359a19.31165,19.31165,0,0,0,4.15665,6.10019s.34386-1.79976,1.62683-2.08367a33.721,33.721,0,0,0,2.13381,2.84761s2.555,1.543,3.616,1.4744c0,0,.90211-1.97607,1.39617-2.00969,0,0-.58989,4.78242,1.52454,6.62561" fill="#a47858" stroke="#201600" stroke-width="0.03553"/><path d="M82.86589,98.40655a2.84963,2.84963,0,0,0-1.50717-1.69862,9.29517,9.29517,0,0,1,.37863-1.89778,2.157,2.157,0,0,1,2.03175-.62466s.23711-2.35358-.87938-3.04239a2.7766,2.7766,0,0,1,1.82494-.71491s-3.46581-2.99136-6.95011-1.24377a1.099,1.099,0,0,1,.43523.7965s-5.47438,1.30592-4.84215,5.47885a4.16289,4.16289,0,0,1,3.96188-2.02284s-1.66583.88138-1.78238,3.70181c0,0,3.14581,1.19917,3.52554,1.22636L78.114,99.78735A18.30465,18.30465,0,0,1,82.86589,98.40655Z" fill="#201600" stroke="#201600" stroke-width="0.03759"/><path d="M80.48714,101.68516c-6.88147,1.42426-8.01312,9.95106-8.01312,9.95106a6.39507,6.39507,0,0,1,2.51044-.56248,17.73947,17.73947,0,0,0,.19366,5.51583,6.21272,6.21272,0,0,1,3.27415.14129,15.57111,15.57111,0,0,0-.285,6.12311,3.15561,3.15561,0,0,1,1.70839-.85531s-.36458,4.67144,1.5952,6.74439a6.57709,6.57709,0,0,1,2.0382-2.33525,8.50694,8.50694,0,0,0,1.348,3.27973s3.245,1.27959,4.16891,1.75853a8.77715,8.77715,0,0,0,1.27628,4.65719c.813,1.149,1.29055-.296,1.29055-.296-.07288-1.063.88137-8.19587.88137-8.19587a7.24166,7.24166,0,0,0,2.30252,2.71165c.10452,4.73766,1.73357,7.6606,2.92829,9.0882a14.22176,14.22176,0,0,0,9.37654,3.93692c3.83041-.13706,8.135-2.65285,9.30478-4.10228s2.74978-4.39956,2.76716-9.1372a7.28176,7.28176,0,0,0,2.25572-2.75312,39.49366,39.49366,0,0,1,.64739,5.0153,7.50442,7.50442,0,0,0,2.30251-3.89123,26.39942,26.39942,0,0,1,4.0381-1.1165,11.1312,11.1312,0,0,0,1.48-3.91931,5.478,5.478,0,0,1,1.73336,2.06406,12.096,12.096,0,0,0,2.47009-4.802,9.80915,9.80915,0,0,1,1.59852.18942,10.67258,10.67258,0,0,0,1.19383-5.48864,4.56913,4.56913,0,0,1,1.62571.135c.58321-2.15789-.74544-5.9631-.74544-5.9631a5.42026,5.42026,0,0,1,2.19577.47s.11434-4.89009-3.2024-6.85094a4.78648,4.78648,0,0,1-.28057,1.9455A4.17365,4.17365,0,0,0,134.207,103.536a21.03186,21.03186,0,0,1-.493,2.71724,5.31737,5.31737,0,0,1,1.67786,1.41779s-.37974,1.95977-1.54837,2.26441a9.59792,9.59792,0,0,1-.01628,3.59306,7.2824,7.2824,0,0,0-2.25483.53106,7.75469,7.75469,0,0,1-1.24463,3.6617,4.49725,4.49725,0,0,0-1.80088-.5061,5.879,5.879,0,0,1-1.56153,2.72259,10.22379,10.22379,0,0,0-1.37879-1.08819s-.86177,1.39283-1.48955,1.65736a39.26311,39.26311,0,0,0,.396-5.78459,6.85365,6.85365,0,0,1,2.35466-.542c.936-.60928,1.59207-2.85965,1.59207-2.85965a1.813,1.813,0,0,1,1.28942-.26007,5.87658,5.87658,0,0,0-.90322-5.98271,12.63477,12.63477,0,0,1-.37417,3.18613,5.26791,5.26791,0,0,0-1.44944-.02385,3.3488,3.3488,0,0,1-.554,2.48522,3.78314,3.78314,0,0,0-1.76165.0348s-.248-1.93035-1.59184-2.40681a2.39049,2.39049,0,0,0,1.89-2.04133,2.59792,2.59792,0,0,0-3.33856-2.949,3.18077,3.18077,0,0,0-2.54944,2.53314s-.56048-.22416-1.30369-.50588c-.10118-.77037,1.80644-2.96079,3.4462-3.43324,1.71708-.49384,4.04143-.94668,5.73244,1.15792,0,0,.08914-3.51035-2.46787-4.14481,0,0,2.35043-3.05112,5.9368.40692,0,0-.15666-4.445-3.22958-4.197a4.58691,4.58691,0,0,0-3.98372,2.32659,5.75494,5.75494,0,0,0-1.74316-1.34291s-2.11866,4.135-6.05,5.7008a2.457,2.457,0,0,0,1.50158.41024,4.41494,4.41494,0,0,1-2.43088,1.97406,15.782,15.782,0,0,0-7.8413-1.61055c-4.901.1219-6.36669,1.4004-6.36669,1.4004a3.989,3.989,0,0,1-2.64527-1.5593,5.61835,5.61835,0,0,0,1.41133-.51345,18.996,18.996,0,0,1-5.52027-5.35048,2.06484,2.06484,0,0,0-.60171.952s-4.67368-2.55813-6.48214-1.3623a1.463,1.463,0,0,0-.67257,2.01949,6.02621,6.02621,0,0,0-1.8138.79224s2.84539.88584,3.23939,1.82807c0,0-.06418-3.52219,3.92066-1.41244,0,0-2.65082.73452-2.777,2.56169a2.2628,2.2628,0,0,1,1.55818-.42988,3.43256,3.43256,0,0,0-.15243,2.20892,2.90294,2.90294,0,0,1,3.183-1.76946,4.65291,4.65291,0,0,1,4.20345,3.34837,2.80674,2.80674,0,0,0-1.06211.248,3.42441,3.42441,0,0,0-2.6105-2.44071,2.68976,2.68976,0,0,0-2.31433,4.69328s-1.7476,1.162-1.987,4.66368c0,0-2.25794.24157-2.14808-1.56911a4.38037,4.38037,0,0,1-.63222-2.9401,4.99872,4.99872,0,0,0-1.5397.05772,7.87767,7.87767,0,0,1,.14687-3.43528,7.12878,7.12878,0,0,0-5.22748,3.93692c-1.17087-.28191-1.42224-4.271.7138-6.88148" fill="#201600" stroke="#201600" stroke-width="0.03759"/><path d="M138.67383,95.66011a7.71777,7.71777,0,0,1,.569,3.41675s-1.70839-3.41675-4.59189-4.16331c0,0-.08914-.59078.93153-1.40041a9.07344,9.07344,0,0,0-1.11873-1.654,2.65632,2.65632,0,0,0-2.37.10452s-1.14791-2.13073-.24046-3.15783a3.41244,3.41244,0,0,0-2.18594-.05126s2.49727-3.99441,6.82153-3.53957a2.33359,2.33359,0,0,0-.32873,1.36765s5.21877-.47557,6.95769,2.84784a9.07076,9.07076,0,0,0-4.542-.37016,4.61171,4.61171,0,0,1,3.28195,2.86742s-1.09042.43415-1.48.5897A7.2393,7.2393,0,0,1,138.67383,95.66011Z" fill="#201600" stroke="#201600" stroke-width="0.03759"/><path d="M82.38384,108.80264s-.23733,3.32207.47557,4.271c0,0-1.42336.47445-4.74543,1.66048C78.74287,114.47091,79.3,111.412,82.38384,108.80264Z" fill="#a47858" stroke="#201600" stroke-width="0.21291"/><path d="M87.039,116.4231s-.14708,8.51139.56473,9.46033l-2.12849-4.48759s-1.59741.56356-2.70633.96094C83.4,122.09337,83.95719,119.03449,87.039,116.4231Z" fill="#a47858" stroke="#a47858" stroke-width="0.10641"/><path d="M106.926,88.82655c1.54415-1.269,5.42982-1.42894,5.42982-1.42894a1.85663,1.85663,0,0,0-.3374,1.61925,10.90614,10.90614,0,0,1,6.08388-1.36567,1.68946,1.68946,0,0,0-.3111,1.56379,8.28888,8.28888,0,0,1,7.46469,1.53323,17.7303,17.7303,0,0,0-5.49734.94222,3.36753,3.36753,0,0,1,.97921,1.77257,19.80449,19.80449,0,0,0-5.73891,1.406,6.75729,6.75729,0,0,1,.66923,1.6941,41.93945,41.93945,0,0,0-5.36117.4854c-1.68009.1121-2.83046,2.39278-2.89776,3.87163a1.492,1.492,0,0,1-.99794.24042c-.46242-.002-.81274-.07172-.938-.24466-.10006-1.62459-1.098-3.76933-2.64081-3.97394a23.37412,23.37412,0,0,0-4.876-.42565,8.68552,8.68552,0,0,1,.9966-1.71037,16.71725,16.71725,0,0,0-5.41018-1.42336,4.37506,4.37506,0,0,1,1.31994-1.78687,11.10912,11.10912,0,0,0-4.88026-1.06078,8.33434,8.33434,0,0,1,7.31762-1.43313,1.71755,1.71755,0,0,0,.0011-1.58114,9.60535,9.60535,0,0,1,5.75965,1.381,1.84775,1.84775,0,0,0-.01629-1.62906A7.60618,7.60618,0,0,1,106.926,88.82655Z" fill="#201600" stroke="#201600" stroke-width="0.05321"/><path d="M108.432,115.30215c1.8519.13505,3.99241.08936,5.33175-2.026,1.28742-2.03824,2.60293-4.99034,2.21338-5.87284a6.33675,6.33675,0,0,0-.73341-1.31238,15.80528,15.80528,0,0,1,3.4092,1.36252,5.18892,5.18892,0,0,1,2.52114,4.52879,2.11079,2.11079,0,0,0-1.11961.53421,5.18679,5.18679,0,0,1,1.07082,1.39617,3.95984,3.95984,0,0,1-.33964,3.10457,4.41656,4.41656,0,0,0-1.18491.33182,3.92749,3.92749,0,0,1,1.22747,1.30458,5.222,5.222,0,0,1-.209,3.741c-.12413.27656-.68439.49295-1.05655.61173a4.441,4.441,0,0,0-3.47-2.74221,54.14829,54.14829,0,0,1-6.43-1.37767C108.40484,118.54265,107.95088,116.72551,108.432,115.30215Z" fill="#a47858" stroke="#a47858" stroke-width="0.10641"/><path d="M109.05533,113.6624a2.81621,2.81621,0,0,1-.50364-4.16334,1.97488,1.97488,0,0,1,3.58971,1.46793s-1.31773-1.9259-2.73552-.49407C108.28605,111.60479,109.05533,113.6624,109.05533,113.6624Z" fill="#fff" stroke="#201600" stroke-width="0.10641"/><path d="M103.84973,113.39586a2.85924,2.85924,0,0,0,.357-4.20479,2.04071,2.04071,0,0,0-3.5311,1.80979s1.246-2.04913,2.7128-.753C104.54726,111.26962,103.84973,113.39586,103.84973,113.39586Z" fill="#fff" stroke="#201600" stroke-width="0.10641"/><path d="M104.87907,125.28931a7.52336,7.52336,0,0,0,1.89782-1.073,5.94059,5.94059,0,0,0,1.54838,1.0044,11.08123,11.08123,0,0,0,2.173-.85754,7.50635,7.50635,0,0,0,1.48643,1.17,7.14588,7.14588,0,0,0,1.82806-.39178c1.30146,2.54721-1.36986,6.60937.3374,6.075,2.59089-.80828,3.57568-6.88237,3.57568-6.88237a2.8165,2.8165,0,0,0-1.69748-2.09793c-.66922-.24715-1.97514.43411-1.97514.43411s-1.012-1.31773-1.62571-1.39728a4.85368,4.85368,0,0,0-1.82584.47779,3.06586,3.06586,0,0,0-1.73779-1.04785,5.59822,5.59822,0,0,0-2.11422.75391,3.89275,3.89275,0,0,0-1.78794-.75391,6.268,6.268,0,0,0-2.061,1.10111,3.53526,3.53526,0,0,0-1.73868-.45907c-.60952.14463-1.69325,1.44609-1.69325,1.44609a2.09963,2.09963,0,0,0-2.2731-.02295,2.41126,2.41126,0,0,0-1.36253,1.76187s1.09488,5.27738,3.58237,6.89975c1.38837.42877-.38086-4.53751.34386-6.1708a10.61854,10.61854,0,0,0,1.63864.43212c.32-.0078,1.66049-1.27651,1.66049-1.27651A9.32284,9.32284,0,0,0,104.87907,125.28931Z" fill="#fff" stroke="#201600" stroke-width="0.02728"/><path d="M108.186,141.72248c-.40471.02608-1.2852-.6485-1.2852-.6485a4.98488,4.98488,0,0,1-1.49712.6104c-.42342-.01092-1.383-.96852-1.383-.96852a2.35336,2.35336,0,0,1-1.12741.25138c-.46019-.07823-1.517-1.54839-1.517-1.54839s-.718.58321-1.174.37974a4.09627,4.09627,0,0,1-1.0697-1.40687c-1.00662-2.36361-.2068-5.57355.283-5.57355.96072,0,1.27316,3.50481,2.15342,4.34608a3.498,3.498,0,0,1,1.37969-.23823c.359.12276,1.13723,1.31773,1.13723,1.31773a4.36917,4.36917,0,0,1,1.4668-.5344,4.67857,4.67857,0,0,1,1.29367.88807,5.044,5.044,0,0,1,1.43094-.973c.42453-.05326,1.31772.62354,1.31772.62354s.77486-1.26,1.16218-1.35806a2.34675,2.34675,0,0,1,1.31238.283c.84774-.839,1.11962-4.67482,2.08056-4.568.44058.049,1.13276,3.3711.41451,5.80086a2.502,2.502,0,0,1-1.10669,1.3603c-.40247.09248-1.09688-.33963-1.09688-.33963s-.83125,1.44832-1.40041,1.65847c-.36882.1326-1.19048-.3635-1.19048-.3635A5.90424,5.90424,0,0,1,108.186,141.72248Z" fill="#fff" stroke="#201600" stroke-width="0.02728"/><path d="M108.48193,126.843a14.06074,14.06074,0,0,0-1.79641,1.64755,16.01374,16.01374,0,0,0-1.888-1.617,3.27861,3.27861,0,0,0-1.13275-.04792,2.72339,2.72339,0,0,0-1.95442.95114,2.68589,2.68589,0,0,0-.27634,2.0315c.19053,1.69638,1.41354,3.92068,1.64308,5.00776.234,1.08485,2.46475,2.00319,3.69223,1.93458,1.22948.0448,3.44287-.91837,3.65167-2.00857.20794-1.09153,1.38971-3.33967,1.54415-5.03937a2.64124,2.64124,0,0,0-.30353-2.08145,3.50321,3.50321,0,0,0-2.11643-.80539A5.58154,5.58154,0,0,0,108.48193,126.843Z" fill="#c5524e" stroke="#201600" stroke-width="0.10641"/><path d="M106.692,129.52552a2.97136,2.97136,0,0,1,.93464,2.075s-.458,3.04685-.85083,3.01409c-.39179-.03142-.95115-3.03481-.95115-3.03481A2.8269,2.8269,0,0,1,106.692,129.52552Z" fill="#201600"/><path d="M106.45687,105.41639a13.77877,13.77877,0,0,1,7.14045,1.62237s-1.84324-2.82578-7.16764-2.87592c-5.38078.07934-7.11213,3.01966-7.11213,3.01966A13.95328,13.95328,0,0,1,106.45687,105.41639Z" fill="#fff" stroke="#201600" stroke-width="0.10641"/><path d="M104.86169,115.51542c-1.84543.18073-3.987.185-5.3732-1.89871-1.33735-2.00768-2.72149-4.9282-2.35378-5.82047a6.16667,6.16667,0,0,1,.702-1.32642A15.82835,15.82835,0,0,0,94.46,107.90833,5.20647,5.20647,0,0,0,92.0443,112.496a2.1089,2.1089,0,0,1,1.135.507,8.19189,8.19189,0,0,0-1.0532,1.65071,3.41525,3.41525,0,0,0,.42854,2.86611,4.4441,4.4441,0,0,1,1.19048.30486,6.20286,6.20286,0,0,0-1.211,1.56042,4.636,4.636,0,0,0,.31222,3.50812c.13059.27411.69643.47872,1.06859.58858a4.44827,4.44827,0,0,1,3.40808-2.82466,53.56551,53.56551,0,0,0,6.39276-1.529C104.96622,118.75392,105.37648,116.92786,104.86169,115.51542Z" fill="#a47858" stroke="#a47858" stroke-width="0.10641"/><path d="M162.56947,76.77733c-2.60827.39512-7.00316,8.02939-7.42012,10.80971l-.99882,6.64637-1.96735-6.56592a27.1797,27.1797,0,0,1-.28837-12.62017c.17962-.81634,1.20786-4.95,3.82817-6.0665a3.59488,3.59488,0,0,1,2.82378-.00446,3.443,3.443,0,0,1,1.97045,1.88578C161.13207,72.37907,165.51092,76.33229,162.56947,76.77733Z" fill="#201600" stroke="#201600" stroke-width="0.69003"/><path d="M147.88925,75.50863a32.35189,32.35189,0,0,0-3.30469,8.76057l-.18274,1.23305-2.65195-.72587-.12613-.41024a22.35641,22.35641,0,0,1-.31556-10.64212c.21215-.97056,1.08262-4.21994,3.33076-5.186a3.40906,3.40906,0,0,1,2.63122-.01315,3.14542,3.14542,0,0,1,1.82807,1.73558C149.63686,71.5924,149.22993,73.3574,147.88925,75.50863Z" fill="#201600" stroke="#201600" stroke-width="0.69003"/><path d="M157.93724,70.15054c-2.40814-.97718-4.04455,2.84654-4.556,5.17736a26.27011,26.27011,0,0,0,.26653,12.05233,41.11735,41.11735,0,0,1,4.1132-11.04348C159.65657,73.24311,159.80564,70.91006,157.93724,70.15054Z" fill="#fff" stroke="#201600" stroke-width="0.19158"/><path d="M146.66958,69.70219c-2.06763-.827-3.44842,2.35913-3.875,4.30148a21.42267,21.42267,0,0,0,.28726,10.06006,33.47186,33.47186,0,0,1,3.46892-9.19825C148.1569,72.29085,148.27345,70.34312,146.66958,69.70219Z" fill="#fff" stroke="#201600" stroke-width="0.19158"/><path d="M172.29878,128.02059a20.41185,20.41185,0,0,0,7.32741-3.44308,8.30067,8.30067,0,0,1,1.03827,2.36581c3.4168-2.32213,4.78777-7.31359,4.78777-7.31359.62466.15667,1.46459,1.47239,1.46459,1.47239,2.80528-2.022,5.46681-7.00561,5.46681-7.00561a3.8119,3.8119,0,0,1,2.11755,2.01415c2.48327-4.02941,2.196-9.71394,2.196-9.71394a22.1155,22.1155,0,0,1,2.70722,1.2482c.70956-4.01963-1.14034-9.7019-1.14034-9.7019.5919-.25584,3.27328.97052,3.27328.97052a16.57368,16.57368,0,0,0-5.97827-11.64429,8.31956,8.31956,0,0,1,6.12177,2.21872,10.48309,10.48309,0,0,0-5.55171-7.41677c-.42877,9.56485-3.98261,11.78692-3.98261,11.78692a19.35143,19.35143,0,0,1,2.68783,7.27414,18.29141,18.29141,0,0,0-3.13175-1.47662c.44615,2.48437.79224,6.171.19812,8.24824a10.73731,10.73731,0,0,0-2.51378-1.27539s.6202,5.47126-2.57886,9.01552a4.05888,4.05888,0,0,0-2.26773-1.95888s-2.45274,4.90321-5.20564,6.90777c0,0-.93153-1.28185-1.57578-1.42782C177.75892,119.16508,177.28022,123.51228,172.29878,128.02059Z" fill="#a47858" stroke="#201600" stroke-width="0.10641"/><path d="M193.78538,78.57063c2.55279.07284,2.32413,3.73457,1.76053,5.79217a23.51322,23.51322,0,0,1-5.49956,9.59872,32.94164,32.94164,0,0,0,1.19271-10.35486C190.91681,80.44237,191.80488,78.5118,193.78538,78.57063Z" fill="#fff" stroke="#201600" stroke-width="0.19158"/><path d="M175.648,73.527c-1.05766-3.63228-2.57685-4.97163-2.57685-4.97163a2.62594,2.62594,0,0,1-.98791,1.4374c-2.69429-3.333-7.10344-1.46793-9.28405,1.64845,0,0-5.0055-7.99132-11.47671-.75083-2.10128-2.60712-6.86521-5.617-11.01763.55405-.84661-2.80327,5.49623-11.25385,11.456-3.56587,2.37983-3.65078,7.63337-3.90661,10.88814-.03387,3.16428-2.96194,7.6365-1.43852,7.6365-1.43852a7.97736,7.97736,0,0,0-.51345-1.74427,8.35241,8.35241,0,0,1,6.85963,5.92388,8.34415,8.34415,0,0,1,9.03157-.97721,7.10427,7.10427,0,0,0-1.21877,1.024s4.99679.3209,5.97846,5.16105c5.87374-3.10992,8.95111,1.63017,8.45928,4.26563,0,0-3.48208-6.86075-10.25033-1.24709,0-3.80633-3.4821-7.6258-8.09382-6.12846a5.58327,5.58327,0,0,1,.08268-1.80733A11.5569,11.5569,0,0,0,175.648,73.527Z" fill="#a47858" stroke="#201600" stroke-width="0.06407"/><path d="M119.63015,144.24916a8.66945,8.66945,0,0,0,4.82366-5.161c1.91076-.15355,5.05876-2.36358,5.05876-2.36358a3.56,3.56,0,0,1,.69642,1.45278,16.92357,16.92357,0,0,0,7.55181-7.19481c.62355.04769,1.79865,1.545,1.79865,1.545,5.41466-4.23287,5.59094-8.95334,5.59094-8.95334a2.9857,2.9857,0,0,1,1.52119.93907c2.33082-3.729,2.52025-8.97493,2.52025-8.97493a4.49264,4.49264,0,0,1,2.00879.57783,13.83953,13.83953,0,0,0-1.839-8.44944c.741-.2438,2.05426.46353,2.05426.46353.29283-2.07075-2.03911-6.14272-2.03911-6.14272a9.22261,9.22261,0,0,0,.37974-7.14466c3.79541.23934,5.99364,4.29259,5.99364,4.29259-3.60844-1.88779-5.51918-.49607-5.51918-.49607s5.06857,1.13273,8.04143,8.68659c0,0-2.91737-.70511-3.41233-.407,0,0,3.37756,4.68462,3.83018,8.26338a26.986,26.986,0,0,0-2.94345-.72357s1.87487,4.89118.63224,8.71508a4.566,4.566,0,0,0-2.59624-1.46678s-.445,4.59077-2.5637,6.717c0,0-1.65959-1.814-2.30252-1.86732,0,0-.12411,5.3777-2.74555,7.84665a8.90437,8.90437,0,0,0-1.65936-1.91605s-1.88578,4.14038-4.67033,5.59405c0,0-1.08708-2.07832-1.71374-2.28294,0,0-.7967,4.52663-4.18741,6.17526l-1.42314-2.05445c-1.1078,3.00339-5.061,4.58654-6.72258,4.5072,0,0,1.5016-1.89893,1.02936-3.55829A10.77043,10.77043,0,0,1,119.63015,144.24916Z" fill="#a47858" stroke="#201600" stroke-width="0.28491"/><path d="M122.16,104.54036a1.62137,1.62137,0,1,0,1.62349,1.62147A1.62065,1.62065,0,0,0,122.16,104.54036Z" fill="#fff"/><path d="M122.32,105.19777a1.605,1.605,0,1,0,1.60387,1.607A1.60581,1.60581,0,0,0,122.32,105.19777Z" fill="#201600"/><path d="M93.18909,104.32282a1.62138,1.62138,0,1,1-1.62237,1.62129A1.62105,1.62105,0,0,1,93.18909,104.32282Z" fill="#fff"/><path d="M93.21741,104.84188a1.605,1.605,0,1,1-1.605,1.60275A1.60357,1.60357,0,0,1,93.21741,104.84188Z" fill="#201600"/><path d="M59.34107,125.93134c-4.32758-5.56374-11.97723-12.77816-18.801-8.11987a4.95621,4.95621,0,0,1,3.68019-7.22534C47.908,110.17048,57.351,112.04872,59.34107,125.93134Z" fill="#fff" stroke="#201600" stroke-width="1.53318"/><path d="M59.34107,125.93134c-4.32758-5.56374-11.97723-12.77816-18.801-8.11987a4.95621,4.95621,0,0,1,3.68019-7.22534C47.908,110.17048,57.351,112.04872,59.34107,125.93134Z" fill="#fff" stroke="#201600" stroke-width="0.51748"/><path d="M72.57742,125.93224a4.83823,4.83823,0,0,0-.1034.62354c-.10118-.0107-.02385-.19589-.03588-.57117-.26876-7.25142-5.82382-12.78686-14.48656-13.11334-.33406-3.58214,3.08495-5.61813,6.184-4.456C67.61114,109.7179,75.29445,113.67644,72.57742,125.93224Z" fill="#fff" stroke="#201600" stroke-width="1.53318"/><path d="M72.34565,128.62118c.2906-7.80632-5.27983-15.40716-14.39407-15.74991-.33406-3.58214,3.08495-5.61813,6.184-4.456C67.721,109.75913,75.84512,115.42628,72.34565,128.62118Z" fill="#fff" stroke="#201600" stroke-width="0.51748"/></svg>