<svg xmlns="http://www.w3.org/2000/svg" viewBox="0 0 842.33 887.5"><title>dream-primary-logo</title><path d="M550,993.75c-232.23,0-421.17-188.93-421.17-421.16V106.25H971.17V572.59C971.17,804.82,782.23,993.75,550,993.75Z" transform="translate(-128.83 -106.25)" style="fill:#fff"/><path d="M550,975.86c-222.37,0-403.28-180.9-403.28-403.27V124.14H953.28V572.59C953.28,795,772.37,975.86,550,975.86Z" transform="translate(-128.83 -106.25)" style="fill:#9ea1a2"/><path d="M550,949.85c-208,0-377.26-169.24-377.26-377.26V150.15H927.26V572.59C927.26,780.61,758,949.85,550,949.85Z" transform="translate(-128.83 -106.25)" style="fill:#373a36"/><path d="M659.38,690.29a88.1,88.1,0,0,1-34.81-70.48V478l-25.29-18.37V619.81a113.11,113.11,0,0,0,39.51,86.32,161.77,161.77,0,0,1-77,26V432.4l-12.6-9.16-12.69,9.21V731.94a161.87,161.87,0,0,1-76.27-26.47,113.16,113.16,0,0,0,38.74-85.66V459.72l-25.3,18.38V619.81a88.13,88.13,0,0,1-33.8,69.73,163.33,163.33,0,0,1-46.06-73.65l-23.93,8.3C393.3,701.45,465.18,757.84,550,757.84s156.7-56.39,180.17-133.65l-23.93-8.31A163.37,163.37,0,0,1,659.38,690.29Z" transform="translate(-128.83 -106.25)" style="fill:#9ea1a2"/><path d="M549.87,882.15c-136,0-256.61-88.67-297.74-217.14l-23.91,8.3c44.64,138.56,174.9,234.14,321.65,234.14s277-95.56,321.64-234.15l-23.9-8.3C806.49,793.5,685.88,882.15,549.87,882.15Z" transform="translate(-128.83 -106.25)" style="fill:#ce0e2d"/><path d="M594.13,192.55l8.22,25.3H862.06l-.4,368.45-49.09-15.54,0-311.67-159.11,116,8.22,25.31,50.83-37,0,197.24v5.05l12.53,4L738,573.71l138.66,43.87,10.23,3.24.47-428.27ZM787.25,308.82l0,253.94-49.55-15.68,0-202.2Z" transform="translate(-128.83 -106.25)" style="fill:#ce0e2d"/><path d="M361.69,573.25l11.71-3.67,13.48-4.22,0-4.65.56-197.64,49.32,36L445,373.72,287.58,258.94,287.43,570,238.2,585.42l-.27-367.57H495.66l8.22-25.3H212.61l.32,427.29,37-11.59ZM312.85,308.67l49.37,36-.58,202.1-48.91,15.32Z" transform="translate(-128.83 -106.25)" style="fill:#ce0e2d"/><polygon points="345.65 208.8 370.95 227.18 374.73 229.93 370.95 241.57 353.84 294.21 346.03 318.25 355.08 311.68 370.95 300.15 408.48 272.88 414.57 268.46 421.17 263.66 427.77 268.46 433.77 272.82 471.31 300.09 491.98 315.11 496.3 318.25 488.92 295.53 471.31 241.33 467.6 229.93 471.31 227.23 496.6 208.86 542.74 175.34 449.87 175.34 429.15 111.59 421.17 87.01 413.18 111.59 392.47 175.34 299.6 175.34 345.65 208.8" style="fill:#3a8dde"/><path d="M323.62,729.46c2.77,4.32,6.78,6.58,11.09,6.58a14.45,14.45,0,0,0,7.8-2.45l25.31-16.22c6.88-4.42,8.54-12,4.13-18.89L354.31,671,306,702Zm27.49-38.66,8.38,13.08a1.08,1.08,0,0,1,.26.7c0,.11-.17.3-.53.53L335,720.67c-.62.4-.82.37-1.23-.27l-8.39-13.08Z" transform="translate(-128.83 -106.25)" style="fill:#fff"/><path d="M439.63,826,441,804.91c5.33.71,10.22-2,13.07-7.28l5.68-10.46c3.9-7.19,1.69-14.64-5.49-18.54l-27.34-14.84-27.37,50.45,13.14,7.13,8.65-15.94,5.63,3.06-1.81,19.64ZM446,779.37c.66.36.72.54.36,1.21L441.25,790c-.21.38-.39.54-.5.58a1.37,1.37,0,0,1-.71-.22l-12.29-6.66,5.94-10.94Z" transform="translate(-128.83 -106.25)" style="fill:#fff"/><polygon points="440.66 697.68 440.86 684.29 400.01 683.64 399.11 741 439.97 741.64 440.18 728.26 414.27 727.85 414.4 719.21 436.42 719.56 436.63 706.16 414.61 705.83 414.74 697.27 440.66 697.68" style="fill:#fff"/><path d="M686.74,810.63l13.92-7.38L658,762l-.75-.73-14.93,7.9,10.28,59.53,13.57-7.19-2.29-11.82,14.42-7.65ZM661.15,796l-2.63-13.61,9.79,9.82Z" transform="translate(-128.83 -106.25)" style="fill:#fff"/><polygon points="665.18 592.33 616.76 561.45 609.23 573.26 622.37 596.22 596 594 588.47 605.81 636.91 636.7 644.95 624.07 622.7 609.89 646.99 611.92 634.89 590.77 657.14 604.96 665.18 592.33" style="fill:#fff"/></svg>