<?xml version="1.0" encoding="utf-8"?>
<!-- Generator: Adobe Illustrator 23.0.0, SVG Export Plug-In . SVG Version: 6.00 Build 0)  -->
<svg version="1.1" id="Layer_1" xmlns="http://www.w3.org/2000/svg" xmlns:xlink="http://www.w3.org/1999/xlink" x="0px" y="0px"
	 viewBox="0 0 648 648" style="enable-background:new 0 0 648 648;" xml:space="preserve">
<style type="text/css">
	.st0{fill:#FFFFFF;}
	.st1{fill:#418FDE;}
	.st2{fill:#FFCD00;}
	.st3{fill:#FFD520;}
</style>
<g>
	<g>
		<path class="st0" d="M574.85,300.34l-20.1,0.03l7.31-13.73l-18.36,0.03l-0.14-0.08c0.54-6.28,0.83-12.62,0.83-18.99
			c0-57.6-22.1-112.1-62.22-153.47l-1.16-1.19l4.41-4.41l-9.6-9.6C435.24,58.35,381.29,36,323.91,36
			c-57.39,0-111.34,22.35-151.93,62.93l-9.6,9.6l4.41,4.41l-1.16,1.19C125.51,155.5,103.42,210,103.42,267.6
			c0,6.58,0.3,13.12,0.88,19.61l-0.11,0.06l-18.32,0.03l4.06,7.6l-0.04,0.02l3.32,6.21l-0.31,0.17l-19.75,0.03l4.38,8.19l0,0
			l75,140.27h20.11l7.88,14.73h13.34l78.77,147.31l11.48-24.54c2.94-6.28,5.84-12.54,8.73-18.81c1.26-2.74,3.01-6.51,4.96-10.68
			l26.83,54.2l11.95-25.53c2.8-5.97,5.59-11.94,8.4-17.91c1.33-2.82,3.1-6.63,5.04-10.82l25.12,54.2l78.85-147.43h13.32l7.88-14.73
			h20.13l59.23-111.34h0.05L574.85,300.34z"/>
		<path d="M530.7,291.85c0.7-6.95,1.08-14,1.08-21.14c0-56.22-22.35-107.21-58.63-144.62l-1.98,1.98
			c29.2,33.96,46.86,78.11,46.86,126.41c0,12.78-1.27,25.27-3.63,37.36h-14.08c2.62-12.24,4.03-24.93,4.03-37.95
			c0-49.8-20.19-94.89-52.82-127.52l15.4-15.4C430.34,74.4,379.8,51.78,323.99,51.78s-106.34,22.62-142.92,59.2l15.4,15.39
			c-32.64,32.64-52.82,77.72-52.82,127.52c0,13.02,1.41,25.71,4.03,37.95H133.6c-2.36-12.09-3.64-24.57-3.64-37.36
			c0-48.3,17.66-92.46,46.86-126.41l-1.98-1.98c-36.28,37.41-58.63,88.39-58.63,144.62c0,7.14,0.37,14.18,1.08,21.14h-14.56
			l85.34,162.7h13.35c0.08,0.16,0.16,0.33,0.21,0.42c0.04,0.07,0.09,0.14,0.13,0.2c0.09,0.15,0.16,0.31,0.22,0.47l69.69,130.3
			c2.94-6.28,5.85-12.55,8.74-18.82c4.11-8.92,8.21-17.85,12.31-26.79l-9.31-18.8c-4.04,8.95-8.07,17.87-12.1,26.77
			c-6.05-12.35-12.29-24.72-18.8-37.12c7.99-18.52,16.05-37.21,24.47-56.26h37.13c-5.94,12.49-11.68,24.85-17.3,37.1
			c-4.62-9.25-9.36-18.54-14.25-27.88c-2.89,6.47-5.74,12.9-8.56,19.3l34.84,70.34l15.52,31.35c2.81-6.01,5.62-12.01,8.45-18.01
			c4.25-9.04,8.56-18.08,12.92-27.14l-8.77-18.93c-4.38,9.1-8.71,18.18-12.97,27.23c-5.82-12.36-11.71-24.76-17.78-37.21
			C312,498.6,317.9,486.06,324,473.4c2.95-6.13,5.95-12.29,9.01-18.47h37.29c-6.63,12.45-12.98,24.82-19.12,37.1
			c-4.24-9.27-8.56-18.59-12.97-27.98c-3.21,6.46-6.35,12.88-9.45,19.28l37.04,79.91l10.52,22.71l69.95-130.77
			c0,0,0.12-0.26,0.31-0.63h13.16l87.24-162.7L530.7,291.85L530.7,291.85z M242.37,492.26c-6.8-12.41-13.92-24.85-21.42-37.33h37.16
			C252.76,467.51,247.53,479.94,242.37,492.26z M405.64,492.26c-3.87-9.23-7.77-18.52-11.73-27.89c-3.54,6.39-7,12.77-10.39,19.13
			c4.03,9.29,8,18.51,11.96,27.69c-6.52,12.4-12.76,24.77-18.81,37.12c-5.59-12.36-11.16-24.74-16.81-37.21
			c6.21-12.44,12.63-24.94,19.34-37.52c3.31-6.2,6.68-12.41,10.14-18.65h37.73C419.57,467.41,412.45,479.85,405.64,492.26z"/>
		<polygon class="st1" points="323.99,306.38 88.6,306.38 160.06,440.02 323.99,440.02 487.93,440.02 559.4,306.38 		"/>
		<path class="st2" d="M267.99,370.5c-2.95-2.58-6.48-4.68-10.49-6.24c-4.04-1.57-8.55-2.37-13.43-2.37H205.1l-0.33-0.02
			c-3.52-0.18-6.27-3.07-6.27-6.58c0-3.51,2.86-6.47,6.39-6.59l69.95-0.01V326.4h-65.97c-4.83,0-9.38,0.74-13.53,2.19
			c-4.16,1.46-7.84,3.48-10.93,5.99c-3.16,2.57-5.7,5.71-7.53,9.31c-1.86,3.66-2.8,7.66-2.8,11.9c0,3.71,0.77,7.32,2.3,10.74
			c1.52,3.42,3.73,6.48,6.58,9.12c2.82,2.61,6.23,4.71,10.13,6.24c3.9,1.53,8.35,2.3,13.23,2.3h39.97c3.72,0,6.74,3.03,6.74,6.75
			s-3.03,6.74-6.74,6.74h-88.3l11.66,22.29h78.84c4.44,0,8.52-0.94,12.13-2.81c3.49-1.8,6.53-4.11,9.03-6.88
			c2.5-2.77,4.45-5.91,5.78-9.32c1.34-3.43,2.02-6.78,2.02-9.95c0-3.91-0.83-7.68-2.46-11.21
			C273.36,376.26,271.02,373.14,267.99,370.5"/>
		<polygon class="st2" points="347.29,326.39 310.1,362.56 310.1,326.39 283.7,326.39 283.7,419.96 310.1,419.96 310.1,383.78 
			347.29,419.96 379.54,419.96 332.73,372.84 379.65,326.39 		"/>
		<path class="st2" d="M467.57,326.39v35.36h-54.06c-2.71-0.56-4.72-2.99-4.72-5.75v-29.61h-22.44v29.39c0,2.66,0.41,5.3,1.2,7.81
			c3.62,12.19,15,20.7,27.67,20.7h52.35v7.48c0,3.25-2.64,5.9-5.89,5.9h-91.92l22.54,22.29h68.46c4.44,0,8.56-0.97,12.22-2.89
			c3.55-1.85,6.62-4.25,9.13-7.13c2.47-2.84,4.42-5.96,5.79-9.29c1.4-3.4,2.11-6.7,2.11-9.8v-64.46L467.57,326.39L467.57,326.39z"/>
		<path class="st1" d="M323.99,95.94c-87.24,0-157.96,70.72-157.96,157.96c0,13.09,1.6,25.79,4.6,37.95h98.61v-34.12l16.26-3.05
			v37.17h191.86c3-12.16,4.6-24.87,4.6-37.95C481.96,166.66,411.23,95.94,323.99,95.94z M303.35,237.32l-16.19,2.77v-62.55
			l16.19-5.75V237.32z"/>
		<path class="st0" d="M344.62,158.92l-8.06-2.57v-51.7c-2.23-0.18-4.48-0.33-6.73-0.41v49.97l-5.84-1.86l0,0l0,0l0,0l0,0l0,0v94.38
			v23.1v36.56h38.49v-66l-17.86-3.06V158.92z"/>
		<g>
			<path class="st3" d="M323.99,152.34L323.99,152.34L323.99,152.34z"/>
			<path class="st2" d="M449.93,147.64c-3.23-3.82-6.62-7.49-10.17-11c-29.77-29.38-70.65-47.53-115.77-47.53
				s-86,18.14-115.76,47.52c-3.56,3.51-6.95,7.18-10.17,11c-24.23,28.69-38.85,65.77-38.85,106.26c0,4.17,0.16,8.31,0.46,12.4
				c0.42,5.72,1.14,11.35,2.13,16.89c0.52,2.92,1.13,5.8,1.8,8.66h15.44c-1.55-5.96-2.76-12.03-3.57-18.19
				c13.48-8.81,27.73-16.41,42.7-22.75c7.77-3.29,15.66-6.18,23.64-8.71c0.3,3.87,0.45,7.78,0.45,11.7
				c0,12.99-1.66,25.71-4.85,37.95h15.41c2.88-12.18,4.41-24.89,4.41-37.95c0-5.37-0.27-10.68-0.77-15.92
				c10.09-2.58,20.33-4.5,30.68-5.89V217c-11.14,1.42-22.1,3.43-32.8,6.1c-5.37-28.41-18.03-54.23-35.96-75.46
				c25.26-25.11,57.9-40.09,93.02-42.99v51.7l-8.06,2.57v12.88v43.53v15.01v6.97l-17.86,3.06v66h38.51v-36.56v-23.1v-94.38
				l-5.84,1.86v-49.97c1.94-0.07,3.89-0.14,5.84-0.14c39.85,0,77.33,15.46,105.59,43.54c-17.93,21.23-30.59,47.06-35.96,75.46
				c-15.85-3.95-32.22-6.57-48.99-7.76v15.01c15.9,1.19,31.55,3.72,46.87,7.63c-0.5,5.24-0.77,10.55-0.77,15.92
				c0,13.06,1.53,25.77,4.41,37.95h15.41c-3.19-12.24-4.85-24.97-4.85-37.95c0-3.92,0.16-7.83,0.45-11.7
				c7.98,2.53,15.87,5.43,23.64,8.71c14.97,6.33,29.22,13.94,42.7,22.75c-0.81,6.17-2.02,12.24-3.57,18.19h15.44
				c0.68-2.86,1.28-5.75,1.8-8.66c0.99-5.54,1.71-11.17,2.14-16.89c0.3-4.09,0.46-8.23,0.46-12.4
				C488.78,213.4,474.17,176.33,449.93,147.64z M239.9,227.11c-23.29,7.13-45.32,17.15-65.67,29.63c-0.02-0.95-0.03-1.89-0.03-2.85
				c0-35.1,12-68.36,34.04-95.1C224.58,178.62,235.4,202.03,239.9,227.11z M473.77,256.74c-20.35-12.49-42.38-22.5-65.67-29.63
				c4.5-25.08,15.32-48.49,31.66-68.32c22.04,26.74,34.04,60,34.04,95.1C473.8,254.85,473.79,255.8,473.77,256.74z"/>
		</g>
	</g>
	<g>
		<path class="st0" d="M210.44,105.95c-2.91-4.31-1.18-6.95,2.89-9.7l5.3-3.58c6.42-4.33,8.19-3.51,10.96,0.68l-4.51,3.05
			l-0.27-0.41c-0.71-1.06-1.69-0.84-3.03,0.06l-4.92,3.32c-2.38,1.61-2.07,3.02-0.84,4.85l1.07,1.58c1.44,2.14,2.43,2.65,4.57,1.21
			l4.81-3.25c2.03-1.37,2.51-1.99,1.27-3.82l4.51-3.05l0.93,1.38c1.68,2.48,2.1,5.03-2.44,8.09l-7.28,4.91
			c-4.06,2.74-7.17,3.36-10.08-0.95L210.44,105.95z"/>
		<polygon class="st0" points="242.13,79.42 247.18,77.4 249.54,83.27 260.18,79 257.83,73.13 262.88,71.11 269.48,87.58 
			264.43,89.6 261.93,83.37 251.29,87.64 253.79,93.87 248.74,95.9 		"/>
		
			<rect x="281.73" y="65.82" transform="matrix(0.9767 -0.2146 0.2146 0.9767 -9.4015 62.7831)" class="st0" width="5.44" height="17.74"/>
		<path class="st0" d="M302.53,68.63c-0.27-5.19,2.57-6.57,7.47-6.82l6.39-0.34c7.73-0.41,8.83,1.2,9.04,6.22L320,67.98l-0.02-0.49
			c-0.07-1.27-1.02-1.59-2.63-1.51l-5.92,0.31c-2.86,0.15-3.33,1.53-3.22,3.73l0.1,1.91c0.14,2.57,0.73,3.52,3.3,3.39l5.8-0.31
			c2.45-0.13,3.17-0.41,3.05-2.61l5.43-0.29l0.09,1.66c0.16,2.99-0.8,5.39-6.25,5.68l-8.76,0.46c-4.89,0.26-7.87-0.81-8.15-6
			L302.53,68.63z"/>
		<path class="st0" d="M351.11,63.4l6.99,1.12l6.82,19.07l-5.98-0.96l-1.17-3.37l-10.89-1.75l-2.07,2.85l-6-0.96L351.11,63.4z
			 M349.51,74.06l6.88,1.1l-2.43-7.14L349.51,74.06z"/>
		<path class="st0" d="M381.23,76.35c1.9-4.84,5.06-4.91,9.63-3.12l7.62,2.99c5.75,2.26,5.73,4.65,4.47,7.87l-0.21,0.52l-4.97-1.95
			c0.64-1.64-0.21-2.21-1.83-2.85l-5.5-2.16c-2.56-1-3.46-0.65-4.57,2.18l-0.81,2.05c-1.11,2.83-0.69,3.7,1.87,4.71l5.4,2.12
			c1.32,0.52,2.73,0.83,3.36-0.76l0.19-0.48l-6.3-2.47l1.34-3.42l11.36,4.46l-1.84,4.7c-1.86,4.75-4.42,4.01-10.12,1.77l-6.09-2.39
			c-4.56-1.79-6.83-4-4.93-8.83L381.23,76.35z"/>
		<path class="st0" d="M417.33,92.36c2.89-4.32,6-3.71,10.07-0.99l7.25,4.85c4.07,2.73,5.82,5.37,2.93,9.68l-2.94,4.4
			c-2.89,4.32-6,3.71-10.07,0.99l-7.25-4.85c-4.07-2.73-5.81-5.37-2.93-9.68L417.33,92.36z M419.97,98.46
			c-1.43,2.14-1.53,3.25,0.61,4.68l5.78,3.87c2.14,1.43,3.13,0.92,4.56-1.22l1.06-1.59c1.23-1.83,1.53-3.25-0.85-4.85l-5.29-3.54
			c-2.38-1.6-3.58-0.78-4.81,1.06L419.97,98.46z"/>
	</g>
</g>
</svg>
