<svg xmlns="http://www.w3.org/2000/svg" viewBox="0 0 523.14 576"><path d="M512.96 277.3c-10.53-4.44-36.81-12.69-64-20.13.32-11 .59-23.05.3-35.28 18-22.88 26.23-40.5 24.43-52.41-1-6.35-4.44-9.14-5.48-9.84l-3.32-2.24-3.62 1.6a203.45 203.45 0 0 1-32.39 10.89 405.87 405.87 0 0 0-45.6-15c10.05-35.6 11.25-60 3.55-72.63-3.88-6.37-8.74-7.69-10.14-8l-3.9-.71-2.71 2.89A254.5 254.5 0 0 1 304.39 127c-1.38-8.81-4.54-23.06-10.82-46.71-6.57-24.73-16.15-57.24-21.66-70.21l-.55-1.31-.48-.48a13.52 13.52 0 0 0-1.86-3.46c-1.53-2.5-4.21-4.86-7.71-4.86-4 0-6.87 3-8.26 5.78l-1.89 3.81c-5.4 12.26-14.45 44.43-21 70.88-5.92 23.85-8.87 38.29-10.11 47.24-13.65-7.1-40.55-23.35-66.85-52.24l-2.73-3-4 .74c-1.39.25-6.23 1.58-10.11 7.93-7.75 12.66-6.64 37.22 3.3 73.07a394.31 394.31 0 0 0-45 14.64 289.91 289.91 0 0 1-31.31-11.2l-3.56-1.52-3.26 2.1c-1.06.69-4.6 3.42-5.67 9.76-2 11.6 5.72 28.78 22.81 51.09-.6 13.29-.34 26.44 0 38.48-26.3 7.28-52.18 15.52-63.25 20.17-4.82 1.61-10.4 4.78-10.4 10.76 0 6.15 5.84 8.56 8.33 9.6.35.14.68.27.95.4l.42.2c11.81 5 43.94 13.87 69.8 20.49 1.39 8.66 3 17.24 5 26-22.95 20.4-34.72 37.11-34.95 49.75-.13 6.78 3 10.25 4 11.15l3 2.77 3.92-1.08a193.69 193.69 0 0 1 39.74-6.53 364.59 364.59 0 0 0 33 68.81l1.55 2.51 2.87.71a521.49 521.49 0 0 0 91.2 14.63c7.23 29.87 17.06 65.69 23 78.89l1.75 3.48c1.4 2.78 4.3 5.76 8.25 5.76 3.54 0 6.23-2.37 7.76-4.87a13.8 13.8 0 0 0 1.85-3.48l.45-.45.55-1.28c5.62-13 16.06-47.8 23.52-78.13a524.9 524.9 0 0 0 87.65-13.92l2.86-.7 1.57-2.49c12.23-19.38 23.4-42.4 33.25-68.48a210.42 210.42 0 0 1 40.35 6.88l3.9 1 3-2.76c1-.9 4.08-4.35 4-11.12-.17-12.73-11.82-29.7-34.63-50.47 1.9-8.71 3.57-17.72 5-26.91 27.98-6.82 58.84-15.89 70.64-20.72l.94-.4c2.8-1.17 8.62-3.6 8.62-9.75 0-4.42-3.24-7.81-10.18-10.65" fill="#fff"/><path d="M510.17 284c-11.36-4.8-41.09-13.94-68.62-21.34.42-14 .85-28.4.39-43.26 35.78-44.6 22.23-53.76 22.23-53.76a213.33 213.33 0 0 1-35.81 11.83 392.31 392.31 0 0 0-54.2-17.42c22.64-74.73 1.23-78.64 1.23-78.64-34.92 37.17-70.29 53.81-77.71 56.88 3.89-5.22-22.83-102.62-32.47-125.29a5.68 5.68 0 0 1-.87-1.31A7 7 0 0 0 263.02 9c-.43-.87-1.31-1.75-1.75-1.75s-1.31.88-1.74 1.75l-1.74 3.5c-10 22.73-36.57 128.05-30.46 126.74h-.43a.44.44 0 0 0-.44-.44s-39.78-15.69-78.71-58.46c0 0-21.4 3.95 1 79.08a383.88 383.88 0 0 0-53.72 17.1 302.48 302.48 0 0 1-34.53-12.2s-13.54 8.75 20.59 52.41c-.86 15.73-.41 31.45.05 46.31C53.62 270.5 24.35 279.7 13 284.52c0 0-5.68 1.84-5.68 3.94 0 1.66 3.5 2.62 5.25 3.49 11.36 4.79 44.14 13.93 73.43 21.33 1.75 11.8 4 23.15 6.58 34.51-47.14 40.68-34 52.9-34 52.9a202.34 202.34 0 0 1 46.74-7 358 358 0 0 0 34.16 72.49 507.91 507.91 0 0 0 95.26 14.76c7.46 31.45 18 69.88 23.68 82.55l1.75 3.49c.44.88 1.32 1.75 1.75 1.75s1.32-.87 1.75-1.75a7.14 7.14 0 0 0 1.31-2.62 5.07 5.07 0 0 1 .87-1.31c5.67-13.12 17-51.14 24.38-82.17a512.49 512.49 0 0 0 91.74-14.08c13.52-21.42 24.86-45.9 34.44-72.12a212.31 212.31 0 0 1 47.16 7.32s13.1-12.25-33.69-53.7q3.92-17.05 6.51-35.4c29.27-7 62.46-16.67 74.26-21.49 2.07-.93 5.23-1.94 5.23-3.5s-5.71-3.91-5.71-3.91" fill="#f05023"/><path d="M423.67 273.2c1.24-21.59 1-40.05.62-54.14 17.78-13.35 15.45-15.35 15.45-15.35-1.4-1.19-7.52.37-15.93 3.39-.08-1.29-.13-2.52-.17-3.68 19.82-16 14.34-18.06 14.34-18.06-2.47-1.6-9.23 0-18 3.33l-3.83-1.12a600.12 600.12 0 0 0-60.23-14.85c9.47-18.46 18.21-38.13 13.42-39.72-2.74-1.21-18.47 13.81-31.26 36.67l-2-.29c9.71-18.69 19-39.1 14.07-40.73-2.83-1.25-19.41 14.5-32.39 38.38-11.83-1.28-23.7-2.11-35.82-2.54.28-40.61-4.59-65.47-9.16-65.47 0 0-9.68-.65-10.59 65.12H258.83c.34-40.4-4.3-65.12-9.2-65.11 0 0-9.73-.65-10.6 65.57-10.62.44-21.07 1.2-31.47 2.29-12.85-23.72-29.36-39.33-32.18-38.08-4.86 1.63 4.29 21.77 14 40.35l-2.35.33c-12.72-22.66-28.23-37.5-31.27-36.28-4.52 1.58 4.2 20.93 13.67 39.24a609.2 609.2 0 0 0-63 15.42l-3.56 1.13c-8.75-3.28-15.48-4.86-17.92-3.26 0 0-5.87 2 14.24 18q-.09 1.76-.15 3.72c-8.35-3-14.43-4.52-15.82-3.34 0 0-2.34 2 15.41 15.55-.62 14.49-1.13 32.89-.15 54.16-40.4 3.91-38.34 8.09-38.34 8.09.63 3.51 17.5 4.27 39 3.76 0 .3 0 .6.07.9-35.34 4.21-31.64 7.52-31.64 7.52.4 3.54 14.23 4.32 32.61 3.79a438.82 438.82 0 0 0 8.92 55.52c-27.34 10.46-28.34 16.27-28.34 16.27s4.51 3.36 31.75-2.56c.42 1.62.85 3.23 1.3 4.85-13.76 4.83-24 9.28-23.42 11.68 0 0 1.92 3.1 26-2.76a396.9 396.9 0 0 0 29.55 71.73l2.19 4.37 4.81.87c39.76 7.82 79.53 12.58 108.8 12.55s69-4.87 108.78-12.78l4.8-.88 2.18-4.37a429.76 429.76 0 0 0 28.07-72.07c25.1 6.16 26.91 3 26.91 3 .77-2.46-10.06-7.08-24.39-12 .43-1.58.88-3.17 1.28-4.74 28.49 6.23 33.15 2.77 33.15 2.77s-1.05-6-29.8-16.74a481.9 481.9 0 0 0 9-55.15c19.94.63 35.31-.08 35.61-3.72 0 0 4.37-3.5-34.52-7.83v-.62c23 .62 41.41-.06 41.89-3.79 0 0 2.18-4.37-41.06-8.25m-72.84-90.8a549 549 0 0 1 53.95 12.72c-18.38 8.43-39.47 19.89-50.63 26.09a35.2 35.2 0 0 0-13.91-19.64c2.37-4.15 6.31-11.16 10.59-19.17M281.71 175c10.56.37 20.82 1.13 31 2.12a137 137 0 0 0-5.72 15h-25.97q.51-8.91.72-17.11m-42.79.16q0 7.94.18 17h-20.88a134.12 134.12 0 0 0-5.68-15.17c8.67-.82 17.44-1.46 26.4-1.84m-64.48 7c4.22 7.83 8.14 14.76 10.59 19.05a41.16 41.16 0 0 0-16 20.35c-11.12-6.16-32.41-17.68-50.93-26.13a534.89 534.89 0 0 1 56.3-13.27m-65.82 90.74c-.86-18-.65-33.81-.23-46.84 18 9.88 46.39 17.54 58.75 20.6v20.81c-15.63 1.56-37 3.6-58.54 5.43m1.8 24.59c18.93-.91 40.59-2.8 57.21-4.39V331.13a34 34 0 0 0 .67 4.43c-21.25 5.35-37.35 10.15-49.53 14.34a438.1 438.1 0 0 1-8.39-52.41m278.58 101c-13.73-4.24-60.44-16.42-127.34-16.35-68.82.07-116.55 13.06-128.52 17-2.54-7-4.81-13.93-6.87-20.8 13.64-3.76 32.44-9.71 58.36-19a54 54 0 0 0 31.14 9.36l90.88-.09c12.83 0 23.92-3.33 32.3-9.17 24.92 8.82 43.24 14.59 56.66 18.3-2 6.86-4.17 13.78-6.61 20.8m14-49.39c-12-4.06-27.76-8.67-48.21-13.78a27.26 27.26 0 0 0 .75-7.45V292.87c15.92 1.48 37 3.25 55.93 4.17a467.16 467.16 0 0 1-8.44 52.11m10.45-76.83c-21.56-1.93-42.81-3.87-58-5.27v-20.54c12.4-3.07 40.86-10.78 58.73-20.69.25 12.94.27 28.66-.74 46.5" fill="#fff"/><path d="M256.02 409.3v-16.62c-12.09.13-23.47.63-34.06 1.39a28.15 28.15 0 0 1 8 16.57q12.61-1.11 26.06-1.34zm45.37-15.3c-10.69-.75-22.2-1.22-34.47-1.32v16.67c8.92.11 17.63.53 26.06 1.25a27 27 0 0 1 8.41-16.6zm2.18 17.62c21.31 2.51 40.56 6.9 56.46 12.81a137.27 137.27 0 0 1 16.31 7.44c3.38-8 6.3-14.86 9.65-23.53a306.89 306.89 0 0 0-30.79-7.49c-10.05-2-22.06-3.83-35.81-5.28-9.49 2.12-14.59 8.43-15.82 16.05zm-9.89 9.52c-8.6-.77-17.54-1.24-26.72-1.36v40.47h.95c2.59-.05 5.2-.14 7.81-.22 13.77-.63 28.38-2.09 42.88-4-10.55-10.92-21.68-21.87-24.93-34.89zm33.61 28.67c1.37 1.47 2.77 2.9 4.17 4.34 12.9-2 25.45-4.24 36.9-6.57 1.08-2.16 2.08-4.31 3.11-6.47a120 120 0 0 0-15.36-7.06c-14-5.15-31.46-9.22-51.1-11.69 3.66 8.31 12.47 18 22.27 27.45zM247.71 460c2.49.07 5 .15 7.45.2h.91v-40.46c-9.17.15-18.1.65-26.71 1.45-3.14 13-13.94 24-24.46 34.87 14.47 1.94 29.06 3.37 42.81 3.94zm-29.55-37.55c-19.58 2.51-37.09 6.6-51.25 11.77a114.54 114.54 0 0 0-15.46 7.2c1.07 2.11 2.12 4.24 3.24 6.36 11.64 2.31 24.33 4.55 37.33 6.5 1.4-1.44 2.8-2.88 4.18-4.36 9.44-9.43 18.14-19.13 21.96-27.44zm-54.75 2.16c15.7-6 34.93-10.44 56.43-13-1.28-7.66-6.42-13.91-15.93-16-13.91 1.49-26.07 3.38-36.16 5.37-14.18 2.8-25.45 5.88-31 7.57 3.05 7.77 6.44 15.62 10.16 23.49a138.76 138.76 0 0 1 16.5-7.4zm13.88-94.39c1.77 17 19.25 28.38 38.48 28.36l90.88-.1c18.78 0 34.94-7.9 38.42-24.94a34.41 34.41 0 0 0 .87-7v-26.21h-1.37c-10.93 0-20.53 2.64-28.4 8.76-7.42 5.25-10 10.94-10 10.94l-87.82.09V240.6l87.82-.09.45 19.66c20.1 0 38.88-8.78 38.86-28.44v-.87c0-20.1-18.82-28.82-38.92-28.8l-90.88.09c-19.22 0-36.69 11.4-38.42 28.88l.06 49.38z" fill="#0a2240"/></svg>