<svg id="Layer_1" data-name="Layer 1" xmlns="http://www.w3.org/2000/svg" viewBox="0 0 650 650"><defs><style>.cls-1{fill:#00a8e1;}.cls-2{fill:#0d2240;}.cls-3{fill:#c4d600;}.cls-4{fill:#fff;}</style></defs><title>wings-primary-logo</title><path class="cls-1" d="M623.37,193.77l8.17-14.27-15,6.69a113.32,113.32,0,0,1-16.73,5.6c30.18-22,49.2-72.72,49.2-72.72l-11.91,7.42-3.71,2.22c-0.57.35-57.64,34.89-134,62.07-18.84,6.71-35.6,11.51-50.39,15.74-46.3,13.25-74.25,21.25-72.26,64.38,0.75,16.1-2.2,28.11-8.51,34.73A19.49,19.49,0,0,1,362,310c-0.8-1.06-.95-2.41-1.17-4.42l-0.11-1c0-.63,0-1.28,0-2,0.19-5.26,4.67-16.88,6.22-20.88,0.38-.87.81-1.87,1.27-3,8-20.47,4.66-34.08,4.51-34.65l-0.15-.59-0.28-.54a19.33,19.33,0,0,0-1.77-2.75,37.74,37.74,0,0,0-5.52-6.11,39.54,39.54,0,0,0,5-9.34H370c5.51-14.6,1-28.46.73-29.23l-1.39-4.11-4.31.49c-14.14,1.62-24.2,6.54-30.93,11.37a25.42,25.42,0,0,0-3.67-3.41l-7.22-5.18L322,203.39a39.25,39.25,0,0,0-8.3-1.62c-6.81-4.43-16.2-8.45-28.76-9.89l-4.31-.49-1.39,4.11c-0.31.93-6.91,21.16,5.78,38.56a37.64,37.64,0,0,0-5.52,6.11,18.8,18.8,0,0,0-1.77,2.75l-0.28.54-0.15.59c-0.15.57-3.52,14.18,4.51,34.64l0.31,0.82c1.89,4.79,6.9,17.53,7.1,23.11,0,1.16,0,2.2,0,3.18-0.2,1.91-.37,3.21-1.14,4.24a19.5,19.5,0,0,1-6.25-4.4c-6.32-6.62-9.26-18.62-8.51-34.73,2-43.14-26-51.13-72.25-64.38-14.79-4.23-31.55-9-50.39-15.74-76.33-27.18-133.4-61.73-134-62.07l-3.71-2.22L1,119.09s19,50.71,49.2,72.72a113.11,113.11,0,0,1-16.73-5.6l-15-6.69,8.17,14.27c0.66,1.14,13.4,23.07,34.76,38.09-2,0-4,.07-6,0.07a125.89,125.89,0,0,1-17.75-1L22.2,228.63,33,239.94c1,1.05,20.16,21,40.73,31.14a117.11,117.11,0,0,1-19.2,4.16l-11.21,1.3,8.08,7.88c0.8,0.78,17.35,16.71,46.4,29.28-13.74,3.56-22.43,5.49-22.43,5.49,6.43,7.84,14.91,18.71,26.39,32h-0.13l3.12,3.45q5.41,6.2,11.69,13v28.61c0,10.33,5.08,19.93,13.93,26.34a42.36,42.36,0,0,0,24.86,7.77H172.6V462.2h49.19c15.9,12,33.38,24.4,52.63,37.14,14.93,10.06,50.33,31.57,50.33,31.57s38.27-23.34,54.38-34.3Q405.47,479,427.62,462.2h49.77V430.4H494.1A42.14,42.14,0,0,0,518,422.68c8.87-6.41,14-16,14-26.37V369.41c21.12-22.64,34.41-40.11,42.26-50.23,0,0-2.86-.63-7.87-1.84v-0.07c-0.09,0-6.07-1.39-14.09-3.56,29.06-12.57,45.63-28.52,46.43-29.29l8.08-7.88-11.21-1.3a117.05,117.05,0,0,1-19.2-4.16C596.89,261,616,241,617,239.94l10.75-11.3-15.43,2.29a125.89,125.89,0,0,1-17.75,1c-2,0-4.05,0-6-.07C610,216.85,622.71,194.92,623.37,193.77Z"/><path class="cls-2" d="M618.71,191.11c-16.32,7.27-42.88,11.08-42.88,11.08,36.11-20,55.32-57.41,60.49-68.72l-0.15-.16s-57.17,34.84-135,62.54-121.46,23.36-119.08,74.82c1.51,32.69-11.39,42.55-21,45.4-5.3-2.89-5.27-7-5.74-10.94v-0.08c0-.82,0-1.68,0-2.61,0.19-5.31,3.43-14.49,6.63-22.76,0.37-.83.78-1.8,1.23-2.95,7.49-19.08,4.31-31.34,4.31-31.34h-0.09a13.88,13.88,0,0,0-1.34-2,32.68,32.68,0,0,0-8.93-8.43h0c15.74-16.08,8.44-37.7,8.44-37.7-15.93,1.83-26.22,8-32.5,13.68a24.83,24.83,0,0,0-5.86-6.69s-0.64,4.9-3,6.94a11.21,11.21,0,0,0-5.22-3,31,31,0,0,1-.41,4.51c-6-6-16.74-13.39-34.31-15.4,0,0-7.3,21.62,8.44,37.7a32.66,32.66,0,0,0-8.95,8.45,14.12,14.12,0,0,0-1.33,2s-3.18,12.25,4.31,31.34l0.06,0.16,0.24,0.66c3.45,8.78,7.26,19.12,7.47,24.89a38.88,38.88,0,0,1-.06,3.93c-0.38,3.52-.85,7.12-5.6,9.71-9.62-2.85-22.52-12.71-21-45.4,2.38-51.46-41.28-47.11-119.08-74.82s-135-62.54-135-62.54l-0.15.16c5.17,11.31,24.37,48.72,60.48,68.72,0,0-26.56-3.81-42.87-11.08,0,0,19,33.25,49.22,45.13,0,0-27.43,2.41-43.66,0,0,0,29.37,30.87,53.19,34.83,0,0-18.06,7.54-34.93,9.5,0,0,21.81,21.27,59.44,33.8-14.73,4.74-29.66,8.13-29.66,8.13s12.23,16.41,36.87,42.18v31.64c0,8.59,4.27,16.61,11.71,22a37,37,0,0,0,21.73,6.74H178v31.77h47a1032.69,1032.69,0,0,0,100,68,1032.42,1032.42,0,0,0,100-68h47V425H494a36.76,36.76,0,0,0,20.84-6.69c7.45-5.39,11.73-13.41,11.73-22V366.45c25.78-26.79,38.57-44,38.57-44s-14.93-3.39-29.66-8.13c37.63-12.54,59.44-33.8,59.44-33.8-16.87-2-34.93-9.5-34.93-9.5,23.82-4,53.19-34.83,53.19-34.83-16.23,2.41-43.67,0-43.67,0C599.66,224.36,618.71,191.11,618.71,191.11Z"/><path class="cls-1" d="M588.81,172.08s-30.91,26.43-73.68,40.39-49.47,16.45-76.25,23.81-36.8,16.49-36.65,29.05,5.25,63.8-45.64,68.55c0,0,17.06-3.39,27.43-21.36,16.63-28.82,4.81-47.9,11.81-60.32,8.29-14.73,19.59-18.19,53.95-28.4s75.24-20.47,139-51.71"/><path class="cls-3" d="M561.44,210.94s-16.84,14.7-53.55,25.12-72.37,22.71-72.37,22.71,96.67-7.38,124.88-12.37c0,0-14.2,10.92-60.53,17s-73.66,7.19-73.66,7.19,90.41,12.23,124.25,11.83c0,0-15.53,7.65-60.52,5.34s-64.81-6.3-64.81-6.3,19.24,17.36,94.52,35.16c0,0-26.23,2.28-49.55-4.63S422,293.69,422,293.69s15.91,22.1,29.3,35.94c0,0-14.41-3.27-32.59-22.94,0,0-11.36,25.52-27.4,27.05,0,0,19.74-20.47,19.89-45.77s-3.52-32.87,30.26-42.71S529.22,219.93,561.44,210.94Z"/><path class="cls-1" d="M61.18,172.08s30.91,26.43,73.69,40.39,49.47,16.45,76.25,23.81,36.8,16.49,36.65,29.05-5.25,63.8,45.64,68.55c0,0-17.06-3.39-27.43-21.36-16.63-28.82-4.81-47.9-11.81-60.32-8.29-14.73-19.59-18.19-53.95-28.4s-75.24-20.47-139-51.71"/><path class="cls-3" d="M88.55,210.94s16.84,14.7,53.55,25.12,72.37,22.71,72.37,22.71S117.8,251.38,89.6,246.39c0,0,14.2,10.92,60.53,17s73.66,7.19,73.66,7.19-90.41,12.23-124.26,11.83c0,0,15.53,7.65,60.52,5.34s64.81-6.3,64.81-6.3-19.24,17.36-94.52,35.16c0,0,26.23,2.28,49.55-4.63S228,293.69,228,293.69s-15.91,22.1-29.3,35.94c0,0,14.41-3.27,32.59-22.94,0,0,11.36,25.52,27.4,27.05,0,0-19.75-20.47-19.89-45.77s3.52-32.87-30.26-42.71S120.78,219.93,88.55,210.94Z"/><path class="cls-4" d="M358.42,248.79c-2.25-3-7.33-5.9-7.33-5.9-1.24-3-4.49-6.53-7.17-9.13,5.72-3.46,14.91-11.35,13.92-25.92,0,0-13.39,3.41-19.39,10.77-0.63.77-1.21,1.5-1.76,2.2,0.89,6.42-.43,14.65-6.9,24.6-5,7.65-1.31,13.51-1.31,13.51s-5.75-.33-9.5-8c-4.78-9.76,3.19-17.63-3.52-27.27-0.68-.89-1.44-1.87-2.27-2.92A39.87,39.87,0,0,0,302,211.64a56.29,56.29,0,0,0-10-3.8c-1,14.57,8.2,22.45,13.91,25.92-2.68,2.6-5.92,6.15-7.16,9.13,0,0-5.08,2.91-7.34,5.9a27.31,27.31,0,0,0,2,11.25s-2,8.58,7,15a56.82,56.82,0,0,0,3.85,19.79,39.74,39.74,0,0,0,2-12.38s7.83,9.7,3.3,30.72c0,0-.4.76-1.07,1.83-1.16,2-2.91,4.68-3.71,6-1.15,2,6.59,16.1,6.59,16.1s4,3,12.54,3.41v0l0.92,0,0.92,0v0c8.58-.39,12.54-3.41,12.54-3.41s7.74-14.13,6.59-16.1c-0.8-1.37-2.54-4.08-3.71-6-0.67-1.08-1.07-1.83-1.07-1.83-4.53-21,3.29-30.72,3.29-30.72a39.76,39.76,0,0,0,2,12.38,56.94,56.94,0,0,0,3.85-19.8c9-6.47,7-15,7-15a27.29,27.29,0,0,0,2-11.25"/><path class="cls-3" d="M358.42,248.79a87.3,87.3,0,0,1-6.84,6c-2.23,1.57-9,12.67-9,12.67s-5.07,1.34-5,4.95,1.09,1.93-.39,8.57c-1.27,5.71-4.87,19,1.72,30.24a29.73,29.73,0,0,0,3.94,6.43c-3.78-16.8-.92-27.14.8-31.36a45.5,45.5,0,0,0,1.85,8.56c5.18-13,3.66-19.68,3.85-19.79C360.67,268.22,358.42,248.79,358.42,248.79Z"/><path class="cls-3" d="M310.8,311.63c6.9-11.35,3.25-24.85,2-30.62-1.48-6.64-.47-5-0.39-8.57s-5-4.95-5-4.95-6.73-11.1-9-12.67a87.26,87.26,0,0,1-6.84-6s-2.25,19.43,9,26.3c0.19,0.12-1.33,6.8,3.85,19.79a45.36,45.36,0,0,0,1.83-8.42c1.73,4.29,4.5,14.59.75,31.22A29.25,29.25,0,0,0,310.8,311.63Z"/><path class="cls-3" d="M338.4,328.4l-3.81-3.63s-1.83,5.85-9.63,5.85-9.63-5.85-9.63-5.85l-3.81,3.63c-2.73-1-5.27-5-6.58-7.33l0,0c-1.16,2,6.59,16.1,6.59,16.1s4,3,12.54,3.41v0l0.92,0,0.92,0v0c8.58-.39,12.54-3.41,12.54-3.41s7.74-14.13,6.59-16.1l0,0c-1.31,2.37-3.85,6.35-6.58,7.33"/><path class="cls-2" d="M321.14,330.1s-2.61-7.85-6.31-10.3c0,0-7.33,4.23-4.79,7.86,2,2.8,4.14,2.62,4.14,2.62s-1.74-2.1,1.09-4a19.14,19.14,0,0,0,5.87,3.83"/><path class="cls-2" d="M328.77,330.1s2.61-7.85,6.31-10.3c0,0,7.33,4.23,4.79,7.86-2,2.8-4.14,2.62-4.14,2.62s1.74-2.1-1.09-4a19.14,19.14,0,0,1-5.87,3.83"/><path class="cls-3" d="M310.94,232.69c-1.53-10.84-12.85-20.43-18.87-24.83-1,14.56,8.2,22.43,13.91,25.9-2.68,2.6-5.92,6.15-7.16,9.13a32.63,32.63,0,0,1,12.12-10.2"/><path class="cls-3" d="M339,232.69c1.53-10.84,12.85-20.43,18.87-24.83,1,14.56-8.2,22.43-13.91,25.9,2.68,2.6,5.92,6.15,7.16,9.13A32.62,32.62,0,0,0,339,232.69"/><path class="cls-3" d="M334.3,343.79a30.34,30.34,0,0,1-8.46,1.51l-0.33,0h-0.86l-0.58,0a30.4,30.4,0,0,1-8.47-1.51l-1.34-.46,1,3.56,0.17,0.15c0.1,0.09,2.54,2.15,7.71,2.56a16.36,16.36,0,0,0,1.82.09,16.18,16.18,0,0,0,1.8-.09c5.19-.41,7.63-2.47,7.73-2.56l0.17-.15,1-3.56Z"/><path class="cls-2" d="M296.1,253s0,2.15,2.16,6.56c0,0-2.12,2.19.33,5.6a19.09,19.09,0,0,1,2.9-3.44,8.79,8.79,0,0,0,.44,5.36c1.19,2.52,2.23,3.11,5.35,4.82a13.47,13.47,0,0,1,4.57,3.93s3.23-5.32-2.26-11.87c-3.79-4.52-7.19-5.39-13.49-11"/><path class="cls-2" d="M353.9,253s0,2.15-2.16,6.56c0,0,2.12,2.19-.33,5.6a19.08,19.08,0,0,0-2.9-3.44,8.79,8.79,0,0,1-.44,5.36c-1.19,2.52-2.23,3.11-5.35,4.82a13.47,13.47,0,0,0-4.57,3.93s-3.23-5.32,2.26-11.87c3.79-4.52,7.19-5.39,13.49-11"/><path class="cls-3" d="M209.8,425H194.06v19.35H209.8a4.38,4.38,0,0,0,2.94-1,3.25,3.25,0,0,0,1.21-2.55V428.57a3.24,3.24,0,0,0-1.21-2.53,4.35,4.35,0,0,0-2.94-1m-1.13,14.8h-9.34V429.54h9.34v10.25Z"/><path class="cls-3" d="M262.87,426a4.34,4.34,0,0,0-2.94-1H248.33a4.42,4.42,0,0,0-3,1.05,3.27,3.27,0,0,0-1.19,2.53v15.77h5.28v-6.08h9.35v6.08h5.27V428.58a3.19,3.19,0,0,0-1.21-2.54m-4.06,3.5v4.17h-9.35v-4.17h9.35Z"/><polygon class="cls-3" points="299.58 424.99 294.31 424.99 294.31 444.34 309.9 444.34 309.9 439.8 299.58 439.8 299.58 424.99"/><polygon class="cls-3" points="345.39 424.99 340.11 424.99 340.11 444.34 355.7 444.34 355.7 439.8 345.39 439.8 345.39 424.99"/><path class="cls-3" d="M401.66,425H390.07a4.43,4.43,0,0,0-3,1,3.27,3.27,0,0,0-1.18,2.53v15.77h5.27v-6.08h9.34v6.08h5.28V428.57a3.23,3.23,0,0,0-1.21-2.53,4.32,4.32,0,0,0-2.94-1m-1.12,8.72H391.2v-4.17h9.34v4.17Z"/><path class="cls-3" d="M455.94,433.24l-14.62-1.51v-2.18h14.62V425H440.2a4.43,4.43,0,0,0-3,1.05,3.31,3.31,0,0,0-1.19,2.53V436l14.63,1.51v2.25H436v4.55h15.74a4.37,4.37,0,0,0,2.93-1,3.27,3.27,0,0,0,1.22-2.55v-7.52Z"/><path class="cls-3" d="M277.18,410.75h-23V355.53l1.62,0.13c6.18,0.52,13.28,1,20,1.42l1.4,0.08v53.59Z"/><path class="cls-4" d="M257.17,407.77h17V360c-5.72-.35-11.66-0.77-17-1.2v49Z"/><path class="cls-3" d="M386.06,410.75a25.59,25.59,0,0,1-12.78-3.12l-0.22-.12c-4.6-2.83-5.56-6.17-5.55-8.47l0.08-29.93c0-3.31,2-6.33,5.67-8.75a27.38,27.38,0,0,1,12.92-4c16.06-1.16,32.08-2.81,47.6-4.88l1.7-.23-0.07,15.65-1.33.14c-12.39,1.3-35.87,3-41.8,3.45V396.1l18.33-.46V378.06l24.61-1.69v34.28Z"/><path class="cls-4" d="M432.49,354.63c-15.05,2-30.54,3.55-46.08,4.67a24.42,24.42,0,0,0-11.51,3.57c-2,1.28-4.31,3.41-4.32,6.26l-0.08,29.93c0,2.78,2.26,4.76,4.16,5.94a22.73,22.73,0,0,0,11.4,2.78v1.49l0-1.49,46.13-.1V379.56l-18.64,1.28v17.71l-24.3.6V367.69l1.39-.1c0.28,0,27.23-1.93,41.76-3.4Z"/><path class="cls-3" d="M445.21,410.76l0.07-15.94,1.43-.06c14.11-.53,28.08-1.16,41.52-1.88v-5l-42.91-5,0.09-19.88c0-3.62,1.92-7.15,5.53-10.19A27.25,27.25,0,0,1,463.81,347c16.15-2.86,32.06-6.28,47.29-10.16l1.86-.48v19l-1.2.24c-13.44,2.68-27.44,5.08-41.63,7.14v3.76l42.84,4v24a14.8,14.8,0,0,1-5.49,11.4,20.26,20.26,0,0,1-13.13,4.56q-23.8.17-47.62,0.28h-1.51Z"/><path class="cls-4" d="M448.25,397.69l0,10.07q23.05-.12,46.1-0.27a17.31,17.31,0,0,0,11.23-3.86,11.71,11.71,0,0,0,4.43-9.12V373.23l-42.85-4,0-9.06,1.27-.18c14.15-2,28.12-4.41,41.55-7.06V340.2c-14.74,3.7-30.08,7-45.65,9.73a24.26,24.26,0,0,0-11.46,5.21c-3,2.5-4.46,5.16-4.47,7.93l-0.08,17.21,42.91,5,0,10.46-1.41.08C476.36,396.51,462.39,397.15,448.25,397.69Z"/><path class="cls-3" d="M356.92,410.75H332.09l0-38.28q-9.14.06-18.28,0l0,38.3H289.09v-53l1.54,0c0.16,0,15.71.46,23.48,0.57q12.06,0.16,24.13,0h0.51a25.6,25.6,0,0,1,12.45,2.88c4.74,2.65,5.73,6,5.72,8.32,0,8.33,0,39.72,0,39.72v1.49Z"/><path class="cls-4" d="M335.07,407.77h18.86c0-6.33,0-31,0-38.24,0-2.77-2.28-4.63-4.2-5.71a22.63,22.63,0,0,0-11-2.5h-0.47q-12.1.18-24.21,0c-6.35-.09-17.85-0.4-22-0.52v46.92h18.79l0-38.34,1.51,0q10.62,0.13,21.24,0h1.5Z"/><path class="cls-3" d="M241.53,410.75H240c-7.87,0-77.05,0-83.49,0a20.22,20.22,0,0,1-13.12-4.57,14.8,14.8,0,0,1-5.49-11.39V336.26l24.72,5.83v50.64l14.69,0.74V345.1l24.93,4.31v45.14l14.7,0.52V351.55l1.67,0.19,21.56,2.51,1.33,0.15v56.35Z"/><path class="cls-4" d="M140.91,340v54.71a11.71,11.71,0,0,0,4.43,9.11,17.27,17.27,0,0,0,11.22,3.86c6.13,0,69.28,0,82,0v-50.7L220,354.9v43.26l-20.67-.74V351.91l-19-3.27v48l-20.66-1V344.45Z"/><path class="cls-1" d="M247.86,457.94c8.84,6.74,18,13.2,26.94,19.15a55.63,55.63,0,0,1,9.06-13.29Z"/><path class="cls-1" d="M402.14,457.94l-36.46,6a55.57,55.57,0,0,1,9.11,13.47C383.82,471.34,393.17,464.78,402.14,457.94Z"/><path class="cls-4" d="M350.64,492.83c3.39-2.27,6.84-4.63,10.31-7.08A42.62,42.62,0,0,0,342.74,475C343.43,481.59,346.71,487.37,350.64,492.83Z"/><path class="cls-3" d="M328,472.62v34.62c5.27-3.19,11.25-6.93,17.58-11.08-4.67-6.52-8.69-13.85-9-22.64A64.06,64.06,0,0,0,328,472.62Z"/><path class="cls-4" d="M313.41,473.52c-0.32,8.79-4.34,16.12-9,22.64,6.33,4.15,12.31,7.89,17.59,11.09V472.62A64.06,64.06,0,0,0,313.41,473.52Z"/><path class="cls-3" d="M289,485.71c3.48,2.45,7,4.83,10.36,7.11,3.93-5.46,7.21-11.24,7.9-17.85A42.57,42.57,0,0,0,289,485.71Z"/><path class="cls-4" d="M328,466.59a71,71,0,0,1,8.9.87c0.72-4.48,2.49-8,5.29-10.45,0.29-.25.58-0.49,0.88-0.71A47.35,47.35,0,0,0,328,452.81v13.78Z"/><path class="cls-4" d="M307.17,468.76c-0.46-3.2-1.57-5.61-3.33-7.18a8.43,8.43,0,0,0-3.67-1.87,47.86,47.86,0,0,0-18.48,20.76l2.49,1.81A48.58,48.58,0,0,1,307.17,468.76Z"/><path class="cls-3" d="M349.81,459.71a8.46,8.46,0,0,0-3.66,1.87c-1.76,1.57-2.86,4-3.32,7.18a48.56,48.56,0,0,1,23,13.52l2.48-1.81A47.82,47.82,0,0,0,349.81,459.71Z"/><path class="cls-3" d="M307.78,457c2.8,2.47,4.57,6,5.29,10.45a71.07,71.07,0,0,1,8.91-.87V452.81a47.36,47.36,0,0,0-15.08,3.48C307.2,456.52,307.5,456.75,307.78,457Z"/></svg>