<?xml version="1.0" encoding="UTF-8" standalone="no"?>
<!-- Created with Inkscape (http://www.inkscape.org/) -->
<svg
   xmlns:dc="http://purl.org/dc/elements/1.1/"
   xmlns:cc="http://creativecommons.org/ns#"
   xmlns:rdf="http://www.w3.org/1999/02/22-rdf-syntax-ns#"
   xmlns:svg="http://www.w3.org/2000/svg"
   xmlns="http://www.w3.org/2000/svg"
   xmlns:sodipodi="http://sodipodi.sourceforge.net/DTD/sodipodi-0.dtd"
   xmlns:inkscape="http://www.inkscape.org/namespaces/inkscape"
   id="svg2"
   sodipodi:version="0.32"
   inkscape:version="0.45+0.46pre0+devel"
   width="800"
   height="765"
   xml:space="preserve"
   sodipodi:docname="Detroit Shock.svg"
   inkscape:output_extension="org.inkscape.output.svg.inkscape"
   version="1.0"><metadata
     id="metadata7"><rdf:RDF><cc:Work
         rdf:about=""><dc:format></dc:format><dc:type
           rdf:resource="" /><dc:title></dc:title><dc:date></dc:date><dc:creator><cc:Agent><dc:title></dc:title></cc:Agent></dc:creator><dc:rights><cc:Agent><dc:title></dc:title></cc:Agent></dc:rights><dc:publisher><cc:Agent><dc:title></dc:title></cc:Agent></dc:publisher><dc:identifier></dc:identifier><dc:source></dc:source><dc:relation></dc:relation><dc:language></dc:language><dc:subject><rdf:Bag /></dc:subject><dc:coverage></dc:coverage><dc:description></dc:description><dc:contributor><cc:Agent><dc:title></dc:title></cc:Agent></dc:contributor><cc:license
           rdf:resource="" /></cc:Work></rdf:RDF></metadata><defs
     id="defs5"><inkscape:perspective
       sodipodi:type="inkscape:persp3d"
       inkscape:vp_x="-50 : 600 : 1"
       inkscape:vp_y="0 : 1000 : 0"
       inkscape:vp_z="700 : 600 : 1"
       inkscape:persp3d-origin="300 : 400 : 1"
       id="perspective176" /><inkscape:perspective
       sodipodi:type="inkscape:persp3d"
       inkscape:vp_x="-50 : 600 : 1"
       inkscape:vp_y="0 : 1000 : 0"
       inkscape:vp_z="700 : 600 : 1"
       inkscape:persp3d-origin="300 : 400 : 1"
       id="perspective9" /><clipPath
       clipPathUnits="userSpaceOnUse"
       id="clipPath23"><path
         d="M 0,0 L 809.99988,0 L 809.99988,611.99988 L 0,611.99988 L 0,0 z"
         id="path25" /></clipPath><clipPath
       clipPathUnits="userSpaceOnUse"
       id="clipPath33"><path
         d="M 0.02128,0.02774 L 0.97876,0.02774 L 0.97876,0.97222 L 0.02128,0.97222 L 0.02128,0.02774 z"
         id="path35" /></clipPath><clipPath
       clipPathUnits="userSpaceOnUse"
       id="clipPath917"><path
         d="M 499,461.327 L 724.514,461.327 L 724.514,608.384 L 499,608.384 L 499,461.327 z"
         id="path919" /></clipPath><clipPath
       clipPathUnits="userSpaceOnUse"
       id="clipPath925"><path
         d="M 0,0 L 809.99988,0 L 809.99988,611.99988 L 0,611.99988 L 0,0 z"
         id="path927" /></clipPath><clipPath
       clipPathUnits="userSpaceOnUse"
       id="clipPath935"><path
         d="M -2.21274,-3.30061 L 1.37908,-3.30061 L 1.37908,1.04818 L -2.21274,1.04818 L -2.21274,-3.30061 z"
         id="path937" /></clipPath><clipPath
       clipPathUnits="userSpaceOnUse"
       id="clipPath943"><path
         d="M 0,1 L 0,0 L 1,0 L 1,1"
         id="path945" /></clipPath><clipPath
       clipPathUnits="userSpaceOnUse"
       id="clipPath1101"><path
         d="M 743.511,45.773 L 778.604,45.773 L 778.604,100.5 L 743.511,100.5 L 743.511,45.773 z"
         id="path1103" /></clipPath><clipPath
       clipPathUnits="userSpaceOnUse"
       id="clipPath1109"><path
         d="M 0,0 L 809.99988,0 L 809.99988,611.99988 L 0,611.99988 L 0,0 z"
         id="path1111" /></clipPath><clipPath
       clipPathUnits="userSpaceOnUse"
       id="clipPath1119"><path
         d="M -21.19058,-0.83654 L 1.89498,-0.83654 L 1.89498,10.348209 L -21.19058,10.348209 L -21.19058,-0.83654 z"
         id="path1121" /></clipPath><clipPath
       clipPathUnits="userSpaceOnUse"
       id="clipPath1127"><path
         d="M 0,1 L 0,0 L 1,0 L 1,1"
         id="path1129" /></clipPath><clipPath
       clipPathUnits="userSpaceOnUse"
       id="clipPath1155"><path
         d="M 397.617,11.25 L 412.383,11.25 L 412.383,34.277 L 397.617,34.277 L 397.617,11.25 z"
         id="path1157" /></clipPath><clipPath
       clipPathUnits="userSpaceOnUse"
       id="clipPath1163"><path
         d="M 0,0 L 809.99988,0 L 809.99988,611.99988 L 0,611.99988 L 0,0 z"
         id="path1165" /></clipPath><clipPath
       clipPathUnits="userSpaceOnUse"
       id="clipPath1173"><path
         d="M -26.92569,-0.48851 L 27.9256,-0.48851 L 27.9256,26.086439 L -26.92569,26.086439 L -26.92569,-0.48851 z"
         id="path1175" /></clipPath><clipPath
       clipPathUnits="userSpaceOnUse"
       id="clipPath1181"><path
         d="M 0,1 L 0,0 L 1,0 L 1,1"
         id="path1183" /></clipPath><clipPath
       clipPathUnits="userSpaceOnUse"
       id="clipPath1209"><path
         d="M 123.623,472.5 L 271.629,472.5 L 271.629,596.603 L 123.623,596.603 L 123.623,472.5 z"
         id="path1211" /></clipPath><clipPath
       clipPathUnits="userSpaceOnUse"
       id="clipPath1217"><path
         d="M 0,0 L 809.99988,0 L 809.99988,611.99988 L 0,611.99988 L 0,0 z"
         id="path1219" /></clipPath><clipPath
       clipPathUnits="userSpaceOnUse"
       id="clipPath1227"><path
         d="M -0.9993,-3.80753 L 5.14593,-3.80753 L 5.14593,1.12414 L -0.9993,1.12414 L -0.9993,-3.80753 z"
         id="path1229" /></clipPath><clipPath
       clipPathUnits="userSpaceOnUse"
       id="clipPath1235"><path
         d="M 0,1 L 0,0 L 1,0 L 1,1"
         id="path1237" /></clipPath><clipPath
       clipPathUnits="userSpaceOnUse"
       id="clipPath1537"><path
         d="M 123.623,36 L 271.629,36 L 271.629,126 L 123.623,126 L 123.623,36 z"
         id="path1539" /></clipPath><clipPath
       clipPathUnits="userSpaceOnUse"
       id="clipPath1545"><path
         d="M 0,0 L 809.99988,0 L 809.99988,611.99988 L 0,611.99988 L 0,0 z"
         id="path1547" /></clipPath><clipPath
       clipPathUnits="userSpaceOnUse"
       id="clipPath1555"><path
         d="M -2.08003,-0.40005 L 8.4948,-0.40005 L 8.4948,6.40058 L -2.08003,6.40058 L -2.08003,-0.40005 z"
         id="path1557" /></clipPath><clipPath
       clipPathUnits="userSpaceOnUse"
       id="clipPath1563"><path
         d="M 0,1 L 0,0 L 1,0 L 1,1"
         id="path1565" /></clipPath></defs><sodipodi:namedview
     inkscape:window-height="666"
     inkscape:window-width="640"
     inkscape:pageshadow="2"
     inkscape:pageopacity="0"
     guidetolerance="10.0"
     gridtolerance="10.0"
     objecttolerance="10.0"
     borderopacity="1.0"
     bordercolor="#666666"
     pagecolor="#ffffff"
     id="base"
     showgrid="false"
     inkscape:zoom="0.37991713"
     inkscape:cx="466.47518"
     inkscape:cy="399.35792"
     inkscape:window-x="161"
     inkscape:window-y="161"
     inkscape:current-layer="g11" /><g
     id="g11"
     inkscape:groupmode="layer"
     inkscape:label="mg07_cover"
     transform="matrix(1.25,0,0,-1.25,0,765)"><g
       id="g1215"
       clip-path="url(#clipPath1217)"
       transform="matrix(5.2063958,0,0,5.2063958,-678.99589,-2501.852)"><g
         id="g1221"
         transform="matrix(131.80962,0,0,124.09597,131.717,472.499)"><g
           id="g1223"><g
             id="g1225"
             clip-path="url(#clipPath1227)"><g
               id="g1231"><g
                 id="g1233"
                 clip-path="url(#clipPath1235)"><path
                   d="M 0.9938,0.1325 C 0.9939,0.1325 0.9939,0.1325 0.994,0.1325 C 0.9938,0.1325 0.9938,0.1325 0.9938,0.1325"
                   style="fill:#1f4fa3;fill-opacity:1;fill-rule:nonzero;stroke:none"
                   id="path1289" /><path
                   d="M 0.9935,0.1193 C 0.9935,0.1193 0.9936,0.1193 0.9936,0.1193 C 0.9935,0.1193 0.9934,0.1193 0.9935,0.1193"
                   style="fill:#1f4fa3;fill-opacity:1;fill-rule:nonzero;stroke:none"
                   id="path1293" /><path
                   d="M 0.9931,0.1062 C 0.9931,0.1062 0.9932,0.1062 0.9932,0.1062 C 0.9931,0.1062 0.9931,0.1062 0.9931,0.1062"
                   style="fill:#1f4fa3;fill-opacity:1;fill-rule:nonzero;stroke:none"
                   id="path1297" /><path
                   d="M 0.7563,0.4279 L 0.7999,0.4326 L 0.7388,0.4847 L 0.8603,0.4681 L 0.7885,0.5216 C 0.826,0.5338 0.8795,0.5504 0.8795,0.5504 L 0.8235,0.629 L 0.916,0.7597 L 0.7605,0.7458 L 0.7783,0.7844 L 0.691,0.7734 L 0.8128,0.9946 L 0.6872,0.8575 L 0.6776,0.89 L 0.6248,0.8196 C 0.6191,0.8254 0.6131,0.8308 0.6068,0.8359 L 0.6341,1 L 0.5476,0.8691 C 0.5306,0.8752 0.513,0.8788 0.4952,0.88 L 0.4553,0.967 L 0.4318,0.8738 C 0.4263,0.8724 0.4209,0.8707 0.4156,0.8688 C 0.4016,0.8637 0.3883,0.8571 0.3757,0.8491 L 0.2631,0.9405 L 0.3214,0.7989 C 0.3152,0.7906 0.3095,0.7819 0.3045,0.7728 L 0.2068,0.8526 L 0.2128,0.8071 L 0.027,0.9178 L 0.2411,0.7165 L 0.1168,0.7008 L 0.1327,0.6784 L 0.0161,0.6712 L 0.1094,0.6355 L 0.102,0.6336 L 0.1016,0.6335 C 0.1018,0.6336 0.1014,0.6334 0.1014,0.6334 C 0.0534,0.6175 0.0241,0.5638 0.0188,0.4822 L 0.0174,0.4606 L 0.0016,0.4526 L 0.007,0.3925 C 0.0082,0.3785 0.0109,0.366 0.015,0.3551 C 0.0145,0.3548 0.0079,0.351 0.0079,0.351 L 0,0.1064 C 0.2107,0.2403 0.2099,0.2381 0.2578,0.2661 L 0.1868,0.1757 L 0.3661,0.3299 L 0.3408,0.2767 L 0.3816,0.2919 L 0.3093,0.065 L 0.478,0.3586 L 0.478,0.3586 L 0.4872,0.3294 L 0.5268,0.4084 L 0.6001,0.2468 L 0.6001,0.4435 L 0.6731,0.3812 L 0.6606,0.444 L 0.9121,0.266 L 0.7563,0.4279"
                   style="fill:#ed1248;fill-opacity:1;fill-rule:evenodd;stroke:none"
                   id="path1441" /><path
                   d="M 0.8807,0.743 C 0.8807,0.743 0.7434,0.7307 0.7352,0.73 C 0.7382,0.7366 0.752,0.7668 0.752,0.7668 C 0.752,0.7668 0.6567,0.7547 0.6514,0.754 C 0.6523,0.7578 0.6579,0.7796 0.6602,0.7885 C 0.6635,0.7816 0.6713,0.7654 0.6713,0.7654 L 0.7538,0.9163 C 0.7538,0.9163 0.6814,0.8367 0.676,0.8309 C 0.6742,0.837 0.6673,0.8604 0.6673,0.8604 C 0.6673,0.8604 0.624,0.8022 0.6209,0.7979 C 0.6122,0.8078 0.6026,0.8168 0.5923,0.8246 C 0.5928,0.8276 0.6122,0.9452 0.6122,0.9452 L 0.6058,0.9354 C 0.6058,0.9354 0.5512,0.8523 0.5492,0.8492 C 0.5298,0.857 0.5096,0.8613 0.489,0.8621 C 0.4877,0.8647 0.4591,0.9276 0.4591,0.9276 C 0.4591,0.9276 0.4422,0.8603 0.4415,0.8575 C 0.4347,0.8558 0.4279,0.8539 0.4213,0.8515 C 0.4064,0.846 0.3922,0.8387 0.3791,0.8296 C 0.3765,0.8317 0.2946,0.8987 0.2946,0.8987 C 0.2946,0.8987 0.3372,0.7943 0.3384,0.7915 C 0.3289,0.7796 0.3207,0.7665 0.3139,0.7526 C 0.3095,0.7562 0.2293,0.8221 0.2293,0.8221 C 0.2293,0.8221 0.2336,0.7902 0.2346,0.7823 C 0.2266,0.7871 0.1162,0.8533 0.1162,0.8533 L 0.2635,0.7139 C 0.2635,0.7139 0.2629,0.7378 0.2626,0.7468 C 0.2691,0.739 0.2895,0.7142 0.2941,0.7086 C 0.2853,0.7075 0.1475,0.6899 0.1475,0.6899 C 0.1475,0.6899 0.1597,0.6725 0.1635,0.6671 C 0.1554,0.6666 0.0797,0.6619 0.0797,0.6619 C 0.0797,0.6619 0.1437,0.6372 0.1562,0.6324 C 0.1461,0.6299 0.1179,0.6228 0.1179,0.6228 C 0.0754,0.6086 0.0495,0.5597 0.0447,0.4849 C 0.0447,0.4849 0.0434,0.4638 0.043,0.458 C 0.041,0.4569 0.0287,0.4507 0.0287,0.4507 L 0.0291,0.4464 L 0.0333,0.3994 C 0.0347,0.383 0.0384,0.369 0.044,0.3576 C 0.0414,0.3562 0.0367,0.3535 0.0367,0.3535 C 0.0367,0.3535 0.0338,0.3518 0.0338,0.3518 L 0.0218,0.1519 L 0.0313,0.158 C 0.1132,0.212 0.2003,0.2656 0.2903,0.3174 C 0.283,0.3043 0.2454,0.236 0.2454,0.236 C 0.2454,0.236 0.3823,0.36 0.3988,0.3749 C 0.3908,0.3581 0.3652,0.304 0.3652,0.304 C 0.3652,0.304 0.3936,0.3146 0.4007,0.3172 C 0.3977,0.3077 0.3521,0.1639 0.3521,0.1639 L 0.4686,0.368 C 0.4686,0.368 0.4396,0.3588 0.4297,0.3557 C 0.4372,0.3658 0.4687,0.4082 0.4733,0.4144 C 0.4757,0.4067 0.4893,0.3629 0.4893,0.3629 C 0.4893,0.3629 0.5225,0.4296 0.5259,0.4365 C 0.5295,0.4286 0.5867,0.3016 0.5867,0.3016 C 0.5867,0.3016 0.5867,0.459 0.5867,0.4693 C 0.5938,0.4632 0.6519,0.4133 0.6519,0.4133 C 0.6519,0.4133 0.6401,0.4728 0.6385,0.4809 C 0.645,0.4783 0.6775,0.4656 0.6865,0.462 C 0.6799,0.4593 0.6652,0.4532 0.6652,0.4532 L 0.8178,0.3445 C 0.8178,0.3445 0.7326,0.4337 0.7257,0.4408 C 0.7336,0.4417 0.765,0.445 0.765,0.445 C 0.765,0.445 0.7088,0.4932 0.6976,0.5028 C 0.7125,0.5007 0.8103,0.4873 0.8103,0.4873 C 0.8103,0.4873 0.7636,0.5223 0.7567,0.5275 C 0.7987,0.5414 0.846,0.5563 0.8465,0.5564 L 0.8499,0.5575 C 0.8499,0.5575 0.802,0.6252 0.7999,0.6282 C 0.802,0.6313 0.8807,0.743 0.8807,0.743"
                   style="fill:#ffffff;fill-opacity:1;fill-rule:evenodd;stroke:none"
                   id="path1443" /><path
                   d="M 0.8416,0.5604 C 0.8377,0.566 0.7937,0.6282 0.7937,0.6282 C 0.7937,0.6282 0.864,0.7281 0.8701,0.7368 C 0.8599,0.7359 0.7269,0.7239 0.7269,0.7239 C 0.7269,0.7239 0.7404,0.7537 0.7435,0.7604 C 0.7353,0.7594 0.6491,0.7484 0.6491,0.7484 L 0.6474,0.7482 L 0.6456,0.7519 L 0.6587,0.8031 C 0.6587,0.8031 0.6687,0.7824 0.6716,0.7765 C 0.6752,0.7831 0.7146,0.8551 0.7289,0.8814 C 0.7114,0.8621 0.6738,0.8208 0.6738,0.8208 C 0.6738,0.8208 0.6674,0.8426 0.6654,0.8492 C 0.6603,0.8423 0.6212,0.7898 0.6212,0.7898 L 0.6192,0.7922 C 0.61,0.8031 0.5995,0.8129 0.5882,0.8214 L 0.5869,0.8223 C 0.5869,0.8223 0.6003,0.9037 0.6034,0.9225 C 0.5932,0.9071 0.5522,0.8445 0.5522,0.8445 L 0.551,0.8428 L 0.5492,0.8436 C 0.5294,0.8518 0.5085,0.8563 0.4873,0.8569 L 0.4858,0.857 C 0.4858,0.857 0.4651,0.9022 0.4605,0.9125 C 0.4577,0.9015 0.4455,0.853 0.4455,0.853 L 0.444,0.8527 C 0.4369,0.8511 0.4298,0.849 0.4229,0.8464 C 0.4078,0.841 0.3935,0.8335 0.3804,0.8242 L 0.3789,0.8231 C 0.3789,0.8231 0.3193,0.8718 0.3068,0.882 C 0.3131,0.8666 0.3442,0.7906 0.3442,0.7906 L 0.3432,0.7893 C 0.3328,0.7766 0.324,0.7625 0.317,0.7474 L 0.3156,0.7445 C 0.3156,0.7445 0.2445,0.8029 0.236,0.8099 C 0.2372,0.801 0.2409,0.7724 0.2409,0.7724 C 0.2409,0.7724 0.1802,0.8088 0.1541,0.8244 C 0.1789,0.801 0.2513,0.7325 0.2582,0.726 C 0.258,0.7342 0.2573,0.7614 0.2573,0.7614 L 0.304,0.7045 C 0.304,0.7045 0.1647,0.6868 0.1566,0.6857 C 0.1603,0.6806 0.1731,0.6624 0.1731,0.6624 C 0.1731,0.6624 0.1213,0.6592 0.1041,0.6581 C 0.1203,0.6519 0.1736,0.6314 0.1736,0.6314 L 0.1271,0.6197 C 0.1271,0.6197 0.1192,0.6177 0.1192,0.6177 C 0.079,0.6043 0.0543,0.557 0.0497,0.4846 L 0.0478,0.4546 C 0.0478,0.4546 0.0342,0.4476 0.034,0.4475 C 0.0341,0.4472 0.0382,0.3999 0.0382,0.3999 C 0.0397,0.3831 0.0435,0.3689 0.0494,0.3578 L 0.0506,0.3555 C 0.0506,0.3555 0.0388,0.3487 0.0386,0.3486 C 0.0386,0.3483 0.0274,0.1623 0.0274,0.1616 C 0.0281,0.1621 0.0288,0.1625 0.0287,0.1625 C 0.1131,0.2181 0.2029,0.2734 0.2958,0.3267 L 0.3036,0.3312 C 0.3036,0.3312 0.2746,0.2786 0.2645,0.2603 C 0.2838,0.2777 0.4143,0.396 0.4143,0.396 C 0.4143,0.396 0.3799,0.3233 0.3752,0.3133 C 0.3832,0.3163 0.4087,0.3258 0.4087,0.3258 C 0.4087,0.3258 0.3811,0.2389 0.3712,0.2075 C 0.3888,0.2383 0.4522,0.3494 0.4577,0.359 C 0.4488,0.3562 0.4161,0.3459 0.4161,0.3459 L 0.4751,0.4254 C 0.4751,0.4254 0.4875,0.3855 0.4904,0.3764 C 0.495,0.3857 0.5239,0.4437 0.5239,0.4437 L 0.5275,0.4452 C 0.5275,0.4452 0.5737,0.3427 0.5817,0.3249 C 0.5817,0.342 0.5817,0.4422 0.5817,0.472 C 0.5834,0.4733 0.585,0.4747 0.5866,0.4762 C 0.5999,0.4647 0.6367,0.4332 0.6441,0.4268 C 0.6419,0.4383 0.6318,0.4892 0.6318,0.4892 L 0.7005,0.4622 C 0.7005,0.4622 0.6817,0.4544 0.6759,0.452 C 0.682,0.4476 0.7475,0.401 0.7764,0.3804 C 0.7549,0.4029 0.7147,0.445 0.7147,0.445 C 0.7147,0.445 0.7438,0.4481 0.7524,0.449 C 0.7453,0.4551 0.6971,0.4964 0.6841,0.5076 L 0.6889,0.5093 C 0.7119,0.5062 0.7775,0.4971 0.791,0.4953 C 0.7796,0.5038 0.7456,0.5294 0.7456,0.5294 L 0.7504,0.531 C 0.7872,0.5432 0.8296,0.5566 0.8416,0.5604"
                   style="fill:#1967bb;fill-opacity:1;fill-rule:evenodd;stroke:none"
                   id="path1445" /><path
                   d="M 0.0576,0.315 L 0.054,0.2601 L 0.0499,0.1937 L 0.0679,0.2058 L 0.072,0.2702 L 0.0755,0.3245 L 0.0774,0.3533 L 0.0914,0.361 C 0.0909,0.3614 0.0904,0.3619 0.09,0.3624 C 0.0835,0.369 0.0753,0.3826 0.0728,0.4094 L 0.0693,0.4479 L 0.082,0.4534 L 0.0844,0.4906 C 0.0883,0.5498 0.1014,0.5823 0.1285,0.597 L 0.1267,0.5965 C 0.0885,0.5863 0.0711,0.5533 0.0665,0.4827 L 0.0641,0.4451 L 0.0514,0.4395 L 0.0549,0.4006 C 0.0574,0.3735 0.0656,0.3599 0.072,0.3532 C 0.0725,0.3527 0.073,0.3523 0.0735,0.3518 L 0.0595,0.3441 L 0.0576,0.315"
                   style="fill:#c9cfd2;fill-opacity:1;fill-rule:evenodd;stroke:none"
                   id="path1447" /><path
                   d="M 0.0576,0.315 L 0.054,0.2601 L 0.0499,0.1937 L 0.0679,0.2058 L 0.072,0.2702 L 0.0755,0.3245 L 0.0774,0.3533 L 0.0914,0.361 C 0.0909,0.3614 0.0904,0.3619 0.09,0.3624 C 0.0835,0.369 0.0753,0.3826 0.0728,0.4094 L 0.0693,0.4479 L 0.082,0.4534 L 0.0844,0.4906 C 0.0883,0.5498 0.1014,0.5823 0.1285,0.597 L 0.1267,0.5965 C 0.0885,0.5863 0.0711,0.5533 0.0665,0.4827 L 0.0641,0.4451 L 0.0514,0.4395 L 0.0549,0.4006 C 0.0574,0.3735 0.0656,0.3599 0.072,0.3532 C 0.0725,0.3527 0.073,0.3523 0.0735,0.3518 L 0.0595,0.3441 L 0.0576,0.315 z"
                   style="fill:none;stroke:#d3d3d3;stroke-width:0.0012;stroke-linecap:butt;stroke-linejoin:miter;stroke-miterlimit:4;stroke-dasharray:none;stroke-opacity:1"
                   id="path1449" /><path
                   d="M 0.8213,0.7006 L 0.805,0.6793 C 0.8058,0.6794 0.81,0.6799 0.81,0.6799 L 0.7652,0.6185 C 0.77,0.6116 0.8015,0.5672 0.8015,0.5672 L 0.8126,0.5705 C 0.8126,0.5705 0.7815,0.6135 0.7767,0.6204 L 0.8215,0.6812 C 0.8215,0.6812 0.8173,0.6807 0.8165,0.6806 L 0.8328,0.7016 L 0.8213,0.7006"
                   style="fill:#c9cfd2;fill-opacity:1;fill-rule:evenodd;stroke:none"
                   id="path1451" /><path
                   d="M 0.8213,0.7006 L 0.805,0.6793 C 0.8058,0.6794 0.81,0.6799 0.81,0.6799 L 0.7652,0.6185 C 0.77,0.6116 0.8015,0.5672 0.8015,0.5672 L 0.8126,0.5705 C 0.8126,0.5705 0.7815,0.6135 0.7767,0.6204 L 0.8215,0.6812 C 0.8215,0.6812 0.8173,0.6807 0.8165,0.6806 L 0.8328,0.7016 L 0.8213,0.7006 z"
                   style="fill:none;stroke:#d3d3d3;stroke-width:0.0012;stroke-linecap:butt;stroke-linejoin:miter;stroke-miterlimit:4;stroke-dasharray:none;stroke-opacity:1"
                   id="path1453" /><path
                   d="M 0.825,0.7235 L 0.7079,0.7144 L 0.7219,0.7399 C 0.7219,0.7399 0.7026,0.7394 0.651,0.7333 C 0.6131,0.8159 0.52,0.8608 0.4338,0.8307 C 0.3719,0.8091 0.3293,0.7485 0.3172,0.6871 C 0.2678,0.6804 0.2705,0.6808 0.2139,0.6733 L 0.2437,0.6365 C 0.2306,0.6336 0.1888,0.626 0.1884,0.6259 C 0.1464,0.6156 0.1256,0.5811 0.121,0.514 C 0.121,0.514 0.1192,0.4879 0.1186,0.4802 L 0.1054,0.4747 L 0.1057,0.4721 L 0.1092,0.4348 C 0.1116,0.4101 0.1191,0.3965 0.1256,0.389 L 0.114,0.383 L 0.1037,0.2302 L 0.2641,0.3247 C 0.2722,0.3291 0.2791,0.3342 0.2852,0.3399 C 0.2899,0.345 0.2939,0.3508 0.297,0.3576 L 0.2958,0.3419 L 0.4654,0.4276 L 0.4664,0.4396 C 0.4805,0.4324 0.4953,0.4388 0.5005,0.4411 C 0.5005,0.4411 0.563,0.4674 0.563,0.4674 C 0.5756,0.4725 0.5851,0.4803 0.5921,0.4912 C 0.6009,0.4866 0.6114,0.4866 0.6234,0.4911 C 0.6233,0.4911 0.6723,0.5092 0.6723,0.5092 C 0.6722,0.5092 0.6885,0.5149 0.6885,0.5149 L 0.6906,0.5157 L 0.6906,0.5157 C 0.6929,0.5165 0.7048,0.5206 0.7048,0.5206 C 0.7048,0.5206 0.7192,0.5255 0.7192,0.5255 C 0.7192,0.5255 0.7359,0.5311 0.7359,0.5311 C 0.7359,0.5311 0.7571,0.5381 0.7571,0.5381 C 0.7571,0.5381 0.7934,0.5495 0.7934,0.5495 L 0.7979,0.5509 L 0.7951,0.5549 L 0.7728,0.5862 C 0.7728,0.5862 0.7571,0.609 0.7523,0.616 L 0.7662,0.6359 C 0.7661,0.6358 0.8063,0.6912 0.8063,0.6912 L 0.811,0.6978 C 0.811,0.6978 0.8073,0.6973 0.805,0.697 L 0.8202,0.7171 L 0.825,0.7235"
                   style="fill:#0e2752;fill-opacity:1;fill-rule:evenodd;stroke:none"
                   id="path1455" /><path
                   d="M 0.4925,0.8089 C 0.4753,0.8086 0.4488,0.8106 0.437,0.7961 C 0.4439,0.7948 0.4505,0.7928 0.4567,0.79 C 0.4787,0.7905 0.4892,0.8059 0.4925,0.8089"
                   style="fill:#c9cfd2;fill-opacity:1;fill-rule:evenodd;stroke:none"
                   id="path1457" /><path
                   d="M 0.4227,0.7394 C 0.4046,0.7339 0.3784,0.7237 0.3621,0.716 C 0.3621,0.716 0.3533,0.7078 0.3575,0.6991 C 0.3728,0.7011 0.3934,0.7035 0.4091,0.7055 C 0.4091,0.7055 0.4301,0.7238 0.4227,0.7394"
                   style="fill:#c9cfd2;fill-opacity:1;fill-rule:evenodd;stroke:none"
                   id="path1459" /><path
                   d="M 0.2658,0.6473 C 0.2658,0.6487 0.2663,0.6607 0.2664,0.6616 C 0.2673,0.6617 0.2817,0.6644 0.2817,0.6644 C 0.2871,0.6654 0.2904,0.6651 0.292,0.6637 C 0.2928,0.6629 0.2932,0.6617 0.2932,0.6599 C 0.2932,0.6599 0.2932,0.6599 0.2932,0.6599 C 0.2927,0.6544 0.2888,0.652 0.2765,0.6495 C 0.2765,0.6494 0.2669,0.6476 0.2658,0.6473 z M 0.2816,0.6701 C 0.2816,0.6701 0.2564,0.6654 0.2564,0.6654 L 0.2554,0.6393 L 0.2783,0.6439 C 0.2851,0.6453 0.2901,0.6466 0.2944,0.649 C 0.3002,0.6524 0.3032,0.6565 0.3037,0.6615 C 0.3037,0.6645 0.3028,0.6667 0.3011,0.6683 C 0.2979,0.6712 0.2917,0.6718 0.2816,0.6701"
                   style="fill:#ffffff;fill-opacity:1;fill-rule:evenodd;stroke:none"
                   id="path1461" /><path
                   d="M 0.3354,0.6789 L 0.3336,0.6548 L 0.3726,0.6616 L 0.373,0.6672 C 0.373,0.6672 0.3453,0.6624 0.3438,0.6621 C 0.3439,0.6632 0.344,0.6657 0.3441,0.6664 C 0.3449,0.6665 0.3609,0.6693 0.3609,0.6693 L 0.3613,0.6744 C 0.3613,0.6744 0.3458,0.6718 0.3445,0.6716 C 0.3445,0.672 0.3447,0.6745 0.3447,0.6753 C 0.3457,0.6754 0.3737,0.6801 0.3737,0.6801 L 0.3741,0.6852 L 0.3733,0.6851 L 0.3354,0.6789"
                   style="fill:#ffffff;fill-opacity:1;fill-rule:evenodd;stroke:none"
                   id="path1463" /><path
                   d="M 0.3997,0.6887 L 0.3992,0.6838 L 0.4,0.6838 C 0.4,0.6838 0.4139,0.6859 0.4152,0.6861 C 0.415,0.6845 0.4135,0.6689 0.4135,0.6689 L 0.4229,0.6704 C 0.4229,0.6704 0.4244,0.6865 0.4245,0.6875 C 0.4253,0.6876 0.4405,0.6899 0.4405,0.6899 L 0.4411,0.6948 L 0.4403,0.6947 L 0.3997,0.6887"
                   style="fill:#ffffff;fill-opacity:1;fill-rule:evenodd;stroke:none"
                   id="path1465" /><path
                   d="M 0.5761,0.7073 C 0.5759,0.7063 0.5749,0.6985 0.5748,0.6976 C 0.5739,0.6975 0.5523,0.6947 0.5511,0.6945 C 0.5512,0.6959 0.5522,0.7036 0.5523,0.7044 C 0.5532,0.7046 0.5637,0.7058 0.5637,0.7058 C 0.5637,0.7058 0.5747,0.7071 0.5761,0.7073 z M 0.5766,0.7116 L 0.5527,0.7088 C 0.5462,0.708 0.5441,0.7072 0.5435,0.7032 C 0.5435,0.7032 0.5422,0.6937 0.5422,0.6937 C 0.5421,0.6926 0.5421,0.6912 0.543,0.6903 C 0.5441,0.6891 0.5464,0.6892 0.5505,0.6897 C 0.5505,0.6897 0.5745,0.6929 0.5745,0.6929 C 0.5809,0.6938 0.5831,0.6948 0.5837,0.6988 C 0.5837,0.6988 0.5849,0.7079 0.5849,0.7079 C 0.585,0.7089 0.585,0.7102 0.5842,0.711 C 0.5831,0.7121 0.5809,0.7121 0.5766,0.7116"
                   style="fill:#ffffff;fill-opacity:1;fill-rule:evenodd;stroke:none"
                   id="path1467" /><path
                   d="M 0.6225,0.7163 L 0.62,0.6992 L 0.6285,0.7003 L 0.6309,0.7172 L 0.6301,0.7172 L 0.6225,0.7163"
                   style="fill:#ffffff;fill-opacity:1;fill-rule:evenodd;stroke:none"
                   id="path1469" /><path
                   d="M 0.6979,0.7246 L 0.6619,0.7207 L 0.6612,0.7168 C 0.6612,0.7168 0.6741,0.7182 0.6754,0.7183 C 0.6751,0.7168 0.6733,0.7058 0.6733,0.7058 L 0.6741,0.7059 L 0.6817,0.7069 C 0.6817,0.7069 0.6836,0.7184 0.6838,0.7193 C 0.6846,0.7194 0.698,0.7209 0.698,0.7209 L 0.6988,0.7247 L 0.6979,0.7246"
                   style="fill:#ffffff;fill-opacity:1;fill-rule:evenodd;stroke:none"
                   id="path1471" /><path
                   d="M 0.4989,0.6975 C 0.4989,0.6975 0.4989,0.6974 0.4989,0.6974 L 0.4987,0.6953 C 0.4985,0.6943 0.4981,0.6939 0.4954,0.6936 C 0.4954,0.6936 0.4795,0.6913 0.4781,0.6911 C 0.4782,0.6923 0.4786,0.6951 0.4786,0.6953 C 0.4795,0.6955 0.4962,0.6977 0.4962,0.6977 C 0.4969,0.6978 0.4986,0.698 0.4989,0.6977 C 0.4989,0.6977 0.4989,0.6977 0.4989,0.6975 z M 0.4988,0.6894 C 0.5039,0.6902 0.5069,0.6913 0.5075,0.6948 C 0.5075,0.6949 0.508,0.6994 0.508,0.6994 C 0.5081,0.6995 0.5081,0.6997 0.5081,0.6998 C 0.5081,0.7008 0.5078,0.7015 0.5073,0.702 C 0.5062,0.7031 0.5042,0.7033 0.5,0.7028 L 0.47,0.6989 L 0.4675,0.6773 L 0.4767,0.6787 C 0.4767,0.6787 0.4775,0.6856 0.4776,0.6864 C 0.478,0.6864 0.4843,0.6873 0.4846,0.6874 C 0.4849,0.6872 0.4977,0.6818 0.4977,0.6818 L 0.5094,0.6835 L 0.5095,0.6848 C 0.5095,0.6848 0.5005,0.6879 0.4969,0.6891 C 0.4978,0.6893 0.4988,0.6894 0.4988,0.6894"
                   style="fill:#ffffff;fill-opacity:1;fill-rule:evenodd;stroke:none"
                   id="path1473" /><path
                   d="M 0.4806,0.821 C 0.4547,0.8193 0.4304,0.8112 0.4094,0.7981 C 0.4185,0.7985 0.4279,0.7979 0.437,0.7961 C 0.437,0.7961 0.437,0.7961 0.437,0.7961 C 0.4515,0.8031 0.4685,0.8062 0.4857,0.8065 C 0.4753,0.8022 0.4656,0.7966 0.4567,0.79 C 0.4567,0.79 0.4567,0.79 0.4566,0.79 C 0.4574,0.7896 0.4581,0.7894 0.4588,0.789 C 0.4691,0.784 0.4772,0.7771 0.4827,0.7687 C 0.4977,0.7707 0.5129,0.772 0.5282,0.7726 C 0.5144,0.8016 0.4933,0.8151 0.4806,0.821"
                   style="fill:#ffffff;fill-opacity:1;fill-rule:evenodd;stroke:none"
                   id="path1475" /><path
                   d="M 0.5949,0.7812 C 0.5928,0.7756 0.5915,0.77 0.5908,0.7647 C 0.6019,0.7612 0.6116,0.7571 0.6197,0.753 C 0.6125,0.7634 0.6042,0.7728 0.5949,0.7812"
                   style="fill:#ffffff;fill-opacity:1;fill-rule:evenodd;stroke:none"
                   id="path1477" /><path
                   d="M 0.5771,0.7543 C 0.568,0.7566 0.5581,0.7582 0.5476,0.7589 C 0.5507,0.7486 0.5531,0.737 0.5543,0.7239 C 0.5633,0.725 0.5721,0.7261 0.5808,0.7272 C 0.5787,0.7347 0.5771,0.7441 0.5771,0.7543"
                   style="fill:#ffffff;fill-opacity:1;fill-rule:evenodd;stroke:none"
                   id="path1479" /><path
                   d="M 0.4765,0.7504 C 0.4762,0.7516 0.4758,0.7528 0.4753,0.7539 C 0.4257,0.7462 0.3787,0.7304 0.3401,0.7082 C 0.3389,0.7043 0.3379,0.7004 0.3369,0.6964 C 0.3437,0.6973 0.3506,0.6982 0.3575,0.6991 L 0.3575,0.6991 C 0.3592,0.7055 0.3634,0.7133 0.3634,0.7133 C 0.3771,0.7216 0.3966,0.7272 0.4147,0.7327 C 0.4097,0.7224 0.4091,0.7076 0.4091,0.7057 C 0.4326,0.7087 0.4564,0.7117 0.4797,0.7146 C 0.4809,0.7236 0.4805,0.7353 0.4765,0.7504"
                   style="fill:#ffffff;fill-opacity:1;fill-rule:evenodd;stroke:none"
                   id="path1481" /><path
                   d="M 0.5426,0.7727 C 0.5553,0.7724 0.5672,0.7707 0.578,0.7681 C 0.5791,0.7752 0.581,0.7826 0.5842,0.79 C 0.5621,0.8067 0.5355,0.8176 0.5067,0.8205 C 0.5095,0.8184 0.5122,0.816 0.515,0.8133 C 0.5244,0.8043 0.5347,0.7912 0.5426,0.7727"
                   style="fill:#ed1248;fill-opacity:1;fill-rule:evenodd;stroke:none"
                   id="path1483" /><path
                   d="M 0.5426,0.7727 C 0.5553,0.7724 0.5672,0.7707 0.578,0.7681 C 0.5791,0.7752 0.581,0.7826 0.5842,0.79 C 0.5621,0.8067 0.5355,0.8176 0.5067,0.8205 C 0.5095,0.8184 0.5122,0.816 0.515,0.8133 C 0.5244,0.8043 0.5347,0.7912 0.5426,0.7727 z"
                   style="fill:none;stroke:#ed1248;stroke-width:0.0012;stroke-linecap:butt;stroke-linejoin:miter;stroke-miterlimit:4;stroke-dasharray:none;stroke-opacity:1"
                   id="path1485" /><path
                   d="M 0.5411,0.7223 C 0.5399,0.7364 0.5373,0.7486 0.5337,0.7592 C 0.5186,0.7588 0.5036,0.7577 0.4887,0.7558 C 0.4889,0.7552 0.4891,0.7546 0.4893,0.754 C 0.4933,0.7389 0.4941,0.7264 0.4932,0.7163 C 0.5094,0.7184 0.5255,0.7203 0.5411,0.7223"
                   style="fill:#ed1248;fill-opacity:1;fill-rule:evenodd;stroke:none"
                   id="path1487" /><path
                   d="M 0.5411,0.7223 C 0.5399,0.7364 0.5373,0.7486 0.5337,0.7592 C 0.5186,0.7588 0.5036,0.7577 0.4887,0.7558 C 0.4889,0.7552 0.4891,0.7546 0.4893,0.754 C 0.4933,0.7389 0.4941,0.7264 0.4932,0.7163 C 0.5094,0.7184 0.5255,0.7203 0.5411,0.7223 z"
                   style="fill:none;stroke:#ed1248;stroke-width:0.0012;stroke-linecap:butt;stroke-linejoin:miter;stroke-miterlimit:4;stroke-dasharray:none;stroke-opacity:1"
                   id="path1489" /><path
                   d="M 0.5901,0.7505 C 0.5905,0.7422 0.5921,0.7348 0.5939,0.7288 C 0.6057,0.7302 0.617,0.7316 0.6278,0.7329 C 0.6196,0.738 0.6066,0.745 0.5901,0.7505"
                   style="fill:#ed1248;fill-opacity:1;fill-rule:evenodd;stroke:none"
                   id="path1491" /><path
                   d="M 0.5901,0.7505 C 0.5905,0.7422 0.5921,0.7348 0.5939,0.7288 C 0.6057,0.7302 0.617,0.7316 0.6278,0.7329 C 0.6196,0.738 0.6066,0.745 0.5901,0.7505 z"
                   style="fill:none;stroke:#ed1248;stroke-width:0.0012;stroke-linecap:butt;stroke-linejoin:miter;stroke-miterlimit:4;stroke-dasharray:none;stroke-opacity:1"
                   id="path1493" /><path
                   d="M 0.3731,0.7395 C 0.3837,0.7578 0.3912,0.7672 0.4086,0.7787 C 0.4185,0.7785 0.4298,0.7778 0.439,0.7747 C 0.4317,0.7679 0.4311,0.7656 0.4255,0.7572 C 0.4252,0.7572 0.4529,0.7639 0.4675,0.7664 C 0.4637,0.7704 0.4589,0.7739 0.4531,0.7767 C 0.4329,0.7866 0.4066,0.7865 0.3869,0.7814 C 0.3704,0.7666 0.3569,0.7483 0.3475,0.7276 C 0.3558,0.7319 0.3645,0.7359 0.3734,0.7396 C 0.3733,0.7395 0.3732,0.7395 0.3731,0.7395"
                   style="fill:#ed1248;fill-opacity:1;fill-rule:evenodd;stroke:none"
                   id="path1495" /><path
                   d="M 0.3731,0.7395 C 0.3837,0.7578 0.3912,0.7672 0.4086,0.7787 C 0.4185,0.7785 0.4298,0.7778 0.439,0.7747 C 0.4317,0.7679 0.4311,0.7656 0.4255,0.7572 C 0.4252,0.7572 0.4529,0.7639 0.4675,0.7664 C 0.4637,0.7704 0.4589,0.7739 0.4531,0.7767 C 0.4329,0.7866 0.4066,0.7865 0.3869,0.7814 C 0.3704,0.7666 0.3569,0.7483 0.3475,0.7276 C 0.3558,0.7319 0.3645,0.7359 0.3734,0.7396 C 0.3733,0.7395 0.3732,0.7395 0.3731,0.7395 z"
                   style="fill:none;stroke:#ed1248;stroke-width:0.0012;stroke-linecap:butt;stroke-linejoin:miter;stroke-miterlimit:4;stroke-dasharray:none;stroke-opacity:1"
                   id="path1497" /><path
                   d="M 0.6274,0.623 C 0.6348,0.6244 0.6566,0.6284 0.6671,0.6304 L 0.6608,0.5709 C 0.6508,0.568 0.6307,0.562 0.6209,0.559 C 0.6227,0.5769 0.6264,0.613 0.6274,0.623 z M 0.5578,0.5967 L 0.5542,0.5556 C 0.5528,0.542 0.5505,0.539 0.5443,0.5367 C 0.5442,0.5367 0.5126,0.5245 0.5126,0.5245 C 0.5089,0.523 0.5078,0.5233 0.5075,0.5236 C 0.5068,0.5241 0.5058,0.5266 0.5068,0.5375 C 0.5068,0.5376 0.5105,0.5839 0.5105,0.5839 C 0.5121,0.6002 0.5152,0.6025 0.5215,0.6035 C 0.5215,0.6035 0.5528,0.6084 0.5528,0.6084 C 0.5549,0.6087 0.5563,0.6086 0.557,0.608 C 0.5581,0.6069 0.5584,0.6031 0.5578,0.5967 z M 0.7117,0.6089 C 0.7187,0.6184 0.7636,0.6799 0.7636,0.6799 L 0.7424,0.6777 L 0.7158,0.6749 C 0.7158,0.6749 0.7084,0.6641 0.7052,0.6594 C 0.7052,0.6596 0.7074,0.674 0.7074,0.674 L 0.6775,0.6706 L 0.6775,0.6707 L 0.6658,0.6692 L 0.6188,0.6632 C 0.6004,0.6607 0.5941,0.6475 0.5912,0.632 C 0.5907,0.6399 0.5887,0.6462 0.584,0.6507 C 0.5779,0.6564 0.5702,0.6563 0.5646,0.6556 C 0.5646,0.6556 0.5646,0.6556 0.5646,0.6556 C 0.5643,0.6556 0.5639,0.6556 0.5637,0.6555 C 0.5637,0.6555 0.5641,0.6555 0.5644,0.6556 C 0.5629,0.6554 0.5554,0.6542 0.5066,0.6467 C 0.4824,0.6427 0.476,0.6251 0.4732,0.5959 C 0.4732,0.5958 0.4664,0.5115 0.4664,0.5115 C 0.4659,0.5059 0.4655,0.5008 0.4655,0.4962 C 0.4655,0.4843 0.4678,0.4757 0.4745,0.4707 C 0.4832,0.4644 0.4942,0.4688 0.4983,0.4704 L 0.4982,0.4705 C 0.4992,0.4708 0.5001,0.4711 0.5007,0.4713 L 0.5557,0.4925 C 0.573,0.4989 0.5794,0.5109 0.5826,0.5299 C 0.5834,0.5228 0.5856,0.5174 0.5902,0.5139 C 0.5979,0.5078 0.6074,0.5112 0.6109,0.5124 C 0.6109,0.5124 0.6106,0.5125 0.6106,0.5125 C 0.6126,0.513 0.615,0.5138 0.618,0.5148 L 0.6626,0.5298 L 0.6925,0.5392 C 0.6925,0.5392 0.6941,0.5535 0.6949,0.5607 C 0.6989,0.5549 0.7067,0.5436 0.7067,0.5436 L 0.7488,0.556 L 0.7308,0.5816 C 0.7308,0.5816 0.7173,0.6009 0.7117,0.6089"
                   style="fill:#c9cfd2;fill-opacity:1;fill-rule:evenodd;stroke:none"
                   id="path1499" /><path
                   d="M 0.3286,0.5558 L 0.3336,0.6146 L 0.3214,0.6119 L 0.1931,0.5829 C 0.1722,0.5776 0.1654,0.5349 0.1634,0.4999 C 0.1615,0.4684 0.1623,0.4297 0.1763,0.4242 C 0.1799,0.4228 0.1828,0.4216 0.2285,0.4379 C 0.2428,0.443 0.2572,0.4484 0.2676,0.4523 C 0.2668,0.4416 0.2663,0.4336 0.2659,0.4282 C 0.2569,0.4238 0.1694,0.3817 0.1694,0.3817 L 0.1645,0.3793 L 0.1588,0.3063 L 0.3024,0.3822 C 0.3075,0.3848 0.3234,0.3928 0.3239,0.4655 C 0.3243,0.5203 0.3189,0.5231 0.3153,0.525 C 0.3116,0.5269 0.3094,0.5281 0.2657,0.5148 C 0.2525,0.5108 0.2389,0.5065 0.2289,0.5032 C 0.2297,0.5139 0.2304,0.5218 0.2309,0.5281 C 0.2418,0.5312 0.3286,0.5558 0.3286,0.5558"
                   style="fill:#c9cfd2;fill-opacity:1;fill-rule:evenodd;stroke:none"
                   id="path1501" /><path
                   d="M 0.4603,0.6375 L 0.4281,0.6335 C 0.4281,0.6335 0.4228,0.5776 0.4219,0.5672 C 0.4151,0.565 0.3994,0.5598 0.3864,0.5556 C 0.388,0.5741 0.3925,0.6264 0.3925,0.6264 L 0.3461,0.6171 L 0.3288,0.3959 L 0.3758,0.4179 C 0.3758,0.4179 0.3812,0.4841 0.3821,0.4949 C 0.3888,0.4972 0.4045,0.5026 0.4175,0.5071 C 0.4159,0.4885 0.4113,0.4345 0.4113,0.4345 L 0.4561,0.4522 L 0.4715,0.6389 L 0.4603,0.6375"
                   style="fill:#c9cfd2;fill-opacity:1;fill-rule:evenodd;stroke:none"
                   id="path1503" /><path
                   d="M 0.7432,0.6683 L 0.7207,0.6659 L 0.6898,0.621 L 0.6963,0.6632 L 0.6794,0.6613 L 0.6668,0.5416 L 0.6839,0.547 L 0.6884,0.5867 C 0.6913,0.5826 0.6904,0.5839 0.7102,0.5551 L 0.7333,0.5619 C 0.7033,0.6047 0.7036,0.6042 0.7001,0.6093 L 0.7432,0.6683"
                   style="fill:#ffffff;fill-opacity:1;fill-rule:evenodd;stroke:none"
                   id="path1505" /><path
                   d="M 0.1951,0.5737 C 0.169,0.5671 0.1665,0.4387 0.1793,0.4336 C 0.1848,0.4315 0.2641,0.4614 0.2776,0.467 L 0.2746,0.422 L 0.174,0.3735 L 0.1731,0.373 L 0.173,0.3721 L 0.1692,0.3231 L 0.2982,0.3913 C 0.3211,0.4028 0.3143,0.5149 0.3111,0.5166 C 0.3068,0.5188 0.2316,0.4944 0.2184,0.4898 L 0.2222,0.536 L 0.3199,0.5638 L 0.3232,0.6026 L 0.1951,0.5737"
                   style="fill:#ffffff;fill-opacity:1;fill-rule:evenodd;stroke:none"
                   id="path1507" /><path
                   d="M 0.4612,0.6281 L 0.4364,0.625 L 0.4302,0.5601 L 0.3759,0.5423 L 0.3821,0.6147 L 0.3545,0.6092 L 0.3391,0.4117 L 0.367,0.4248 L 0.3734,0.5025 L 0.4278,0.5213 L 0.4217,0.4494 L 0.4473,0.4595 L 0.4612,0.6281"
                   style="fill:#ffffff;fill-opacity:1;fill-rule:evenodd;stroke:none"
                   id="path1509" /><path
                   d="M 0.5651,0.5959 L 0.5651,0.596 C 0.5651,0.596 0.5615,0.5549 0.5615,0.5548 C 0.5601,0.541 0.5574,0.5333 0.5467,0.5293 L 0.5201,0.519 C 0.5178,0.5182 0.5162,0.5176 0.5149,0.5173 C 0.5149,0.5173 0.5152,0.5172 0.5152,0.5172 C 0.5116,0.5157 0.5071,0.5144 0.5034,0.5171 C 0.5001,0.5195 0.499,0.5237 0.499,0.5298 C 0.499,0.5323 0.4992,0.5351 0.4995,0.5383 C 0.4995,0.5383 0.5032,0.5846 0.5032,0.5846 C 0.5047,0.6003 0.5079,0.6092 0.5204,0.6113 C 0.5478,0.6155 0.5514,0.6161 0.5521,0.6161 C 0.552,0.6161 0.5518,0.6161 0.5518,0.6161 C 0.5546,0.6165 0.5587,0.6167 0.5618,0.6138 C 0.5656,0.6102 0.5659,0.6041 0.5651,0.5959 z M 0.5777,0.6437 C 0.575,0.6463 0.571,0.647 0.5648,0.6462 C 0.5648,0.6461 0.5078,0.6373 0.5078,0.6373 C 0.4911,0.6346 0.4851,0.6248 0.4822,0.5952 L 0.4754,0.511 C 0.4736,0.4916 0.4747,0.4826 0.4796,0.4791 C 0.4838,0.476 0.49,0.4779 0.4949,0.4799 C 0.4949,0.4799 0.5524,0.502 0.5524,0.502 C 0.5671,0.5075 0.5722,0.5165 0.5749,0.5425 L 0.5815,0.6172 C 0.5829,0.6323 0.5818,0.6399 0.5777,0.6437"
                   style="fill:#ffffff;fill-opacity:1;fill-rule:evenodd;stroke:none"
                   id="path1511" /><path
                   d="M 0.6199,0.6538 C 0.6062,0.652 0.6012,0.6439 0.5985,0.6192 L 0.5922,0.5493 C 0.5905,0.5328 0.5914,0.5252 0.5955,0.522 C 0.5989,0.5193 0.6039,0.5206 0.6079,0.522 C 0.6079,0.522 0.654,0.5374 0.654,0.5374 L 0.6561,0.5597 L 0.6102,0.5461 L 0.6189,0.6317 L 0.6643,0.6401 L 0.6668,0.6598 L 0.6199,0.6538"
                   style="fill:#ffffff;fill-opacity:1;fill-rule:evenodd;stroke:none"
                   id="path1513" /><path
                   d="M 0.8086,0 L 0.8086,0.0023 L 0.8079,0.0023 L 0.8079,0.0027 L 0.8097,0.0027 L 0.8097,0.0023 L 0.809,0.0023 L 0.809,0 L 0.8086,0"
                   style="fill:#ffffff;fill-opacity:1;fill-rule:nonzero;stroke:none"
                   id="path1529" /></g></g></g></g></g></g></g></svg>