<?xml version="1.0" encoding="UTF-8" standalone="no"?>
<!-- Created with Inkscape (http://www.inkscape.org/) -->

<svg
   version="1.1"
   id="svg2"
   xml:space="preserve"
   width="816"
   height="1056"
   viewBox="0 0 816 1056"
   sodipodi:docname="Houston_Comets.ai"
   xmlns:inkscape="http://www.inkscape.org/namespaces/inkscape"
   xmlns:sodipodi="http://sodipodi.sourceforge.net/DTD/sodipodi-0.dtd"
   xmlns="http://www.w3.org/2000/svg"
   xmlns:svg="http://www.w3.org/2000/svg"><defs
     id="defs6" /><sodipodi:namedview
     id="namedview4"
     pagecolor="#ffffff"
     bordercolor="#666666"
     borderopacity="1.0"
     inkscape:pageshadow="2"
     inkscape:pageopacity="0.0"
     inkscape:pagecheckerboard="0" /><g
     id="g8"
     inkscape:groupmode="layer"
     inkscape:label="Houston_Comets"
     transform="matrix(1.3333333,0,0,-1.3333333,0,1056)"><g
       id="g10"
       transform="scale(1,-1)"><path
         d="m 599.20898,-419.04199 c -8.08398,-25.65967 -40.43164,-45.91016 -91.08593,-57.0166 -9.85547,-2.16016 -20.26563,-3.93799 -31.14551,-5.34961 -4.10938,-5.13868 -9.11914,-9.60157 -14.87305,-13.18116 -11.84668,-7.36572 -25.30371,-9.98144 -38.16894,-8.39257 -203.83545,-77.86328 -298.79785,37.93505 -326.79297,83.09082 0.11084,-0.0503 0.22607,-0.10205 0.33496,-0.14893 -38.43555,17.94141 -67.24902,37.99316 -81.03906,57.97266 -8.43604,12.22363 -11.40039,24.28515 -8.80127,35.85254 6.53857,29.09472 43.26562,49.68359 106.21679,59.5498 58.76465,9.20996 134.06983,7.83008 212.05323,-3.87109 63.1084,-9.45606 122.09277,-25.12305 170.58886,-45.26367 33.99317,-14.125 78.31543,-37.0586 96.4668,-66.12012 7.91992,-12.67481 10.02246,-25.16162 6.24609,-37.12207 0,0 0,0 0,0 z M 136.2627,-436.22217 c 0,0 0,0 0.005,0 36.93555,-38.47314 83.63086,-43.15625 126.80224,-34.60498 -45.81933,8.57276 -89.21386,20.57031 -126.80712,34.60498 0,0 0,0 0,0 0,0 0,0 0,0 z"
         style="fill:#ffffff;fill-opacity:1;fill-rule:nonzero;stroke:none"
         id="path12" /><path
         d="m 599.20898,-419.04199 c -8.08398,-25.65967 -40.43164,-45.91016 -91.08593,-57.0166 -9.85547,-2.16016 -20.26563,-3.93799 -31.14551,-5.34961 -4.10938,-5.13868 -9.11914,-9.60157 -14.87305,-13.18116 -11.84668,-7.36572 -25.30371,-9.98144 -38.16894,-8.39257 -203.83545,-77.86328 -298.79785,37.93505 -326.79297,83.09082 0.11084,-0.0503 0.22607,-0.10205 0.33496,-0.14893 -38.43555,17.94141 -67.24902,37.99316 -81.03906,57.97266 -8.43604,12.22363 -11.40039,24.28515 -8.80127,35.85254 6.53857,29.09472 43.26562,49.68359 106.21679,59.5498 58.76465,9.20996 134.06983,7.83008 212.05323,-3.87109 63.1084,-9.45606 122.09277,-25.12305 170.58886,-45.26367 33.99317,-14.125 78.31543,-37.0586 96.4668,-66.12012 7.91992,-12.67481 10.02246,-25.16162 6.24609,-37.12207 0,0 0,0 0,0 0,0 0,0 0,0 z M 136.2627,-436.22217 c 0,0 0,0 0.005,0 36.93555,-38.47314 83.63086,-43.15625 126.80224,-34.60498 -45.81933,8.57276 -89.21386,20.57031 -126.80712,34.60498 0,0 0,0 0,0 0,0 0,0 0,0 z"
         style="fill:none;stroke:#ffffff;stroke-width:1.472;stroke-linecap:butt;stroke-linejoin:miter;stroke-miterlimit:2.6131;stroke-dasharray:none;stroke-opacity:1"
         id="path14" /><path
         d="m 325.90723,-270.53613 c 63.1084,-9.45606 122.09277,-25.12305 170.58886,-45.26367 33.99317,-14.125 78.31543,-37.0586 96.4668,-66.12012 7.91992,-12.67481 10.02246,-25.16162 6.24609,-37.12207 -8.08398,-25.65967 -40.43164,-45.91016 -91.08593,-57.0166 -55.16992,-12.10303 -127.25489,-12.37403 -208.47754,-0.79297 -131.1001,18.6875 -250.20459,66.96142 -283.20703,114.78418 -8.43604,12.22363 -11.40039,24.28515 -8.80127,35.85254 6.53857,29.09472 43.26562,49.68359 106.21679,59.5498 58.76465,9.20996 134.06983,7.83008 212.05323,-3.87109 0,0 0,0 0,0 z"
         style="fill:#0f2752;fill-opacity:1;fill-rule:nonzero;stroke:none"
         id="path16" /><path
         d="m 593.02246,-416.81494 c -14.27637,-45.31348 -119.43066,-78.25684 -292.77588,-53.54004 -129.5376,18.47217 -246.86523,65.64941 -278.96924,112.16553 -7.42138,10.75586 -10.06054,21.1709 -7.85986,30.97754 11.89648,52.95898 148.63379,75.32226 311.29639,50.91601 126.63476,-19.00781 234.66601,-63.63574 262.70996,-108.55078 6.91504,-11.05957 8.7998,-21.82275 5.59863,-31.96826 0,0 0,0 0,0 z"
         style="fill:#ffffff;fill-opacity:1;fill-rule:nonzero;stroke:none"
         id="path18" /><path
         d="m 15.81006,-327.74805 c -11.64697,-51.86816 125.86767,-117.51465 284.78271,-140.17578 174.33203,-24.85742 276.71387,9.38477 290.08985,51.84522 15.97949,50.70263 -107.59375,113.53369 -266.33008,137.35791 -158.74902,23.81054 -296.88965,2.833 -308.54248,-49.02735 0,0 0,0 0,0 z"
         style="fill:#cf103e;fill-opacity:1;fill-rule:nonzero;stroke:none"
         id="path20" /><path
         d="m 544.55078,-412.02441 c -10.67187,-47.20606 -118.44922,-65.90967 -245.08447,-48.46534 -11.46338,-4.16406 -23.51709,-7.74609 -35.88477,-10.22363 0,0 -7.88818,2.10645 -7.88818,2.10645 12.44531,2.04931 24.63428,5.27929 36.29785,9.18213 -2.47168,0.36035 -4.94922,0.74169 -7.42969,1.13183 -21.02685,3.33057 -41.20117,7.56006 -60.21679,12.50537 -70.3667,18.30127 -128.78223,46.66992 -148.55957,75.84326 -10.37159,12.89356 -14.77539,26.00684 -11.91993,38.61329 11.09278,49.04785 128.02393,66.57519 261.00977,45.51074 132.98633,-21.07129 230.78125,-77.15137 219.67578,-126.2041 0,0 0,0 0,0 z"
         style="fill:#0f2752;fill-opacity:1;fill-rule:nonzero;stroke:none"
         id="path22" /><path
         d="m 253.1084,-319.06055 c 0,0 13.61719,6.8711 13.61719,6.8711 0,0 12.09619,6.9248 12.09619,6.9248 0,0 10.57959,6.97266 10.57959,6.97266 0,0 9.06445,7.03418 9.06445,7.03418 0,0 -7.73144,-6.49805 -7.73144,-6.49805 0,0 -9.02393,-6.44238 -9.02393,-6.44238 0,0 -10.30615,-6.39746 -10.30615,-6.39746 0,0 -11.59961,-6.36231 -11.59961,-6.36231 0,0 14.55078,6.99805 14.55078,6.99805 0,0 12.96582,7.04687 12.96582,7.04687 0,0 11.37988,7.11231 11.37988,7.11231 0,0 9.79785,7.15332 9.79785,7.15332 0,0 -9.7749,-7.48731 -9.7749,-7.48731 0,0 -11.50146,-7.43554 -11.50146,-7.43554 0,0 -13.22852,-7.37891 -13.22852,-7.37891 0,0 -14.96533,-7.31445 -14.96533,-7.31445 0,0 12.47558,5.03515 12.47558,5.03515 0,0 11.62256,5.07813 11.62256,5.07813 0,0 10.78907,5.09668 10.78907,5.09668 0,0 9.94043,5.13086 9.94043,5.13086 0,0 -10.61133,-5.86133 -10.61133,-5.86133 0,0 -11.69678,-5.8125 -11.69678,-5.8125 0,0 -12.7915,-5.78711 -12.7915,-5.78711 0,0 -13.87989,-5.74023 -13.87989,-5.74023 0,0 -0.43603,0.51562 -0.43603,0.51562 0,0 -0.43408,0.51563 -0.43408,0.51563 0,0 -0.45215,0.50879 -0.45215,0.50879 0,0 -0.44629,0.52343 -0.44629,0.52343 0,0 0,0 0,0 z"
         style="fill:#ffffff;fill-opacity:1;fill-rule:nonzero;stroke:none"
         id="path24" /><path
         d="m 252.93945,-318.49121 c 2.15284,0.77539 4.21289,0.68848 4.61084,-0.20215 0.39746,-0.89062 -1.02343,-2.25 -3.17138,-3.03418 -2.14844,-0.77637 -4.20655,-0.68262 -4.61036,0.20801 -0.39209,0.89746 1.02295,2.25098 3.1709,3.02832 0,0 0,0 0,0 z"
         style="fill:#cf103e;fill-opacity:1;fill-rule:nonzero;stroke:none"
         id="path26" /><path
         d="m 286.47607,-442.0874 c 0,0 -24.69677,7.94482 -24.69677,7.94482 0,0 -21.93457,8.00733 -21.93457,8.00733 0,0 -19.19629,8.07959 -19.19629,8.07959 0,0 -16.43213,8.13916 -16.43213,8.13916 0,0 14.03027,-7.51465 14.03027,-7.51465 0,0 16.35889,-7.46436 16.35889,-7.46436 0,0 18.69726,-7.4082 18.69726,-7.4082 0,0 21.02247,-7.35547 21.02247,-7.35547 0,0 -26.37403,8.08936 -26.37403,8.08936 0,0 -23.50293,8.15576 -23.50293,8.15576 0,0 -20.64013,8.2251 -20.64013,8.2251 0,0 -17.76807,8.28662 -17.76807,8.28662 0,0 17.72998,-8.6753 17.72998,-8.6753 0,0 20.854,-8.60986 20.854,-8.60986 0,0 23.99366,-8.53027 23.99366,-8.53027 0,0 27.1206,-8.45166 27.1206,-8.45166 0,0 -22.60254,5.8164 -22.60254,5.8164 0,0 -21.08056,5.86426 -21.08056,5.86426 0,0 -19.54834,5.88721 -19.54834,5.88721 0,0 -18.0293,5.92578 -18.0293,5.92578 0,0 19.23926,-6.76807 19.23926,-6.76807 0,0 21.21533,-6.72314 21.21533,-6.72314 0,0 23.18408,-6.68555 23.18408,-6.68555 0,0 25.15967,-6.63428 25.15967,-6.63428 0,0 0.77734,0.60596 0.77734,0.60596 0,0 0.79395,0.59277 0.79395,0.59277 0,0 0.80908,0.60108 0.80908,0.60108 0,0 0.81982,0.59961 0.81982,0.59961 0,0 0,0 0,0 z"
         style="fill:#ffffff;fill-opacity:1;fill-rule:nonzero;stroke:none"
         id="path28" /><path
         d="m 286.40332,-441.47119 c -4.00977,0.91797 -7.68506,0.80859 -8.21484,-0.24121 -0.52979,-1.04834 2.29394,-2.64356 6.29882,-3.56153 4.00147,-0.91064 7.68165,-0.80664 8.20508,0.2461 0.53321,1.04834 -2.28759,2.63769 -6.28906,3.55664 0,0 0,0 0,0 z"
         style="fill:#cf103e;fill-opacity:1;fill-rule:nonzero;stroke:none"
         id="path30" /><path
         d="m 315.98633,-402.78662 c 0,0 -1.68653,2.98584 -1.68653,2.98584 0,0 4.93555,0 4.93555,0 0,0 -7.19043,13.01172 -7.19043,13.01172 0,0 5.81446,0 5.81446,0 0,0 7.06542,-12.99512 7.06542,-12.99512 0,0 3.80762,0 3.80762,0 0,0 1.98242,-3.00244 1.98242,-3.00244 0,0 -14.72851,0 -14.72851,0 0,0 0,0 0,0 z"
         style="fill:#a9adb5;fill-opacity:1;fill-rule:nonzero;stroke:none"
         id="path32" /><path
         d="m 374.375,-402.78662 c 0,0 -5.91113,-0.0269 -5.91113,-0.0269 0,0 -7.77246,3.7793 -7.77246,3.7793 0,0 2.01269,-3.75244 2.01269,-3.75244 0,0 -8.28906,0 -8.28906,0 0,0 2.12695,0.62988 0.30859,3.89453 0,0 -6.6875,12.10303 -6.6875,12.10303 0,0 5.84668,0 5.84668,0 0,0 4.72852,-8.72705 4.72852,-8.72705 0,0 7.95019,-3.82471 7.95019,-3.82471 0,0 -7.01953,12.55176 -7.01953,12.55176 0,0 5.78418,0 5.78418,0 0,0 9.04883,-15.99756 9.04883,-15.99756 0,0 0,0 0,0 z"
         style="fill:#a9adb5;fill-opacity:1;fill-rule:nonzero;stroke:none"
         id="path34" /><path
         d="m 288.2417,-402.84375 c 0,0 -5.68115,10.29492 -5.68115,10.29492 -0.81641,1.35254 -1.8169,2.45117 -2.88282,2.45117 0,0 -2.70507,0 -2.70507,0 -1.0625,0 -1.0625,-1.09863 -0.24756,-2.45117 0,0 5.72656,-10.29492 5.72656,-10.29492 0,0 -8.0415,0 -8.0415,0 0,0 1.44677,1.01465 0.67089,2.81689 -0.77099,1.79981 -5.13427,9.1128 -5.13427,9.1128 -1.35547,2.26269 -1.01709,4.09179 0.75439,4.09179 0,0 11.08399,0 11.08399,0 1.76855,0 4.30664,-1.8291 5.66064,-4.09179 0,0 6.47022,-11.92969 6.47022,-11.92969 0,0 -5.67432,0 -5.67432,0 0,0 0,0 0,0 z"
         style="fill:#a9adb5;fill-opacity:1;fill-rule:nonzero;stroke:none"
         id="path36" /><path
         d="m 267.71094,-403.01318 c 1.76855,0 2.11133,1.83105 0.75439,4.08935 0,0 -4.49658,8.18945 -4.49658,8.18945 -1.57422,2.74024 -3.46875,4.09278 -5.24072,4.09278 0,0 -11.41309,0 -11.41309,0 -1.77148,0 -2.10693,-1.8291 -0.75,-4.09278 0,0 4.62451,-8.36328 4.62451,-8.36328 1.35401,-2.2622 3.45215,-3.91552 5.22364,-3.91552 0,0 11.29785,0 11.29785,0 0,0 0,0 0,0 z m -9.20117,3.27099 c -1.06153,0 -1.64747,1.10498 -2.46241,2.45215 0,0 -2.73437,4.92188 -2.73437,4.92188 -0.81055,1.35253 -1.23096,2.45117 -0.16846,2.45117 0,0 2.85254,0 2.85254,0 1.05957,0 2.16309,-1.09864 2.97852,-2.45117 0,0 2.84668,-4.92188 2.84668,-4.92188 0.81201,-1.34717 1.12451,-2.45215 0.062,-2.45215 0,0 -3.37451,0 -3.37451,0 0,0 0,0 0,0 z"
         style="fill:#a9adb5;fill-opacity:1;fill-rule:nonzero;stroke:none"
         id="path38" /><path
         d="m 347.83789,-403.01318 c 1.77539,0 2.11231,1.83105 0.76758,4.08935 0,0 -4.50098,8.18945 -4.50098,8.18945 -1.57422,2.74024 -3.46582,4.09278 -5.24219,4.09278 0,0 -11.4082,0 -11.4082,0 -2.25488,0 -2.11035,-1.8291 -0.75781,-4.09278 0,0 4.62109,-8.36328 4.62109,-8.36328 1.36035,-2.2622 3.46289,-3.91552 5.23145,-3.91552 0,0 11.28906,0 11.28906,0 0,0 0,0 0,0 z m -9.18945,3.27099 c -1.06446,0 -1.65332,1.10498 -2.46387,2.45215 0,0 -2.7373,4.92188 -2.7373,4.92188 -0.81348,1.35253 -1.20215,2.45117 0.333,2.45117 0,0 2.34668,0 2.34668,0 1.06836,0 2.17383,-1.09864 2.98438,-2.45117 0,0 2.84375,-4.92188 2.84375,-4.92188 0.80859,-1.34717 1.12793,-2.45215 0.0615,-2.45215 0,0 -3.36816,0 -3.36816,0 0,0 0,0 0,0 z"
         style="fill:#a9adb5;fill-opacity:1;fill-rule:nonzero;stroke:none"
         id="path40" /><path
         d="m 300.86133,-395.38086 c 0,0 1.72021,-3.12939 1.72021,-3.12939 0,0 0.26563,-1.42481 1.66846,-1.33887 0.75732,0.0376 3.00977,0.0796 3.00977,0.0796 1.17578,0.007 2.26367,2.84473 2.26367,2.84473 0,0 3.38867,-5.8501 3.38867,-5.8501 0,0 -4.63477,-0.022 -10.08789,-0.022 -4.56934,0 -6.04053,4.1128 -6.04053,4.1128 0,0 -3.229,6.13525 -3.229,6.13525 1.83984,-0.52734 8.41211,-1.5791 9.84521,-0.32324 0,0 -0.95801,1.69531 -0.95801,1.69531 -5.21044,9.25 -29.11865,12.71973 -38.08447,5.35938 10.18799,8.78613 36.82715,7.63476 43.70313,-4.89649 0,0 1.76855,-3.26172 1.76855,-3.26172 -3.1626,-1.3208 -9.22558,-1.4331 -8.96777,-1.40527 0,0 0,0 0,0 z"
         style="fill:#a9adb5;fill-opacity:1;fill-rule:nonzero;stroke:none"
         id="path42" /><path
         d="m 241.18799,-402.7749 c 0,0 -4.28858,7.71191 -4.28858,7.71191 0,0 -5.63964,0 -5.63964,0 0,0 4.19921,-7.72363 4.19921,-7.72363 0,0 -8.70361,0 -8.70361,0 0,0 2.37012,1.08154 0.35254,4.68701 0,0 -6.23193,11.31055 -6.23193,11.31055 0,0 5.76709,0 5.76709,0 0,0 3.16699,-5.68262 3.16699,-5.68262 0,0 5.64892,0 5.64892,0 0,0 -3.16113,5.68262 -3.16113,5.68262 0,0 6.00147,0 6.00147,0 0,0 8.8291,-15.99756 8.8291,-15.99756 0,0 -5.94043,0.0117 -5.94043,0.0117 0,0 0,0 0,0 z"
         style="fill:#a9adb5;fill-opacity:1;fill-rule:nonzero;stroke:none"
         id="path44" /><path
         d="m 181.07129,-414.93311 c 0,0 -2.7749,-0.93603 -2.7749,-0.93603 0,0 -2.34082,1.75342 -2.34082,1.75342 0,0 0.0317,-2.92237 0.0317,-2.92237 0,0 -2.38818,-1.69433 -2.38818,-1.69433 0,0 2.79492,-0.86865 2.79492,-0.86865 0,0 0.86377,-2.79346 0.86377,-2.79346 0,0 1.69434,2.38769 1.69434,2.38769 0,0 2.92822,-0.04 2.92822,-0.04 0,0 -1.75,2.34766 -1.75,2.34766 0,0 0.94092,2.76611 0.94092,2.76611 0,0 0,0 0,0 z"
         style="fill:#a9adb5;fill-opacity:1;fill-rule:nonzero;stroke:none"
         id="path46" /><path
         d="m 499.59863,-423.0127 c 0,0 -3.37207,-2.17138 -3.37207,-2.17138 0,0 -3.7207,1.54394 -3.7207,1.54394 0,0 1.02539,-3.87793 1.02539,-3.87793 0,0 -2.61914,-3.05615 -2.61914,-3.05615 0,0 4.00879,-0.22363 4.00879,-0.22363 0,0 2.09375,-3.4336 2.09375,-3.4336 0,0 1.46387,3.74756 1.46387,3.74756 0,0 3.90722,0.92481 3.90722,0.92481 0,0 -3.1123,2.54785 -3.1123,2.54785 0,0 0.32519,3.99853 0.32519,3.99853 0,0 0,0 0,0 z"
         style="fill:#a9adb5;fill-opacity:1;fill-rule:nonzero;stroke:none"
         id="path48" /><path
         d="m 216.85156,-293.75098 c 0,0 -3.73926,-1.48047 -3.73926,-1.48047 0,0 -3.3457,2.23829 -3.3457,2.23829 0,0 0.25781,-4.01856 0.25781,-4.01856 0,0 -3.16211,-2.48535 -3.16211,-2.48535 0,0 3.89551,-0.99707 3.89551,-0.99707 0,0 1.3877,-3.77149 1.3877,-3.77149 0,0 2.14941,3.40235 2.14941,3.40235 0,0 4.02002,0.14746 4.02002,0.14746 0,0 -2.56543,3.09375 -2.56543,3.09375 0,0 1.10205,3.87109 1.10205,3.87109 0,0 0,0 0,0 z"
         style="fill:#a9adb5;fill-opacity:1;fill-rule:nonzero;stroke:none"
         id="path50" /><path
         d="m 275.854,-413.33545 c 0,0 -2.96191,-2.52539 -2.96191,-2.52539 0,0 -3.76025,1 -3.76025,1 0,0 1.49511,-3.59668 1.49511,-3.59668 0,0 -2.11914,-3.26221 -2.11914,-3.26221 0,0 3.88037,0.30664 3.88037,0.30664 0,0 2.45752,-3.01562 2.45752,-3.01562 0,0 0.90479,3.77783 0.90479,3.77783 0,0 3.62695,1.39795 3.62695,1.39795 0,0 -3.32471,2.03564 -3.32471,2.03564 0,0 -0.19873,3.88184 -0.19873,3.88184 0,0 0,0 0,0 z"
         style="fill:#a9adb5;fill-opacity:1;fill-rule:nonzero;stroke:none"
         id="path52" /><path
         d="m 322.91895,-429.91455 c 0,0 -4.31739,-0.94727 -4.31739,-0.94727 0,0 -3.22754,3.02198 -3.22754,3.02198 0,0 -0.4248,-4.40332 -0.4248,-4.40332 0,0 -3.86817,-2.13379 -3.86817,-2.13379 0,0 4.0459,-1.76612 4.0459,-1.76612 0,0 0.84278,-4.33886 0.84278,-4.33886 0,0 2.93164,3.30273 2.93164,3.30273 0,0 4.37597,-0.54687 4.37597,-0.54687 0,0 -2.22949,3.81543 -2.22949,3.81543 0,0 1.8711,3.99609 1.8711,3.99609 0,0 0,0 0,0 z"
         style="fill:#ffffff;fill-opacity:1;fill-rule:nonzero;stroke:none"
         id="path54" /><path
         d="m 319.83789,-309.06836 c 0,0 -3.38281,-2.17676 -3.38281,-2.17676 0,0 -3.70996,1.56055 -3.70996,1.56055 0,0 1.02734,-3.8916 1.02734,-3.8916 0,0 -2.62402,-3.05371 -2.62402,-3.05371 0,0 4.02148,-0.22852 4.02148,-0.22852 0,0 2.08692,-3.43457 2.08692,-3.43457 0,0 1.45312,3.75098 1.45312,3.75098 0,0 3.91504,0.93066 3.91504,0.93066 0,0 -3.11523,2.53809 -3.11523,2.53809 0,0 0.32812,4.00488 0.32812,4.00488 0,0 0,0 0,0 z"
         style="fill:#ffffff;fill-opacity:1;fill-rule:nonzero;stroke:none"
         id="path56" /><path
         d="m 522.68262,-403.38672 c 0,0 -1.81836,-1.37891 -1.81836,-1.37891 0,0 -2.16992,0.71778 -2.16992,0.71778 0,0 0.74707,-2.16309 0.74707,-2.16309 0,0 -1.34961,-1.84228 -1.34961,-1.84228 0,0 2.28027,0.0557 2.28027,0.0557 0,0 1.33594,-1.86377 1.33594,-1.86377 0,0 0.66015,2.18994 0.66015,2.18994 0,0 2.17774,0.68848 2.17774,0.68848 0,0 -1.86914,1.30957 -1.86914,1.30957 0,0 0.006,2.28662 0.006,2.28662 0,0 0,0 0,0 z"
         style="fill:#ffffff;fill-opacity:1;fill-rule:nonzero;stroke:none"
         id="path58" /><path
         d="m 451.46875,-377.04395 c 0,0 -57.03809,0 -57.03809,0 0,0 -6.01171,10.40821 -6.01171,10.40821 0,0 15.37597,0 15.37597,0 0,0 -22.79004,36.54297 -22.79004,36.54297 0,0 30.7334,0 30.7334,0 0,0 0.42871,-0.67676 0.42871,-0.67676 0,0 22.66797,-35.86621 22.66797,-35.86621 0,0 12.4043,0 12.4043,0 0,0 6.92285,-10.40821 6.92285,-10.40821 0,0 -2.69336,0 -2.69336,0 0,0 0,0 0,0 z"
         style="fill:#cf103e;fill-opacity:1;fill-rule:nonzero;stroke:none"
         id="path60" /><path
         d="m 322.08594,-377.04395 c 0,0 -27.69483,0 -27.69483,0 0,0 -0.27929,0.11426 -0.27929,0.11426 0,0 -18.27002,7.88281 -18.27002,7.88281 0,0 4.85937,-8.01757 4.85937,-8.01757 0,0 -2.58398,0.0205 -2.58398,0.0205 0,0 -18.65137,0.12696 -18.65137,0.12696 0,0 -0.29004,0 -0.29004,0 0,0 -0.27002,0.11426 -0.27002,0.11426 0,0 -16.10693,6.93164 -16.10693,6.93164 0,0 4.21435,-7.17286 4.21435,-7.17286 0,0 -44.32422,0 -44.32422,0 0,0 4.41651,2.66602 4.41651,2.66602 0.52344,0.33496 5.07764,3.49609 0.74072,10.9375 0.0166,-0.0342 -19.38623,31.1377 -19.38623,31.1377 0,0 -1.3706,2.20996 -1.3706,2.20996 0,0 30.22656,0 30.22656,0 0,0 15.92627,-24.37989 15.92627,-24.37989 0,0 16.48535,-8.11035 16.48535,-8.11035 0,0 -20.41406,32.49024 -20.41406,32.49024 0,0 21.92138,0 21.92138,0 0,0 13.81787,-21.98828 13.81787,-21.98828 0,0 1.57129,-1.95606 1.57129,-1.95606 0,0 18.6377,-9.35644 18.6377,-9.35644 0,0 -20.9209,33.30078 -20.9209,33.30078 0,0 31.02344,0 31.02344,0 0,0 29.32715,-46.95118 29.32715,-46.95118 0,0 -2.60547,0 -2.60547,0 0,0 0,0 0,0 z"
         style="fill:#cf103e;fill-opacity:1;fill-rule:nonzero;stroke:none"
         id="path62" /><path
         d="m 388.56836,-377.08398 c 0,0 -69.29199,0 -69.29199,0 0,0 5.02636,2.70605 5.02636,2.70605 2.45118,1.31934 4.17579,3.01465 4.62793,4.54102 0.22364,0.76367 0.13379,1.48632 -0.27148,2.21679 -3.10742,5.65918 -22.08691,34.96289 -22.27344,35.25684 0,0 -1.44385,2.23047 -1.44385,2.23047 0,0 58.46241,0 58.46241,0 0,0 8.43847,-13.51563 8.43847,-13.51563 0,0 -27.59082,0 -27.59082,0 0,0 2.58203,-3.99902 2.58203,-3.99902 0,0 25.84571,0 25.84571,0 0,0 6.93261,-11.03125 6.93261,-11.03125 0,0 -25.89941,0 -25.89941,0 0,0 2.58789,-4.00488 2.58789,-4.00488 0,0 25.82324,0 25.82324,0 0,0 9.05176,-14.40039 9.05176,-14.40039 0,0 -2.60742,0 -2.60742,0 0,0 0,0 0,0 z"
         style="fill:#cf103e;fill-opacity:1;fill-rule:nonzero;stroke:none"
         id="path64" /><path
         d="m 198.03027,-373.28613 c -1.25244,-2.29785 -3.81836,-3.55664 -7.21728,-3.55664 0,0 -43.55713,0 -43.55713,0 -7.06982,0 -16.23779,5.35839 -20.43066,11.94824 -0.004,0.0137 -13.27637,21.21875 -13.27637,21.21875 -2.29395,3.60351 -2.78272,7.1875 -1.3457,9.81933 1.30224,2.36426 3.93798,3.66309 7.42724,3.66309 0,0 43.54883,0 43.54883,0 7.07715,0 16.23877,-5.35742 20.42578,-11.94141 0.0151,-0.0205 12.98731,-21.23925 12.98731,-21.23925 2.34863,-3.66993 2.87695,-7.30078 1.43798,-9.91211 0,0 0,0 0,0 z m -30.99511,12.89258 c -0.006,0.0205 -7.542,12.21679 -7.542,12.21679 -1.75781,2.7666 -4.62548,6.08203 -8.2207,6.08203 0,0 -9.12891,0 -9.12891,0 -0.53808,0 -0.84228,-0.11425 -0.89941,-0.208 -0.17627,-0.31446 -0.14551,-1.90821 2.06787,-5.3711 0,0 7.11524,-11.15918 7.11524,-11.15918 2.68066,-4.22558 5.11132,-6.10156 7.85595,-6.10156 0,0 9.12696,0 9.12696,0 0.91992,0 1.23437,0.21484 1.28125,0.28809 0.004,0.0137 0.46289,0.93066 -1.65625,4.25293 0,0 0,0 0,0 z"
         style="fill:#cf103e;fill-opacity:1;fill-rule:nonzero;stroke:none"
         id="path66" /><path
         d="m 228.82178,-327.47363 c -0.63477,-0.97168 -2.96338,-0.12696 -2.96338,-0.12696 -73.32422,20.77539 -118.78272,14.17774 -131.30811,-1.56054 -5.2622,-6.61719 -5.1748,-15.00391 0.27344,-24.90918 26.81787,-48.77344 110.16846,-33.79785 111.01074,-33.64356 0,0 3.07276,0.54981 3.50977,-0.46777 0.4331,-1.00488 -2.72949,-2.29785 -2.72949,-2.29785 -17.85254,-6.86865 -50.08057,-12.56006 -81.81543,-9.77051 -26.0708,2.27539 -60.52735,11.08398 -76.64405,40.08496 -7.85986,14.15234 -6.53173,27.95606 3.73389,38.90039 12.64258,13.48145 37.35693,21.43945 67.80469,21.80664 23.80761,0.28906 61.72998,-3.89062 107.18017,-25.45019 0,0 2.73877,-1.33301 1.94776,-2.56543 0,0 0,0 0,0 z"
         style="fill:#cf103e;fill-opacity:1;fill-rule:nonzero;stroke:none"
         id="path68" /><path
         d="m 496.7793,-378.06152 c 0,0 5.49609,0 5.49609,0 0,0 4.66504,17.66113 4.66504,17.66113 0,0 19.93555,-28.55176 19.93555,-28.55176 0,0 -42.78125,0 -42.78125,0 -20.17481,0 -27.3584,13.11426 -27.9668,14.2793 0,0 -13.39258,21.54004 -13.39258,21.54004 0,0 3.06445,-0.43457 3.06445,-0.43457 3.8545,-0.55664 24.50391,0.46777 35.01563,3.54883 0,0 -0.66406,1.96289 -0.66406,1.96289 -6.44532,13.02636 -22.1543,22.18261 -44.25489,25.7998 -26.50976,4.3457 -53.2207,-0.31445 -62.99511,-7.45508 -0.66309,-0.49609 -1.91895,-1.25976 -2.74317,-0.57617 -0.82715,0.69043 -0.17773,2.12402 0.32422,2.63965 13.58399,14.21289 39.37403,21.68652 68.03711,19.58984 30.87305,-2.26953 56.57227,-15.06933 68.72266,-34.24511 -0.0107,0.0205 7.2959,-11.19825 7.2959,-11.19825 0,0 1.09179,-1.68847 1.09179,-1.68847 0,0 -1.94824,-0.50196 -1.94824,-0.50196 -8.41016,-2.10937 -23.1582,-5.00293 -34.57715,-6.80468 0,0 5.35449,-8.40625 5.35449,-8.40625 0.0439,-0.0527 4.7754,-7.15918 12.32032,-7.15918 0,0 0,0 0,0 z"
         style="fill:#cf103e;fill-opacity:1;fill-rule:nonzero;stroke:none"
         id="path70" /><path
         d="m 396.09961,-374.3584 c 0,0 -2.68262,4.64844 -2.68262,4.64844 0,0 15.57813,0 15.57813,0 0,0 -22.78614,36.53613 -22.78614,36.53613 0,0 23.94141,0 23.94141,0 0,0 23.09082,-36.53613 23.09082,-36.53613 0,0 12.45117,0 12.45117,0 0,0 3.08496,-4.64844 3.08496,-4.64844 0,0 -52.67773,0 -52.67773,0 0,0 0,0 0,0 z"
         style="fill:#ffffff;fill-opacity:1;fill-rule:nonzero;stroke:none"
         id="path72" /><path
         d="m 294.98633,-374.3584 c 0,0 -26.29346,11.35352 -26.29346,11.35352 0,0 6.86475,-11.32617 6.86475,-11.32617 0,0 -15.78174,0.10742 -15.78174,0.10742 0,0 -23.9209,10.28711 -23.9209,10.28711 0,0 6.11182,-10.42188 6.11182,-10.42188 0,0 -30.81299,0 -30.81299,0 1.51514,2.39844 2.53857,6.42285 -0.83936,12.22363 0,0 -18.02881,28.96094 -18.02881,28.96094 0,0 23.4668,0 23.4668,0 0,0 15.29492,-23.38867 15.29492,-23.38867 0,0 0.21241,-0.32813 0.21241,-0.32813 0,0 0.35351,-0.17382 0.35351,-0.17382 0,0 25.97949,-12.79297 25.97949,-12.79297 0,0 -23.0542,36.68359 -23.0542,36.68359 0,0 15.10694,0 15.10694,0 0,0 13.00683,-20.69531 13.00683,-20.69531 0,0 0.0459,-0.0742 0.0459,-0.0742 0,0 0.0498,-0.0606 0.0498,-0.0606 0,0 2.01611,-2.51855 2.01611,-2.51855 0,0 0.2793,-0.13965 0.2793,-0.13965 0,0 23.54248,-11.80859 23.54248,-11.80859 0,0 4.6123,-2.32422 4.6123,-2.32422 0,0 -23.63672,37.62109 -23.63672,37.62109 0,0 24.20606,0 24.20606,0 0,0 25.71484,-41.18457 25.71484,-41.18457 0,0 -24.49609,0 -24.49609,0 0,0 0,0 0,0 z"
         style="fill:#ffffff;fill-opacity:1;fill-rule:nonzero;stroke:none"
         id="path74" /><path
         d="m 259.48096,-374.22363 c 0,0 0.29492,0 0.29492,0 0,0 0.26855,-0.1211 0.26855,-0.1211 0,0 -0.56347,0.1211 -0.56347,0.1211 0,0 0,0 0,0 z"
         style="fill:#ffffff;fill-opacity:1;fill-rule:nonzero;stroke:none"
         id="path76" /><path
         d="m 329.43652,-374.38477 c 0.99121,0.97754 1.85254,2.16993 2.26368,3.54297 0.43554,1.49414 0.26367,3.02051 -0.50586,4.41407 -2.69336,4.8955 -16.40625,26.18164 -20.94825,33.2207 0,0 51.78418,0 51.78418,0 0,0 4.792,-7.74219 4.792,-7.74219 0,0 -27.86914,0 -27.86914,0 0,0 6.31542,-9.7793 6.31542,-9.7793 0,0 25.81446,0 25.81446,0 0,0 3.30176,-5.25097 3.30176,-5.25097 0,0 -25.97071,0 -25.97071,0 0,0 5.8877,-9.11524 5.8877,-9.11524 0,0 0.42773,-0.65625 0.42773,-0.65625 0,0 25.79981,0 25.79981,0 0,0 5.42285,-8.63379 5.42285,-8.63379 0,0 -56.51563,0 -56.51563,0 0,0 0,0 0,0 z"
         style="fill:#ffffff;fill-opacity:1;fill-rule:nonzero;stroke:none"
         id="path78" /><path
         d="m 190.81299,-374.1377 c 2.29687,0 3.9668,0.72364 4.68945,2.05079 0.9126,1.66699 0.42041,4.21289 -1.354,6.99902 -0.0107,0.0264 -12.99024,21.23828 -12.99024,21.23828 -3.64502,5.72656 -11.88379,10.58203 -17.979,10.58203 0,0 -43.54883,0 -43.54883,0 -2.38135,0 -4.12402,-0.76953 -4.89453,-2.16992 -0.92383,-1.67383 -0.46387,-4.17871 1.25635,-6.88477 0.004,-0.007 13.27636,-21.21875 13.27636,-21.21875 3.6504,-5.74707 11.89502,-10.59668 17.98731,-10.59668 0,0 43.55713,0 43.55713,0 0,0 0,0 0,0 z m -32.52979,6.12891 c -4.9248,0 -8.08691,3.97168 -10.28955,7.43457 0,0 -7.11474,11.15234 -7.11474,11.15234 -2.43409,3.81739 -3.13623,6.54395 -2.16455,8.31836 0.42627,0.77051 1.36914,1.71485 3.42919,1.71485 0,0 9.12891,0 9.12891,0 3.88525,0 7.5708,-2.58594 10.66943,-7.43457 0.0108,-0.0274 7.53907,-12.21778 7.53907,-12.21778 2.07519,-3.26074 2.63672,-5.54492 1.74121,-7.18652 -0.65283,-1.17871 -1.93262,-1.78125 -3.81201,-1.78125 0,0 -9.12696,0 -9.12696,0 0,0 0,0 0,0 z"
         style="fill:#ffffff;fill-opacity:1;fill-rule:nonzero;stroke:none"
         id="path80" /><path
         d="m 92.29395,-327.54785 c -5.97852,-7.52149 -5.97852,-17.22656 0.0044,-28.10352 11.54199,-20.99121 34.97119,-33.70898 67.76416,-36.77051 11.31299,-1.06542 21.96387,-0.7998 30.19336,-0.19433 -40.6499,-9.8501 -114.32617,-11.76465 -139.5752,33.66992 -7.30468,13.1416 -6.16064,25.42383 3.31006,35.51758 22.27637,23.75683 85.95948,30.38183 154.81348,3.05469 -56.53125,13.30175 -102.22119,10.7832 -116.51025,-7.17383 0,0 0,0 0,0 z"
         style="fill:#ffffff;fill-opacity:1;fill-rule:nonzero;stroke:none"
         id="path82" /><path
         d="m 474.28613,-360.5 c 0,0 1.19434,-1.86914 1.19434,-1.86914 0,0 6.55664,-10.26758 6.55664,-10.27441 0.22168,-0.35547 5.60937,-8.49317 14.74219,-8.49317 0,0 7.71679,0 7.71679,0 0,0 3.64063,13.79102 3.64063,13.79102 0,0 13.20703,-18.90039 13.20703,-18.90039 0,0 -37.24902,0 -37.24902,0 -18.80078,0 -25.15332,12.21679 -25.41504,12.73242 0,0 -0.0274,0.0596 -0.0274,0.0596 0,0 -0.0361,0.0605 -0.0361,0.0605 0,0 -10.33496,16.62402 -10.33496,16.62402 7.68848,-0.10059 25.7998,1.1582 34.84863,4.25976 0,0 1.36231,0.46875 1.36231,0.46875 0,0 -1.63672,4.82227 -1.63672,4.82227 0,0 -0.0303,0.0869 -0.0303,0.0869 0,0 -0.041,0.0869 -0.041,0.0869 -6.84863,13.91113 -23.33789,23.6709 -46.42188,27.44824 -18.99414,3.12695 -40.60156,1.62012 -54.74121,-3.01367 13.98438,8.70703 34.71485,13.09961 56.6875,11.48633 29.97461,-2.19727 54.83399,-14.50098 66.50196,-32.91993 0,0 6.19238,-9.5039 6.19238,-9.5039 -9.12988,-2.19043 -23.74023,-5.00293 -34.52539,-6.61719 0,0 -2.19141,-0.33496 -2.19141,-0.33496 0,0 0,0 0,0 z"
         style="fill:#ffffff;fill-opacity:1;fill-rule:nonzero;stroke:none"
         id="path84" /><path
         d="m 463.68945,-485.94434 c -231.39599,-109.77587 -336.79492,18.05713 -366.54687,66.05323 12.13476,-5.67774 25.23242,-11.14698 39.125,-16.33106 94.39404,-98.33252 252.56445,24.04688 252.56445,24.04688 0,0 74.85742,-73.76905 74.85742,-73.76905 0,0 0,0 0,0 z"
         style="fill:#cf103e;fill-opacity:1;fill-rule:nonzero;stroke:none"
         id="path86" /><path
         d="m 281.62695,-491.43604 c 0,0 -13.51074,-4.76074 -26.15185,-6.92773 6.14941,0.14551 26.34814,-3.17627 52.3208,1.54199 0,0 -118.95166,-39.13623 -192.83692,68.83008 19.15381,-23.51611 76.14551,-80.69141 166.66797,-63.44434 0,0 0,0 0,0 z"
         style="fill:#a9adb5;fill-opacity:1;fill-rule:nonzero;stroke:none"
         id="path88" /><path
         d="m 407.31055,-496.38818 c -36.40528,-12.7085 -126.271,-38.71143 -185.81055,-10.29444 0,0 51.36621,-28.87256 171.10938,19.79688 6.00878,-4.2124 9.76269,-7.09912 14.70117,-9.50244 0,0 0,0 0,0 z"
         style="fill:#a9adb5;fill-opacity:1;fill-rule:nonzero;stroke:none"
         id="path90" /><path
         d="m 385.94141,-479.5918 c -16.56934,-7.4707 -42.8584,-17.42431 -72.4961,-21.50634 0,0 37.72168,11.44335 51.57227,22.98486 0,0 -12.31348,-1.54004 -21.5459,-3.84766 0,0 10.83008,4.64014 33.73633,20.24219 2.94629,-9.76221 6.98437,-12.64355 8.7334,-17.87305 0,0 0,0 0,0 z"
         style="fill:#a9adb5;fill-opacity:1;fill-rule:nonzero;stroke:none"
         id="path92" /><path
         d="m 375.04492,-446.23193 c -32.2207,-19.54932 -126.37402,-67.55664 -207.78808,-18.70948 0,0 87.11279,-52.12548 209.0664,32.10401 -2.51758,-6.89893 -1.65039,-8.0542 -1.27832,-13.39453 0,0 0,0 0,0 z"
         style="fill:#a9adb5;fill-opacity:1;fill-rule:nonzero;stroke:none"
         id="path94" /><path
         d="m 462.10449,-494.58936 c -27.49414,-17.10791 -63.78906,-8.6538 -80.8916,18.8418 -8.28906,13.31543 -10.89648,29.07031 -7.32617,44.3584 3.55469,15.27051 12.85156,28.24561 26.17285,36.53174 13.31543,8.28906 29.06934,10.88769 44.34668,7.32519 15.27441,-3.5498 28.25098,-12.85547 36.53613,-26.17334 8.292,-13.31543 10.8877,-29.06054 7.33985,-44.34472 -3.56543,-15.27735 -12.86231,-28.25928 -26.17774,-36.53907 0,0 0,0 0,0 z"
         style="fill:#0f2752;fill-opacity:1;fill-rule:nonzero;stroke:none"
         id="path96" /><path
         d="m 405.24707,-434.19238 c -3.26074,-11.74951 -8.89746,-15.78125 -13.54297,-18.30664 -7.80859,21.14306 -2.09472,41.7705 15.81153,52.91064 4.47363,2.78272 9.29199,4.69971 14.24218,5.83447 3.08496,0.56348 6.20215,0.85157 9.36133,0.83789 -16.77539,-8.77002 -23.12891,-31.44091 -25.87207,-41.27636 0,0 0,0 0,0 z"
         style="fill:#cf103e;fill-opacity:1;fill-rule:nonzero;stroke:none"
         id="path98" /><path
         d="m 401.33984,-469.97852 c 21.75684,6.52393 52.10547,27.45118 69.30274,58.70801 1.59961,-1.90088 3.08301,-3.9375 4.42676,-6.09228 7.30957,-11.74951 9.60351,-25.64063 6.46679,-39.11475 -0.0137,-0.0566 -0.0351,-0.11377 -0.0576,-0.1792 -8.47559,-15.85303 -27.36622,-14.27148 -41.26758,-13.11084 -3.43262,0.28174 -6.6709,0.55567 -9.32715,0.52051 -15.94824,-0.25537 -21.02734,-3.22119 -25.2207,-5.94092 -1.49317,1.62598 -2.93262,3.36279 -4.32325,5.20947 0,0 0,0 0,0 z"
         style="fill:#cf103e;fill-opacity:1;fill-rule:nonzero;stroke:none"
         id="path100" /><path
         d="m 430.96094,-474.09961 c 2.41015,0.0391 5.38769,-0.20947 8.83691,-0.49707 10.94043,-0.91748 25.98535,-2.15869 36.95899,5.4165 -0.25782,-0.49023 -0.51563,-0.98291 -0.79004,-1.45654 -3.74414,-5.93262 -8.75098,-11.10351 -14.94336,-14.9624 -16.80078,-10.43897 -36.48242,-7.34619 -51.86426,6.89697 3.64355,2.26709 8.33594,4.38721 21.80176,4.60254 0,0 0,0 0,0 z"
         style="fill:#cf103e;fill-opacity:1;fill-rule:nonzero;stroke:none"
         id="path102" /><path
         d="m 389.27734,-459.27881 c 1.19141,-2.54394 2.5625,-5.08349 4.12012,-7.61182 -3.62402,-0.58447 -6.71973,-0.57324 -9.14355,0.022 -1.417,2.98535 -2.53516,6.06787 -3.36328,9.229 2.44921,-1.84521 5.45019,-3.08252 8.38671,-1.63916 0,0 0,0 0,0 z"
         style="fill:#cf103e;fill-opacity:1;fill-rule:nonzero;stroke:none"
         id="path104" /><path
         d="m 405.36523,-481.6792 c 9.16504,-8.58057 19.89942,-13.57178 30.77247,-14.58691 -10.91407,-1.05127 -21.94141,1.39355 -31.37891,6.94629 -0.33106,2.23388 -0.42578,5.6372 0.60644,7.64062 0,0 0,0 0,0 z"
         style="fill:#cf103e;fill-opacity:1;fill-rule:nonzero;stroke:none"
         id="path106" /><path
         d="m 398.41895,-465.78125 c -0.23731,0.36377 -0.46485,0.71729 -0.7002,1.08691 -1.58887,2.55371 -2.96289,5.12745 -4.1377,7.70069 5.28711,2.81006 12.42969,7.47119 16.33887,21.50342 5.12403,18.41064 13.52149,39.30957 33.15723,41.15039 9.21875,-2.19239 17.48535,-6.75733 24.11133,-13.21387 -15.85059,-29.79053 -46.04102,-51.70703 -67.89551,-57.99951 -0.29688,-0.082 -0.5752,-0.146 -0.87402,-0.22803 0,0 0,0 0,0 z"
         style="fill:#cf103e;fill-opacity:1;fill-rule:nonzero;stroke:none"
         id="path108" /><path
         d="m 387.39453,-454.82666 c -0.0293,-0.0117 -0.0596,-0.0332 -0.0732,-0.043 -1.74121,-1.08252 -5.66699,2.59522 -7.70899,5.55176 0,0 -0.0996,0.13721 -0.0996,0.13721 0,0 -0.0605,0.0625 -0.0605,0.0625 -0.44629,5.34277 -0.0752,10.77832 1.17773,16.14795 1.06836,4.5996 2.74903,8.96337 4.93946,13.00097 -3.36524,-10.57275 -2.85254,-22.6626 1.82519,-34.85742 0,0 0,0 0,0 z"
         style="fill:#cf103e;fill-opacity:1;fill-rule:nonzero;stroke:none"
         id="path110" /><path
         d="m 396.29688,-471.26123 c 1.76074,-2.47607 3.63281,-4.78076 5.58496,-6.91065 -1.67481,-2.19824 -2.16309,-5.17333 -2.2002,-7.74755 -4.85937,3.69873 -9.15234,8.31836 -12.57715,13.8125 2.72852,-0.12696 5.79883,0.14257 9.19239,0.8457 0,0 0,0 0,0 z"
         style="fill:#cf103e;fill-opacity:1;fill-rule:nonzero;stroke:none"
         id="path112" /><path
         d="m 470.93945,-419.2749 c 10.42481,-16.71582 5.75977,-37.50635 5.75977,-37.50635 -2.79883,12.04346 -6.90527,21.78857 -11.99902,29.48926 1.98925,2.40771 4.17382,5.16211 6.23925,8.01709 0,0 0,0 0,0 z"
         style="fill:#0f2752;fill-opacity:1;fill-rule:nonzero;stroke:none"
         id="path114" /><path
         d="m 414.26367,-404.6958 c -3.46289,-0.43359 -6.9834,-1.13623 -10.54199,-2.0957 4.80762,3.59082 9.45605,6.12597 13.95703,7.81738 -1.40234,-1.80957 -2.53516,-3.82276 -3.41504,-5.72168 0,0 0,0 0,0 z"
         style="fill:#0f2752;fill-opacity:1;fill-rule:nonzero;stroke:none"
         id="path116" /><path
         d="m 442.69531,-397.98438 c 7.05664,-2.13964 13.43262,-6.14501 19.03418,-10.98925 -1.37793,-2.19532 -3.31054,-4.93653 -5.87011,-7.82276 -7.15333,6.57032 -15.49805,10.41993 -24.57715,11.90869 4.4209,3.78077 8.31543,5.82178 11.41308,6.90332 0,0 0,0 0,0 z"
         style="fill:#0f2752;fill-opacity:1;fill-rule:nonzero;stroke:none"
         id="path118" /></g></g></svg>
