<svg baseProfile="tiny" xmlns="http://www.w3.org/2000/svg" viewBox="0 0 650 650"><path fill="#fff" d="M284.7 300.4c22.9-6.9.3 40.4-29.4 37.6 3.9-15.5 14.6-33.1 29.4-37.6z"/><path fill="#002D62" d="M642.8 265.5c-4.3-10.5-14.7-17.1-25.9-16.4 0 0-1.9.1-3.4.1 1.9-4.7 2.8-9.5 2.8-14.3 0-10.2-4.3-17.6-6.8-21-4.5-6.2-11.1-10.5-18.3-12.6C543.4 92.8 434.9 16.9 309 16.9 139.2 16.9 1 155.1 1 325c0 36.4 6.3 71.4 18.1 103.8-4 8.5-6.3 17.7-6.4 27 0 17.4 7.2 34.2 20.3 47 10.9 10.6 24.9 17.4 40 19.7C129.6 590.1 214.5 633 309.2 633c154.5 0 282.7-114.2 304.8-262.7 26-21.1 33.3-46.4 34.7-64.7.1-2.4.3-4.7.3-6.8-.3-18.3-5.4-31.7-6.2-33.3z"/><path fill="#FFD520" d="M573.8 315.9h19.3c.1 3 .1 6.1.1 9.1 0 156.8-127.6 284.2-284.2 284.2-15.5 0-30.8-1.3-45.7-3.7-7.2 2-14.8 3-22.6 3-27.9 0-52.5-13.5-68-34.2-88.2-48.4-148-142-148-249.3C24.7 168.2 152.3 40.8 309 40.8c127.2 0 235.2 84 271.3 199.5H560c.1-.1-35.7 59.2 13.8 75.6z"/><path fill="#E03A3E" d="M562.1 306.2v-30.8h12.5C551.2 150.1 441 54.8 309 54.8 159.9 54.8 38.8 176.1 38.8 325 38.8 474.1 160 595.2 309 595.2c149.1 0 270.3-121.1 270.3-270.2 0-6.3-.3-12.6-.6-18.8h-16.6z"/><path fill="#002D62" d="M309.1 64.3c-143.7 0-260.7 117-260.7 260.7s117 260.7 260.7 260.7 260.7-117 260.7-260.7c-.1-143.7-117-260.7-260.7-260.7z"/><path fill="#E03A3E" d="M309.1 506.6c-43.3 0-83.1-15.3-114.3-40.7H180c34.1 31.2 79.3 50.3 129.1 50.3 85 0 157.1-55.7 182-132.5h-10.2c-24.4 71.4-92.2 122.9-171.8 122.9zM136.4 268.8c23.7-72.6 92.1-125.3 172.7-125.3 94.4 0 172.2 72.5 180.8 164.7h9.7c-8.6-97.5-90.7-174.3-190.5-174.3-85.9 0-158.8 56.8-182.8 134.9h10.1z"/><path fill="#FFD520" d="M97.7 200.5l5.3-8.6 33.2 20.5-5.3 8.6-33.2-20.5zm34.3-46.2l7.6-6.7 29.8 5.4h.1l-15.9-17.9 7.6-6.7 25.9 29.2-7.6 6.8-29.8-5.7v.1l15.8 17.9-7.6 6.7-25.9-29.1zm83.4-46.7l2.3-.9c6.1-2.4 11.7-.5 14.4 5.9 2.8 7.1-.8 12.1-6.3 14.3l-2.1.9-8.3-20.2m1.9 32.1l13.4-5.3c10.1-4 15.2-15.3 11.1-25.5-4-10.2-15.5-14.8-25.6-10.7l-13.4 5.4 14.5 36.1zm75.1-20.3l-10.1 1.1-4-38.9 10.1-1 4 38.8zm59.4-10.9l-8.3-1.5 6.3-11.5h.1l1.9 13m1.2 8.1l1.3 7.2 10.6 1.9-7.7-41.1-10.9-1.9-21.6 35.9 10.6 1.9 3.8-6.2 13.9 2.3zm61.8-13.8l8.7 5.2 4.2 29.9 12-20.6 8.8 5.1-19.5 33.8-8.8-5.2-4-29.9-.1-.1-12 20.7-8.7-5.1 19.4-33.8zm65.4 83.4l-5.4-6.4 12.3-4.8.1.1-7 11.1m-4.1 7.2l-3.5 6.3 6.9 8.2 20.3-36.5-7.2-8.5-39.5 13.8 6.9 8.2 6.9-2.3 9.2 10.8z"/><path fill="#fff" d="M627.4 271.8c-1.5-3.9-5.4-6.3-9.6-6.1H611s-4.8.8-6.4 3.8c-3.8 7.2-21.5 28.8-28.9 25-8.2-4.3 16.2-41.3 16.2-41.3 5.9-7.2 7.7-13.4 7.7-18.3 0-5.6-2.3-9.5-3.5-11-5.4-7.3-15.9-9.7-25-5.8-2.8 1.1-7.3.8-10.9.1-1-7.8-4.4-17.9-12.9-22.4-3.4-1.8-10.1-4-19.2 1.1-6.3 3.7-9.6 9.2-10.5 16-.1 1-.1 1.9-.1 2.9 0 7.2 3.2 14.7 8.6 20.1.4.4.8.6 1 .9-2.8 6.7-6.2 13.4-9.5 19.2.1-1.5.3-2.9.3-4.4 0-6.4-1.9-12.8-7.6-17.6-10-8.3-23-6.9-29.2-4.7-15.8 5.2-47.7 22.7-59.7 56 2.5-9.5 1.5-16-.5-20.3-2.5-5.2-6.4-7.2-6.4-7.2-5.1-3.3-11.4-3.7-18.8-1.3-17.6 5.8-24.3 27.2-24.3 27.2-8.5 21.9 2 36 2 36-.4 1-8.2 12.4-8.2 12.4l-4.5-43.3c-.8-6.8-4.2-10.5-6.9-12.3-4.4-2.9-9.6-2.8-13-1.6l-25.1 8c-4 1.3-6.8 5.1-6.8 9.3v10c-.8-.9-1.6-1.8-2.7-2.7-10-8.3-23-6.9-29.2-4.7-11.9 3.9-24 10.9-34.1 19.5-.4-1.8-1.3-3.4-2.7-4.7-2.7-2.7-6.4-3.5-10-2.4 0 0-15.4 5.1-28.8 9.5 5.4-18.8 13.9-35.9 30.3-45.3 3-1.8 4.9-5.1 4.9-8.6v-.6c25.9-6.6 41.7-20.7 50.9-33 13.6-18.1 16.3-36.3 16.4-37 .4-2.9-.5-5.8-2.5-8.1-2-2.1-4.8-3.3-7.8-3.2l-4.8.3c-3.2.3-6.1 1.9-7.8 4.5-14.4 22.6-47.7 28.8-86.4 36.1-25.4 4.8-51.7 9.7-76.3 20-68.5 28.2-65.4 71.5-64.8 76.4 1.6 24.8 24.5 43.6 51.3 42.2 4.9-.3 9.6-1.3 14.1-2.8-.6 2.1-1.1 4.8-1.1 7.7 0 4.7 1.3 10 4.7 16 2.4 3.9 7.1 5.8 11.5 4.4l9.7-3c-13.3 50.9-23.9 61.3-24.4 61.8-4.5 4.3-13.1 6.6-17.1 4.3-1.6-.9-2.7-2.3-2.9-3.8-.4-1.8.4-3.8 1.9-5.7 2-2.4 5.2-4.2 8.6-4.7 4-.6 7.2-3.8 8.1-7.7.9-4-.9-8.1-4.3-10.4-8.7-5.6-18.9-8.6-29.4-9-15.2-.5-29.8 4.9-40.2 14.9-9.3 9-14.5 21.1-14.8 33.6 0 26.8 23.2 49.5 52.4 50.8.9.1 16.3 1.9 35-5.7 16.9-6.8 40.2-23 54.6-60.9 11.4-25.5 16.2-52.8 20.8-79.2l.8-4.3c4.8-1.5 16.2-5.1 25-8-3.2 8.3-4.7 17.2-4.7 26.4 0 2.4.1 4.9.4 7.5.3 2.3 2.8 22.4 18.8 31.6 2.1 1.3 4.4 2.1 6.8 2.9-69.6 29.1-84.4 63.7-85.3 65.8-.5 1.1-.8 2.4-.8 3.7 0 2.5 1 5.1 2.9 6.9l10.7 10.6.8.8c-1.6 6.2-2.5 12.6-2.5 19.3 0 41.9 34 75.8 75.8 75.8 41.9 0 75.8-34 75.8-75.8 0-11-2.4-21.5-6.7-30.9 1.6-.6 3.2-1.5 4.3-2.9l3.2-3.7c2.4-2.9 2.8-7.3 1.3-10.7 0-.1-1-2.8 1.5-7.5 5.6-9.9 31.1-35.2 147.8-55.6 50.8-9.7 94.6-26.5 126.6-48.9 28.5-18.6 36-42.6 37.3-59.4 1.4-18.4-4.1-32.3-4.4-32.8m-471.8 58.6c-3.5 1.1-7.5 2.3-8.6 2.7 3.2-6.6 4.7-13.8 4.3-21-.5-9.1-3.9-17.8-9.9-25-2.4-2.9-6.3-4.3-10.1-3.3-3.7 1-6.6 4-7.2 7.8-.4 2.3-1.8 4.3-3.9 5.9-2.1 1.5-4.7 2.3-6.9 1.9-1-.1-2.3-.6-3-2-1-1.8-.3-6.3 3.5-9.9l.4-.4c.3-.1 18.6-17.7 74-21.1-12.3 12.4-24.3 32.2-32.6 64.4z"/><path fill="#002D62" d="M290.5 399.5c9.1-7.7 20.5-19.5 32.5-37.3.5 5.3 2 24.5 2.4 29.1-17.8 3.9-34.9 8.2-34.9 8.2zM546.8 326c-9.1-4.5-15.2-11.7-17.8-21-.8-2.5-1.1-5.2-1.4-7.8-13.6 20.7-28.3 34.2-34.5 39.4-4.9 4.3-13.8 10.2-23.7 14.1-16.2 5.7-27.3 2.3-33.6-1.8-8.2-5.2-12.8-13.3-15.3-20.1-7.1 2.8-13 4.5-18.4 5.3-13.3 24.5-29.2 40.9-44.1 51.9 15.3-2.3 31.7-4.2 49.3-5.7 89.1-7.7 139.1-31.6 165.2-50.4 0 0 .8-.5 1.8-1.4-15.4 3.2-25.6-1.6-27.5-2.5z"/><path fill="#E03A3E" d="M104.3 350.3c21.6-1.1 38.3-17.9 37.1-37.5-.4-7.3-3.2-13.9-7.6-19.3-.8 4.5-3.5 9-7.8 12.1-8.1 5.9-18.8 4.9-23.9-2-4.7-6.4-1.6-17.1 5.1-23.1.6-.8 24-24.3 98-24.6 79.7-.4 88.9-65.3 88.9-65.3l-4.8.3c-26.9 42.2-104.8 34-167.4 59.7-64.8 26.7-58.7 66.3-58.7 66.3 1.2 19.5 19.5 34.5 41.1 33.4zM227 335.5l6.2-19.2-45.7 15c6.3-29.8 15.8-55.2 39.3-68.8l-.3-5.2c-15.8 1.8-47 13.9-62.7 80.8l-14.1 4.4s-32.3 9.9-18.6 33.3l4.4-1.4c-.8-1.9-2.8-9.5 8-12.9l16.4-5.2c-18.1 84.1-34.1 95-34.1 95-7.2 6.8-20.1 10.2-28.4 5.6-9-5.1-10.7-16-3.8-24.4 3.7-4.4 9.1-7.2 14.7-8.1-6.9-4.4-15.4-7.2-24.5-7.3-24.4-.8-44.5 16.5-44.8 38.5-.3 22 19.3 40.4 43.7 41.2 0 0 53.9 6.7 79.2-60.4 12.5-27.7 16.9-58.9 22.1-87.5l43-13.4zm391.3-60h-5.9c-8.6 15-28.9 35.5-42.9 27-17.1-10.1 14.4-55.1 14.4-55.1 13.6-16 .9-24.6-8.8-20.5s-23.9-1.4-23.9-1.4-.6-29.4-17.9-20.3c-9.2 4.8-6.6 17.3-.1 23.6 2 2 4.2 3 6.1 3.7-6.2 19.1-19.3 38.9-23.9 45.5 0 0-29.8 40-49.3 38.7-7.6-.5-10.5-8.3-9.7-18.6 13.1 1.4 26.8-4.2 37.8-16 3.5-3.8 6.8-8.6 9.1-13.1 1-1.4 10.2-19.7.9-27.4-8.5-7.1-19.7-3-19.7-3-16.8 5.6-42.8 22.2-53.2 48.1-2.1 5.6-3.2 11.6-3.5 16.8-5.7 3-18.9 10-27.4 9.7 7.5-13.6 13.5-32.7 12.5-40.8-.9-6.7-6.4-9-13.5-6.7-7.5 2.4-13.1 8.2-17.2 17.4-3.4 7.8-5.1 15.3-3.8 22.6.5 3 2.3 8.7 6.9 12.9-7.7 14.1-17.4 26.8-27.5 37.6l-6.9-66.6c-.8-7.6-7.1-5.6-7.1-5.6l-25.1 8v6.2l2.3-.8s5.3-1.6 5.9 3.9L328 314c-4.8 9-39.8 72.4-66.3 68-7.5-1.3-10.5-8.3-9.7-18.6 13.1 1.4 26.8-4.2 37.8-16 3.5-3.8 6.8-8.6 9.1-13.1 1-1.4 10.2-19.7.9-27.4-8.5-6.9-19.7-3-19.7-3-22.6 7.5-60.9 32.7-56.8 77.7 0 0 4.2 40 43.2 22.2 0 0 30.8-11 63.4-71.7l5.9 56.7c19.3-9.9 42.4-28.9 60.3-64 6.3 0 15.2-1.9 31.5-9.7 0 .6.1 1 .1 1s4 37.8 38.5 25.4c8.5-3.3 16.3-8.6 20.7-12.4 10.2-8.7 25.3-24.3 37.4-45.1 0 0 11-18.4 20.5-39.5 2.1.6 5.7 1.6 9.7 2-11.6 19.1-30.1 57.1-3 70.6 0 0 19.8 11.1 48.5-12.3-1.9 19.7-21.6 33.1-21.6 33.1-32.6 23.2-86.8 45-170 52-214.2 18.4-245.3 96.3-245.3 96.3l8.1 8c11.5-27.2 38.4-46.1 69.9-46.1 25.5 0 48.1 12.6 61.9 32 1.4 1.1 2.8 2.4 4.2 3.7l3.2-3.7s-25.9-45.3 156.5-77.1c54.6-10.4 94.9-27.8 122.8-47.2 48.4-31.8 28.6-80.3 28.6-80.3m-130.4-24.8c23.5-7.1.3 41.6-30.2 38.8 4-16.2 15.1-34.1 30.2-38.8M283.6 316c23.5-7.1.3 41.6-30.2 38.8 3.9-16.2 15-34.2 30.2-38.8m107.1-9.2c-.9-1.1-1.5-2.7-1.6-4.7-.5-3.9.1-7.8 1.9-11.7 1.4-3.2 3.2-5.4 5.6-6.6 0 0 1.3-.8 2.1-.4 1 .4 1 1.6 1 1.6-.4 4.4-4.8 12.7-9 21.8z"/><path fill="#002D62" d="M173.3 523.9c0-37.3 30.2-67.5 67.5-67.5s67.5 30.2 67.5 67.5-30.2 67.5-67.5 67.5c-37.3.1-67.5-30.1-67.5-67.5z"/><path fill="#fff" d="M229.8 571.7c-1.9-4.3-2.3-8.5-.9-12.8-6.1-2.3-11.9-4.9-16.8-7.8-1.9 9-2.3 17.2-1.9 24.9.3.1.6.4.9.5 9.3 5.3 19.6 7.8 29.7 7.8-4.5-3.3-8.8-7.6-11-12.6zm58.9-84c2.8 7.8 4.4 16.5 2.9 24.8-1.5 8.5-6.3 15.4-14.1 20.3-5.8 3.7-12.9 6.3-19.7 8.8-11.1 4-21.7 8-25.6 15.9 18.3 6.3 39.5 9.2 52.5 6.1.8-.1 1.5-.4 2-.5 2.4-2.9 4.7-6.1 6.6-9.3 12.1-21.8 9.5-47.7-4.6-66.1zm-98.4 57.7c2.9-.5 5.3-2.4 7.2-5.3-8.8-9-11.7-18.6-15.3-31.1-3.2 12.1-2.3 24.6 1.9 36 2.2.7 4.2.8 6.2.4zm13.1-36.7c1 11.5 1.9 22.2-2.7 31.1 2.7 2.5 5.9 5.1 9.9 7.6 4-16.3 16.2-51.9 50-80.2-17.8-6.2-37.3-3.5-52.7 6.4-2.7 4-4.5 8.8-5.1 14.7-.7 6.6-.1 13.5.6 20.4z"/><path fill="#E03A3E" d="M209.8 549.8c-4.2-2.7-7.7-5.3-10.5-8-2.3 3.4-5.2 5.3-8.6 6.1-1.8.3-3.7.3-5.4 0 4.5 10.5 12.1 19.8 22.4 26.5-.4-7.5.2-15.8 2.1-24.6zm21.3 10c-1.1 3.5-.9 7.2.8 10.9 2.5 5.6 8 10.2 12.9 13.4 14.4-1 28.3-7.2 38.7-17.8-13.3 2.7-34.2-.2-52.4-6.5zm-18.4-11.1c5.1 3 10.9 5.8 17.1 8.1 4.3-9 15.4-13 27-17.4 6.7-2.5 13.6-5.1 19.3-8.6 7.3-4.7 11.6-11 13.1-18.8 1.9-10.1-1.5-21.3-5.6-30.3-3.8-3.9-8.3-7.3-13.3-10.2-2.4-1.4-4.8-2.5-7.2-3.5-34.6 28.7-46.7 64.9-50.4 80.7zm-13.9-10.9c3.8-8.1 3-18.3 2-29.1-.6-6.8-1.1-13.9-.6-20.8.4-4.2 1.4-7.8 2.9-11.1-5.9 4.7-11 10.6-14.9 17.6-1.9 3.3-3.4 6.7-4.5 10.1l.6 2.7c3.6 12.8 6.2 22.1 14.5 30.6z"/></svg>