<?xml version="1.0" encoding="utf-8"?>
<!-- Generator: Adobe Illustrator 25.1.0, SVG Export Plug-In . SVG Version: 6.00 Build 0)  -->
<svg version="1.1" id="Layer_1" xmlns="http://www.w3.org/2000/svg" xmlns:xlink="http://www.w3.org/1999/xlink" x="0px" y="0px"
	 viewBox="0 0 20 20" style="enable-background:new 0 0 20 20;" xml:space="preserve">
<style type="text/css">
	.st0{clip-path:url(#SVGID_2_);fill:#FDB825;}
	.st1{fill:#552C82;}
	.st2{fill:#FFFFFF;}
</style>
<g>
	<g>
		<defs>
			<rect id="SVGID_1_" width="20" height="20"/>
		</defs>
		<clipPath id="SVGID_2_">
			<use xlink:href="#SVGID_1_"  style="overflow:visible;"/>
		</clipPath>
		<path class="st0" d="M10.0521183,0.0001356C4.5293746-0.0286865,0.0289747,4.4251719,0.0001356,9.947916
			c-0.0288391,5.522707,4.4250379,10.0231247,9.9475718,10.0519428c5.5229521,0.0286465,10.0232992-4.4250345,10.0521536-9.9477415
			C20.028471,4.5293732,15.5750351,0.0289747,10.0521183,0.0001356"/>
	</g>
	<path class="st1" d="M12.3633327,15.6979504l0.3444452-1.5452785l0.324131,1.3042011L12.3633327,15.6979504L12.3633327,15.6979504z
		 M14.1117363,16.3522911c-0.0101748,0.0036449-0.018507,0.0032635-0.0284386-0.0020485
		c-0.0885763-0.0464935-0.1683674-0.3488903-0.22118-0.5488892l-0.8647213-3.1738548l-0.1121197,0.0404167
		c-0.1171522,0.042223-0.2172899,0.1780901-0.2548599,0.3462505l-0.7705212,3.4439583
		c-0.099514,0.4457626-0.1715975,0.767849-0.3667698,0.8380909l-0.0335083,0.0122223v0.3438187l0.9703474-0.3497238v-0.3438168
		l-0.0680208,0.024374c-0.1035776,0.0373611-0.1799297,0.0426388-0.2142706,0.0152073
		c-0.0339231-0.0274296-0.0308685-0.0944099-0.0257988-0.1318054c0.0081253-0.0631599,0.0519791-0.2950687,0.0877419-0.454895
		l0.0444794-0.2026749l0.8939934-0.3224993l0.087327,0.3235083c0.0231256,0.0731239,0.0743065,0.2368031,0.0867014,0.2810764
		c0.0255909,0.0911789-0.0926037,0.179512-0.2134371,0.2227764l-0.0335083,0.012188v0.3438187l1.1045847-0.398262v-0.3437862
		L14.1117363,16.3522911L14.1117363,16.3522911z M8.0627422,16.3026371c0,0.2506256-0.0205202,0.5977097-0.1978126,0.7197571
		c-0.0856938,0.0586796-0.2057285,0.0590973-0.3570137,0.0010071c-0.2412844-0.0921879-0.3403816-0.2199306-0.3420134-0.440279
		v-3.1364565c0.0008326-0.1707983,0.0493746-0.2561121,0.1787152-0.3143759
		c0.0865278-0.038785,0.1106939-0.0459023,0.1106939-0.0461111L7.49368,13.0721865v-0.3209038L6.0851045,13.384304
		l0.0003815,0.3310423l0.0776043-0.0479164c0.0007982-0.0006256,0.0245481-0.0148268,0.1127076-0.0546532
		c0.0497227-0.0221176,0.0875354-0.0292368,0.104167-0.0182638c0.0119791,0.0077076,0.0322924,0.0369434,0.0327086,0.1447906
		v2.6724319c-0.0004163,0.1047554-0.0193062,0.1396866-0.0351391,0.1504841
		c-0.0174656,0.0121536-0.0546174,0.0081272-0.1045837-0.0107975c-0.083889-0.0322571-0.1090622-0.0452423-0.1119089-0.0467014
		l-0.0759373-0.0389919v0.3444443l2.3769088,0.9098263v-1.3383331l-0.399271-0.1527443V16.3026371L8.0627422,16.3026371z"/>
	<path class="st1" d="M13.5076036,9.79986l1.2788553,0.0343056l-0.0313206-0.7727442l0.6681595,0.789793L16.036459,9.867672
		l-0.0323277-0.7989244l0.6909027,0.8165979l1.7325344,0.0464926c0.0004177,0.03757,0.0024319,0.0745497,0.002224,0.1121187
		c-0.0067043,1.27882-0.2991314,2.4890289-0.8145847,3.5720835C16.8274651,11.4237137,14.8107986,10.3079853,13.5076036,9.79986
		L13.5076036,9.79986z M10.7921515,18.3926373V11.927186l0.5397921-0.8421869l2.5887489,1.1553469l0.2672243-0.7258329
		l0.3146172,0.9855556l0.5598955,0.2498255l0.2765989-0.7502079l0.3251371,1.0188894l1.8399658,0.8210764
		C16.220417,16.3430901,13.7234707,18.1192703,10.7921515,18.3926373L10.7921515,18.3926373z M10.1950703,7.2059708
		c0.1525335,0.010591,0.2993402,0.0353122,0.4390965,0.0737157c-0.0032635,0.0392013-0.0061111,0.078784-0.0061111,0.120625
		c0,0.3728814,0.2142696,0.7232285,0.4413185,1.0944443c0.3190289,0.5217361,0.5990982,0.9829512,0.3387489,1.4833326
		c-0.3334694,0.2796526-0.7530537,0.4585772-1.2130527,0.4939241V7.2059708L10.1950703,7.2059708z M10.195035,6.1909018
		c0.3221178,0.0247564,0.6240959,0.1198263,0.8907633,0.2711105c-0.1553822,0.1161809-0.2967358,0.2755909-0.3796177,0.4943056
		c-0.1632643-0.0446525-0.3340626-0.0726733-0.5111456-0.0838885V6.1909018L10.195035,6.1909018z M6.2529511,2.4491374
		c1.1417708-0.567608,2.4289241-0.8860589,3.7907996-0.8789551c1.3377419,0.0069174,2.6001377,0.3263686,3.7207623,0.8866704
		c-1.9782629,0.5517917-3.1996174,2.0757506-3.7410774,2.9128678C9.4793758,4.5285406,8.2482634,2.9938252,6.2529511,2.4491374
		L6.2529511,2.4491374z M9.8612499,10.4719772c-0.4599667-0.0355558-0.8795481-0.2144785-1.2130203-0.4939222
		C8.3878813,9.4776726,8.6679163,9.0164566,8.9869795,8.4947205C9.2138195,8.1236801,9.428298,7.773159,9.428298,7.400485
		c0-0.0420485-0.0028477-0.0816321-0.0062847-0.1208334c0.1398954-0.0384026,0.2865276-0.0631599,0.4392366-0.0737152V10.4719772
		L9.8612499,10.4719772z M9.2793398,18.3969097c-2.9599652-0.2510414-5.4796524-2.0284386-6.7747459-4.5402098l1.8779409-0.8381243
		l0.3255553-1.0188894l0.2763886,0.7502079l0.5597224-0.2498255l0.3147573-0.9855556l0.2672915,0.7258329l2.581389-1.1521168
		l0.571701,0.8495131V18.3969097L9.2793398,18.3969097z M1.5701972,9.9562149c0-0.0077095,0.0008128-0.0152092,0.0008128-0.022953
		l1.7808543-0.0479164l0.6907048-0.8165979L4.0104856,9.867672l0.6129169-0.0164576l0.6681595-0.789793L5.2604513,9.8341656
		L6.5388889,9.79986c-1.314167,0.5123959-3.3537502,1.6437845-4.1266947,3.8740625
		C1.8673023,12.5504503,1.5632809,11.2890968,1.5701972,9.9562149L1.5701972,9.9562149z M2.4952533,6.1615615l1.6555445,0.6112843
		l0.9445834-0.5014229L4.7687845,7.0013185l0.5755901,0.2126384l0.9136457-0.4853821L5.9420142,7.4345121l0.9238534,0.3411813
		C5.8317709,7.6692696,3.4085274,7.6477423,1.5931383,9.4023952C1.6745864,8.2409363,1.9909859,7.1455193,2.4952533,6.1615615
		L2.4952533,6.1615615z M9.0337496,7.0644083C8.5483675,7.2719774,8.15236,7.6314225,7.8932285,8.0914221
		c0.0637498-0.5743399,0.3535767-1.0799999,0.77882-1.4264932C8.8087149,6.7414918,8.9541311,6.8639574,9.0337496,7.0644083
		L9.0337496,7.0644083z M9.0945826,7.3998251v0.0006251c0,0.2786107-0.190486,0.5901389-0.3923264,0.9201741
		C8.4904165,8.6670809,8.2499647,9.0622892,8.2174644,9.4859371C8.099062,9.3007278,8.009306,9.0962133,7.9520478,8.8782978
		C8.0947914,8.2026377,8.509305,7.6711445,9.0945826,7.3998251L9.0945826,7.3998251z M8.9706936,6.4619436
		C9.23736,6.3108315,9.5391665,6.2157969,9.8612499,6.1907969v0.6815624C9.684166,6.8835406,9.5133667,6.9115605,9.350069,6.9562149
		C9.2672224,6.7377071,9.1258678,6.5782971,8.9706936,6.4619436L8.9706936,6.4619436z M5.4144092,2.9274156l0.8730903,1.0722711
		l1.0684032,0.0489573L6.703402,4.5108666L7.090694,4.9863181l1.0335069,0.0472913l-0.6312146,0.446806l0.3964233,0.4871879
		C6.8516665,5.4814224,4.8638539,4.8290963,2.7874925,5.6355538C3.4481313,4.546422,4.348402,3.6201372,5.4144092,2.9274156
		L5.4144092,2.9274156z M12.1041307,8.8782625c-0.0570478,0.2181244-0.147048,0.42243-0.2652426,0.6074295
		c-0.0324993-0.4234362-0.2729511-0.8186445-0.4847574-1.165103c-0.2018747-0.3298264-0.3923597-0.641562-0.3923597-0.9201736
		V7.3997898C11.5468407,7.6713181,11.9613543,8.2028112,12.1041307,8.8782625L12.1041307,8.8782625z M11.0225697,7.0644083
		c0.0795832-0.2006598,0.2249994-0.3229165,0.3617001-0.3994794c0.4252443,0.3464932,0.7148619,0.8521533,0.77882,1.4264932
		C11.9037504,7.6314225,11.5079508,7.2719774,11.0225697,7.0644083L11.0225697,7.0644083z M17.197464,5.6118045
		c-2.0537834-0.7701039-4.0123606-0.1255207-5.0401726,0.3557987l0.3966322-0.4871879l-0.6312151-0.446806l1.0335073-0.0472913
		l0.387291-0.4754515l-0.6525011-0.4622226l1.0682297-0.0489573l0.8565969-1.0519588
		C15.6611099,3.6333318,16.5449657,4.543992,17.197464,5.6118045L17.197464,5.6118045z M18.4029846,9.3528461
		c-1.8094769-1.7055206-4.19736-1.6825686-5.2219429-1.5771527l0.9238186-0.3411813l-0.3157625-0.7059374l0.9134712,0.4853821
		l0.5753479-0.2126384L14.951354,6.2714229l0.9445486,0.5014229l1.6161804-0.5966663
		C18.0049305,7.1426721,18.316494,8.2163877,18.4029846,9.3528461L18.4029846,9.3528461z M10.0490265,0.5484539
		C4.82934,0.5212593,0.5756802,4.7308331,0.5484687,9.9509363c-0.0272126,5.2197552,4.1821561,9.4733667,9.4020853,9.5005884
		c5.2201052,0.0272217,9.4737511-4.1823587,9.5009727-9.4020805C19.4787159,4.8293037,15.2689571,0.5756654,10.0490265,0.5484539
		L10.0490265,0.5484539z"/>
	<path class="st2" d="M10.0234356,5.3697205c0.54146-0.8371172,1.7628145-2.3610761,3.7410774-2.9128678
		c-1.1206245-0.5603018-2.3830204-0.879753-3.7207623-0.8866704C8.6818752,1.5630785,7.394722,1.8815295,6.2529511,2.4491374
		C8.2482634,2.9938252,9.4793758,4.5285406,10.0234356,5.3697205L10.0234356,5.3697205z"/>
	<path class="st2" d="M7.090694,4.9863181L6.703402,4.5108666l0.6525006-0.4622226L6.2874994,3.9996867L5.4144092,2.9274156
		C4.348402,3.6201372,3.4481313,4.546422,2.7874925,5.6355538c2.0763614-0.8064575,4.0641737-0.1541314,5.1019173,0.3320494
		L7.4929862,5.4804153l0.6312146-0.446806L7.090694,4.9863181L7.090694,4.9863181z"/>
	<path class="st2" d="M4.1507978,6.7728457L2.4952533,6.1615615c-0.5042675,0.9839578-0.8206669,2.0793748-0.902115,3.2408338
		c1.815389-1.754653,4.2386327-1.7331257,5.2727294-1.6267018L5.9420142,7.4345121l0.3160062-0.7059374L5.3443747,7.2139568
		L4.7687845,7.0013185l0.3265967-0.7298956L4.1507978,6.7728457L4.1507978,6.7728457z"/>
	<path class="st2" d="M17.5120831,6.1761794l-1.6161804,0.5966663L14.951354,6.2714229l0.3265629,0.7298956L14.702569,7.2139568
		l-0.9134712-0.4853821l0.3157625,0.7059374l-0.9238186,0.3411813c1.0245829-0.1054158,3.412466-0.1283679,5.2219429,1.5771527
		C18.316494,8.2163877,18.0049305,7.1426721,17.5120831,6.1761794L17.5120831,6.1761794z"/>
	<path class="st2" d="M14.6158323,2.9477279l-0.8565969,1.0519588l-1.0682297,0.0489573l0.6525011,0.4622226l-0.387291,0.4754515
		l-1.0335073,0.0472913l0.6312151,0.446806l-0.3966322,0.4871879c1.027812-0.4813194,2.9863892-1.1259027,5.0401726-0.3557987
		C16.5449657,4.543992,15.6611099,3.6333318,14.6158323,2.9477279L14.6158323,2.9477279z"/>
</g>
</svg>
