<svg id="Layer_1" data-name="Layer 1" xmlns="http://www.w3.org/2000/svg" viewBox="0 0 650 650"><defs><style>.cls-1{fill:#00040b;}.cls-2{fill:#bd955b;}.cls-3{fill:#fff;}.cls-4{fill:#c22032;}</style></defs><title>aces-primary-logo</title><path class="cls-1" d="M477,279c-1.74,0-7.39,0-15.94.09C360,165.67,330.94,30.84,330.94,30.84S301.53,167.39,198.87,281.29H164.25l-1,2.41C148.8,318.16,104,394.63,104,394.63H216.1c1.5,1.69,3.23,3.62,3.23,3.62C298.93,488.65,331,622.5,331,622.5s32.1-133.84,111.71-224.23c1.4-1.69,3.12-3.65,3.12-3.65h28.63c61.56,0,63.85-30.44,63.85-40.93s-4.66-19.17-12.31-26.3l17.37-33.9L539.28,291C538.47,290.52,519,279,477,279Z"/><path class="cls-2" d="M550.37,291.52A95.06,95.06,0,0,0,525,279.74c-13.87-4.11-30.06-6-48-6l-13.57.07a553.23,553.23,0,0,1-60.69-83.9,631.79,631.79,0,0,1-39.64-79.26c-19.53-47-26.9-80.6-27-80.93l-5.19-24-5.18,24c-.07.34-7.54,34.41-27.35,81.84a631,631,0,0,1-40.23,80A551.05,551.05,0,0,1,196.51,276H160.72l-2.37,5.66c-14.13,33.74-58.5,109.53-58.95,110.3l-4.68,8h119l1.65,1.84c17.91,20.34,34.85,44.64,50.37,72.25a617.11,617.11,0,0,1,34.37,72.22c17.63,43.89,25.69,77.15,25.77,77.48L331,645.23l5.16-21.49c.08-.33,8.18-33.74,25.84-77.65a616.84,616.84,0,0,1,34.35-72.14c15.51-27.57,32.45-51.85,50.34-72.17l1.56-1.85h26.2c27.87,0,47.69-6.13,58.9-18.23,10.25-11.06,10.25-23.81,10.25-28,0-10-3.84-19.35-11.14-27.3ZM526,327.4c7.65,7.12,12.31,16,12.31,26.3s-2.29,40.93-63.85,40.93H445.86s-1.72,2-3.12,3.65C363.14,488.67,331,622.5,331,622.5s-32.1-133.85-111.71-224.24c0,0-1.73-1.93-3.23-3.62H104s44.83-76.47,59.26-110.93l1-2.41h34.62C301.53,167.39,330.94,30.84,330.94,30.84s29,134.83,130.12,248.29c8.56-.06,14.2-.09,15.94-.09,42,0,61.47,11.49,62.28,12l4.12,2.49Z"/><path class="cls-3" d="M330.94,159.33c20.81,43.75,38.35,70.08,56.09,94.61h30.28S360.47,188,330.93,91.11C301.4,188,244.56,253.95,244.56,253.95h30.28C293,228.8,309.46,205.08,330.94,159.33Z"/><path class="cls-4" d="M315,222.71c8.44,3.28,14,10.46,15.93,26.24,1.94-15.78,7.49-23,15.93-26.24-8.44-3.28-14-10.46-15.93-26.24-1.94,15.78-7.48,23-15.93,26.24"/><path class="cls-2" d="M230.12,281.29V266.66h3.68v11.48h13v3.16Z"/><path class="cls-2" d="M269.18,281.29l-1.69-2.93h-10.3l-1.69,2.93h-3.91l8.4-14.63h4.7l8.4,14.63Zm-6.83-11.89L259,275.21h6.69Z"/><path class="cls-2" d="M295.43,276.57a3.87,3.87,0,0,1-.59,2,5.07,5.07,0,0,1-1.8,1.68,10.37,10.37,0,0,1-3,1.13,19.94,19.94,0,0,1-4.31.41,17,17,0,0,1-2.61-.21,24.44,24.44,0,0,1-2.53-.52,12.78,12.78,0,0,1-2.68-1l1.27-2.93a12.48,12.48,0,0,0,2.31.91,18.25,18.25,0,0,0,2.1.47,16.51,16.51,0,0,0,2.13.19,14.43,14.43,0,0,0,4.67-.56q1.54-.56,1.54-1.48a.91.91,0,0,0-.48-.86,3.41,3.41,0,0,0-1.48-.31l-.87-.05-1.56-.07-2-.08-2.34-.1a10.67,10.67,0,0,1-2.23-.33,5.62,5.62,0,0,1-1.76-.78,3.75,3.75,0,0,1-1.16-1.25,3.5,3.5,0,0,1-.42-1.75,3.12,3.12,0,0,1,.66-1.89,5.58,5.58,0,0,1,1.88-1.55,11.31,11.31,0,0,1,3-1,19.41,19.41,0,0,1,6.49-.19q1.13.17,2.52.48a13.61,13.61,0,0,1,2.71.92l-1.11,2.88q-.65-.27-1.46-.52t-1.7-.44q-.89-.19-1.8-.29a15.18,15.18,0,0,0-1.75-.1,22,22,0,0,0-2.33.11,11,11,0,0,0-1.87.34,3.89,3.89,0,0,0-1.24.56.94.94,0,0,0-.45.75.89.89,0,0,0,.46.81,3,3,0,0,0,1.36.31l2.82.13,4.31.19a10.53,10.53,0,0,1,2.25.33,5.28,5.28,0,0,1,1.69.77,3.43,3.43,0,0,1,1.08,1.23A3.6,3.6,0,0,1,295.43,276.57Z"/><path class="cls-2" d="M326.45,281.29h-4.68l-7.63-14.63h4.08l5.89,11.54L330,266.66h4.08Z"/><path class="cls-2" d="M339.4,281.29V266.66H357v3.16H343.08v2.63h12.27v2.84H343.08v2.84h14.48v3.16Z"/><path class="cls-2" d="M383.36,274a6.74,6.74,0,0,1-.69,3,7.35,7.35,0,0,1-2,2.48,10,10,0,0,1-3.2,1.69,15,15,0,0,1-8.59,0,10,10,0,0,1-3.2-1.69,7.34,7.34,0,0,1-2-2.48,6.87,6.87,0,0,1,0-6,7.35,7.35,0,0,1,2-2.48,10,10,0,0,1,3.2-1.69,14.88,14.88,0,0,1,7.26-.32,12,12,0,0,1,2.48.83,8.93,8.93,0,0,1,2,1.24,7.87,7.87,0,0,1,1.44,1.58l-3.24,1.65a5.05,5.05,0,0,0-2.07-1.75,7.93,7.93,0,0,0-3.55-.7,9.39,9.39,0,0,0-2.79.38,6.28,6.28,0,0,0-2,1,4.22,4.22,0,0,0-1.22,1.47,4.07,4.07,0,0,0,0,3.55,4.22,4.22,0,0,0,1.22,1.47,6.3,6.3,0,0,0,2,1,9.35,9.35,0,0,0,2.79.38,8.23,8.23,0,0,0,3.88-.8,4.83,4.83,0,0,0,2.14-2h-7.46v-2.84h11.54c0,.17,0,.34.06.51S383.36,273.8,383.36,274Z"/><path class="cls-2" d="M405.55,281.29l-1.69-2.93h-10.3l-1.69,2.93H388l8.4-14.63h4.7l8.4,14.63Zm-6.83-11.89-3.34,5.81h6.69Z"/><path class="cls-2" d="M431.81,276.57a3.87,3.87,0,0,1-.59,2,5.07,5.07,0,0,1-1.8,1.68,10.37,10.37,0,0,1-3,1.13,19.94,19.94,0,0,1-4.31.41,17,17,0,0,1-2.61-.21,24.44,24.44,0,0,1-2.53-.52,12.78,12.78,0,0,1-2.68-1l1.27-2.93a12.48,12.48,0,0,0,2.31.91,18.25,18.25,0,0,0,2.1.47,16.51,16.51,0,0,0,2.13.19,14.43,14.43,0,0,0,4.67-.56q1.54-.56,1.54-1.48a.91.91,0,0,0-.48-.86,3.41,3.41,0,0,0-1.48-.31l-.87-.05-1.56-.07-2-.08-2.34-.1a10.67,10.67,0,0,1-2.23-.33,5.62,5.62,0,0,1-1.76-.78,3.75,3.75,0,0,1-1.16-1.25,3.5,3.5,0,0,1-.42-1.75,3.12,3.12,0,0,1,.66-1.89,5.58,5.58,0,0,1,1.88-1.55,11.31,11.31,0,0,1,3-1,19.41,19.41,0,0,1,6.49-.19q1.13.17,2.52.48a13.61,13.61,0,0,1,2.71.92l-1.11,2.88q-.65-.27-1.46-.52t-1.7-.44q-.89-.19-1.8-.29a15.18,15.18,0,0,0-1.75-.1,22,22,0,0,0-2.33.11,11,11,0,0,0-1.87.34,3.89,3.89,0,0,0-1.24.56.94.94,0,0,0-.45.75.89.89,0,0,0,.46.81,3,3,0,0,0,1.36.31l2.82.13,4.31.19a10.53,10.53,0,0,1,2.25.33,5.28,5.28,0,0,1,1.69.77,3.43,3.43,0,0,1,1.08,1.23A3.6,3.6,0,0,1,431.81,276.57Z"/><path class="cls-4" d="M343.68,467.33c-3.94,7.4-8.69,16-12.74,24.67-20.81-43.75-38.35-70.08-56.09-94.61-2.06-2.86-2-2.74-2-2.74H241.8s48.94,54.82,89.14,166.47c0,0,13.25-35.22,27.42-65.64Z"/><path class="cls-4" d="M365.61,480.49c-25.91-50.62-55-85.86-55-85.86h30.88c8.15,11.27,16.1,21.88,24.11,34.68,8-12.8,14.94-23.42,23.09-34.68h31.66S393,426.67,365.61,480.49Z"/><path class="cls-3" d="M213.4,376h23.66a503.93,503.93,0,0,1-39.18-76.11H175.39A503.93,503.93,0,0,1,136.21,376h23.66c2.3-3.72,4.82-8.06,7.43-12.76H206C208.59,368,211.11,372.29,213.4,376ZM175.86,347.1c3.82-7.54,7.55-15.33,10.78-22.69,3.23,7.36,7,15.16,10.78,22.69Z"/><path class="cls-3" d="M475.31,377.79c-16.44,0-28-1.63-40.21-5.41l8.75-19.71c7.5,6,18.8,9.06,31.46,9.06s20.16-2.77,20.16-7.42-7.37-6.49-20.74-9.7l-4.66-1.13c-21.31-5.21-31.46-10.05-31.46-23.52,0-19.2,24.57-22.06,39.22-22.06,16.78,0,27.64,1.61,39.5,5.91l-9.18,18c-7.54-6-16.61-8.45-30.33-8.45-9.87,0-15.76,2.15-15.76,5.76,0,4.26,7.22,6,23,9.86l5,1.21c18.54,4.55,29.28,10.18,29.28,23.33C519.35,373.92,495.4,377.79,475.31,377.79Z"/><path class="cls-3" d="M288.35,377.79c-27.86,0-48.88-17-48.88-39.66s21-39.66,48.88-39.66c14.56,0,26.35,2.55,37,8l-9.34,19c-6.74-6.75-16-10.31-26.88-10.31-17.9,0-27.26,11.56-27.26,23s9.36,23,27.26,23c10.89,0,20.15-3.56,26.88-10.31l9.34,19C314.7,375.24,302.91,377.79,288.35,377.79Z"/><path class="cls-3" d="M343.34,376c.87-2.29,2.24-7.2,2.24-15.42V315.33c0-8.22-1.37-13.13-2.24-15.42H425l-5.88,18.77c-3.76-2.26-9.09-3.61-15.51-3.93h-37.3v15.15h42v14.84h-42v15.4h37.25c6.22-.31,11.37-1.57,15.11-3.67V376Z"/></svg>