<svg xmlns="http://www.w3.org/2000/svg" viewBox="0 0 576 539.19"><title>lynx-primary-logo</title><path d="M562.87,243.49l-2.73-7.91c-1.78-5.12-3.75-10.13-5.81-15.09C567,201.94,585.7,176.06,612,135c0,0-11.54,10.79-41.08,26.23a115.54,115.54,0,0,0,4.32-19s-15.47,16.28-43.06,35.94a269.17,269.17,0,0,0-315-108.78C76.77,118.12,2.2,272,50.91,412.4A269.28,269.28,0,0,0,394,578.61c137.7-47.82,212.06-196.81,168.82-335Z" transform="translate(-36 -54.4)" style="fill:#a0a2a3"/><path d="M553.8,246.32l-2.64-7.63q-3.46-10-7.69-19.56c14.72-24.47,38.68-52.19,38.68-52.19-7.17,5.84-17.25,10.85-28.58,15.42,3.08-5.61,6.09-11.62,8.94-18.08,0,0-11.78,11.46-33.23,26.86l-.2.07A260.27,260.27,0,0,0,305.54,63.9h0a259.38,259.38,0,0,0-85.29,14.45C84.82,125.37,12.88,273.83,59.88,409.28a259.8,259.8,0,0,0,331,160.36c132.85-46.13,204.59-189.88,162.87-323.2Zm-87.49-31.06-.49.27c-2.33,1.35-4.73,2.65-7.16,4a185.93,185.93,0,0,0-51-50.33c-.08-3.83,0-7.29.06-10.18a194.47,194.47,0,0,1,58.6,56.29M122.14,387.67C87,286.54,140.75,175.71,241.86,140.6a193.59,193.59,0,0,1,163.53,16.92c-1.13,2.72-2.29,5.38-3.47,8a185.1,185.1,0,0,0-157.57-16.91c-96.7,33.57-148.07,139.58-114.5,236.3A186,186,0,0,0,259.52,504a42.66,42.66,0,0,0,12.63,11.29,194.42,194.42,0,0,1-150-127.59" transform="translate(-36 -54.4)" style="fill:#0c233f"/><path d="M119.57,485.44c-.32.17-.4,0-.31-.33l4.87-24L99.85,459.2c-.33,0-.48-.15-.24-.39l26.3-22.19,5.37,7.18-11.12,9.33,13,.9a.27.27,0,0,1,.26.36l-2.6,13,12.12-8.08,5.34,7.13Z" transform="translate(-36 -54.4)" style="fill:#fff"/><rect x="81.71" y="415.44" width="33.99" height="9.11" transform="translate(-201.57 24.57) rotate(-24.55)" style="fill:#fff"/><path d="M85.52,383,102,379.25l1.9,8.33-33.56,7.68c-.29.07-.57,0-.25-.65l12.38-24.76-16.61,3.8L64,365.31l33.62-7.7c.39-.08.57,0,.25.66Z" transform="translate(-36 -54.4)" style="fill:#fff"/><path d="M78.17,326.85l16.95.39-.21,8.56L60.47,335c-.3,0-.55-.17-.09-.71l18.11-21-17.06-.39.2-8.56,34.49.8c.41,0,.55.16.08.7Z" transform="translate(-36 -54.4)" style="fill:#fff"/><polygon points="30.24 220.22 36.24 197.12 43.66 199.05 39.93 213.34 45.35 214.74 48.46 202.84 55.47 204.66 52.36 216.58 58.02 218.04 61.92 203.09 69.33 205 63.12 228.78 30.24 220.22" style="fill:#fff"/><path d="M106.55,239.62l-1.42-8.13a8.57,8.57,0,0,0,6.52-4.65c1.22-2.41,1.25-4.2-.45-5.06-1.29-.67-2.41,0-4.11,1.67l-3,3c-3.73,3.66-8,5.42-13,2.89-6-3-6.52-9.56-3.78-14.95s6.28-7.6,9.28-8.32l2.51,7.11a7.69,7.69,0,0,0-4.87,4.16c-1,2-.6,3.39.6,4s2.07.21,3.31-1l3.38-3.34c5.1-5,9-5.62,13.32-3.45,5.56,2.84,7.81,8.35,3.71,16.38-3.47,6.83-8.56,9.13-12,9.72" transform="translate(-36 -54.4)" style="fill:#fff"/><path d="M120.6,191.7c-7.79-6.65-7.75-17.72-1.39-25.18s17.29-9.27,25.09-2.62,7.78,17.76,1.42,25.23-17.32,9.23-25.12,2.58M138.26,171c-4.07-3.47-9.33-3.69-13,.65s-2.65,9.52,1.42,13,9.38,3.72,13.07-.62,2.61-9.55-1.46-13" transform="translate(-36 -54.4)" style="fill:#fff"/><polygon points="125.92 82.55 118.67 87.9 114.13 81.74 135.97 65.65 140.52 71.81 133.26 77.15 148.87 98.36 141.54 103.77 125.92 82.55" style="fill:#fff"/><path d="M211.34,117.16l.51,19.42-8.13,3.67.82-38.35c0-.38.27-.51.55-.25l29.31,24.7-8.58,3.88Z" transform="translate(-36 -54.4)" style="fill:#fff"/><polygon points="244.31 27.3 253.41 26.75 254.98 53.05 269.42 52.19 269.88 59.82 246.34 61.23 244.31 27.3" style="fill:#fff"/><polygon points="286.9 26.23 296.82 27.58 301.79 40.82 310.12 29.39 319.59 30.69 305.06 49.49 303.24 62.76 294.21 61.52 295.99 48.51 286.9 26.23" style="fill:#fff"/><path d="M383,110.88l-6.19,15.78-8-3.12,12.56-32.07c.1-.29.35-.46.69.16l13.49,24.18,6.22-15.87,8,3.12-12.59,32.13c-.15.37-.34.45-.69-.16Z" transform="translate(-36 -54.4)" style="fill:#fff"/><polygon points="399.1 62.39 407.4 68.26 406.55 78.19 415.69 74.12 423.41 79.59 406.5 86.42 405.29 108.4 396.99 102.53 398.03 89.18 385.67 94.53 377.95 89.07 398.09 80.96 399.1 62.39" style="fill:#fff"/><path d="M270.37,195.44l-11.75,17.38a102.55,102.55,0,0,1,16.52,14.55c-13-2.51-27.21-4.78-27.21-4.78L225.48,235l10.43-17.61a163.33,163.33,0,0,0-15.41-11.23c9,.18,26.08,1.45,26.08,1.45Z" transform="translate(-36 -54.4)" style="fill:#79bc43"/><path d="M211.39,241.85s-5.3,9.74-6.14,11.41c0,0-58.69,79.89-19.48,194.87,0,0-68.88-60.5-49.28-158.63,0,0,35.31-51.79,74.9-47.64" transform="translate(-36 -54.4)" style="fill:#266092"/><path d="M144,263.41s15.93-38.88,33.62-55.19c0,0,27.15-4,46.28,11.46,0,0-5.26,9.23-6.78,12,0,0-32.39-10.16-73.11,31.78" transform="translate(-36 -54.4)" style="fill:#266092"/><path d="M255.41,159.09s-4.06,16.7,9.05,29.27c0,0-15.51,6.75-20,8.73,0,0-35.81-1.42-55.45-.29,0,0,26.18-25.82,66.38-37.7" transform="translate(-36 -54.4)" style="fill:#266092"/><path d="M276.33,183.42s-14.56-7.16-8.91-27.51c0,0,36.57-11,86.84,2.95,0,0-30.34,4.06-77.93,24.57" transform="translate(-36 -54.4)" style="fill:#266092"/><path d="M396,177.72A129.91,129.91,0,0,0,377.89,168c-42.81.85-83.85,22.36-83.85,22.36,30,9.09,30.87-.53,85.93,14.31A251.89,251.89,0,0,0,396,177.72" transform="translate(-36 -54.4)" style="fill:#266092"/><path d="M410.81,196.38c3.29,13.49,12.47,23.59,20.35,30.12,1.74,1.11,3.38,2.23,5,3.34,3.93-1.51,7.36-2.93,10.45-4.29A176.6,176.6,0,0,0,409,186.73c.46,3.26,1,6.51,1.8,9.65" transform="translate(-36 -54.4)" style="fill:#266092"/><path d="M332.38,255.62A223.15,223.15,0,0,0,373.26,214c-37.87-9.77-65.35-4.84-88.74-15.22,0,0-7.41,8.81-9.05,12.07,0,0,14.65,15.43,18,19.11,0,0,16.32,8.54,39,25.69" transform="translate(-36 -54.4)" style="fill:#266092"/><path d="M248.83,471.17s-5.64-10.71-5.07-23.1c0,0-18-9.58-23.66-29.3,0,0-16.91-8.45-16.91-28.74s15.59-32.49,19.72-36.25,10.25-9.83,11.65-13.49a5.18,5.18,0,0,0-.21-2.73,35.77,35.77,0,0,1-1.58-6,26.86,26.86,0,0,1,1.41-17.18c3-6.69,8.22-15.25,25.58-25.51-13.82-33.76-33.44-42.59-33.44-42.59-2,1.36-7,5.81-7,5.81-7.53,11.67-34.17,51.06-36,113.79S203,462.64,203,462.64a205,205,0,0,0,49.37,25.15,74.47,74.47,0,0,1-3.52-16.62" transform="translate(-36 -54.4)" style="fill:#266092"/><path d="M269.35,283.63c12.28-6.14,29-12.81,51.92-20l1.33-.9c-21.11-15.72-36.32-24.16-36.32-24.16-11.58-3.67-34.71-6.75-34.71-6.75-2,.85-14.87,7.76-14.87,7.76,15.66,12.33,25.82,27.18,32.65,44.06" transform="translate(-36 -54.4)" style="fill:#266092"/><path d="M259.29,381.47s-15-.21-23.31,1.92c0,0,1.37,3,2.11,3.49,0,0,11.66-1.31,19.06-1.45Z" transform="translate(-36 -54.4)" style="fill:#79bc43"/><path d="M242.14,324.54s5.49,11.74,16.21,10.63c0,0-19.06,14.51-16.21-10.63" transform="translate(-36 -54.4)" style="fill:#79bc43"/><path d="M306,333.6s13.51-3.74,19.63-9S344,313.25,344,313.25s-10.94,33-38,20.35" transform="translate(-36 -54.4)" style="fill:#79bc43"/><path d="M270.71,414.5a48.17,48.17,0,0,0,11.93.17s.29,9.56,3.24,15.86c0,0-11.14-5.12-15.18-16" transform="translate(-36 -54.4)" style="fill:#fff"/><path d="M230.61,418.23A25.5,25.5,0,0,0,244.8,433s-3.67-10.22-3.29-16.42c0,0-6.57,2.44-10.89,1.69" transform="translate(-36 -54.4)" style="fill:#fff"/><path d="M259.5,465.17a78.28,78.28,0,0,1,8.67-2.41s-6.56-5.46-9.57-11.66c0,0-2.82,7.33.9,14.07" transform="translate(-36 -54.4)" style="fill:#fff"/><path d="M282.4,448a23.5,23.5,0,0,0,1.37,13,33.46,33.46,0,0,1,9.72-.43A50.39,50.39,0,0,1,282.4,448" transform="translate(-36 -54.4)" style="fill:#fff"/><path d="M541.12,203.52s-10.9,11.63-15.26,35.61,5.09,63.95-16.35,94.47c0,0-9.51-10-9.66-19.92s0-23.32-3.16-35.67c0,0-5.35,17.8-16.25,23.62,0,0-11.63-17.08,0-41.06s48.68-51.23,60.68-57" transform="translate(-36 -54.4)" style="fill:#fff"/><path d="M397.6,348.86c-66.85,0-116.27,26.89-116.27,26.89s38.15-36,113.36-36c92.29,0,130.08,47.48,130.08,47.48-10.9-38.27-32.46-50.86-48.69-71.94-17.64-22.92-17.68-47.24,1.21-70.73s51.59-41.42,51.59-41.42-59.83,24-82.36,33.18-32.46,11.87-54.26,17.2-56,12.23-83.93,28.22-29.5,30.51-29.5,30.51c-7.1-11-4.16-20.94-4.16-20.94-6.91,4-28.47,13-27.74,23.74,1,15,23.38,13.83,23.38,13.83-6.78,13.47-17.08,16.2-17.08,16.2-5.09,8.12-9.68,8.12-9.68,8.12-.47-1.33-1.65-4.55-1.65-4.55-25.49,18.83-27.61,31.43-27.61,31.43a34.61,34.61,0,0,1,7.57,5.48l-8.3.6c-.55,2.54,0,7.54,0,7.54,8.54,2.63,10.54,5.45,10.54,5.45-1.82-.18-9.26.18-9.26.18a11.11,11.11,0,0,0,10.54,8.17c8.72.36,14.71-8.17,14.71-8.17-7.27-8.36-11.44-20.17-11.44-20.17l10-15.22c-1,3.85-3.65,14-3.65,14,8.38-2.5,23.59-2.95,23.59-2.95,12.71-8.36,28.11-17.12,28.11-17.12-26.57,23.21-29.39,41.47-29.39,41.47,20,14.9,42.12-1.73,49.78-5.45,0,0,25.8-10.17,37.79-14.17s46.14-11.63,46.14-11.63c-60.31-1.45-106.46,23.25-106.46,23.25S310.77,360.12,390,360.12c86.84,0,137,53.41,137,53.41-15.26-37.06-68.31-64.67-129.35-64.67M316.1,320.93c13.19-10.69,38.73-22.95,56.7-26.81,0,0-16,14.56-21.72,27.14a26.5,26.5,0,0,1-2.66,4.44c5.35-.88,11.89-2.54,11.89-2.54-9.56,11.43-36.14,20.38-36.14,20.38a10.74,10.74,0,0,0,1.71-.82,28.73,28.73,0,0,1-18.69.4,15,15,0,0,0-4.63,7c-3.62-3.65-6.72-12.11-7.59-14.62a53.4,53.4,0,0,1-7.2-8.69s15.15,4.84,28.34-5.85" transform="translate(-36 -54.4)" style="fill:#a0a2a3"/><path d="M350,254.39s26.47-22,50.66-64.77c0,0,3.48,29.16,24.55,44.06,0,0-16,6.54-27.61,8.72s-47.6,12-47.6,12" transform="translate(-36 -54.4)" style="fill:#a0a2a3"/><path d="M261.41,475.11s21.65-6.44,41.14-6c0,0,44.19-27.63,21.78-69.53,0,0,24.1-18.66,88.54-13.57,0,0-45.54-20.1-108.28,9.21,0,0,46.28-29.69,91.32-26.89,54.5,3.39,74.7,16.77,86.71,32.22,13.56,17.44,14.3,43.41,8.24,63.37,0,0-3.59-46.3-56.9-49.14,0,0,69.74,45.17-6,120.05,0,0-2.73-64.28-67.4-69a81.54,81.54,0,0,1,11.26-9.51s-27-2.27-52.32,20.78c-24.71,22.52-12.62,31.8-12.62,31.8s-38.13,8.16-45.45-33.81" transform="translate(-36 -54.4)" style="fill:#fff"/></svg>