<?xml version="1.0" encoding="utf-8"?>
<!-- Generator: Adobe Illustrator 24.0.3, SVG Export Plug-In . SVG Version: 6.00 Build 0)  -->
<svg version="1.1" id="Layer_1" xmlns="http://www.w3.org/2000/svg" xmlns:xlink="http://www.w3.org/1999/xlink" x="0px" y="0px"
	 viewBox="0 0 648 648" style="enable-background:new 0 0 648 648;" xml:space="preserve">
<style type="text/css">
	.st0{fill:#86CEBC;}
	.st1{fill:#FFFFFF;}
</style>
<g>
	<g>
		<path d="M520,352.3h-5.9h-5.9c7.6-15.7,14.9-32.1,21.9-49.3c0,0-34.4-20.2-98.5-33.2L442,236l-7.6,6.1c1.5-7.4,2.3-15,2.3-22.8
			c0-38.5-19.1-74.3-51-95.9c-5.8-3.9-11.9-7.3-18.3-10.1l-3.3-1.6c-49.7-18.8-52.9-55.3-52.9-55.3s-12,22.7-6.1,42.7
			c1.5,5.2,3.8,10.4,6.8,15.5c-13.8-6.7-34.5-14.4-58.2-18.6c-51.7-9.1-49.7-58.8-49.7-58.8s-47.5,62.6,4.6,114.2
			c-26.2-16-40.4-42.4-40.4-42.4s-8.8,47.5,13.9,75.6c4.3,5.3,8,11.1,12.2,16.6c7.2,9.3,13.6,32.6,13.5,41.3l-8.3-6.5l10.2,33.5
			l0.2,0.5c-63.7,13-97.9,33-97.9,33c7,17.2,14.4,33.6,21.9,49.3h-5.9h-5.9H96.7V457h84.9h6.5h6.2c7.6,11.2,15.1,21.6,22.5,31.5
			c1.6,2.1,3.1,4.1,4.7,6.1c2.2,2.9,4.4,5.6,6.5,8.4c1.3,1.7,2.6,3.3,4,5c2.3,2.9,4.6,5.7,6.9,8.4c1.2,1.5,2.4,2.9,3.6,4.4
			c2,2.3,3.9,4.6,5.8,6.9c1.5,1.7,3,3.5,4.5,5.2c1.6,1.8,3.1,3.5,4.7,5.3c0.9,1.1,1.9,2.1,2.8,3.1c2.4,2.6,4.7,5.2,7,7.6
			c0.8,0.9,1.6,1.7,2.4,2.5c2.3,2.5,4.6,4.9,6.8,7.2c0.7,0.7,1.4,1.5,2.1,2.2c2.2,2.2,4.3,4.4,6.4,6.4c0.7,0.7,1.3,1.3,2,2
			c2,2,3.9,3.8,5.8,5.6c0.6,0.6,1.2,1.2,1.8,1.8c1.1,1.1,2.2,2.1,3.3,3.1c0.7,0.7,1.4,1.3,2,1.9c1.5,1.4,2.9,2.7,4.3,3.9
			c0.6,0.6,1.3,1.1,1.9,1.7c1.2,1.1,2.4,2.1,3.5,3.1c0.6,0.5,1.2,1,1.7,1.5c0.9,0.8,1.8,1.5,2.6,2.2c0.6,0.5,1.1,1,1.6,1.4
			c0.5,0.4,0.9,0.8,1.3,1.1c0.6,0.5,1.2,1,1.7,1.4c0.3,0.3,0.7,0.5,0.9,0.8c0.2,0.2,0.5,0.4,0.6,0.5c0.7,0.5,1.1,0.8,1.1,0.8
			s0.5-0.4,1.5-1.2c0,0,0.1-0.1,0.1-0.1c0.3-0.2,0.6-0.5,0.9-0.7c0.5-0.4,1.2-0.9,1.9-1.5c0.3-0.2,0.6-0.5,0.8-0.7
			c0.9-0.7,1.8-1.5,2.8-2.4c0.1-0.1,0.3-0.2,0.4-0.4c1.2-1,2.5-2.1,3.8-3.3c0.2-0.2,0.4-0.3,0.6-0.5c1.5-1.3,3-2.7,4.7-4.2
			c0.2-0.2,0.4-0.4,0.7-0.6c1.7-1.6,3.6-3.3,5.5-5.1c0.1-0.1,0.3-0.2,0.4-0.4c4.1-3.9,8.7-8.3,13.7-13.3c0.1-0.1,0.1-0.1,0.2-0.2
			c2.4-2.4,5-5,7.6-7.7c0.2-0.2,0.4-0.4,0.6-0.6c2.6-2.7,5.3-5.5,8-8.5c0.2-0.2,0.3-0.3,0.5-0.5c5.6-6.1,11.5-12.7,17.7-19.8
			c0.2-0.2,0.4-0.4,0.6-0.7c2.9-3.4,5.9-6.9,8.9-10.6c0.4-0.5,0.8-1,1.2-1.4c3-3.6,6-7.3,9.1-11.2c0.4-0.5,0.8-1,1.2-1.5
			c3.2-4,6.3-8.1,9.5-12.3c7.9-10.4,15.9-21.5,23.9-33.4h6.2h6.5h85.7V352.3H520z"/>
		<g>
			<g>
				<path class="st0" d="M368.5,242.4c-1.9,14.7-11.4,29.5-28.2,43.4l11.7,11.7l26.7-33.2c1.8-7.7,3.1-16.1,3.6-25.3
					C378,240.4,373.4,241.5,368.5,242.4z"/>
				<path class="st0" d="M400.3,231.9c-3.3,1.7-6.9,3.3-10.8,4.7c-0.4,12.2-2.2,23.1-4.7,32.9l6.2,6.4l23.5-18.4
					C406.1,250.6,401.9,241.6,400.3,231.9z"/>
			</g>
			<polygon class="st1" points="219.2,369.4 219.2,379.4 212.3,379.4 212.3,429.3 219.2,429.3 219.2,439.2 194.7,439.2 159.1,407.5 
				159.5,439.2 128.7,439.2 128.7,429.3 135.5,429.3 135.5,379.4 128.7,379.4 128.7,369.4 153.3,369.4 188.7,399.7 188.7,369.4 			
				"/>
			<polygon class="st1" points="514.2,369.4 507.1,369.4 507.1,369.4 483.6,369.4 483.6,394.1 454.4,400 454.4,369.4 430.9,369.4 
				430.9,369.4 423.7,369.4 423.7,379.4 430.9,379.4 430.9,416.3 483.6,405.1 483.6,429.3 430.9,429.3 430.9,439.2 507.1,439.2 
				507.1,439.2 507.1,429.3 507.1,379.4 514.2,379.4 			"/>
			<polygon class="st1" points="416.5,286.7 404.5,303.1 389.8,288.3 379.9,278.2 379.8,278.3 379.8,278.2 379.7,278.4 352.8,311.9 
				320.9,280.9 320.6,346.6 344.4,317 353.5,326.3 378.4,295.3 375.2,337.7 399.5,311.5 406.7,318.8 			"/>
			<polygon class="st0" points="288.9,311.9 261.8,278.2 237.3,303.3 225.1,286.7 234.9,318.8 261.1,292.6 261.1,292.7 268.7,341.2 
				280.6,316.9 288.1,326.3 320.8,293.7 320.9,280.9 			"/>
			<path class="st0" d="M302.7,395.1c-1.3-0.1-2.4-0.1-3.4-0.2c-21-1.8-44.1-12.1-44.1-12.1c12.6,11.6,26,15,32.2,16
				c-1,4.3-1.6,9.8,1.4,11.1c8.2,3.4,27.8-0.6,28.7-7.4C318.6,393.8,310.4,395.5,302.7,395.1z"/>
			<path class="st0" d="M311.4,424.1c-2.9,0.4-5.6,0.6-8,0.7c-21.1-2-44.3-12.6-44.3-12.6c13.1,12.4,27.2,15.7,32.9,16.5
				c-1.5,4.9-2.8,6.9,3.3,7.5c16.7,1.6,26.5-8.3,26.2-11.4C321.3,421.7,321.3,422.6,311.4,424.1z"/>
			<path class="st0" d="M309.5,449c-1.8,0.4-3.6,0.6-5.3,0.8l0.1,0c-21.3-1.8-45.1-12.7-45.1-12.7c13.4,12.7,27.9,15.8,33.3,16.6
				c-1.2,4.6-2.4,6.6,3.2,6.8c14.9,0.7,23.2-8.5,22.9-11.2C318.1,446.4,318.2,447.3,309.5,449z"/>
			<path class="st0" d="M309.5,471.2c-1.7,0.3-3.3,0.6-4.9,0.7c-16.7-1.6-35.2-10-35.2-10c9.2,8.7,19,11.7,24.3,12.8
				c-1.1,5-2.8,7.1,2.8,7.4c14.1,0.7,22-8,21.6-10.6C317.7,468.8,317.8,469.6,309.5,471.2z"/>
			<g>
				<path class="st0" d="M306.2,487.9l1.3,11.6c0,0,3.3,5.8,13.3,5.8l0.6-25.8C314.9,486,308.5,487.6,306.2,487.9z"/>
				<path class="st0" d="M320.9,505.3L320.9,505.3C320.9,505.3,320.9,505.3,320.9,505.3C320.9,505.3,320.9,505.3,320.9,505.3
					L320.9,505.3C320.9,505.3,320.9,505.3,320.9,505.3C320.9,505.3,320.9,505.3,320.9,505.3z"/>
			</g>
		</g>
		<path class="st1" d="M320.9,505.3l0.6-25.8c0,0,11.6-9.5-1-18.4c0,0,15.1-11.5,1.7-20c0,0,17.7-11.3,7.2-24.7c0,0,7.2,8,13.3,9.5
			l-8.5,73.6C334.2,499.5,330.2,505.9,320.9,505.3"/>
		<g>
			<path class="st0" d="M320.8,514.5C320.8,514.5,320.8,514.5,320.8,514.5C320.8,514.5,320.8,514.5,320.8,514.5
				c-8.5,0-12.3-2-15.8-7.5c-1.1,1.4-1.8,2.9-1.8,4.5c0,5.7,7.9,10.3,17.6,10.3c0,0,0,0,0,0C326.4,518,320.8,514.5,320.8,514.5z"/>
		</g>
		<path class="st1" d="M338.4,511.5c0-1.6-0.6-3.1-1.8-4.5c-3.8,5.5-7.3,7.5-15.8,7.5c0,0,0,0,0,0c0,0,5.7,3.5,0,7.3
			c0.4,0,0.8-0.1,1.2-0.1c1.3-0.1,3.5-0.3,5.9-0.8C334.1,519.2,338.4,515.7,338.4,511.5z"/>
		<g>
			<path class="st1" d="M368.2,526.1c16.6-18.5,35.5-41.5,54.9-69h-12.8c-15.2,21.1-29.9,39.2-43.3,54.6L368.2,526.1z"/>
			<path class="st1" d="M274.5,510.6c-13.2-15.2-27.6-33-42.4-53.6h-12.8c19.2,27.2,37.8,49.9,54.2,68.3L274.5,510.6z"/>
		</g>
		<g>
			<path class="st1" d="M499.1,310.7c-12.7-5.2-37.9-14.2-73.4-21.2l-3.1,10.1c31,6,54,13.6,67.5,18.8c-5.3,11.8-10.8,23-16.3,33.9
				h11.7c5.6-11.2,11.1-22.7,16.4-34.7l2.2-4.9L499.1,310.7z"/>
			<path class="st1" d="M219.1,299.7l-3.1-10.1c-35.2,7-60.2,15.9-72.8,21.1l-5,2l2.2,4.9c5.3,12,10.8,23.5,16.4,34.7h11.7
				c-5.6-11-11.1-22.2-16.3-33.9C165.6,313.2,188.4,305.7,219.1,299.7z"/>
		</g>
		<g>
			<path class="st0" d="M320.8,364.1C320.8,364.1,320.8,364.1,320.8,364.1c-39.1,0-71.9-11.5-81.6-27c-3.5-0.8-9.8-1.1-11.9,5.4
				c-0.2,1-0.4,1.9-0.4,2.9c0,20.1,42,36.5,93.9,36.5h0h0C333.1,371.7,320.8,364.1,320.8,364.1z"/>
			<path class="st1" d="M414.6,345.3c0-0.8-0.2-1.7-0.4-2.5c-1.9-6.9-8.4-6.6-11.9-5.8c-9.6,15.6-42.5,27-81.6,27
				c0,0,12.3,7.6,0,17.7h0C372.6,381.8,414.6,365.5,414.6,345.3z"/>
		</g>
		<path class="st0" d="M546.4,341.7h-21.4c5.2-11.2,10.3-22.6,15.1-34.6l3.5-8.5l-7.9-4.7c-2.1-1.2-37-21.3-100.8-34.3l-3.1,10.3
			c64.1,13,98.5,33.2,98.5,33.2c-7,17.2-14.4,33.6-21.9,49.3h5.9h5.9h26.3V457h-85.7h-6.5h-6.2c-8.1,11.9-16.1,23-23.9,33.4
			c-3.2,4.2-6.4,8.3-9.5,12.3c-0.4,0.5-0.8,1-1.2,1.5c-3.1,3.9-6.1,7.6-9.1,11.2c-0.4,0.5-0.8,1-1.2,1.4c-3,3.6-6,7.2-8.9,10.6
			c-0.2,0.2-0.4,0.4-0.6,0.7c-6.1,7.1-12.1,13.7-17.7,19.8c-0.2,0.2-0.3,0.3-0.5,0.5c-2.8,3-5.4,5.8-8,8.5c-0.2,0.2-0.4,0.4-0.6,0.6
			c-2.4,2.5-4.7,4.8-6.9,7.1c-1.7-24.3-6.5-94.8-6.1-95.1c17.3-11.6,25.9-45.1,26.3-46.5c1.5-3.3,4.6-15.5,4.6-21.5
			c0-0.7,0-1.3-0.1-1.9l0-0.1l-0.1-0.1c0,0-2.4-2.7-5.4-5.5c-3-2.7-6.2-5.5-8.6-5.6c-0.2,0-0.4,0-0.6,0.1c-9.2,2.8-18.4,4-18.4,4
			l-0.1,0l0,0c-2.6,0.8-5.1,1-7.4,1c-2,0-4-0.1-5.6-0.1c-1.6,0-3,0.1-4,0.7c-1.1,0.6-1.7,1.8-1.8,3.5c0,0,0,0.1,0,0.1
			c0.1,4.2,5.8,12.3,13.5,15.5c2.7,1.1,5.5,1.5,8.1,1.5c6.2,0,11.8-2.2,14.4-3.4c-3.4,6-8.1,12-12.1,16.8c-2.1,2.5-4,4.6-5.4,6.1
			l-9.1,64.3c0.9,0.9,2,2.3,2.9,3.9c2,2.8,3,6,3,9.3c0,7.2-4.7,13.1-12.1,16.6l-0.1,0.9c-0.2,4.6-0.8,14.7-1.5,22.1
			c2.1,2.7,3.3,6.1,3.3,9.8c0,9-7.2,16.2-16.2,16.4v22.3c-0.2,0.2-0.3,0.3-0.3,0.3s-0.4-0.3-1.1-0.8c-0.2-0.1-0.4-0.3-0.6-0.5
			c-0.3-0.2-0.6-0.5-0.9-0.8c-0.5-0.4-1.1-0.9-1.7-1.4c-0.4-0.3-0.9-0.7-1.3-1.1c-0.5-0.4-1.1-0.9-1.6-1.4c-0.8-0.7-1.7-1.4-2.6-2.2
			c-0.5-0.5-1.1-1-1.7-1.5c-1.1-1-2.3-2-3.5-3.1c-0.6-0.5-1.2-1.1-1.9-1.7c-1.4-1.2-2.8-2.5-4.3-3.9c-0.7-0.6-1.3-1.2-2-1.9
			c-1.1-1-2.2-2-3.3-3.1c-0.6-0.6-1.2-1.2-1.8-1.8c-1.9-1.8-3.8-3.6-5.8-5.6c-0.6-0.6-1.3-1.3-2-2c-2.1-2.1-4.2-4.2-6.4-6.4
			c-0.7-0.7-1.4-1.5-2.1-2.2c-2.2-2.3-4.5-4.7-6.8-7.2c-0.8-0.8-1.6-1.7-2.4-2.5c-2.3-2.4-4.6-5-7-7.6c-0.9-1-1.9-2-2.8-3.1
			c-1.5-1.7-3.1-3.5-4.7-5.3c-1.5-1.7-3-3.4-4.5-5.2c-1.9-2.2-3.9-4.5-5.8-6.9c-1.2-1.4-2.4-2.9-3.6-4.4c-2.3-2.7-4.6-5.6-6.9-8.4
			c-1.3-1.6-2.6-3.3-4-5c-2.2-2.7-4.3-5.5-6.5-8.4c-1.5-2-3.1-4.1-4.7-6.1c-7.4-9.8-14.9-20.3-22.5-31.5h-6.2h-6.5H96.7V352.3h25.6
			h5.9h5.9c-7.6-15.7-14.9-32.1-21.9-49.3c0,0,34.2-20.1,97.9-33l-3.1-10.3c-63.5,13-98.1,32.9-100.2,34.2l-7.9,4.7l3.5,8.5
			c4.9,12,10,23.4,15.1,34.6H96.7H86v10.6V457v10.6h10.6h92.1c18,26.2,35.3,48.1,50.1,65.5c42.3,49.5,74.4,74.1,75.7,75.1l6.4,4.9
			l6.4-4.9c1.3-1,33.4-25.6,75.8-75.1c14.9-17.4,32.2-39.3,50.2-65.5h92.9H557V457V352.3v-10.6H546.4z"/>
		<path class="st0" d="M361.8,236.2c-0.1-1.9-0.3-3.8-0.6-5.7c-4.1-21.7-21.6-26.4-54.8-33.6c-3.5-0.8-7.2-1.6-10.9-2.4
			c-2.2-0.5-4.7-1.2-7.2-1.9c-52.3-11.4-95.9-35.9-112.3-58.8c0,0-4.3,30.9,27.1,59.4C259.7,239.1,324.3,241.8,361.8,236.2z"/>
		<path class="st0" d="M307.9,190c31.9,6.9,55,11.9,60.2,39.2c0.4,1.9,0.6,3.9,0.7,5.8c5.4-1,10-2.2,13.8-3.4
			c0-6.3-0.3-12.9-1.1-19.8c-5.6-47.5-45.8-75.9-72.8-89.8c-13.6-6.6-33.4-14.2-55.9-17c-27.7-3.4-49.7-22.4-52.4-41.8
			c0,0-0.8,1.6-1.9,4.4c-9.2,24.3-4,51.7,13.2,71.1c22.8,25.7,60.9,43.4,85.2,48.9C300.7,188.5,304.4,189.3,307.9,190z"/>
		<path class="st0" d="M381.1,130.2c-5.4-3.6-11.1-6.8-17.2-9.4c-19.8-9.6-41.9-19.1-51.8-41.7c0,0-7.6,23,24.3,51.6
			c30.4,21.8,48.4,49.5,52,80.3c0.7,6.3,1.1,12.3,1.2,18c3.6-1.5,6.9-3.1,10-4.7c-0.5-13,2.4-26.6,5-38.4c0.9-4.4,1.8-8.5,2.5-12.2
			c1.8-10.2-2-19.6-6.7-26.9C394.6,140.5,388.1,134.9,381.1,130.2z"/>
		<path class="st0" d="M414,174.9c-0.7,3.9-1.6,8.1-2.5,12.5c-2.3,10.4-4.7,21.8-4.9,32.5c10.3-7,16.6-14.2,20.2-19.5
			c-2.2-12.3-6.5-23.9-12.5-34.5C414.5,168.9,414.5,171.8,414,174.9z"/>
		<path class="st0" d="M428,210.5c-5,5.7-11.8,12-21.1,17.7c1.1,9.7,5,18.4,13.5,24.9l3.4-2.7c3-9.9,4.6-20.3,4.6-31.1
			C428.4,216.3,428.3,213.4,428,210.5z"/>
		<path class="st0" d="M262.4,263.7l27.2,33.9l31.1-31.1v-0.1l0.1,0.1l0.1-0.1v0.1l14.3,14.3c12.1-9.9,23.3-22.6,26-37.2
			c-8.7,1.3-18.1,2-28.2,2c-36.8,0-81.1-9.8-121.2-37.2l-5.1-3.3c0,0,9.7,14.8,11.7,45.5l32.3,25.2L262.4,263.7z"/>
	</g>
	<path class="st0" d="M324,556.8l1.9-26c-1.6,0.2-3.2,0.3-5,0.3c-1.7,0-3.2-0.1-4.8-0.3l1.9,26c-1.3,0.9-2.2,2.4-2.2,4.1
		c0,2.9,2.3,5.2,5.2,5.2c2.9,0,5.2-2.3,5.2-5.2C326.1,559.2,325.3,557.7,324,556.8z"/>
</g>
</svg>
