<svg baseProfile="tiny" xmlns="http://www.w3.org/2000/svg" viewBox="0 0 650 650"><path fill="#211646" d="M613.8 339.7l-5 1.2-6.7 1c-3.4 9.4-9.9 15.6-10.2 27.1-7.6 8.1-17.2 14.6-28.2 17.4-11.4 2.8-18.7-.2-22.9-3.4-5.6-4.4-8.8-11.3-8.8-19.5 0-.9 0-1.6.1-2.5l-18.4 5c-11.1 2.9-14.9.1-17.6-2.8-4.6 7.7-13.7 11.1-20.4 12.9l-36.6 9.6c-5.4 1.5-8.6 1.4-11.9.5-4.2 3-8.4 4.9-11.7 5.8l-127.4 33.5c-8.8 2.5-14.2.6-18.1-2.6-.1 0 0 0 0 0-4.5 7.5-14.1 11.1-23.5 13.5l-103.4 27.2c-3.6 1-13.7 4.3-20.8-3.4l-2.7 3.7c-6.3 8.6-14.3 11.5-23.3 12.8-9.7 1.5-15-3-17.4-5.9-.6-.7-2.5 2.4-2.5 2.4-1.9 2.4-9 10.4-21.7 13.7l-13.3 3.5-21.2 5.8 6.7-20.9 24.2-75.7L18.6 379l-9.7 11.9 31.3 19.6L16 486.2 9.4 507l21.1-5.5 13.3-3.5c12.4-3.3 23.8-13.2 25.1-15 2.7 2.7 7.8 6.1 16.5 4.9 9-1.2 21.6-6.5 28-15.1 7 4.4 15.7 2.8 18.9 2l103.4-27.2c9.3-2.5 22.2-4.2 26.8-11.5v-.1c6.3 2.5 8.4 1.6 14.7.7l127.4-33.5c3.5-.9 7.6-2.7 11.7-5.8 3.3.9 6.4 1 11.9-.5l36.6-9.6c6.8-1.8 17.3-3.4 21.9-11.1 4.1 1.8 6.9 3 16.1 1l18.5-5s-.2 1.6-.2 2.5c0 8.2 3 15.1 8.8 19.5 4.2 3.2 11.4 5.9 22.9 3.4 21.9-4.9 39.5-20.7 49.7-42.3l.8-1.5 2.1-3.6c12.1-4.1 29.8-13.5 35.9-32.7-2.9 8.4-13.3 18.5-27.5 22.2zM82.6 362.3C65.9 344.5 54 321.8 49.5 296c-12.4-70.8 34.9-138.3 105.8-150.7 7.6-1.4 15.1-1.9 22.6-2-10-.6-20.3.1-30.6 1.9-35.8 6.3-67.1 26.1-88 55.9S30.5 267 36.7 302.8c4.1 23.5 14 44.9 28.8 62.9 8-1.5 13.9-2.6 13.9-2.6 1.1-.4 2.1-.6 3.2-.8z"/><path fill="#B3B2B1" d="M18.6 379v.1l4.5-5.6-4.5 5.5zm622.5-62v-.1c.1 0 0 0 0 .1z"/><path fill="#211646" d="M547 378.1c-5.6-4.4-8.8-11.3-8.8-19.5 0-.9 0-1.6.1-2.5l-18.4 5c-11.1 2.9-16.8-.8-19.6-3.7-4.6 7.7-11.6 12-18.5 13.8l-36.6 9.6c-5.4 1.5-8.6 1.4-11.9.5-4.2 3-8.4 4.9-11.7 5.8l-127.4 33.5c-11.1 2.9-17.4-1.5-20.1-4.4-4.5 7.5-12.1 12.9-21.5 15.4L149.3 459c-3.6.9-15 2.9-22.1-4.7l-2.7 3.7c-.7.9-1.4 1.8-2 2.6 7.1 7.6 17 4.3 20.7 3.4l103.4-27.2c9.3-2.5 18.9-6.1 23.5-13.5 0 0 0-.1 0 0 3.8 3.2 9.3 5.1 18.1 2.6l127.4-33.5c3.5-.9 7.6-2.7 11.7-5.8 3.3.9 6.4 1 11.9-.5l36.6-9.6c6.8-1.8 15.8-5.2 20.4-12.9 2.8 2.9 6.7 5.8 17.6 2.8l18.4-5c-.1.9-.1 1.6-.1 2.5 0 8.2 3 15.1 8.8 19.5 4.2 3.2 11.4 6.2 22.9 3.4 11.1-2.7 20.7-9.1 28.2-17.4v-.2c-5.8 5.8-13 10.2-22 12.5-11.4 2.7-18.8-.4-23-3.6z"/><path fill="#B3B2B1" d="M547 378.1c-5.6-4.4-8.8-11.3-8.8-19.5 0-.9 0-1.6.1-2.5l-18.4 5c-11.1 2.9-16.8-.8-19.6-3.7-4.6 7.7-11.6 12-18.5 13.8l-36.6 9.6c-5.4 1.5-8.6 1.4-11.9.5-4.2 3-8.4 4.9-11.7 5.8l-127.4 33.5c-11.1 2.9-17.4-1.5-20.1-4.4-4.5 7.5-12.1 12.9-21.5 15.4L149.3 459c-3.6.9-15 2.9-22.1-4.7l-2.7 3.7c-.7.9-1.4 1.8-2 2.6 7.1 7.6 17 4.3 20.7 3.4l103.4-27.2c9.3-2.5 18.9-6.1 23.5-13.5 0 0 0-.1 0 0 3.8 3.2 9.3 5.1 18.1 2.6l127.4-33.5c3.5-.9 7.6-2.7 11.7-5.8 3.3.9 6.4 1 11.9-.5l36.6-9.6c6.8-1.8 15.8-5.2 20.4-12.9 2.8 2.9 6.7 5.8 17.6 2.8l18.4-5c-.1.9-.1 1.6-.1 2.5 0 8.2 3 15.1 8.8 19.5 4.2 3.2 11.4 6.2 22.9 3.4 11.1-2.7 20.7-9.1 28.2-17.4v-.2c-5.8 5.8-13 10.2-22 12.5-11.4 2.7-18.8-.4-23-3.6z"/><path fill="#211646" d="M620 334.7l-9.9 2.6-.2 1.2-.9 2.4 4.7-1.2c14.2-3.7 24.7-13.7 27.4-22.7-3.3 6.7-9.9 14.8-21.1 17.7z"/><path fill="#B3B2B1" d="M620 334.7l-9.9 2.6-.2 1.2-.9 2.4 4.7-1.2c14.2-3.7 24.7-13.7 27.4-22.7-3.3 6.7-9.9 14.8-21.1 17.7z"/><path fill="#211646" d="M102.5 471.8c-9.7 1.5-15-3-17.4-5.9-.6-.7-.9-1.4-1.5-2.5l-3.4 4.9c-.2.5-.8 1.4-1.7 2.5.1 0 .2 0 .3.1 2.3 2.8 7.6 7.2 17.4 5.9 9-1.2 16.9-4.2 23.3-12.8l1.8-2.5c-5.4 6.1-11.2 9.3-18.8 10.3z"/><path fill="#B3B2B1" d="M102.5 471.8c-9.7 1.5-15-3-17.4-5.9-.6-.7-.9-1.4-1.5-2.5l-3.4 4.9c-.2.5-.8 1.4-1.7 2.5.1 0 .2 0 .3.1 2.3 2.8 7.6 7.2 17.4 5.9 9-1.2 16.9-4.2 23.3-12.8l1.8-2.5c-5.4 6.1-11.2 9.3-18.8 10.3z"/><path fill="#211646" d="M47.7 485.6l-21.1 5.5 6.7-20.9 24.2-75.7-34.2-21.2-4.5 5.5 32.4 20.8L27 475.3l-6.7 20.8 21.1-5.5 13.3-3.5c12.6-3.4 19.8-11.3 21.7-13.7 0 0 0-.1.1-.2-3 3.2-8 6.9-15.5 8.9l-13.3 3.5z"/><path fill="#B3B2B1" d="M47.7 485.6l-21.1 5.5 6.7-20.9 24.2-75.7-34.2-21.2-4.5 5.5 32.4 20.8L27 475.3l-6.7 20.8 21.1-5.5 13.3-3.5c12.6-3.4 19.8-11.3 21.7-13.7 0 0 0-.1.1-.2-3 3.2-8 6.9-15.5 8.9l-13.3 3.5z"/><path fill="#211646" d="M55.9 295.6c-12.4-70.8 34.9-138.3 105.8-150.7 3.8-.7 7.7-1.1 11.5-1.5-5.9.2-11.9.8-17.8 1.9C84.6 157.7 37.1 225.1 49.6 296c4.3 24.5 15.1 46.1 30.5 63.5 2.8-.7 4.9-1.2 5.4-1.4-14.9-17.2-25.4-38.5-29.6-62.5z"/><path fill="#B3B2B1" d="M55.9 295.6c-12.4-70.8 34.9-138.3 105.8-150.7 3.8-.7 7.7-1.1 11.5-1.5-5.9.2-11.9.8-17.8 1.9C84.6 157.7 37.1 225.1 49.6 296c4.3 24.5 15.1 46.1 30.5 63.5 2.8-.7 4.9-1.2 5.4-1.4-14.9-17.2-25.4-38.5-29.6-62.5z"/><path d="M622.4 298.7l12.2-37.5-96.7 25.5-15.1 4.1 5.3-17.5-21 5.5-10.6 2.8c-3.7 1.1-10.5 3.3-14.8 6.4l6.9-17-182.5 48.1c8-21.1 10.6-44.6 6.4-68.4-12.4-70.8-79.9-118.2-150.7-105.8C91 157.4 43.6 224.9 56 295.7c4.2 24.1 14.8 45.3 29.6 62.6-3.6.9-62.2 15.4-62.2 15.4l34.2 21.2-24.2 75.7-6.7 20.9 21.1-5.5 13.3-3.5c12.6-3.3 18.3-12 19.3-13.7l3.4-4.9c.6 1.1.9 1.7 1.5 2.5 2.3 2.8 7.6 7.3 17.4 5.9 9-1.2 15.6-5.5 21.9-14.1l2.7-3.7c7.1 7.7 18.5 5.8 22.1 4.7L252.8 432c9.3-2.5 16.8-7.9 21.5-15.4 0 0 0-.1 0 0 2.8 2.9 9 7.3 20.1 4.4l127.4-33.5c3.5-.9 7.6-2.7 11.7-5.8 3.3.9 6.5.9 11.9-.5l36.6-9.6c6.8-1.8 13.9-6.1 18.5-13.8 2.8 2.9 8.6 6.5 19.6 3.7l18.4-5c-.1.9-.1 1.6-.1 2.5 0 8.2 3.2 15.1 8.8 19.5 4.2 3.2 11.5 6.3 22.9 3.4 22.1-5.9 32.7-23.7 40-42.9l.2-1.2 9.9-2.6c14.3-3.7 21.2-16.1 23.1-22.8l5.5-20.1-26.4 6.4z"/><path fill="#B3B2B1" d="M446.4 299.1c2.7-.7 5.1-3.5 5.1-6.2s-2.1-4.3-5-3.6c-2.8.8-5.1 3.5-5.2 6.2.2 2.7 2.3 4.2 5.1 3.6zm0 0c2.7-.7 5.1-3.5 5.1-6.2s-2.1-4.3-5-3.6c-2.8.8-5.1 3.5-5.2 6.2.2 2.7 2.3 4.2 5.1 3.6zM332.2 318l-18 4.7 6.4 2.9-8.2 25.6 6.2-1.7 2.5-7.7.1-.1c6.1-2.9 20.1-11.2 20.2-20.1v-.2c0-3.5-1.8-4.4-4.4-4.4-1.4.2-3.1.6-4.8 1zm-5.3 6l1.9-.5c.9-.2 1.9-.6 2.8-.6.6 0 1.2.1 1.6.6.5.5.7 1.1.7 2v.5h-.3.3c-.3 5.8-7.6 10.4-11 12.2l-.7.3 4.7-14.5zm48.9 8.3s-4.5 1.7-3.5-1.6l1.8-5.6 4.4-1.1-2.7 8.3zm22.5-13.8l4.1-1-1.4 3.2-3.6 1 .9-3.2m75.7-23.2l-6.2 1.7-3.4 3.5-1.6-2.1-7.9 2.1 4.2 5.6-5 5.2-9.4 2.3 3.7-11.5-6.9 1.8-3.5 10.8c-.1.2-.1.5-.1.7l-7.5 1.8 2.6-8c.9-2.9-.2-3.7-1.5-3.4-2.4.6-3.8 1.8-5.2 3.3l-5.9 6.7 2.3-7.1-6.9 1.8-3.7 11.7-13.3 3.5c-1.1.3-2.9.5-2.3-1.8l.2-.8 9.6-2.4c1.1-1.1 2-2.5 2-4.2-.1-3.2-4.3-2.8-6.7-2.1l-26.3 7c-5.8 1.6-8.9 5.1-9.7 9.3-.2 1.4-.1 2.7.5 3.6l-7.5 2c.6-1.8 2.6-8 2.6-8 1.2-3.8-1.1-3.5-1.5-3.4-2 .6-3.4 1.4-5.1 3.4L349 335l6.1-18.9-6.9 1.8-8.6 26.9 4-1c1.6-.5 2.8-2 2.8-2l7.3-8.2-1.5 4.7c-.8 2.4-.2 3.3 1.8 2.7l8.1-2.1c1.2-.3 3.6-1.5 4.5-4.1 1.2 1.7 3.8 2.4 8.1 1.1 5-1.4 8.8-5 9.1-9.7.1-1.1-.5-2.9-1.2-3.4 0 0 8.2-2.3 8.5-2.4-1 1.5-1.8 3.3-1.8 5.2-.1 5.2 5.4 4.5 9.1 3.5l12.8-3.5 3.5-.9c1.6-.5 3.8-2.7 3.8-2.7l6.7-7.7-1.6 4.7c-.8 2.4-.1 3.3 2.3 2.6l14.1-3.5c.2 0 .5-.1.7-.2l9.8-2.4c.2-.1.6-.2.9-.3l4.7-1.2 5.1-5.2 2.4 3.3 7.7-2-4.7-6.7 7.4-8.1m-98.2 37s-4.5 1.7-3.5-1.6l1.8-5.6 4.4-1.1-2.7 8.3zm22.5-13.8l4.1-1-1.4 3.2-3.6 1 .9-3.2m75.7-23.2l-6.2 1.7-3.4 3.5-1.6-2.1-7.9 2.1 4.2 5.6-5 5.2-9.4 2.3 3.7-11.5-6.9 1.8-3.5 10.8c-.1.2-.1.5-.1.7l-7.5 1.8 2.6-8c.9-2.9-.2-3.7-1.5-3.4-2.4.6-3.8 1.8-5.2 3.3l-5.9 6.7 2.3-7.1-6.9 1.8-3.7 11.7-13.3 3.5c-1.1.3-2.9.5-2.3-1.8l.2-.8 9.6-2.4c1.1-1.1 2-2.5 2-4.2-.1-3.2-4.3-2.8-6.7-2.1l-26.3 7c-5.8 1.6-8.9 5.1-9.7 9.3-.2 1.4-.1 2.7.5 3.6l-7.5 2c.6-1.8 2.6-8 2.6-8 1.2-3.8-1.1-3.5-1.5-3.4-2 .6-3.4 1.4-5.1 3.4L349 335l6.1-18.9-6.9 1.8-8.6 26.9 4-1c1.6-.5 2.8-2 2.8-2l7.3-8.2-1.5 4.7c-.8 2.4-.2 3.3 1.8 2.7l8.1-2.1c1.2-.3 3.6-1.5 4.5-4.1 1.2 1.7 3.8 2.4 8.1 1.1 5-1.4 8.8-5 9.1-9.7.1-1.1-.5-2.9-1.2-3.4 0 0 8.2-2.3 8.5-2.4-1 1.5-1.8 3.3-1.8 5.2-.1 5.2 5.4 4.5 9.1 3.5l12.8-3.5 3.5-.9c1.6-.5 3.8-2.7 3.8-2.7l6.7-7.7-1.6 4.7c-.8 2.4-.1 3.3 2.3 2.6l14.1-3.5c.2 0 .5-.1.7-.2l9.8-2.4c.2-.1.6-.2.9-.3l4.7-1.2 5.1-5.2 2.4 3.3 7.7-2-4.7-6.7 7.4-8.1"/><path fill="#fff" d="M575.8 357.4c-2.3-1-3.8-3.2-3.8-6 0-6.2 5.8-16.3 11.7-17.8l-7.9 23.8zm-393 69.5l-20.1 5.3 15.8-45.7c5.1-14.7-6.1-13.9-7.6-13.5-8.4 2-9.8 4.6-16 12.4l-25.4 32.2 12.9-36.6c5.1-14.6-5.3-13.8-6.8-13.3-11.3 2.9-15 8.4-20.8 16.6l-28.5 39.6 14.1-44.6c3.8-11.9-1.5-12.4-7.8-10.7l-36.6 9 19.4 11.3-26.9 84 13.3-3.5c8.5-2.3 12-8.1 12-8.1l40.6-59.8-16.1 46.2c-2.3 6.4-1.8 12.6 6.3 11.4 5.5-.8 9.5-3.2 14-9.4l32.6-44.5-11 31.4c-2.6 7.5-2.7 13 9.7 9.7l62.1-16.4 2.8-.8 38.5-10.2c7-1.8 14.5-7.2 16.5-14.9l9.3-26.2 14-3.7-7.5 23.4c-2.5 7.9.7 12.6 9.1 10.4l59.7-15.7 8.7-2.3 47.3-12.4 4.1-1 7.6-2c3.4-.9 10-4.1 13.9-9.8 0 4.2 4.4 5.1 9.7 3.6l36.6-9.6c4.3-1.1 11.9-5.5 13.9-14.2l8.4-26 14-3.7-7.5 23.4c-2.4 7.9.7 12.6 9.1 10.4l36.6-9.6 5-1.4c-5 4.9-8.2 13-8.2 20 0 8.1 4.9 14.3 16.6 11.3 19.3-5.1 27.8-23.9 34-42.5l16-4.3c11.5-3 14.6-14.3 14.6-14.3l-27.3 7.2 12.2-37.5-23.8 6.2-12.2 37.5-5.2 1.4-8.2 2.1 12.3-37.5-23.9 6.3-10.6 30.8c-.9 2.8 2.4 5.4 4.3 4.9l-20.3 5.6 12-37.5-36.5 9.6 5.5-17.5-10.6 2.8c-9.1 2.5-21 9.6-21 20.7 0 5.5 3.7 9.3 9.1 9l-8.7 26.1-22 5.8 12-37.5-23.6 6.2-12.3 37.4-6 1.6-7.5 1.9 12.3-37.5-23.9 6.3-11.1 33.3c-.5 1.5-.8 2.8-.9 4.2l-21.9 5.8-18.2 4.7c-7 1.8-10.8 0-8.5-6.9l5.1-15.9 8-2v1.6c-.1 7 6 11 13.3 9 7.5-1.9 13.5-9.1 13.5-16s-6.1-10.7-13.5-8.7l-16.6 4.4c-15.8 4.2-33.1 16.3-35 33.5-.5 4.2.3 7.2 1.9 9.5l-21 5.5 12-37.5-36.5 9.6 5.5-17.5-10.6 2.8c-9.1 2.5-21.1 9.6-21.1 20.7 0 5.5 3.8 9.3 9.1 9l-8.6 26.1-23.6 6.2-19.4 5.1c-4 1-10.3 1.5-8.1-5.6l6.5-17.5 13.9-3.6-5.8 12.9-11.9 2.9-1 3.3 23.1-6v-.1l10.3-2.7c4-3.6 7-8.2 6.8-13.5-.6-10.3-15.1-8.9-23.5-6.8l-9.6 2.5c-15.2 4.1-33.3 16.5-33.3 34.3.2 3.4 1.1 6.2 2.6 8.1"/><path fill="#D35E13" d="M117.6 361.5c2.9-1.7 6.4-3 10.8-4.2 4.1-1.1 12.5-1.2 18.5 5.2 1.6 1.7 2.7 3.3 3.6 6.4 3.3-2.9 6.9-4.9 13.3-6.4 4-1 13-1.2 19.1 5.4 2.7 2.9 5.3 7.1 4.7 14.3 6.1-4.1 12.4-6.5 19.1-8.2l9.6-2.5c5.1-1.4 13.3-2.6 20.7-1.4l4.4-2.8c2.8-13.8 16-22.7 29.4-26.1l10.6-2.8 1.6-.2c6.8-9.3 12.3-19.8 16.1-31.2 20.8-60.9-11.9-127-72.7-147.7-60.9-20.7-127 11.9-147.7 72.7-16.5 48.3.7 99.9 38.9 129.5z"/><path fill="#B3B2B1" d="M343.7 179.1l10.6-12.3c-232 28.5-349.1 121-349.1 121l.9-.6c9.5-7.1 121.6-88.4 337.6-108.1z"/><path d="M302.4 219.3c2.8 4.6 2.5 5.1 2.5 5.1l.2-.1 38.7-45.2C117.8 199.7 5.5 287.8 5.5 287.8s54.4-26.8 89.4-37.6c75.7-23.3 199.3-44.5 207.5-30.9zm8.8 41.6c3.2 5.3 3 7.3 3 7.3l.7-.3 43-48.9C119.4 240.8 1 333.7 1 333.7s57.5-28.2 94.5-39.6c78.3-24.2 206.3-49 215.7-33.2z"/><path fill="#B3B2B1" d="M366.4 251c-175.7 21.1-281.8 72.6-327.7 99.8 45.5-26.1 147.8-72.7 317.2-88.2l10.5-11.6z"/><path d="M307.3 304.7l-1.9 13.9.2-.1 50.2-55.9C116.1 284.4 10.7 369 10.7 369s45.2-23.6 81.9-34.8c78.7-24.1 205.4-45.4 214.7-29.5z"/><path fill="#B3B2B1" d="M368.1 207.6c-242.2 28.3-367 126.1-367 126.1S119.6 240.8 358 219l10.1-11.4z"/></svg>