<?xml version="1.0" encoding="UTF-8" standalone="no"?>
<svg xmlns:rdf="http://www.w3.org/1999/02/22-rdf-syntax-ns#" xmlns="http://www.w3.org/2000/svg" height="156.2392" width="328.51518" version="1.1" xmlns:cc="http://creativecommons.org/ns#" xmlns:dc="http://purl.org/dc/elements/1.1/" viewBox="0 0 328.51518 156.2392"><path d="M244.90765,9.09214a2.70159,2.70159,0,0,0,1.26277-.53166A3.58353,3.58353,0,0,0,247.23378,7.63a3.20246,3.20246,0,0,0,.79753-1.12985,6.398,6.398,0,0,0,.46522-1.19628V4.10759a1.58779,1.58779,0,0,0-.46522-.864,1.73992,1.73992,0,0,0-.864-.39875,3.58965,3.58965,0,0,0-1.19627,0,4.40756,4.40756,0,0,0-1.26276.59813,12.13793,12.13793,0,0,0-1.06338.864,5.42275,5.42275,0,0,0-.73107,1.12982,4.45354,4.45354,0,0,0-.46523,1.19627v.0665a3.22091,3.22091,0,0,0,0,1.12982,1.58821,1.58821,0,0,0,.46523.864,1.54621,1.54621,0,0,0,.864.46521A2.27131,2.27131,0,0,0,244.90765,9.09214ZM244.376,11.95a6.33,6.33,0,0,1-2.459.13292,3.66546,3.66546,0,0,1-1.79445-.73108,3.41,3.41,0,0,1-.99692-1.5286A4.7458,4.7458,0,0,1,239.05913,7.63V7.56354a7.72323,7.72323,0,0,1,.93044-2.39259,8.38718,8.38718,0,0,1,1.66152-2.12672,10.92258,10.92258,0,0,1,2.19318-1.728A7.70234,7.70234,0,0,1,246.50271.25289a6.46778,6.46778,0,0,1,2.459-.19937A4.08371,4.08371,0,0,1,250.75619.851a3.60708,3.60708,0,0,1,.99692,1.5286,4.7899,4.7899,0,0,1,.06646,2.19322v.06646a7.72373,7.72373,0,0,1-.93045,2.39259,12.70956,12.70956,0,0,1-1.66152,2.19318,13.95566,13.95566,0,0,1-2.19319,1.728A12.83652,12.83652,0,0,1,244.376,11.95Zm-10.966-8.30759c1.12986-.33232,2.19322-.59815,3.323-.864-.6646,3.72178-1.32919,7.51005-2.12674,11.29829-1.06336.26587-2.12674.5317-3.25656.864C232.01428,11.15244,232.67891,7.43062,233.40994,3.64238Zm-15.08657,3.8547a25.8941,25.8941,0,0,1,3.05721-.79749l3.85471,4.71868c.33229-1.9938.66461-3.92119,1.06336-5.98145,1.06338-.26587,2.12674-.5317,3.19012-.864-.59815,3.78827-1.26275,7.57651-2.06026,11.2983-.93045.1994-1.92737.53169-2.85782.73107-1.32922-1.595-2.65843-3.25654-3.98766-4.91806-.39875,2.06026-.731,4.187-1.12982,6.24729-1.06336.26583-2.12674.53166-3.1901.864C216.9277,15.00717,217.59232,11.2189,218.32337,7.49708ZM206.9586,18.729a3.622,3.622,0,0,0,1.26275-.5317c.39877-.33229.73108-.59812,1.06337-.93045a4.11391,4.11391,0,0,0,.73107-1.12982,2.65547,2.65547,0,0,0,.46522-1.19631v-.06646a3.2256,3.2256,0,0,0,0-1.12982.81722.81722,0,0,0-.46522-.73107,1.15856,1.15856,0,0,0-.79753-.39875,3.606,3.606,0,0,0-1.19628,0,3.70488,3.70488,0,0,0-1.26275.59813,3.58294,3.58294,0,0,0-1.06338.93044,6.347,6.347,0,0,0-.79753,1.0634,4.63322,4.63322,0,0,0-.39877,1.26273,3.20225,3.20225,0,0,0,0,1.12986,1.03584,1.03584,0,0,0,.39877.79749,2.05939,2.05939,0,0,0,.864.39878A2.51255,2.51255,0,0,0,206.9586,18.729Zm-.5317,2.85779a6.71363,6.71363,0,0,1-2.52548.19937,4.85547,4.85547,0,0,1-1.79445-.731,5.07479,5.07479,0,0,1-.99691-1.52861,5.86832,5.86832,0,0,1-.06646-2.19321,8.13081,8.13081,0,0,1,.93045-2.39259,10.99962,10.99962,0,0,1,1.66152-2.25964,11.32357,11.32357,0,0,1,2.25965-1.728,8.44183,8.44183,0,0,1,2.65844-1.12986,6.37666,6.37666,0,0,1,2.459-.19937,3.62363,3.62363,0,0,1,1.79443.66461,4.67819,4.67819,0,0,1,.99692,1.52857,5.57642,5.57642,0,0,1,.06646,2.12676v.06646a8.13031,8.13031,0,0,1-.93045,2.39258,13.14534,13.14534,0,0,1-1.66151,2.25968,12.44481,12.44481,0,0,1-2.32613,1.728A6.76137,6.76137,0,0,1,206.4269,21.58675Zm-14.3555-4.65223c-1.19627.33229-2.32611.59812-3.58886.93045.13291-.93045.33229-1.79444.46522-2.72492l10.43433-2.72487c-.19938.93048-.39877,1.86092-.5317,2.79137-1.1963.33229-2.32611.59812-3.58887.93044q-.79752,4.2867-1.59506,8.57342c-1.12982.33229-2.19321.5317-3.25657.864C191.008,22.65015,191.47325,19.79232,192.0714,16.93452Zm-17.4127,1.86089c.99692-.33232,2.06028-.53169,3.12366-.79753l3.78826,4.78518c.33231-1.99384.6646-3.92119,1.06336-5.98149,1.06338-.33229,2.1932-.53166,3.25659-.864-.66461,3.78824-1.32922,7.57651-2.12675,11.2983a22.54482,22.54482,0,0,1-2.8578.731c-1.32922-1.6615-2.65843-3.323-3.98765-4.91808-.39878,2.06027-.66461,4.12057-1.06337,6.24731-1.06337.26583-2.1932.53168-3.25656.864C173.263,26.30547,173.92763,22.5172,174.6587,18.79541Zm-9.50388,8.83927c-.19937-.99689-.46522-1.99382-.6646-2.92427-.59815,1.19631-1.26276,2.32613-1.92736,3.52241Zm-1.52858-6.2473c1.06336-.26584,2.12674-.46521,3.12364-.73108.9969,3.3895,1.99382,6.779,2.92427,10.16848l-3.52241.864a13.12742,13.12742,0,0,0-.5317-1.728c-1.52858.39875-3.05718.6646-4.58578,1.06336-.39877.73106-.79752,1.5286-1.19628,2.25968a32.00815,32.00815,0,0,1-3.456.731C158.84106,29.76142,161.23365,25.64086,163.62624,21.38738Zm-25.388,5.71562,2.99072-.59816c1.26276,1.66152,2.52551,3.25658,3.78826,4.9181.33231-2.06028.6646-3.98765,1.06336-5.98146,1.06338-.19937,2.12676-.4652,3.19012-.73107-.6646,3.72178-1.32921,7.57652-2.06028,11.29831-.99691.19938-1.92735.46523-2.8578.59816-1.26277-1.66152-2.65843-3.38951-3.92118-5.11748-.39877,2.06028-.73107,4.12056-1.12983,6.18084l-3.19012.6646C136.909,34.67951,137.57365,30.82478,138.23826,27.103Zm-9.30451,8.44048c-.19938-.9969-.53168-1.92734-.73106-2.92425-.59814,1.1963-1.26276,2.25966-1.92736,3.456C127.13932,35.94227,128.0033,35.74288,128.93375,35.54348Zm-1.59505-6.44667c1.06337-.13292,2.06029-.39877,3.12366-.53168.93044,3.45595,1.99381,6.97835,2.85779,10.36786-1.12982.19938-2.32611.46523-3.45594.6646l-.46522-1.79443-4.51933.864-1.1963,2.19321c-1.06337.19937-2.25966.39875-3.3895.59814C122.62,37.33793,124.94612,33.21737,127.3387,29.09681ZM113.249,42.78771a10.21331,10.21331,0,0,1-2.85781,0,4.774,4.774,0,0,1-2.25967-1.06338l2.1932-2.32611a4.58873,4.58873,0,0,0,3.52243.73107,2.23336,2.23336,0,0,0,1.06337-.33231,1.12374,1.12374,0,0,0,.46522-.66461v-.33229a.71057.71057,0,0,0-.33232-.19939c-.1329-.06646-.33229-.06646-.53168-.13292s-.59814-.06647-.99691-.13293c-.59815-.06644-1.12983-.06644-1.59505-.13292a2.79225,2.79225,0,0,1-1.26276-.46522,1.31481,1.31481,0,0,1-.73106-.864,3.12674,3.12674,0,0,1-.06646-1.39567v-.06645a7.27563,7.27563,0,0,1,.59814-1.52862,3.85889,3.85889,0,0,1,1.06337-1.26274,9.15287,9.15287,0,0,1,1.59506-.93046,5.94656,5.94656,0,0,1,1.92735-.59814,11.53537,11.53537,0,0,1,2.592-.06646,5.60851,5.60851,0,0,1,1.92735.79753c-.6646.864-1.3292,1.66152-2.06027,2.459a3.80413,3.80413,0,0,0-1.52859-.53168,2.97948,2.97948,0,0,0-1.5286,0,1.94024,1.94024,0,0,0-.93046.33229,1.1955,1.1955,0,0,0-.39876.59815.98769.98769,0,0,0,.06646.39875.45166.45166,0,0,0,.26584.19939,2.46545,2.46545,0,0,1,.59815.13294c.19938.06645.53168.06645.93045.13289a6.85816,6.85816,0,0,1,1.728.1994,3.56318,3.56318,0,0,1,1.1963.39876,1.20988,1.20988,0,0,1,.66461.864,2.03028,2.03028,0,0,1,.06646,1.26277v.06644a4.98656,4.98656,0,0,1-.59815,1.66152,4.31333,4.31333,0,0,1-1.19629,1.26275,5.3105,5.3105,0,0,1-1.59506.93044A11.366,11.366,0,0,1,113.249,42.78771Z" fill="#2e2a25"/><path d="M111.91981,96.62087a45.08927,45.08927,0,0,0-2.0603-5.51623l6.57961,3.12365-3.12364,17.14687A41.67236,41.67236,0,0,0,111.91981,96.62087ZM303.85828,92.168,325.458,54.219,288.83814,77.015,278.07152,59.27c-.06646-.46523-.26583-.99691-.39877-1.52859a27.65918,27.65918,0,0,0-2.19319-5.64916l7.17775,3.19011,8.83928-49.048-10.102,1.728c-11.96291,2.12676-25.05567,4.9181-40.07578,8.507l-4.51933,1.0634-.46523,2.79133a16.54334,16.54334,0,0,0-9.90264-.26583c-8.77281,2.19318-17.745,4.51931-26.45136,6.84545l-8.77281,2.25965-3.98763,22.065-.19939-21.00159-8.83927,2.25968c-6.04791,1.52858-11.43123,2.85781-16.48224,4.12056l-7.04485,1.728c-14.55487,3.38949-27.31533,5.98145-38.94595,7.97527l-3.65534.53169a307.23955,307.23955,0,0,1-37.949,3.85473l-5.78208.19937L64.66624,70.70121a39.41,39.41,0,0,0,1.12985,18.47607c0,.06645.06644.13293.13292.26585-.99692-.59816-1.66152-1.06338-1.66152-1.06338l-2.32613-1.52859-9.238,50.64305,8.9722-.39877c1.595-.06647,3.25656-.06647,4.85163-.19939L0,155.2392,251.22141,114.964,234.93855,145.2701l36.354-24.39106,13.558,24.05877,7.70943-33.895h35.95523Z" fill="#fff"/><path d="M110.52414,117.02432a43.205,43.205,0,0,0-.73107-19.87175,35.04243,35.04243,0,0,0-4.7187-10.23493l3.78826,1.79443,6.2473,2.85781L118.3,74.02426h.06648c1.12982-.26584,2.32611-.46524,3.58888-.66461l-9.90266,54.56422-3.7218.99692ZM301.1334,92.6997l18.7419-32.898L287.97418,79.607,276.07771,60.06751c-.13291-.59815-.26583-1.19629-.39876-1.728a32.18176,32.18176,0,0,0-5.11747-10.36787c1.46213.59814,2.92427,1.19629,4.31994,1.92735l6.11439,2.72489,8.04173-44.06343-7.51,1.32922C269.631,11.95,256.53827,14.74134,241.58461,18.33021l-3.323.73107-.79753,4.25348a7.95776,7.95776,0,0,0-1.39567-.864,11.50241,11.50241,0,0,0-5.051-1.12982,18.20394,18.20394,0,0,0-4.38641.59812c-8.77281,2.25968-17.745,4.51935-26.38489,6.84546l-4.32,1.1963-3.25656.864-7.37714,40.40811c-.06648-11.23186-.19937-21.59972-.33231-31.76822l-.06646-6.71253-6.51315,1.728c-6.11437,1.5286-11.4977,2.85781-16.61517,4.12056l-2.79134.66462v.13291l-4.31995.99692c-14.48844,3.3895-27.31535,6.04792-39.01243,7.97528l-1.79443.26584-1.79445.3323a322.02929,322.02929,0,0,1-38.2149,3.85472l-4.25348.19939-3.323,18.21023A36.61,36.61,0,0,0,67.32469,88.845,38.601,38.601,0,0,0,69.8502,94.76L62.93828,90.1742l-8.24113,45.45912,6.57961-.26585c9.10512-.39877,18.47607-1.1963,28.44519-2.52551L19.80529,150.78635,254.41153,112.505,239.9231,139.488l31.76822-21.26741,12.1623,21.59972L290.832,109.182h31.90115Z" fill="#2e2a25"/><path d="M282.1921,14.01024c-11.83,2.06029-24.78983,4.85163-39.74348,8.4405l-.66461.13291-2.65843,14.75428A27.01772,27.01772,0,0,0,240.189,52.15867a22.50347,22.50347,0,0,0,7.70944,10.36787l.19938.13292c2.65844,2.06028,4.85163,7.04483,5.11747,11.89645-.864.13293-1.728.39877-2.592.5317l.93045-5.18394-.73107-.39877c-4.78516-2.06028-9.6368-4.12056-15.0201-6.31376l-1.19629-.53168-6.11439,33.96141,1.59506-.39876c14.82072-3.52243,27.71409-6.2473,39.47765-8.30759l.73105-.06647,1.92737-10.6337a40.095,40.095,0,0,0-.59814-17.87793,27.27538,27.27538,0,0,0-8.57344-13.35859l-.13291-.06646a13.86041,13.86041,0,0,1-4.65226-10.63372l2.72489-.59815-.73107,4.25349.73107.33231c5.38332,2.1932,10.63372,4.3864,15.55179,6.57959l1.1963.59816,5.915-32.7651ZM212.60775,46.37659c1.19629-.3323,2.32613-.59815,3.58888-.93046l-2.12674,11.63062c-1.19629.33231-2.32613.66461-3.58888.93046Zm11.36479,22.796a15.60774,15.60774,0,0,0,8.63987-11.29833l4.32-23.72646c.46522-2.92427.13292-5.18393-1.12982-6.64607a6.05264,6.05264,0,0,0-4.78518-1.99381,16.514,16.514,0,0,0-3.38951.46524c-8.70633,2.19318-17.61207,4.51929-26.18551,6.779L196.192,34.08136l-13.49153,74.36951,5.915-1.5286c4.32-1.06336,8.70636-2.25966,13.09276-3.38949l.66461-.13292,3.25658-18.34315a44.307,44.307,0,0,1,2.25966,12.89338l.06645,3.92117,1.26276-.33231c6.31376-1.66152,11.96292-3.05718,17.14687-4.31994l.79751-.19937v-.864c0-.59814.06648-14.68781-.93045-19.14068A51.86339,51.86339,0,0,0,223.97254,69.17261ZM162.56286,86.38592l1.92735-7.04483v6.51315C164.025,85.98716,162.96162,86.31946,162.56286,86.38592Zm18.0773-46.9877V38.069l-1.26276.39876c-6.11437,1.52859-11.56414,2.8578-16.54871,4.12057l-.59814.13291-.13291.53168q-13.4583,37.78291-26.91659,75.43289l-.59814,1.728,1.79444-.46523c5.25038-1.12983,10.76663-2.459,16.68163-3.85473l.53168-.13291,4.31995-12.89338c1.66152-.39876,3.25656-.73107,4.85162-1.19629l-.19937,11.89647,1.32921-.39877c6.04793-1.5286,12.1623-3.12366,16.74809-4.32l.79753-.19938v-.864C181.1054,85.12317,180.83955,62.32715,180.64016,39.39822ZM153.32483,61.79547l.66459-.13293L157.17954,43.984l-1.59506.39877c-14.62135,3.38949-27.51472,6.04791-39.34472,8.04174l-.66461.06645L112.385,70.16951l1.46214-.26584c3.05718-.46523,6.31376-1.06337,9.57034-1.66152l-10.235,56.6245,1.52861-.26583c5.38331-1.06338,11.23185-2.25967,17.14685-3.58888l.66461-.13292,10.23494-56.6245C146.14706,63.52345,149.66949,62.65946,153.32483,61.79547Zm-40.7404-8.83928A328.77608,328.77608,0,0,1,73.9043,56.87738l-.864.06645L70.31542,71.89749a32.26622,32.26622,0,0,0,.93046,15.55181,29.27429,29.27429,0,0,0,7.57651,12.1623c2.65843,2.592,4.71871,7.90882,4.98455,12.82692-.864.13291-1.66151.19937-2.592.33229l.9969-5.25039-.59814-.39876c-4.91809-2.92427-9.83618-5.98147-14.48843-9.10512L65.7961,97.0861l-6.11439,33.9614h1.26276a331.34226,331.34226,0,0,0,38.8795-3.98763l.73107-.06646,1.92736-10.70018a40.51079,40.51079,0,0,0-.59815-17.94438,31.37128,31.37128,0,0,0-8.507-14.08967,15.8317,15.8317,0,0,1-4.58579-11.36479c.93045-.06645,1.79445-.13291,2.65843-.26583l-.73107,4.31994.66461.33231c4.91809,2.592,10.102,5.18394,15.41888,7.643l1.19629.59816,5.915-32.76513Z" fill="#8b8d8d"/><path d="M67.59054,101.8048l2.25966,1.46214c2.72489,1.79444,5.51623,3.58889,8.30759,5.2504l1.06337.6646-1.06337,6.31376c2.72488-.26583,5.51624-.53168,8.374-.864.59815-6.11438-1.66152-13.62443-5.38332-17.21332l-.06645-.13291A28.26978,28.26978,0,0,1,73.04031,71.5652l2.19321-12.09584h1.46213c10.102-.5317,20.46989-1.59506,31.83467-3.25658l2.5255-.39876-4.65224,25.388-2.12674-.99692c-3.12365-1.52859-6.24731-3.05719-9.17158-4.51932l-1.12983-.59815.93045-5.38332c-2.85781.39877-5.64916.66462-8.374.864-.79753,6.44669.864,12.09584,4.78517,15.88412a30.09157,30.09157,0,0,1,8.04175,13.49151,38.3,38.3,0,0,1,.59814,17.01394l-1.46213,7.7759-1.26276.13292c-11.36478,1.728-21.86557,2.79135-31.96759,3.323l-2.25966.06646Z" fill="#fff"/><path d="M64.93211,126.39525c1.26276-7.17775,2.65843-14.422,3.92118-21.59972,2.79135,1.79445,5.5827,3.58888,8.44051,5.31686-.46522,2.459-.93045,4.91809-1.32921,7.4436,3.98764-.39877,8.1082-.79753,12.22877-1.26276,1.26275-7.04483-1.46215-16.017-5.915-20.27051-6.04792-5.71561-9.17157-14.55489-7.4436-24.12523.66461-3.58887,1.26275-7.11129,1.99383-10.70017,10.50078-.53169,21.20095-1.66152,31.90113-3.25656-1.19629,6.84544-2.45906,13.6909-3.7218,20.53634-3.12366-1.46213-6.11439-2.92427-9.10512-4.45287l1.12983-6.44668c-4.12056.53168-8.1082.93045-12.22877,1.26275-1.32921,7.51006.53169,14.3555,5.18394,18.87483,7.17776,6.97838,10.16848,17.27979,8.1082,28.91041-.39876,2.1932-.73106,4.31994-1.12983,6.51315C86.13307,124.66728,75.49936,125.93,64.93211,126.39525Z" fill="#2e2a25"/><path d="M126.60763,65.052c-2.85781.59815-5.71562,1.06338-8.44051,1.59506l-2.592.46522,2.19321-12.42813,1.19629-.1994c9.90264-1.728,20.53636-3.85471,32.29989-6.57961l2.72488-.59813-2.32611,12.4946-1.12984.26584c-3.38949.79753-6.84544,1.59505-10.102,2.25967l-10.23494,56.6245-1.12984.19939c-3.45595.73106-6.91191,1.46213-10.16848,2.06028l-2.65842.53168Z" fill="#fff"/><path d="M138.96932,60.73209c-3.3895,18.80839-6.84545,37.74968-10.23495,56.62452-3.323.6646-6.779,1.39567-10.16849,2.06028,3.3895-18.87484,6.84545-37.74967,10.23495-56.62452-3.65534.73108-7.37714,1.39569-10.966,2.06029.53168-2.8578,1.06337-5.78209,1.59505-8.57342,10.70017-1.86091,21.53326-4.187,32.2999-6.64607-.46523,2.85781-1.06338,5.78208-1.5286,8.63989C146.41291,59.07057,142.69111,59.8681,138.96932,60.73209Z" fill="#2e2a25"/><path d="M160.23674,88.31329c1.728-.39877,3.65533-.864,5.44978-1.26275l.13291-15.286Zm3.323-42.66777.33229-.93044.99692-.19938c3.38949-.864,6.9119-1.66152,10.76663-2.65844l2.1932-.59814.06646,2.32614c.39876,18.67543,1.12983,63.46994,1.12983,63.46994l-1.12983.26585c-3.78826.9969-7.04484,1.86091-10.16848,2.65842l-2.25967.59816L165.62,98.68116c-3.323.864-6.44667,1.59506-9.50386,2.32613-1.32923,3.98763-4.32,12.89337-4.32,12.89337l-.93045.19938c-3.456.864-6.91192,1.595-10.16849,2.39258l-2.65842.59814C137.97241,117.15724,154.7205,69.90368,163.55978,45.64552Z" fill="#fff"/><path d="M167.81326,60.20041,157.44539,90.90525c3.38949-.864,6.64607-1.59506,10.03556-2.5255Zm-.53168,47.98461.13291-11.89645c-4.25348,1.06336-8.507,2.12674-12.82691,3.19012-1.46214,4.31993-2.85781,8.63987-4.31994,12.89337-3.323.864-6.71254,1.595-10.102,2.39257,0-.06646,0-.13291.06646-.13291q12.46137-34.09434,24.98923-68.38806l10.76661-2.65842,1.32923,61.80844a.20583.20583,0,0,1-.06646.13292C173.92765,106.39059,170.60461,107.321,167.28158,108.185Z" fill="#2e2a25"/><path d="M207.29091,61.26379c3.38949-.864,6.31376-1.59506,9.03864-2.25966l3.0572-16.74808c-2.72489.66459-5.64916,1.46212-9.03866,2.32611ZM198.5181,36.00872l1.92735-.46522c8.63989-2.25965,17.61209-4.65224,26.31844-6.84544a8.67826,8.67826,0,0,1,2.72488-.46522,4.46355,4.46355,0,0,1,3.7218,1.59506c.9969,1.19627,1.26275,2.92426.93045,5.38331l-4.31994,23.72647a10.80086,10.80086,0,0,1-2.79136,5.7156,12.45442,12.45442,0,0,1-5.64914,3.25658l-1.26276.33231a63.963,63.963,0,0,1,3.58887,10.76663c.99692,4.38641,1.26275,16.21641,1.26275,16.21641l-1.12983.3323c-3.323.864-6.84545,1.66152-10.6337,2.65842l-2.25968.59816-.06646-2.32613c-.13291-7.77591-2.79133-15.81764-5.7156-22.26434l-4.98455,27.38181-1.12984.3323c-3.19012.864-6.38024,1.66152-9.50388,2.45905l-3.456.93045Z" fill="#fff"/><path d="M217.92461,60.46624c-4.25348,1.06336-8.57344,2.1932-12.82692,3.25658,1.1963-6.84546,2.52551-13.75736,3.7218-20.60282,4.31994-1.12984,8.6399-2.25966,12.89338-3.323C220.51657,46.64242,219.18736,53.48787,217.92461,60.46624Zm-.59814,6.51314c1.19628-.26583,2.32611-.59814,3.456-.864,4.12056-1.12982,6.51315-3.65532,7.17775-7.51005,1.46214-7.90883,2.79135-15.81765,4.32-23.72647.6646-3.98763-.99692-5.51623-5.11748-4.45287-9.03866,2.32613-18.0773,4.65226-27.116,7.04483-3.92119,21.73266-7.90882,43.4653-11.83,65.19794l10.30141-2.65842,5.78208-31.7682c4.187,8.10819,8.17467,18.34315,8.374,28.11286,3.58888-.93045,7.11129-1.79443,10.63372-2.72488a2.8795,2.8795,0,0,0,.06645-.33231C223.175,83.12933,221.38056,75.08759,217.32647,66.97938Z" fill="#2e2a25"/><path d="M236.46716,67.04587l2.06027.864c3.0572,1.19627,5.915,2.459,8.70635,3.65532l1.32923.5317-1.12984,6.18084q4.3864-.99692,8.57344-1.79445a21.73913,21.73913,0,0,0-.93047-8.90572,15.06078,15.06078,0,0,0-4.65224-7.37714V60.134a22.31655,22.31655,0,0,1-7.4436-10.03556,25.943,25.943,0,0,1-1.06336-13.82384l2.12674-11.89645,1.19629-.26583c12.02939-2.85783,22.72955-5.051,32.69865-6.97839l2.592-.39875-4.65226,25.388-2.12674-.93044c-2.92427-1.26276-6.04792-2.65842-9.17158-3.92118l-1.32921-.53168.93045-5.2504c-2.79134.59814-5.58269,1.1963-8.57342,1.86089-.864,6.31378.864,11.56417,4.91808,14.8872a24.66521,24.66521,0,0,1,5.11748,5.71562,26.03494,26.03494,0,0,1,3.1901,7.04484,39.73307,39.73307,0,0,1,1.26276,8.10819,43.73309,43.73309,0,0,1-.6646,8.77283l-1.46214,7.70943-1.1963.19939c-9.83617,1.79443-20.46989,4.05409-32.36634,6.9119l-2.72489.59816Z" fill="#fff"/><path d="M234.0081,91.10463c1.26275-7.1113,2.592-14.3555,3.85472-21.53325,2.92427,1.19629,5.84853,2.39257,8.70635,3.65532-.46523,2.45905-.93045,4.98455-1.32921,7.4436,4.12054-.93045,8.24111-1.728,12.42813-2.592,1.26277-7.04484-1.46213-15.75119-6.04791-19.2736-6.31377-4.71872-9.57034-12.56108-7.84237-22.1314.66462-3.58889,1.26276-7.11131,1.99383-10.70016,10.89955-2.592,21.73264-4.91809,32.49927-6.91193-1.19629,6.91193-2.459,13.6909-3.7218,20.60282-3.12364-1.32923-6.11439-2.65844-9.238-3.92119l1.19629-6.38022c-4.187.864-8.30758,1.728-12.42815,2.65842-1.32921,7.51005.53168,13.89029,5.31686,17.81146,7.4436,6.04793,10.36787,16.28287,8.30759,27.97995-.39877,2.19321-.79753,4.32-1.1963,6.44669C255.67428,86.253,244.84119,88.57912,234.0081,91.10463Z" fill="#2e2a25"/><polygon points="301.532 78.942 285.781 88.712 277.939 75.686 275.081 89.908 193.534 109.448 251.288 100.276 160.237 121.677 266.507 103.932 258.067 119.483 273.951 108.85 281.262 121.942 285.582 102.868 303.858 102.868 292.56 94.494 301.532 78.942" fill="#8b8d8d"/><path d="M285.2493,96.42148c.06646,2.7249-2.12675,5.58271-5.11748,6.64607-2.85781.99692-5.38332-.39874-5.51623-2.99072-.06646-2.592,2.19319-5.5827,5.11746-6.64607C282.59087,92.36739,285.0499,93.76306,285.2493,96.42148Z" fill="#2e2a25"/><path d="M248.2307,103.93154l21.201-2.06028-4.31994,9.57034,9.30449-4.85164,5.71563,9.03866-3.92118-11.29831-6.779,2.06028,3.52243-8.90574ZM280.73,84.19271l4.71869,5.98147,10.966-5.98147-5.98145,10.70017,8.374,5.78208-11.4977-4.187,2.92428-5.98145-5.64916,1.86089Z" fill="#fff"/></svg>