<?xml version="1.0" encoding="UTF-8" standalone="no"?>
<svg
   xmlns:dc="http://purl.org/dc/elements/1.1/"
   xmlns:cc="http://creativecommons.org/ns#"
   xmlns:rdf="http://www.w3.org/1999/02/22-rdf-syntax-ns#"
   xmlns:svg="http://www.w3.org/2000/svg"
   xmlns="http://www.w3.org/2000/svg"
   xmlns:sodipodi="http://sodipodi.sourceforge.net/DTD/sodipodi-0.dtd"
   xmlns:inkscape="http://www.inkscape.org/namespaces/inkscape"
   version="1.1"
   id="svg2"
   xml:space="preserve"
   width="717.4267"
   height="768"
   viewBox="0 0 717.4267 768"
   sodipodi:docname="SStorm_Primary_Icon_pms.eps"><metadata
     id="metadata8"><rdf:RDF><cc:Work
         rdf:about=""><dc:format>image/svg+xml</dc:format><dc:type
           rdf:resource="http://purl.org/dc/dcmitype/StillImage" /></cc:Work></rdf:RDF></metadata><defs
     id="defs6" /><sodipodi:namedview
     pagecolor="#ffffff"
     bordercolor="#666666"
     borderopacity="1"
     objecttolerance="10"
     gridtolerance="10"
     guidetolerance="10"
     inkscape:pageopacity="0"
     inkscape:pageshadow="2"
     inkscape:window-width="640"
     inkscape:window-height="480"
     id="namedview4" /><g
     id="g10"
     inkscape:groupmode="layer"
     inkscape:label="ink_ext_XXXXXX"
     transform="matrix(1.3333333,0,0,-1.3333333,0,768)"><g
       id="g12"
       transform="scale(0.1)"><path
         d="M 5377.12,3799.26 2688.33,5760 3.52734,3799.26 -0.00390625,2725.72 C -0.00390625,1680.88 527.922,891.719 1119.02,469.57 1667.87,77.5898 2254.43,0 2688.33,0 c 433.89,0 1024.45,77.5898 1573.3,469.57 591.1,422.149 1119.03,1211.31 1119.03,2256.15 l -3.54,1073.54"
         style="fill:#2a4c31;fill-opacity:1;fill-rule:nonzero;stroke:none"
         id="path14" /><path
         d="m 4373.74,1043.78 c -263.51,264.3 -475.91,611.92 -594.88,975.5 H 3636.38 C 3758.45,1622.09 3988.6,1239.93 4275.74,950.961 3841.83,560.332 3268.55,343.449 2688.33,343.191 c -580.22,0.258 -1151.6,217.141 -1585.5,607.77 287.13,288.969 517.28,671.129 639.35,1068.319 H 1599.7 c -118.97,-363.58 -331.37,-711.2 -594.88,-975.5 -0.05,0.05 -0.1,0.1 -0.15,0.15 -412.354,415.02 -652.303,955.39 -685.42,1534.51 h 4740.06 c -33.12,-579.12 -273.07,-1119.49 -685.42,-1534.51 -0.05,-0.05 -0.1,-0.1 -0.15,-0.15 z M 317.824,3642.15 991.402,4134.07 c 246.228,-242.67 449.518,-558.73 575.058,-893.95 44.87,9.35 89.77,17.99 134.31,26.09 -129.11,354.03 -341.03,689.16 -598.99,948.47 L 2688.33,5379.16 4276.77,4214.68 c -257.95,-259.31 -469.86,-594.44 -598.98,-948.47 44.54,-8.1 89.44,-16.74 134.31,-26.09 125.54,335.22 328.83,651.28 575.06,893.95 l 673.58,-491.92 3.02,-917.36 H 314.797 Z M 5198.72,2725.19 5195.49,3710.87 2688.33,5546.73 183.063,3710.87 179.836,2725.19 C 177.652,2055.06 436.578,1424.16 908.91,948.77 1380.74,473.891 2024.7,208.219 2688.33,208.219 c 663.62,0 1309.49,265.672 1781.32,740.551 472.33,475.39 731.26,1106.29 729.07,1776.42"
         style="fill:#f7e110;fill-opacity:1;fill-rule:nonzero;stroke:none"
         id="path16" /><path
         d="m 2642.26,2026.96 h 284.34 l -132.02,-304.67 h 172.63 l -467.15,-700.73 121.89,538.25 H 2449.3 l 192.96,467.15"
         style="fill:#69c32f;fill-opacity:1;fill-rule:nonzero;stroke:none"
         id="path18" /><path
         d="m 3227.56,1899.78 c -83.2,-351.62 -211.61,-960.05 -260.35,-1539.909 46.13,5.41 91.89,11.961 137.17,19.981 49.82,561.296 173.76,1147.468 254.55,1488.828 l 36.35,153.69 -139.45,0.47 z m -1104.11,126.74 -139.27,0.44 35.38,-153.94 c 78.63,-342.13 198.89,-929.668 245,-1491.668 44.74,-8.071 89.88,-14.582 135.25,-20.09 -52.34,632.84 -202.29,1341.098 -274.68,1657.778 z m -625.4,339.22 -218.9,-150.57 h 2821.17 l -218.91,150.57 z m 2686.61,593.77 c -344.83,190.09 -1059.57,185.6 -1059.1,326.78 0.22,71.1 145.89,144.2 145.89,144.2 0,0 -1.6,35.2 -45.35,55.08 -67.19,30.52 -241.89,59.91 -537.77,59.91 -253.63,0 -467.94,-29.46 -534.97,-59.91 -43.75,-19.88 -45.34,-55.08 -45.34,-55.08 0,0 145.66,-73.1 145.88,-144.2 0.47,-141.18 -714.26,-136.69 -1059.1,-326.78 h 2985.71 l -0.02,0.01 z M 2812.05,3798.8 c -0.02,9.98 -26.88,13.15 -54.97,13.86 l -68.75,1066.96 -65.95,-1066.96 c -28.09,-0.71 -54.95,-3.88 -54.97,-13.86 l -0.39,-112.19 h 245.41 l -0.38,112.19"
         style="fill:#ffffff;fill-opacity:1;fill-rule:nonzero;stroke:none"
         id="path20" /></g></g></svg>
