<?xml version="1.0" encoding="UTF-8" standalone="no"?>
<svg xmlns:rdf="http://www.w3.org/1999/02/22-rdf-syntax-ns#" xmlns="http://www.w3.org/2000/svg" height="197.93848" width="246.40002" version="1.1" xmlns:cc="http://creativecommons.org/ns#" xmlns:dc="http://purl.org/dc/elements/1.1/" viewBox="0 0 246.40002 197.93848"><path d="M9.73061,190.59087,0,197.93848l7.49654-9.681L22.24139,169.541,13.5037,171.8247l-2.53194.695.49646-2.58159.44681-2.28371-3.57451.94327-2.53194.6454.5461-2.53194,6.70221-32.26989.24823-.94327.79433-.29788a24.8926,24.8926,0,0,1,.24824-3.77309,43.44734,43.44734,0,0,1,.99291-5.80857,7.25968,7.25968,0,0,0-1.1915-3.42558c-.04965-.09929-.695-.99292-5.41141-6.305L5.95752,110.8098,4.3192,108.9729l2.33336-.79433,32.667-10.82282c1.14185-7.149,3.32628-18.71653,3.37592-18.81583l.04965-.44681.29787-.34752c5.90787-6.70221,11.36893-9.58167,18.76618-12.16327l7.993-2.87946c-2.92911-15.48952,1.19151-35.84437,21.49671-48.00765a46.50082,46.50082,0,0,1,23.7804-6.60289c.6454,0,1.2908,0,1.88655.04962,16.83.695,30.7805,9.43275,38.52528,23.979l2.87946-1.04258a74.535,74.535,0,0,1,11.51785-3.37591,27.97075,27.97075,0,0,1,5.21285-.49646,20.07926,20.07926,0,0,1,7.84406,1.48936L190.988,31.972,204.09458,20.4045l1.93619-1.73762.695,2.4823,1.93619,6.40435L234.329,8.837,245.4,0l-8.837,11.17034-22.2414,28.00033,16.78034-5.61,4.766-1.58868-2.92912,4.1206-1.78725,2.43268,5.01426-1.688,4.766-1.58869-2.92912,4.071-37.18481,51.88,12.759,26.06413.844,1.78726-1.88654.49645L129.8242,141.39172a21.25994,21.25994,0,0,1-5.16318.74469,15.83179,15.83179,0,0,1-4.41849-.6454,24.04484,24.04484,0,0,1-9.63132,4.915l-16.28386,4.3192a17.75714,17.75714,0,0,1-4.766.6454h-.39716l-.14894.79434-.94328.24822-25.22015,6.65257L40.26288,179.073l-1.93619,1.688-.69505-2.43265L35.69545,171.924Z" fill="#fff"/><path d="M14.09946,165.42035,7.94336,167.009l6.75185-32.22024,1.04256-.34752a34.7568,34.7568,0,0,1,.29788-4.81566c.29787-2.68089.74469-4.915.89362-5.61a7.83932,7.83932,0,0,0-1.39008-4.61707c-.44682-.74469-5.61-6.50363-5.75893-6.7022L7.149,109.71758,40.70969,98.54724c1.09221-7.04973,3.47522-19.70945,3.47522-19.70945,5.65964-6.40433,10.72353-9.08521,18.07113-11.71644l9.33344-3.32629c-3.82273-17.22714,2.13478-36.63871,20.45414-47.66012a44.21963,44.21963,0,0,1,24.77334-6.305,43.23552,43.23552,0,0,1,37.78057,24.32652l4.21991-1.48937a69.02887,69.02887,0,0,1,11.17035-3.27666,21.25942,21.25942,0,0,1,12.16326.844l8.93628,3.67381L204.9882,21.64565l2.53194,8.6384L235.024,10.07813,209.45633,42.348l21.99316-7.34761L226.73314,41.504l9.78024-3.27665L198.73279,90.85211l13.10656,26.95777-82.7102,21.89387a15.14239,15.14239,0,0,1-9.48237-.14894,23.031,23.031,0,0,1-9.681,5.21283L93.6323,149.03719a15.137,15.137,0,0,1-6.00717.44681l-.24823,1.19151-25.56767,6.75185-22.93644,20.3052-2.53194-8.6384L8.78734,189.30007,26.56059,166.7608l-13.5037,3.52486Z" fill="#c41230"/><path d="M188.20786,40.7097,203.201,28.09964l2.33337,7.94336,11.56749-8.837L203.59813,43.98633l-.69507-7.39725L187.11565,52.4758,224.59835,39.965,190.54123,87.37691l12.41149,25.46838-79.68178,21.04989c-2.97875.79433-6.454.89363-9.33345-.74469a21.26,21.26,0,0,1-9.82989,5.75894l-16.33353,4.36884a12.03564,12.03564,0,0,1-7.24831-.09929l-.49646,2.13478-13.20583,3.52486L40.51111,171.229l-2.28371-7.94336-11.56752,8.78734L39.66713,155.938l-28.39749,7.4469,5.61-26.61024,1.539-.44681a34.69852,34.69852,0,0,1,.04965-6.454c.29788-2.63124.79434-4.86531.89363-5.46106.34752-1.98584-.49646-4.3192-1.688-6.40432-.6454-.99293-6.05681-7.09938-6.05681-7.09938l31.277-10.376c1.1915-7.89371,3.0284-18.5676,3.27663-20.35484,5.21283-5.90789,9.63132-8.09231,16.78034-10.62424l11.6668-4.17027c-4.56743-16.78032.695-36.24156,18.71653-47.06437A41.98719,41.98719,0,0,1,116.668,12.3122c17.87254.79433,30.63155,11.36892,36.48978,24.97195l6.305-2.28373c6.80149-2.4823,14.6952-5.26248,21.54635-2.4823l7.69512,3.1277Zm-147.945,115.129.6454,6.85116,9.48238-9.48239Z" fill="#fdbb30"/><path d="M22.44,138.71084c-1.88654-4.36885.29788-13.603.29788-13.603,1.0922-6.305-4.9646-12.65973-4.9646-12.65973l27.05705-8.98592.6454-3.67379a34.74462,34.74462,0,0,1,10.02849-6.85115l.29787-1.93619a26.42706,26.42706,0,0,0-8.93627,6.05681l-1.04256,1.09221,1.58866-8.43982a31.70655,31.70655,0,0,1,9.43275-6.454l.24822-1.88655a27.35319,27.35319,0,0,0-8.837,6.05681l-1.0922.89363L48.653,81.22081a28.15376,28.15376,0,0,1,7.84406-6.1561,50.26558,50.26558,0,0,1,7.34762-3.02841l97.00821-34.50393a71.0686,71.0686,0,0,1,9.82991-2.97877,21.29657,21.29657,0,0,1,6.35468-.39717c2.13477.24824,7.94336,2.43265,9.03556,2.87947l-1.29079,8.14194-5.85823-1.73762a22.26911,22.26911,0,0,0-11.96467.09929l-.29788,2.23408c4.3192-1.04257,7.49654-2.33337,17.47538,1.539l-1.39009,9.33344L177.534,55.00774a23.14923,23.14923,0,0,0-12.11361-.09929l-.29788,2.23406c4.2199-.94326,7.64547-1.88655,15.73776,1.09222l35.14934-11.7661L186.81778,87.17832l11.56751,23.58184-75.80939,20.057c-3.62416.99292-6.95045.49646-8.78735-2.23408a19.24765,19.24765,0,0,1-10.376,7.24831l-16.28388,4.21991c-3.6738.99293-6.85114.24824-8.43981-2.9291l-1.2908,5.5107L15.68812,158.8671l4.071-19.46122ZM151.4202,37.97916,76.9016,64.5894a48.09175,48.09175,0,0,1-1.43973-7.44689,45.28669,45.28669,0,0,1,.09929-7.7944,41.62874,41.62874,0,0,1,1.688-7.84408,40.93255,40.93255,0,0,1,3.27663-7.39725,33.55363,33.55363,0,0,1,4.51778-6.35468,37.14726,37.14726,0,0,1,5.56035-5.26246A36.104,36.104,0,0,1,97.00822,18.369a39.10256,39.10256,0,0,1,7.04972-2.73054,39.67936,39.67936,0,0,1,7.54619-1.43973,40.89447,40.89447,0,0,1,7.79441.09929,41.63143,41.63143,0,0,1,7.84408,1.688,40.93171,40.93171,0,0,1,7.39723,3.27662,35.213,35.213,0,0,1,6.3547,4.51781,37.14546,37.14546,0,0,1,5.26247,5.56035,41.36609,41.36609,0,0,1,4.12061,6.40432C150.72515,36.44015,151.07267,37.23448,151.4202,37.97916Z"/><path d="M141.04419,41.653c-.44681-.44679-.89363-.9929-1.24115-1.29079-.79433-.9929-1.8369-2.13476-3.02839-3.37591a49.30751,49.30751,0,0,0-4.26956-4.02134,56.80046,56.80046,0,0,0-13.85123-8.29087c-7.8937-3.42556-14.34768-3.87238-19.11369-3.27662a35.71287,35.71287,0,0,1,26.56058-1.78726,32.6275,32.6275,0,0,1,4.915,1.93619c2.58158,1.88654,11.46822,11.96467,12.8583,19.01441ZM80.42647,63.29861a36.518,36.518,0,0,1-1.09221-13.55335c5.26247-.4468,16.5321.49646,31.52518,2.6809Zm79.97965-22.98608c5.80857-2.08512,12.759-4.46813,17.87255-2.63123l-.14894,1.29079c-5.46106-1.48937-12.46113.99293-17.92219,2.87948L63.249,75.75975c-3.922,1.39009-8.837,3.07805-13.25547,7.24832l.14894-1.09222c4.26956-4.3192,9.08521-6.0568,13.35477-7.49654ZM157.22879,63.3979c5.75892-1.88655,12.70935-4.071,17.82289-2.03548l-.14894,1.29079c-5.461-1.68794-12.41149.54611-17.87254,2.28371L60.51844,95.71743c-3.87239,1.24115-8.73769,2.78018-13.15618,6.85115l.14893-1.09222C51.7311,97.3061,56.54675,95.71743,60.717,94.377Z" fill="#c41230"/><path d="M145.85985,39.965c-.79432-3.37594-3.32628-8.48947-9.48237-16.03565A34.87436,34.87436,0,0,1,148.64,38.97209ZM116.817,50.29137c-26.65988-4.36885-35.54651-3.7731-37.83023-3.42556.29788-1.48937.69505-2.92912,1.14187-4.41849A36.52787,36.52787,0,0,1,91.29893,25.81591c2.97877-1.63832,11.46823-4.81566,26.16342,1.19151,10.376,4.26956,17.57468,11.81574,21.00025,15.63847Zm70.10011,56.74534-15.19167,4.12061-5.26247-13.00723-4.12062,15.58883-14.24839,3.82274,11.915-46.02181,14.7945-4.766-4.21991,15.93636,13.95052-19.16335,15.73777-5.11354-21.44706,28.894Zm-42.24872,11.46822-20.25555,5.56035c-4.51779,1.1915-6.60293-.54611-6.305-5.36176a32.01486,32.01486,0,0,1,.74469-4.46815l4.81565-19.36192c1.98585-8.29088-1.7376-10.525-1.58867-10.77318l34.40466-11.36892-2.58159,9.97884L142.28534,86.384c-2.97875.89362-5.01423,3.52486-6.10645,7.69512L132.90225,107.136a11.46622,11.46622,0,0,0-.39716,2.33336c-.14895,2.383.94327,3.27664,3.27663,2.63123l11.36893-3.227Zm-41.40473-2.82982,3.12769-13.40441c1.09221-5.01424-.44682-4.86531-9.23415-1.58867-.14893.04965,1.93619,1.04256.99292,4.9646L95.221,118.00848a9.43978,9.43978,0,0,0-.34752,2.18442c-.0993,2.28371.844,3.12769,2.92911,2.58159C100.53309,121.98014,102.32034,119.64679,103.26362,115.67511ZM115.129,115.278c-1.98583,8.04264-5.70928,12.80865-11.17034,14.24839l-16.38317,4.46813c-4.071,1.09222-5.95752-.59575-5.70929-5.11353a26.46685,26.46685,0,0,1,.695-4.21991l4.26956-18.31936c1.8369-7.84406-1.34044-9.48239-1.39009-10.4753L114.434,86.43364c4.41849-1.43974,6.50362.24823,6.20575,5.01424a21.29486,21.29486,0,0,1-.7447,4.51777ZM74.32,137.61863l-11.31928,3.078,3.52487-15.73777-7.3476,2.13478-3.47522,15.58883-10.72353,2.9291,8.6384-39.31959,10.97175-3.62416-3.52486,15.8867,7.39725-2.28371,3.6738-16.08529,11.61716-3.82274ZM50.63889,107.136l-26.26272,8.58875c1.09221,1.24115,3.32628,2.28373,1.8369,9.33345l-.39716,2.13477a21.65348,21.65348,0,0,0-.54611,3.922c-.24823,4.12061,1.39009,5.70928,4.8653,4.71636l4.56743-1.39009c1.58867-.44681,2.33336.04966,2.28372,1.48938a3.70828,3.70828,0,0,1-.14894.99292,4.94239,4.94239,0,0,1-3.52486,4.071l-11.071,3.12769-1.688,7.993,15.63848-4.26956c4.51779-1.1915,7.54619-5.41142,9.13486-12.65972l.44681-2.18442a39.05461,39.05461,0,0,0,.6454-4.02133c.19859-4.26956-1.48938-5.90787-5.11353-4.81566l-4.71637,1.43973c-1.58867.44681-2.33336,0-2.28371-1.48938a8.04645,8.04645,0,0,1,.14893-.99291,4.96569,4.96569,0,0,1,3.62416-4.17026L48.802,115.57582Z" fill="#fff"/><path d="M73.2278,76.65338l-.29787,1.24114-3.227,1.04257-1.78725,8.88663-3.52487,1.14186,1.8369-8.837L63.1,81.17116l.24823-1.19151ZM84.94425,72.781l-1.8369,8.9859L87.228,80.32718l1.9362-9.08521,3.32628-1.14186-1.58868,7.8937a3.87893,3.87893,0,0,1-.89361,1.98584,8.052,8.052,0,0,1-3.32629,1.78725L83.157,82.85912c-2.23407.7447-2.92912.49645-3.02841,0a2.49176,2.49176,0,0,1,.14894-1.04256L81.8662,73.7739Zm15.39025,3.4752a2.48639,2.48639,0,0,1,.04965-1.19149l1.63832-8.14194,4.12061-1.39009-1.9362,9.38309,6.2554-2.03549-.24823,1.2908-6.60291,2.13478C101.32742,77.0009,100.53309,76.80231,100.3345,76.2562Zm32.36916-19.70944-.29787,1.3901-6.80149,2.2837-.695,3.42557,3.07805-1.04257a9.53767,9.53767,0,0,1,3.32628-.64539c.5461.04965.79434.44681.6454,1.24115l-.44682,1.93619A4.754,4.754,0,0,1,131.115,66.327c-.44681.7447-1.688,1.58869-4.21992,2.4823l-7.149,2.23408.29787-1.24115,7.00008-2.28371.79434-3.67381-3.42559,1.14187c-2.97875.9929-3.77307.49645-3.52485-.7447l.39717-1.98584c.29787-1.14184,1.2908-2.23406,4.41849-3.27663Zm18.91513-5.11353-3.87239,1.34043-1.24115,6.05682,3.922-1.34044Zm-7.69514,2.23408a5.09222,5.09222,0,0,1,1.78726-1.43973,13.43884,13.43884,0,0,1,2.5816-.94328L151.023,50.341a18.91007,18.91007,0,0,1,2.82982-.79433c1.09221-.14893,1.58867,0,1.78725.39718a3.40336,3.40336,0,0,1-.09928,1.68794l-1.688,8.43983-4.26955,1.39008.49645-2.53194L146.257,60.22056l-.49645,2.4823L141.54065,64.093l1.73762-8.48945A4.12512,4.12512,0,0,1,143.92365,53.66731ZM41.00757,142.83145a8.34432,8.34432,0,0,1-4.915,3.42558L22.1421,150.12941l.94327-4.56744,1.14186-.34751-.695,3.3263,14.09945-3.87238A7.78919,7.78919,0,0,0,41.00757,142.83145Zm7.19866-29.88688-.29787,1.2908-9.97884,3.12771a6.39456,6.39456,0,0,0-1.98584,1.09219,5.97388,5.97388,0,0,1,3.42557-2.73052Zm-21.29812,3.57451,1.88655-.59574c.59575,1.78726.695,4.2199-.09929,7.84405l-.39717,2.08515a23.87884,23.87884,0,0,0-.49646,3.62414c-.09929,2.73053.59575,4.02134,3.6738,3.12771l4.56743-1.34045c1.58867-.49646,3.7731-.29787,3.62416,3.02841a6.2608,6.2608,0,0,1-.24823,1.39008,6.85347,6.85347,0,0,1-2.532,4.36886,8.46446,8.46446,0,0,0,1.04257-2.73055,13.609,13.609,0,0,0,.24823-1.39008c.14894-3.27664-1.93619-3.52486-3.52486-3.078l-4.56743,1.39008c-3.02841.844-3.7731-.39715-3.62416-3.12769a20.6824,20.6824,0,0,1,.44681-3.52486l.44682-2.13478c.79433-3.77309.695-6.35468-.04965-8.14194C27.15634,117.01553,27.00741,116.76731,26.90811,116.51908Zm42.89412-.19859,3.32628-14.74483,1.39009-.39718-3.37593,14.74486ZM55.107,139.90233l-.29787,1.24115-8.14194,2.23408,7.89371-35.79474,1.24115-.44682-7.59584,34.55359Zm9.681-1.4397,3.57452-15.83709-8.73769,2.58159.29787-1.34044,10.12778-2.97875L66.4263,136.67536l7.298-1.98585L73.37674,136.03ZM87.77407,96.85928l2.18443-.74469c.59574,1.93619.79433,4.66673-.0993,8.63841L85.54,123.122a32.61941,32.61941,0,0,0-.59575,3.87238c-.14894,2.97875.695,4.41848,4.26956,3.42557l16.48246-4.56742a11.31788,11.31788,0,0,0,4.2199-2.13478,11.99283,11.99283,0,0,1-6.00716,4.02132l-16.38316,4.46813c-3.57452.99292-4.4185-.39716-4.21992-3.37592a18.45623,18.45623,0,0,1,.59575-3.87238l4.26956-18.369c1.04257-4.26956.695-7.149-.04965-9.0852A1.66267,1.66267,0,0,1,87.77407,96.85928Zm19.95768,5.70928c.49646-2.48229.79434-5.65963-1.9362-6.00715-1.39008-.14893-5.36176,1.2908-9.03556,2.4823-.64539-.59576-1.09221-.99293-.89363-1.04257,4.21991-1.19151,10.07813-3.52485,11.71644-3.32629,2.78018.34754,2.532,3.52488,1.93619,6.00718l-3.078,13.50369c-.79435,3.32629-2.23408,5.80859-4.12062,7.24833a15.7743,15.7743,0,0,0,2.33336-5.46108Zm45.42606-23.03571-.39717,1.58867-10.57459,3.37592a8.03393,8.03393,0,0,0-2.82982,1.43973,9.41882,9.41882,0,0,1,4.766-3.47523ZM124.81,85.0932l2.33337-.79434a17.493,17.493,0,0,1-.14895,8.93628l-4.86531,19.46121a28.54686,28.54686,0,0,0-.695,4.02132c-.19858,3.227.7447,4.71638,4.766,3.62416l17.77327-4.915-.34752,1.539-19.31228,5.26248c-3.97169,1.0922-4.91495-.39718-4.71638-3.57452a29.04752,29.04752,0,0,1,.695-4.071l4.81567-19.41156c1.14186-4.61708.64539-7.74479-.14895-9.78027Zm44.68137,1.43971L185.27875,65.3341l2.4823-.79434L168.94522,89.06487Zm-7.94334,23.979-.39718,1.58867-10.87247,2.97875,10.92213-41.95082,1.688-.49647-10.57459,40.46147Zm11.17034-1.58866L167.158,95.17133l1.19149-4.41849,6.50364,16.08528,8.93626-2.43264.54611,1.29078Z" fill="#fdbb30"/></svg>